<?xml version="1.0" encoding="utf-8"?>
<!-- Generator: Adobe Illustrator 23.0.1, SVG Export Plug-In . SVG Version: 6.00 Build 0)  -->
<svg version="1.1" id="Layer_1" xmlns="http://www.w3.org/2000/svg" xmlns:xlink="http://www.w3.org/1999/xlink" x="0px" y="0px"
	 viewBox="0 0 512 512" style="enable-background:new 0 0 512 512;" xml:space="preserve">
<style type="text/css">
	.st0{fill:#919191;}
</style>
<path class="st0" d="M467,0H45C20.2,0,0,20.2,0,45v180c0,24.8,20.2,45,45,45h15v157.9c0,6.9,1.6,13.8,4.7,20l26.8,55.6
	c2.5,5.2,7.8,8.5,13.5,8.5h180c5.8,0,11-3.3,13.5-8.5l26.8-55.6c3.1-6.2,4.7-13.1,4.7-20V375c0-24.8-20.2-45-45-45
	c-5.9,0-11.4,1.1-16.6,3.2c-5.2-19.1-22.7-33.2-43.4-33.2c-11.5,0-22,4.4-30,11.5c-8-7.1-18.5-11.5-30-11.5c-5.3,0-10.3,0.9-15,2.6
	V270h317c24.8,0,45-20.2,45-45V45C512,20.2,491.8,0,467,0z M165,330c8.3,0,15,6.7,15,15v60c0,8.3,6.7,15,15,15s15-6.7,15-15v-60
	c0-8.3,6.7-15,15-15s15,6.7,15,15v60c0,8.3,6.7,15,15,15c8.3,0,15-6.7,15-15v-30c0-8.3,6.7-15,15-15s15,6.7,15,15v52.9
	c0,2.3-0.5,4.6-1.6,6.7c0,0.1-0.1,0.1-0.1,0.2L275.6,482H114.4l-22.7-47.2c0-0.1-0.1-0.1-0.1-0.2c-1-2.1-1.6-4.4-1.6-6.7V225
	c0-8.3,6.7-15,15-15s15,6.7,15,15v180c0,8.3,6.7,15,15,15s15-6.7,15-15v-60C150,336.7,156.7,330,165,330z M482,225
	c0,8.3-6.7,15-15,15H150v-15c0-24.8-20.2-45-45-45s-45,20.2-45,45v15H45c-8.3,0-15-6.7-15-15V45c0-8.3,6.7-15,15-15h422
	c8.3,0,15,6.7,15,15V225z"/>
<path class="st0" d="M135,60h-30c-8.3,0-15,6.7-15,15s6.7,15,15,15h30c8.3,0,15-6.7,15-15S143.3,60,135,60z"/>
<path class="st0" d="M225,60h-30c-8.3,0-15,6.7-15,15s6.7,15,15,15h30c8.3,0,15-6.7,15-15S233.3,60,225,60z"/>
<path class="st0" d="M315,60h-30c-8.3,0-15,6.7-15,15s6.7,15,15,15h30c8.3,0,15-6.7,15-15S323.3,60,315,60z"/>
<path class="st0" d="M407,60h-32c-8.3,0-15,6.7-15,15s6.7,15,15,15h32c8.3,0,15-6.7,15-15S415.3,60,407,60z"/>
<path class="st0" d="M135,120h-30c-8.3,0-15,6.7-15,15s6.7,15,15,15h30c8.3,0,15-6.7,15-15S143.3,120,135,120z"/>
<path class="st0" d="M225,120h-30c-8.3,0-15,6.7-15,15s6.7,15,15,15h30c8.3,0,15-6.7,15-15S233.3,120,225,120z"/>
<path class="st0" d="M315,120h-30c-8.3,0-15,6.7-15,15s6.7,15,15,15h30c8.3,0,15-6.7,15-15S323.3,120,315,120z"/>
<path class="st0" d="M407,120h-32c-8.3,0-15,6.7-15,15s6.7,15,15,15h32c8.3,0,15-6.7,15-15S415.3,120,407,120z"/>
<path class="st0" d="M225,180h-30c-8.3,0-15,6.7-15,15s6.7,15,15,15h30c8.3,0,15-6.7,15-15S233.3,180,225,180z"/>
<path class="st0" d="M315,180h-30c-8.3,0-15,6.7-15,15s6.7,15,15,15h30c8.3,0,15-6.7,15-15S323.3,180,315,180z"/>
<path class="st0" d="M407,180h-32c-8.3,0-15,6.7-15,15s6.7,15,15,15h32c8.3,0,15-6.7,15-15S415.3,180,407,180z"/>
</svg>
