<?xml version="1.0" encoding="utf-8"?>
<!-- Generator: Adobe Illustrator 23.0.1, SVG Export Plug-In . SVG Version: 6.00 Build 0)  -->
<svg version="1.1" id="Capa_1" xmlns="http://www.w3.org/2000/svg" xmlns:xlink="http://www.w3.org/1999/xlink" x="0px" y="0px"
	 viewBox="0 0 512 512" style="enable-background:new 0 0 512 512;" xml:space="preserve">
<style type="text/css">
	.st0{fill:#FFFFFF;}
</style>
<g>
	<g>
		<path class="st0" d="M265.4,245.3c-3.9,0-7.1,3.2-7.1,7.1c0,3.9,3.2,7.1,7.2,7.2c3.9,0,7.1-3.2,7.1-7.1
			C272.6,248.5,269.4,245.3,265.4,245.3z"/>
	</g>
</g>
<g>
	<g>
		<path class="st0" d="M264.7,116.7c-19.7-0.1-35.6,15.8-35.5,35.6c0.1,19.7,16.2,35.8,35.9,35.8c19.7,0.1,35.6-15.9,35.5-35.6
			C300.5,132.8,284.4,116.8,264.7,116.7z M286.3,152.5c0.1,11.8-9.5,21.4-21.3,21.3c-11.8,0-21.5-9.7-21.6-21.5
			c-0.1-11.8,9.5-21.4,21.3-21.3C276.6,131,286.2,140.7,286.3,152.5z"/>
	</g>
</g>
<g>
	<g>
		<path class="st0" d="M264,2.5c-2,0-3.9,0.8-5.2,2.3c-1.1,1.2-27,29.4-47.7,73c-16.5,35-24.8,69.6-24.6,103
			c0,7.5,0.4,15.1,1.1,22.7c-26.2,6.7-36.2,22.9-40,35.7c-8.8,29.5,7.5,69.4,27.6,89.5c2.1,2,5.1,2.7,7.8,1.6
			c0.9-0.4,1.7-0.9,2.3-1.5c1.3-1.3,2.1-3.1,2.1-5c-0.1-20.3,13-32.1,17.6-35.6l3.5,0c4.9,11.8,10.4,22.8,16.4,32.9
			c2.2,3.6,5.5,6.5,9.4,8.2c-2.6,7.1-3.9,15.1-3.9,23.2c0.2,26,29.4,60.4,30.6,61.9c1.4,1.6,3.4,2.5,5.4,2.5c1.9,0,3.7-0.7,5-2.1
			c0.1-0.1,0.3-0.3,0.4-0.4c1.2-1.4,30.1-35.7,29.9-61.6c0-8.2-1.5-16.2-4.2-23.3c4.1-1.8,7.3-4.7,9.3-8.1c5.9-10,11.3-21.1,16-32.8
			l3.5,0c4.6,3.6,17.9,15.5,18,35.8c0,2.9,1.8,5.5,4.4,6.6c2.7,1.1,5.7,0.5,7.8-1.5c19.9-19.9,35.7-59.7,26.6-89.3
			c-4-12.8-14.2-29.1-40.4-36c0.6-7.6,0.9-15.2,0.8-22.7c-0.2-33.3-8.9-68.1-25.8-103.2c-21.1-43.8-47.4-72.2-48.5-73.4
			C267.9,3.3,266,2.5,264,2.5z M175.5,306.4c-12.2-18.4-19.8-44.2-14.2-63.1c3.8-12.7,13.2-21.2,28-25.5
			c2.7,18.9,7.3,37.7,13.7,55.9c-0.1,0-2.2-0.2-4.2,1.1C197.9,275.2,181.7,285.6,175.5,306.4z M287.5,352.5
			c0.1,13.9-12.4,33.8-21.2,45.5c-8.9-11.8-21.6-31.8-21.7-45.7c0-7.8,1.5-15.2,4.3-21.4l34,0.1
			C285.8,337.2,287.4,344.7,287.5,352.5z M294.6,313.8c-1.1,1.8-3.3,3-5.8,3c-13.1,0-18.2-0.1-19.8-0.1c-2.9,0-10.2,0-26.1-0.1
			c-2.5,0-4.8-1.2-5.9-3c-4.7-7.9-9.1-16.5-13.1-25.6l83.5,0.3C303.5,297.3,299.2,305.9,294.6,313.8z M369.6,244
			c5.9,19-1.5,44.7-13.5,63c-4.3-14-15-26.7-23.8-32c-2.1-1.2-3.9-1-4.1-1c6.2-18.1,10.6-36.8,13-55.7
			C356.2,222.7,365.7,231.3,369.6,244z M329.3,181.2c0.1,9.1-0.4,18.4-1.3,27.6c-2.3,22.2-7.3,44.1-14.9,65.2l-95-0.4
			c-7.9-21.1-13.2-43.1-15.7-65.3c-1-9.2-1.6-18.5-1.7-27.6c-0.2-29.9,7-61.1,21.4-92.8l84.6,0.3
			C321.6,120.1,329.2,151.3,329.3,181.2z M299.7,74l-70.6-0.3c13.1-25.2,27.5-44.1,35-53.2C271.7,29.7,286.3,48.7,299.7,74z"/>
	</g>
</g>
<g>
	<g>
		<path class="st0" d="M337.4,345.5c-3.9,0-7.1,3.2-7.1,7.1l0.2,28.6c0,3.9,3.2,7.2,7.2,7.2c3.9,0,7.1-3.2,7.1-7.1l-0.2-28.6
			C344.6,348.7,341.4,345.5,337.4,345.5z"/>
	</g>
</g>
<g>
	<g>
		<path class="st0" d="M194.6,345c-3.9,0-7.1,3.2-7.1,7.1l0.2,28.6c0,3.9,3.2,7.2,7.2,7.2c3.9,0,7.1-3.2,7.1-7.1l-0.2-28.6
			C201.8,348.2,198.5,345,194.6,345z"/>
	</g>
</g>
<g>
	<g>
		<path class="st0" d="M309.1,388.3c-3.9,0-7.1,3.2-7.1,7.1l0.4,68.4c0,3.9,3.2,7.2,7.2,7.2c3.9,0,7.1-3.2,7.1-7.1l-0.4-68.4
			C316.3,391.5,313.1,388.3,309.1,388.3z"/>
	</g>
</g>
<g>
	<g>
		<path class="st0" d="M268.9,428.5c-3.9,0-7.1,3.2-7.1,7.1l0.4,68.4c0,3.9,3.2,7.2,7.2,7.2c3.9,0,7.1-3.2,7.1-7.1l-0.4-68.4
			C276.1,431.7,272.9,428.5,268.9,428.5z"/>
	</g>
</g>
<g>
	<g>
		<path class="st0" d="M223.4,387.9c-3.9,0-7.1,3.2-7.1,7.1l0.4,68.4c0,3.9,3.2,7.2,7.2,7.2c3.9,0,7.1-3.2,7.1-7.1l-0.4-68.4
			C230.6,391.2,227.3,387.9,223.4,387.9z"/>
	</g>
</g>
<g>
	<g>
		<path class="st0" d="M265.2,202.4c-3.9,0-7.1,3.2-7.1,7.1l0.1,14.3c0,3.9,3.2,7.2,7.2,7.2c3.9,0,7.1-3.2,7.1-7.1l-0.1-14.3
			C272.3,205.6,269.1,202.4,265.2,202.4z"/>
	</g>
</g>
</svg>
