<svg width="20" height="20" viewBox="0 0 20 20" fill="none" xmlns="http://www.w3.org/2000/svg">
<circle cx="10" cy="10" r="10" fill="#27FE3D"/>
<g clip-path="url(#clip0)">
<mask id="path-3-inside-1" fill="white">
<path d="M4.89473 10.6823C4.77546 10.8375 4.71742 11.0352 4.73159 11.2395C4.74575 11.4438 4.82984 11.6297 4.96922 11.7625L8.35231 15.0037C8.47798 15.1238 8.63382 15.1881 8.79742 15.1881C8.81753 15.1881 8.83809 15.1871 8.85866 15.1851C9.04374 15.1667 9.21054 15.0681 9.32844 14.9082L15.1148 7.03702C15.2309 6.87869 15.2853 6.67949 15.2675 6.4757C15.2492 6.27191 15.1619 6.08804 15.0202 5.9578L13.9609 4.98533C13.6689 4.71769 13.2366 4.76468 12.9962 5.09105L8.54288 11.1491L6.75331 9.43552C6.46632 9.16175 6.03309 9.19802 5.78678 9.51877L4.89473 10.6823Z"/>
</mask>
<path d="M4.89473 10.6823C4.77546 10.8375 4.71742 11.0352 4.73159 11.2395C4.74575 11.4438 4.82984 11.6297 4.96922 11.7625L8.35231 15.0037C8.47798 15.1238 8.63382 15.1881 8.79742 15.1881C8.81753 15.1881 8.83809 15.1871 8.85866 15.1851C9.04374 15.1667 9.21054 15.0681 9.32844 14.9082L15.1148 7.03702C15.2309 6.87869 15.2853 6.67949 15.2675 6.4757C15.2492 6.27191 15.1619 6.08804 15.0202 5.9578L13.9609 4.98533C13.6689 4.71769 13.2366 4.76468 12.9962 5.09105L8.54288 11.1491L6.75331 9.43552C6.46632 9.16175 6.03309 9.19802 5.78678 9.51877L4.89473 10.6823Z" fill="white"/>
<path d="M4.89473 10.6823L7.27381 12.5098L7.27552 12.5076L4.89473 10.6823ZM4.96922 11.7625L7.04465 9.59625L7.03861 9.59049L4.96922 11.7625ZM8.35231 15.0037L6.27689 17.17L6.28028 17.1732L8.35231 15.0037ZM8.85866 15.1851L8.56208 12.1998L8.85866 15.1851ZM9.32844 14.9082L11.7428 16.6889L11.7456 16.6852L9.32844 14.9082ZM15.1148 7.03702L17.532 8.81394L17.5343 8.81076L15.1148 7.03702ZM15.2675 6.4757L18.2561 6.21434L18.2555 6.20769L15.2675 6.4757ZM15.0202 5.9578L17.0506 3.7493L17.0491 3.74784L15.0202 5.9578ZM13.9609 4.98533L15.9898 2.77537L15.9879 2.77369L13.9609 4.98533ZM12.9962 5.09105L10.5807 3.31197L10.5791 3.31416L12.9962 5.09105ZM8.54288 11.1491L6.46806 13.3159L8.93612 15.6792L10.96 12.926L8.54288 11.1491ZM6.75331 9.43552L8.82812 7.26868L8.82402 7.26477L6.75331 9.43552ZM5.78678 9.51877L3.40741 7.69157L3.40599 7.69344L5.78678 9.51877ZM2.51565 8.8547C1.92996 9.61715 1.67631 10.5462 1.73877 11.447L7.7244 11.032C7.75853 11.5242 7.62096 12.0579 7.27381 12.5098L2.51565 8.8547ZM1.73877 11.447C1.80071 12.3402 2.17735 13.2462 2.89984 13.9345L7.03861 9.59049C7.48233 10.0132 7.6908 10.5474 7.7244 11.032L1.73877 11.447ZM2.8938 13.9288L6.27689 17.17L10.4277 12.8375L7.04464 9.59626L2.8938 13.9288ZM6.28028 17.1732C6.9286 17.7924 7.81431 18.1881 8.79742 18.1881V12.1881C9.45332 12.1881 10.0274 12.4551 10.4243 12.8343L6.28028 17.1732ZM8.79742 18.1881C8.91818 18.1881 9.03774 18.182 9.15524 18.1704L8.56208 12.1998C8.63845 12.1922 8.71687 12.1881 8.79742 12.1881V18.1881ZM9.15524 18.1704C10.2518 18.0614 11.1625 17.4757 11.7428 16.6889L6.91405 13.1276C7.25854 12.6605 7.83566 12.2719 8.56208 12.1998L9.15524 18.1704ZM11.7456 16.6852L17.532 8.81394L12.6977 5.2601L6.9113 13.1313L11.7456 16.6852ZM17.5343 8.81076C18.098 8.04191 18.3347 7.11335 18.2561 6.21434L12.2789 6.73707C12.2359 6.24564 12.3639 5.71547 12.6954 5.26329L17.5343 8.81076ZM18.2555 6.20769C18.1758 5.31964 17.784 4.42354 17.0506 3.7493L12.9898 8.1663C12.5398 7.75255 12.3226 7.22419 12.2795 6.74372L18.2555 6.20769ZM17.0491 3.74784L15.9898 2.77537L11.9321 7.19529L12.9914 8.16776L17.0491 3.74784ZM15.9879 2.77369C14.3291 1.25332 11.8367 1.60667 10.5807 3.31197L15.4118 6.87014C14.6366 7.9227 13.0088 8.18206 11.934 7.19697L15.9879 2.77369ZM10.5791 3.31416L6.12572 9.3722L10.96 12.926L15.4134 6.86795L10.5791 3.31416ZM10.6177 8.98226L8.82812 7.26869L4.67849 11.6023L6.46806 13.3159L10.6177 8.98226ZM8.82402 7.26477C7.2114 5.72646 4.71031 5.99495 3.40741 7.69157L8.16614 11.346C7.35588 12.4011 5.72124 12.597 4.6826 11.6063L8.82402 7.26477ZM3.40599 7.69344L2.51394 8.85693L7.27552 12.5076L8.16756 11.3441L3.40599 7.69344Z" fill="white" mask="url(#path-3-inside-1)"/>
</g>
<defs>
<clipPath id="clip0">
<rect x="4.51611" y="3.87085" width="10.9677" height="12.2581" fill="white"/>
</clipPath>
</defs>
</svg>
