<svg width="14" height="16" viewBox="0 0 14 16" fill="none" xmlns="http://www.w3.org/2000/svg">
<g clip-path="url(#clip0)">
<path d="M13.617 7.05216C13.5716 6.72712 13.3042 6.50569 13.0198 6.55754C12.7354 6.6094 12.5417 6.91495 12.587 7.23999C12.5875 7.24355 12.5881 7.24708 12.5886 7.25061C13.1197 10.8233 11.0159 14.2116 7.88979 14.8185C4.76364 15.4254 1.79893 13.0212 1.26788 9.44842C0.736825 5.87569 2.84059 2.48744 5.9667 1.88053C7.88921 1.5073 9.84606 2.27478 11.1629 3.91851L8.85277 4.79816C8.57948 4.90208 8.43168 5.23948 8.52259 5.55181C8.52262 5.55188 8.52265 5.55198 8.52268 5.55205C8.61361 5.86438 8.90884 6.03329 9.18212 5.9294C9.18221 5.92936 9.18227 5.92933 9.18234 5.92933L12.3112 4.73739C12.5242 4.65631 12.6679 4.42845 12.6679 4.17182V0.595985C12.6679 0.266826 12.4344 0 12.1464 0C11.8584 0 11.6249 0.266826 11.6249 0.595985V2.77306C8.93936 -0.146141 4.6916 -0.0245139 2.1373 3.0447C-0.417003 6.11392 -0.31061 10.9685 2.37499 13.8877C5.06058 16.807 9.30832 16.6853 11.8626 13.6161C13.3192 11.8659 13.9692 9.43379 13.617 7.05216Z" fill="#E06F63"/>
</g>
<defs>
<clipPath id="clip0">
<rect width="14" height="16" fill="white"/>
</clipPath>
</defs>
</svg>
