<?xml version="1.0" encoding="utf-8"?>
<!-- Generator: Adobe Illustrator 23.0.1, SVG Export Plug-In . SVG Version: 6.00 Build 0)  -->
<svg version="1.1" id="Capa_1" xmlns="http://www.w3.org/2000/svg" xmlns:xlink="http://www.w3.org/1999/xlink" x="0px" y="0px"
	 viewBox="0 0 512 512" style="enable-background:new 0 0 512 512;" xml:space="preserve">
<style type="text/css">
	.st0{opacity:0.12;}
	.st1{fill:#817776;}
</style>
<g class="st0">
	<g>
		<path class="st1" d="M265.5,245.5c-3-3.1-8-3.2-11.1-0.2c-3.1,3-3.2,8-0.2,11.3c3,3.1,8,3.2,11.1,0.2
			C268.5,253.7,268.6,248.7,265.5,245.5z"/>
	</g>
</g>
<g class="st0">
	<g>
		<path class="st1" d="M367.4,146.3c-15-15.8-39.9-16.2-55.6-1c-15.6,15.2-16.1,40.4-1,56.1c15,15.8,40,16.2,55.6,1
			C382.1,187.1,382.5,162,367.4,146.3z M355.5,190.9c-9.3,9.1-24.3,8.9-33.3-0.6c-9.1-9.4-8.8-24.6,0.6-33.7s24.3-8.9,33.3,0.6
			C365.2,166.7,364.8,181.8,355.5,190.9z"/>
	</g>
</g>
<g class="st0">
	<g>
		<path class="st1" d="M457.9,58.1c-1.5-1.6-3.6-2.5-5.8-2.4c-1.8,0-44.1,1.1-94.8,18c-40.5,13.7-74.5,33.7-100.9,59.4
			c-6,5.8-11.7,11.9-17.2,18.3c-25.4-15.7-46-11.3-59.1-4.5c-30.3,15.6-49.5,59.2-50.1,90.7c0,3.2,1.8,6.1,4.7,7.4
			c1,0.4,2,0.7,3,0.7c2,0,4.1-0.7,5.6-2.2c16.1-15.7,35.5-14.3,41.9-13.3l2.7,2.8c-5.6,13-10.2,25.8-13.6,38.3
			c-1.2,4.5-1,9.4,0.7,13.8c-7.7,3.4-15,8.5-21.5,14.7c-20.6,20.1-25.6,69.8-25.8,71.9c-0.2,2.3,0.6,4.6,2.2,6.2
			c1.5,1.5,3.4,2.4,5.5,2.4c0.2,0,0.5,0,0.6,0c2-0.1,51.5-3.4,72-23.4c6.5-6.3,11.8-13.6,15.3-21.2c4.6,1.9,9.3,2.2,13.6,1.2
			c12.5-3,25.5-7.2,38.4-12.4l2.7,2.8c0.7,6.4,1.4,26.2-14.7,41.8c-2.3,2.2-3,5.7-1.9,8.6c1.2,3,4,4.9,7.2,5.1
			c31.1,0.6,75-17.4,91.6-47.3c7.1-13,12.3-33.6-2.3-59.8c6.5-5.4,12.8-10.9,18.7-16.8c26.4-25.7,47.4-59.3,62.4-99.7
			c18.7-50.4,21.1-93.2,21.3-95C460.2,61.8,459.4,59.7,457.9,58.1z M147.9,220.8c5.3-23.8,20-49.7,39.4-59.7c13-6.7,27-5.8,41.8,2.7
			c-13,16.7-24.4,34.7-34,53.8c-0.1-0.1-1.5-1.9-4.1-2.5C189.9,214.7,169.2,209.8,147.9,220.8z M197.1,345.4
			c-11,10.7-36.4,16.1-52.5,18c2.6-16.1,8.8-41.6,19.8-52.4c6.2-6,13.3-10.5,20.3-13l26,27.2C208,332.3,203.2,339.3,197.1,345.4z
			 M233.4,321.3c-2.3,0.5-4.9-0.3-6.8-2.3c-10.1-10.4-13.9-14.6-15.1-15.9c-2.2-2.3-7.8-8.1-19.9-20.9c-1.9-2-2.7-4.7-2.1-7
			c2.7-9.8,6.2-19.9,10.3-30.1l63.8,66.8C253.3,315.8,243.2,318.9,233.4,321.3z M346.5,327.5c-10.6,19.3-36.8,33.1-60.5,37.6
			c7.9-14.2,9.8-32.4,7.2-43.5c-0.7-2.6-2.2-3.9-2.3-4c19.2-9,37.5-19.8,54.3-32.4C353.2,300.5,353.6,314.7,346.5,327.5z
			 M365.6,247.2c-7.2,7.1-15,13.8-23,20.1c-19.5,15.2-40.7,28-63.4,38.2l-72.6-76c10.7-22.5,24.2-43.6,40-62.6
			c6.6-7.9,13.5-15.5,20.7-22.5c23.7-23.1,54-41.3,90.4-54.2l64.7,67.6C408.4,194.2,389.4,224.2,365.6,247.2z M428.3,141.4
			l-53.9-56.5C404.5,76,430.6,73,443.6,72C442.1,85.1,438.2,111.3,428.3,141.4z"/>
	</g>
</g>
<g class="st0">
	<g>
		<path class="st1" d="M241,379.8c-3-3.1-8-3.2-11.1-0.2l-22.6,22.1c-3.1,3-3.3,8.1-0.2,11.3c3,3.1,8,3.2,11.1,0.2l22.6-22.1
			C243.9,387.9,244,382.9,241,379.8z"/>
	</g>
</g>
<g class="st0">
	<g>
		<path class="st1" d="M131.8,265.6c-3-3.1-8-3.2-11.1-0.2L98,287.5c-3.1,3-3.3,8.1-0.2,11.3c3,3.1,8,3.2,11.1,0.2l22.6-22.1
			C134.8,273.8,134.8,268.7,131.8,265.6z"/>
	</g>
</g>
<g class="st0">
	<g>
		<path class="st1" d="M185.1,390.1c-3-3.1-8-3.2-11.1-0.2l-54.2,52.8c-3.1,3-3.3,8.1-0.2,11.3c3,3.1,8,3.2,11.1,0.2l54.2-52.8
			C188.1,398.2,188.2,393.2,185.1,390.1z"/>
	</g>
</g>
<g class="st0">
	<g>
		<path class="st1" d="M122.3,388.9c-3-3.1-8-3.2-11.1-0.2L57,441.5c-3.1,3-3.3,8.1-0.2,11.3c3,3.1,8,3.2,11.1,0.2l54.2-52.8
			C125.2,397.1,125.3,392.1,122.3,388.9z"/>
	</g>
</g>
<g class="st0">
	<g>
		<path class="st1" d="M119.7,321.5c-3-3.1-8-3.2-11.1-0.2l-54.2,52.8c-3.1,3-3.3,8.1-0.2,11.3c3,3.1,8,3.2,11.1,0.2l54.2-52.8
			C122.6,329.7,122.7,324.6,119.7,321.5z"/>
	</g>
</g>
<g class="st0">
	<g>
		<path class="st1" d="M299.6,212.4c-3-3.1-8-3.2-11.1-0.2l-11.3,11.1c-3.1,3-3.3,8.1-0.2,11.3c3,3.1,8,3.2,11.1,0.2l11.3-11.1
			C302.5,220.5,302.5,215.5,299.6,212.4z"/>
	</g>
</g>
</svg>
