<?xml version="1.0" encoding="utf-8"?>
<!-- Generator: Adobe Illustrator 23.0.1, SVG Export Plug-In . SVG Version: 6.00 Build 0)  -->
<svg version="1.1" id="Capa_1" xmlns="http://www.w3.org/2000/svg" xmlns:xlink="http://www.w3.org/1999/xlink" x="0px" y="0px"
	 viewBox="0 0 512 512" style="enable-background:new 0 0 512 512;" xml:space="preserve">
<style type="text/css">
	.st0{opacity:0.12;}
	.st1{fill:#817776;}
</style>
<g class="st0">
	<g>
		<path class="st1" d="M245.6,368.5h-61.2c-5.5,0-10,4.5-10,10s4.5,10,10,10h61.2c5.5,0,10-4.5,10-10S251.1,368.5,245.6,368.5z"/>
	</g>
</g>
<g class="st0">
	<g>
		<path class="st1" d="M348.3,368.5H287c-5.5,0-10,4.5-10,10s4.5,10,10,10h61.2c5.5,0,10-4.5,10-10
			C358.3,373,353.8,368.5,348.3,368.5z"/>
	</g>
</g>
<g class="st0">
	<g>
		<path class="st1" d="M452.3,368.5h-61.2c-5.5,0-10,4.5-10,10s4.5,10,10,10h61.2c5.5,0,10-4.5,10-10S457.9,368.5,452.3,368.5z"/>
	</g>
</g>
<g class="st0">
	<g>
		<path class="st1" d="M432.6,403c-6.5,0-12.7,1.6-18.1,4.5c-5.4-2.8-11.6-4.5-18.1-4.5c-21.5,0-39,17.5-39,39s17.5,39,39,39
			c6.5,0,12.7-1.6,18.1-4.5c5.4,2.8,11.6,4.5,18.1,4.5c21.5,0,39-17.5,39-39S454.1,403,432.6,403z M398.5,460.9
			c-0.7,0.1-1.4,0.1-2.1,0.1c-10.5,0-19-8.5-19-19s8.5-19,19-19c0.7,0,1.4,0,2.1,0.1c-3.1,5.6-4.9,12-4.9,18.9
			C393.6,448.8,395.4,455.3,398.5,460.9z M414.5,447.8c-0.6-1.8-0.9-3.8-0.9-5.8s0.3-4,0.9-5.8c0.6,1.8,0.9,3.8,0.9,5.8
			S415.1,446,414.5,447.8z M432.6,461c-0.7,0-1.4,0-2.1-0.1c3.1-5.6,4.9-12,4.9-18.9s-1.8-13.3-4.9-18.9c0.7-0.1,1.4-0.1,2.1-0.1
			c10.5,0,19,8.5,19,19S443,461,432.6,461z"/>
	</g>
</g>
<g class="st0">
	<g>
		<path class="st1" d="M256,280h-72c-5.5,0-10,4.5-10,10v46c0,5.5,4.5,10,10,10h72c5.5,0,10-4.5,10-10v-46
			C266,284.5,261.5,280,256,280z M246,326h-52v-26h52V326L246,326z"/>
	</g>
</g>
<g class="st0">
	<g>
		<path class="st1" d="M257.1,492H257c-5.5,0-10,4.5-10,10s4.5,10,10,10h0.1c5.5,0,10-4.5,10-10S262.6,492,257.1,492z"/>
	</g>
</g>
<g class="st0">
	<g>
		<path class="st1" d="M482,245H381.9l47.4-47.4c11.7-11.7,11.7-30.7,0-42.4L282.8,8.8c-11.7-11.7-30.7-11.7-42.4,0L8.8,240.4
			c-11.7,11.7-11.7,30.7,0,42.4l115.7,115.7V482c0,16.5,13.5,30,30,30h53.8c5.5,0,10-4.5,10-10s-4.5-10-10-10h-53.8
			c-5.5,0-10-4.5-10-10V275c0-5.5,4.5-10,10-10H482c5.5,0,10,4.5,10,10v207c0,5.5-4.5,10-10,10H297.2c-5.5,0-10,4.5-10,10
			s4.5,10,10,10H482c16.5,0,30-13.5,30-30V275C512,258.4,498.5,245,482,245z M22.9,268.7c-3.9-3.9-3.9-10.2,0-14.1L254.5,22.9
			c3.9-3.9,10.2-3.9,14.1,0l15.2,15.2L38.1,283.8L22.9,268.7z M124.4,370.2l-39.7-39.7l39.7-39.7
			C124.4,290.8,124.4,370.2,124.4,370.2z M293.8,245l22.7-22.7c3.9-3.9,3.9-10.2,0-14.1c-3.9-3.9-10.2-3.9-14.1,0L265.5,245h-26.4
			l54.3-54.3c3.9-3.9,3.9-10.2,0-14.1c-3.9-3.9-10.2-3.9-14.1,0L210.9,245h-40.6l110.4-110.4c3.9-3.9,3.9-10.2,0-14.1
			s-10.2-3.9-14.1,0l-196,195.8L52.2,298L298,52.2l117.1,117.1c1.9,1.9,2.9,4.4,2.9,7.1s-1,5.2-2.9,7.1L353.6,245H293.8L293.8,245z"
			/>
	</g>
</g>
<g class="st0">
	<g>
		<path class="st1" d="M307.2,93.9c-1.9-1.9-4.4-2.9-7.1-2.9c-2.6,0-5.2,1.1-7.1,2.9c-1.9,1.9-2.9,4.4-2.9,7.1s1.1,5.2,2.9,7.1
			c1.9,1.9,4.4,2.9,7.1,2.9c2.6,0,5.2-1.1,7.1-2.9s2.9-4.4,2.9-7.1S309.1,95.7,307.2,93.9z"/>
	</g>
</g>
</svg>
