<svg width="181" height="208" viewBox="0 0 181 208" fill="none" xmlns="http://www.w3.org/2000/svg">
<g clip-path="url(#clip0)">
<path d="M151.081 24.3216C151.239 23.0373 151.321 21.7297 151.321 20.4027C151.321 9.24923 142.279 0.207275 131.126 0.207275H97.3749C95.2518 0.207275 93.4392 1.7404 93.087 3.8339L80.6507 77.751C80.2045 80.4034 82.2491 82.8205 84.9385 82.8205H97.2821C99.4051 82.8205 101.252 81.2884 101.604 79.1947C101.604 79.1947 101.624 79.0721 101.662 78.8511H101.662L99.9416 89.0755C99.5486 91.4131 101.351 93.5436 103.721 93.5436H114.52C116.391 93.5436 117.989 92.1922 118.299 90.347L121.367 72.1136C121.896 68.9704 124.617 66.6689 127.804 66.6689H130.641C146.05 66.6689 158.542 54.177 158.542 38.7676C158.542 32.8048 155.595 27.534 151.081 24.3216Z" fill="#002987"/>
<path d="M151.081 24.3215C149.149 40.0317 135.76 52.1966 119.527 52.1966H110.109C107.983 52.1966 106.147 53.6125 105.571 55.6145L99.9418 89.0751C99.5485 91.4128 101.351 93.5435 103.721 93.5435H114.52C116.391 93.5435 117.989 92.1922 118.299 90.3469L121.367 72.1136C121.896 68.9704 124.617 66.6689 127.804 66.6689H130.641C146.05 66.6689 158.542 54.1769 158.542 38.7675C158.542 32.8047 155.595 27.534 151.081 24.3215Z" fill="#0085CC"/>
<path d="M110.109 52.1967H119.527C135.76 52.1967 149.15 40.0318 151.081 24.3218C148.184 22.2607 144.645 21.0444 140.819 21.0444H116.236C113.437 21.0444 111.048 23.0656 110.583 25.8255L105.571 55.6144C106.147 53.6124 107.983 52.1967 110.109 52.1967Z" fill="#00186A"/>
</g>
<g clip-path="url(#clip1)">
<path d="M139.561 106.696H129.817C129.244 106.696 128.671 107.27 128.385 107.843L124.373 133.061C124.373 133.634 124.659 133.921 125.232 133.921H130.391C130.964 133.921 131.25 133.634 131.25 133.061L132.397 125.897C132.397 125.324 132.97 124.751 133.829 124.751H136.982C143.573 124.751 147.298 121.598 148.158 115.294C148.731 112.714 148.158 110.422 147.012 108.989C145.292 107.556 142.713 106.696 139.561 106.696ZM140.707 116.153C140.134 119.592 137.555 119.592 134.976 119.592H133.256L134.403 113.001C134.403 112.714 134.689 112.428 135.262 112.428H135.835C137.555 112.428 139.274 112.428 140.134 113.574C140.707 113.861 140.707 114.72 140.707 116.153Z" fill="#139AD6"/>
<path d="M69.3505 106.696H59.607C59.0339 106.696 58.4607 107.27 58.1741 107.843L54.1621 133.061C54.1621 133.634 54.4487 133.921 55.0218 133.921H59.607C60.1801 133.921 60.7533 133.348 61.0399 132.775L62.1862 125.897C62.1862 125.324 62.7593 124.751 63.619 124.751H66.7713C73.3625 124.751 77.088 121.598 77.9477 115.294C78.5208 112.714 77.9477 110.422 76.8014 108.989C75.0819 107.556 72.7894 106.696 69.3505 106.696ZM70.4968 116.153C69.9236 119.592 67.3445 119.592 64.7653 119.592H63.3324L64.4787 113.001C64.4787 112.714 64.7653 112.428 65.3385 112.428H65.9116C67.631 112.428 69.3505 112.428 70.2102 113.574C70.4968 113.861 70.7833 114.72 70.4968 116.153Z" fill="#263B80"/>
<path d="M98.8677 115.867H94.2825C93.996 115.867 93.4228 116.153 93.4228 116.44L93.1362 117.873L92.8497 117.3C91.7034 115.867 89.6974 115.294 87.4048 115.294C82.2465 115.294 77.6613 119.306 76.8016 124.75C76.2285 127.616 77.0882 130.195 78.521 131.915C79.9539 133.634 81.9599 134.207 84.5391 134.207C88.8377 134.207 91.1302 131.628 91.1302 131.628L90.8437 133.061C90.8437 133.634 91.1302 133.921 91.7034 133.921H96.002C96.5751 133.921 97.1483 133.348 97.4348 132.775L100.014 116.726C99.7274 116.44 99.1543 115.867 98.8677 115.867ZM92.2765 125.037C91.7034 127.616 89.6974 129.622 86.8316 129.622C85.3988 129.622 84.2525 129.049 83.6793 128.476C83.1062 127.616 82.8196 126.47 82.8196 125.037C83.1062 122.458 85.3988 120.452 87.9779 120.452C89.4108 120.452 90.2705 121.025 91.1302 121.598C91.99 122.458 92.2765 123.891 92.2765 125.037Z" fill="#263B80"/>
<path d="M168.792 115.867H164.206C163.92 115.867 163.347 116.153 163.347 116.44L163.06 117.873L162.774 117.3C161.627 115.867 159.621 115.294 157.329 115.294C152.17 115.294 147.585 119.306 146.725 124.751C146.152 127.616 147.012 130.196 148.445 131.915C149.878 133.634 151.884 134.208 154.463 134.208C158.761 134.208 161.054 131.628 161.054 131.628L160.767 133.061C160.767 133.634 161.054 133.921 161.627 133.921H165.926C166.499 133.921 167.072 133.348 167.359 132.775L169.938 116.727C169.651 116.44 169.365 115.867 168.792 115.867ZM162.2 125.037C161.627 127.616 159.621 129.622 156.755 129.622C155.323 129.622 154.176 129.049 153.603 128.476C153.03 127.616 152.743 126.47 152.743 125.037C153.03 122.458 155.323 120.452 157.902 120.452C159.335 120.452 160.194 121.025 161.054 121.598C162.2 122.458 162.487 123.891 162.2 125.037Z" fill="#139AD6"/>
<path d="M123.8 115.867H118.928C118.355 115.867 118.068 116.153 117.781 116.44L111.477 126.183L108.611 117.013C108.325 116.44 108.038 116.153 107.178 116.153H102.593C102.02 116.153 101.733 116.726 101.733 117.3L106.892 132.488L102.02 139.366C101.733 139.939 102.02 140.799 102.593 140.799H107.178C107.751 140.799 108.038 140.512 108.325 140.225L124.086 117.586C124.946 116.726 124.373 115.867 123.8 115.867Z" fill="#263B80"/>
<path d="M174.237 107.556L170.225 133.348C170.225 133.921 170.511 134.207 171.084 134.207H175.096C175.67 134.207 176.243 133.634 176.529 133.061L180.541 107.843C180.541 107.269 180.255 106.983 179.682 106.983H175.096C174.81 106.696 174.523 106.983 174.237 107.556Z" fill="#139AD6"/>
</g>
<defs>
<clipPath id="clip0">
<rect x="72.8975" y="0.207275" width="93.3363" height="93.3363" fill="white"/>
</clipPath>
<clipPath id="clip1">
<rect y="27.459" width="180.541" height="180.541" fill="white"/>
</clipPath>
</defs>
</svg>
