<?xml version="1.0" encoding="UTF-8" standalone="no"?><!-- Generator: Gravit.io --><svg xmlns="http://www.w3.org/2000/svg" xmlns:xlink="http://www.w3.org/1999/xlink" style="isolation:isolate" viewBox="0 0 500 500" width="500pt" height="500pt"><defs><clipPath id="_clipPath_IhExaugDbllsQxc48LYBbmLHvgeP52jL"><rect width="500" height="500"/></clipPath></defs><g clip-path="url(#_clipPath_IhExaugDbllsQxc48LYBbmLHvgeP52jL)"><clipPath id="_clipPath_7LaffKg42Z9NBZrBtVat6KCNjDC2VciC"><path d=" M 0 0 L 500 0 L 500 500 L 0 500 L 0 0 Z " fill="rgb(255,255,255)"/></clipPath><g clip-path="url(#_clipPath_7LaffKg42Z9NBZrBtVat6KCNjDC2VciC)"><path d=" M 85.455 418.008 C 174.213 463.387 318.118 463.388 406.873 418.009 C 495.631 372.629 495.631 299.055 406.873 253.676 C 318.117 208.296 174.212 208.296 85.454 253.675 C -3.303 299.054 -3.303 372.629 85.455 418.008 Z " fill="rgb(245,245,245)"/><path d=" M 375.731 345.512 C 380.595 348.32 390.155 347.354 397.084 343.353 L 437.019 320.16 C 443.948 316.159 445.613 310.636 440.738 307.821 C 435.863 305.007 426.296 305.971 419.37 309.974 L 379.465 333.179 C 372.539 337.182 370.867 342.704 375.731 345.512 Z " fill="rgb(235,235,235)"/><path d=" M 135.311 366.9 L 94.69 343.448 L 135.311 319.995 L 135.311 366.9 Z " fill="rgb(235,235,235)"/><path d=" M 250.119 380.932 L 184.649 343.108 L 250.135 305.358 L 250.119 380.932 Z " fill="rgb(235,235,235)"/><path d=" M 80.361 312.066 C 80.475 302.565 73.84 282.802 64.129 270.347 C 54.418 257.892 39.025 248.686 27.968 252.32 C 17.671 255.705 18.62 269.172 30.956 278.238 C 43.292 287.303 61.861 298.727 67.147 314.205 L 78.401 333.252 L 80.361 312.066 Z " fill="rgb(224,111,99)"/><g opacity="0.100006"><path d=" M 80.361 312.066 C 80.475 302.565 73.84 282.802 64.129 270.347 C 54.418 257.892 39.025 248.686 27.968 252.32 C 17.671 255.705 18.62 269.172 30.956 278.238 C 43.292 287.303 61.861 298.727 67.147 314.205 L 78.401 333.252 L 80.361 312.066 Z " fill="rgb(0,0,0)"/></g><path d=" M 80.906 325.076 C 80.603 325.048 80.344 324.822 80.287 324.51 C 74.315 292 48.395 265.323 32.761 259.309 C 32.404 259.172 32.224 258.77 32.362 258.412 C 32.498 258.056 32.892 257.869 33.259 258.013 C 49.191 264.141 75.59 291.257 81.653 324.259 C 81.722 324.636 81.472 324.997 81.096 325.067 C 81.031 325.079 80.968 325.081 80.906 325.076 Z " fill="rgb(255,255,255)"/><path d=" M 75.82 345.778 C 74.358 340.419 67.94 331.527 57.477 324.12 C 45.902 315.926 31.175 312.045 27.846 305.736 C 23.846 298.156 30.278 291.118 42.25 292.749 C 54.221 294.38 75.105 310.992 78.178 335.661 L 75.82 345.778 Z " fill="rgb(224,111,99)"/><path d=" M 78.207 340.202 C 77.944 340.178 77.707 340.003 77.614 339.736 C 68.002 311.831 46.92 301.824 37.117 300.431 C 36.738 300.378 36.474 300.026 36.527 299.646 C 36.581 299.265 36.917 299.001 37.312 299.056 C 48.153 300.596 69.116 310.801 78.928 339.284 C 79.052 339.646 78.859 340.042 78.497 340.166 C 78.401 340.2 78.302 340.211 78.207 340.202 Z " fill="rgb(255,255,255)"/><path d=" M 434.925 285.023 C 434.925 285.023 436.258 264.991 448.063 250.122 C 459.867 235.252 459.142 229.128 451.002 226.127 C 442.863 223.126 423.957 241.046 428.164 265.044 C 432.371 289.043 434.925 285.023 434.925 285.023 Z " fill="rgb(224,111,99)"/><g opacity="0.100006"><path d=" M 434.925 285.023 C 434.925 285.023 436.258 264.991 448.063 250.122 C 452.121 245.01 454.699 240.931 456.003 237.657 C 458.492 231.41 456.343 228.097 451.002 226.127 C 442.863 223.126 423.957 241.046 428.164 265.044 C 432.371 289.043 434.925 285.023 434.925 285.023 Z " fill="rgb(0,0,0)"/></g><path d=" M 431.319 273.582 C 431.074 273.582 430.87 273.392 430.854 273.146 C 429.475 251.087 445.054 232.988 450.885 228.891 C 451.093 228.743 451.385 228.794 451.533 229.005 C 451.681 229.214 451.631 229.503 451.42 229.652 C 445.703 233.669 430.428 251.424 431.783 273.087 C 431.799 273.344 431.604 273.564 431.347 273.581 C 431.338 273.582 431.328 273.582 431.319 273.582 Z " fill="rgb(255,255,255)"/><path d=" M 431.716 301.565 C 431.716 301.565 438.83 304.03 447.971 305.478 C 457.112 306.925 461.147 302.553 461.147 302.553 C 461.147 302.553 457.547 293.98 452.356 291.574 C 452.356 291.574 461.157 293.368 468.221 298.082 C 468.221 298.082 473.803 298.167 476.025 289.647 C 476.025 289.647 472.717 284.52 461.621 281.751 C 461.621 281.751 468.372 280.052 478.101 282.533 C 478.83 282.823 481.94 271.808 482.88 266.726 C 483.82 261.645 481.779 261.698 477.817 260.64 C 473.855 259.583 460.734 256.635 458.253 258.814 C 455.773 260.993 454.513 268.443 454.513 268.443 C 454.513 268.443 452.879 264.047 454.141 259.001 C 454.141 259.001 450.575 257.607 445.043 259.217 C 440.518 260.533 440.297 263.613 440.502 267.093 C 440.652 269.637 441.265 272.348 442.461 275.929 C 442.461 275.929 438.933 271.407 438.824 261.605 C 438.824 261.605 429.564 266.205 427.982 275.397 C 427.127 280.365 425.915 294.962 431.716 301.565 Z " fill="rgb(224,111,99)"/><path d=" M 433.463 299.777 C 433.653 299.777 433.837 299.67 433.926 299.486 C 441.302 284.161 468.728 266.353 478.551 264.442 C 478.829 264.388 479.012 264.118 478.958 263.839 C 478.903 263.56 478.631 263.381 478.355 263.432 C 468.369 265.375 440.493 283.47 433 299.04 C 432.876 299.296 432.984 299.603 433.239 299.726 C 433.312 299.761 433.387 299.777 433.463 299.777 Z " fill="rgb(255,255,255)"/><path d=" M 76.781 352.864 C 75.647 352.864 74.969 351.927 74.969 350.358 L 74.969 182.149 L 280.964 63.218 L 280.965 230.75 C 280.965 233.321 279.153 236.458 276.927 237.744 L 78.422 352.351 C 77.841 352.687 77.273 352.864 76.781 352.864 Z " fill="rgb(250,250,250)"/><path d=" M 281.549 62.205 L 74.385 181.811 L 74.385 350.358 C 74.385 352.316 75.361 353.449 76.781 353.449 C 77.363 353.449 78.02 353.259 78.715 352.858 L 277.22 238.25 C 279.612 236.87 281.55 233.512 281.55 230.75 L 281.549 62.205 Z  M 280.379 64.231 L 280.38 230.75 C 280.38 233.095 278.665 236.065 276.635 237.237 L 78.13 351.845 C 77.638 352.129 77.171 352.279 76.781 352.279 C 75.674 352.279 75.555 350.935 75.555 350.358 L 75.555 182.487 L 280.379 64.231 Z " fill="rgb(224,224,224)"/><path d=" M 74.385 181.811 L 74.385 209.955 L 281.547 90.35 L 281.549 62.205 L 74.385 181.811 Z " fill="rgb(224,111,99)"/><path d=" M 90.632 183.313 L 90.632 187.349 C 90.632 188.174 91.217 188.511 91.932 188.099 L 155.625 151.326 L 155.624 144.29 L 91.931 181.063 C 91.216 181.476 90.632 182.488 90.632 183.313 Z " fill="rgb(250,250,250)"/><path d=" M 162.45 140.349 C 163.168 139.934 163.749 140.27 163.749 141.099 L 163.749 145.135 C 163.749 145.963 163.168 146.971 162.45 147.385 L 155.625 151.326 L 155.624 144.29 L 162.45 140.349 Z " fill="rgb(69,90,100)"/><path d=" M 74.385 172.739 C 74.385 169.978 76.323 166.62 78.715 165.239 L 277.218 50.633 C 279.61 49.252 281.549 50.371 281.549 53.133 L 281.549 62.204 L 74.385 181.811 L 74.385 172.739 Z " fill="rgb(69,90,100)"/><path d=" M 258.524 66.136 C 257.403 66.784 256.493 68.359 256.493 69.654 C 256.493 70.949 257.403 71.475 258.524 70.827 C 259.646 70.179 260.555 68.605 260.555 67.309 C 260.555 66.013 259.646 65.489 258.524 66.136 Z " fill="rgb(224,111,99)"/><path d=" M 264.959 62.416 C 263.837 63.063 262.928 64.638 262.928 65.935 C 262.928 67.229 263.837 67.755 264.959 67.106 C 266.08 66.46 266.99 64.884 266.99 63.589 C 266.99 62.292 266.08 61.769 264.959 62.416 Z " fill="rgb(224,111,99)"/><path d=" M 271.394 58.696 C 270.272 59.343 269.363 60.919 269.363 62.214 C 269.363 63.509 270.272 64.034 271.394 63.387 C 272.515 62.739 273.424 61.164 273.424 59.869 C 273.424 58.573 272.515 58.048 271.394 58.696 Z " fill="rgb(224,111,99)"/><g opacity="0.100006"><path d=" M 216.555 108.675 C 214.103 110.091 212.116 113.534 212.116 116.365 C 212.116 119.197 214.103 120.345 216.555 118.929 C 219.007 117.514 220.995 114.071 220.995 111.239 C 220.995 108.407 219.007 107.259 216.555 108.675 Z " fill="rgb(0,0,0)"/></g><g opacity="0.100006"><path d=" M 196.245 120.401 C 193.793 121.817 191.806 125.26 191.806 128.091 C 191.806 130.923 193.793 132.071 196.245 130.655 C 198.697 129.24 200.684 125.797 200.684 122.965 C 200.684 120.133 198.697 118.985 196.245 120.401 Z " fill="rgb(0,0,0)"/></g><g opacity="0.100006"><path d=" M 236.865 96.948 C 234.413 98.364 232.425 101.807 232.425 104.638 C 232.425 107.47 234.413 108.618 236.865 107.203 C 239.317 105.787 241.304 102.344 241.304 99.512 C 241.304 96.68 239.317 95.532 236.865 96.948 Z " fill="rgb(0,0,0)"/></g><g opacity="0.100006"><path d=" M 257.176 85.2 C 254.724 86.616 252.737 90.059 252.737 92.89 C 252.737 95.722 254.724 96.87 257.176 95.454 C 259.628 94.039 261.615 90.596 261.615 87.764 C 261.615 84.932 259.628 83.784 257.176 85.2 Z " fill="rgb(0,0,0)"/></g><path d=" M 94.962 212.146 L 143.17 184.314 C 145.562 182.932 147.5 184.051 147.5 186.814 L 147.5 233.098 C 147.5 235.859 145.562 239.217 143.17 240.598 L 94.963 268.432 C 92.572 269.814 90.633 268.694 90.633 265.932 L 90.632 219.646 C 90.632 216.885 92.57 213.527 94.962 212.146 Z " fill="rgb(224,224,224)"/><path d=" M 164.021 172.277 L 265.032 113.955 C 267.423 112.574 269.362 113.694 269.362 116.455 L 269.362 162.74 C 269.362 165.502 267.424 168.86 265.032 170.24 L 164.022 228.563 C 161.63 229.944 159.692 228.824 159.692 226.063 L 159.691 179.777 C 159.691 177.015 161.629 173.657 164.021 172.277 Z " fill="rgb(224,224,224)"/><path d=" M 94.963 282.503 L 171.605 238.253 C 173.996 236.873 175.935 237.854 175.936 240.444 C 175.936 243.034 173.997 246.253 171.606 247.634 L 94.963 291.884 C 92.571 293.264 90.633 292.284 90.633 289.693 C 90.633 287.103 92.571 283.884 94.963 282.503 Z " fill="rgb(224,224,224)"/><path d=" M 94.963 298.917 L 171.605 254.668 C 173.996 253.287 175.935 254.268 175.936 256.858 C 175.936 259.448 173.997 262.667 171.606 264.048 L 94.963 308.298 C 92.571 309.679 90.633 308.698 90.633 306.107 C 90.633 303.517 92.571 300.298 94.963 298.917 Z " fill="rgb(224,224,224)"/><path d=" M 94.963 315.332 L 171.605 271.082 C 173.996 269.702 175.935 270.682 175.936 273.272 C 175.936 275.862 173.997 279.082 171.606 280.462 L 94.963 324.712 C 92.571 326.092 90.633 325.112 90.633 322.522 C 90.633 319.931 92.571 316.712 94.963 315.332 Z " fill="rgb(224,224,224)"/><path d=" M 131.253 259.672 C 131.253 258.015 132.416 256.001 133.851 255.172 L 266.762 178.436 C 268.196 177.608 270.523 177.608 271.958 178.436 L 274.886 180.127 C 276.321 180.955 277.484 182.97 277.484 184.627 L 277.484 286.505 C 277.484 288.155 276.315 290.18 274.887 291.005 L 141.976 367.741 C 140.546 368.566 138.209 368.566 136.779 367.741 L 133.852 366.051 C 132.422 365.226 131.253 363.201 131.253 361.551 L 131.253 259.672 Z " fill="rgb(224,111,99)"/><g opacity="0.399994"><path d=" M 132.011 257.114 L 139.386 261.366 L 276.722 182.067 C 276.254 181.256 275.603 180.543 274.89 180.125 L 271.952 178.441 C 270.527 177.606 268.192 177.606 266.766 178.441 L 133.855 255.172 C 133.13 255.59 132.478 256.302 132.011 257.114 Z " fill="rgb(255,255,255)"/></g><g opacity="0.100006"><path d=" M 131.249 259.67 L 131.249 361.547 C 131.249 363.207 132.416 365.222 133.854 366.046 L 136.78 367.742 C 137.001 367.865 137.234 367.976 137.493 368.062 C 137.824 368.172 138.181 368.258 138.562 368.307 C 139.238 368.393 139.951 368.369 140.614 368.233 C 140.786 368.197 140.958 368.148 141.118 368.098 C 141.229 368.062 141.327 368.024 141.425 367.976 C 140.946 368.148 140.528 368.123 140.184 367.951 C 139.692 367.693 139.385 367.103 139.385 366.242 L 139.385 264.365 C 139.385 263.296 139.926 262.484 140.737 262.153 L 139.385 261.366 L 132.011 257.114 C 131.544 257.925 131.249 258.847 131.249 259.67 Z " fill="rgb(0,0,0)"/></g><g opacity="0.199997"><path d=" M 139.385 261.366 L 200.937 284.362 C 205.324 285.996 210.253 284.374 212.809 280.453 L 222.694 265.31 L 277.213 181.784 L 224.664 265.879 L 277.483 286.55 C 277.47 287.386 277.164 288.32 276.672 289.143 L 224.517 266.115 L 213.031 284.497 C 210.388 288.713 205.054 290.36 200.507 288.344 L 192.328 284.734 L 140.184 367.95 C 139.692 367.693 139.385 367.102 139.385 366.242 L 139.385 364.546 L 192.073 284.621 L 139.385 261.366 Z " fill="rgb(0,0,0)"/></g><path d=" M 249.052 144.405 L 249.052 378.308 C 249.052 381.07 250.991 382.189 253.383 380.808 L 358.461 320.142 C 360.851 318.761 362.791 315.404 362.791 312.642 L 362.791 78.739 C 362.791 75.978 360.851 74.859 358.461 76.239 L 253.383 136.905 C 250.991 138.286 249.052 141.644 249.052 144.405 Z " fill="rgb(250,250,250)"/><path d=" M 249.052 144.405 L 249.052 378.308 C 249.052 381.07 250.991 382.189 253.383 380.808 L 358.461 320.142 C 360.851 318.761 362.791 315.404 362.791 312.642 L 362.791 78.739 C 362.791 75.978 360.851 74.859 358.461 76.239 L 253.383 136.905 C 250.991 138.286 249.052 141.644 249.052 144.405 Z " fill="none" vector-effect="non-scaling-stroke" stroke-width="1.17" stroke="rgb(224,224,224)" stroke-linejoin="miter" stroke-linecap="square" stroke-miterlimit="3"/><path d=" M 255.142 148.764 C 255.142 148.116 255.646 147.3 256.268 146.941 L 268.238 140.033 C 268.86 139.674 269.364 139.908 269.364 140.556 C 269.363 141.203 268.859 142.019 268.237 142.378 L 256.268 149.287 C 255.646 149.646 255.142 149.411 255.142 148.764 Z " fill="rgb(69,90,100)"/><path d=" M 255.142 153.421 C 255.142 152.774 255.646 151.958 256.268 151.599 L 268.238 144.691 C 268.86 144.332 269.364 144.566 269.364 145.213 C 269.363 145.86 268.859 146.676 268.237 147.035 L 256.268 153.944 C 255.646 154.303 255.142 154.069 255.142 153.421 Z " fill="rgb(69,90,100)"/><path d=" M 255.142 158.08 C 255.142 157.433 255.646 156.616 256.268 156.257 L 268.238 149.349 C 268.86 148.99 269.364 149.225 269.364 149.872 C 269.363 150.519 268.859 151.335 268.237 151.694 L 256.268 158.603 C 255.646 158.962 255.142 158.728 255.142 158.08 Z " fill="rgb(69,90,100)"/><path d=" M 348.34 103.975 C 346.83 104.847 345.607 104.14 345.607 102.397 C 345.607 100.655 346.83 98.535 348.34 97.664 C 349.849 96.792 351.072 97.499 351.072 99.242 C 351.072 100.984 349.849 103.103 348.34 103.975 Z  M 354.665 98.101 L 354.665 96.233 C 354.665 96.122 354.583 96.069 354.482 96.115 L 353.041 96.764 C 352.94 96.809 352.835 96.759 352.802 96.653 C 352.718 96.388 352.61 96.15 352.481 95.938 C 352.422 95.844 352.409 95.689 352.459 95.59 L 353.418 93.655 C 353.468 93.555 353.43 93.429 353.333 93.373 L 352.292 92.771 C 352.195 92.716 352.067 92.746 352.005 92.839 L 350.809 94.638 C 350.747 94.73 350.608 94.796 350.496 94.793 C 350.248 94.787 349.988 94.812 349.717 94.872 C 349.609 94.896 349.513 94.83 349.501 94.72 L 349.344 93.148 C 349.332 93.037 349.245 92.993 349.149 93.049 L 347.53 93.982 C 347.435 94.038 347.348 94.173 347.338 94.284 L 347.176 96.084 C 347.166 96.195 347.09 96.345 347.008 96.42 C 346.693 96.71 346.393 97.03 346.11 97.371 C 346.038 97.457 345.897 97.498 345.791 97.461 L 344.753 97.099 C 344.648 97.062 344.517 97.111 344.461 97.207 L 343.273 99.267 C 343.216 99.364 343.239 99.501 343.324 99.574 L 344.157 100.291 C 344.242 100.364 344.278 100.507 344.238 100.612 C 344.084 101.028 343.957 101.448 343.864 101.866 C 343.84 101.975 343.748 102.115 343.657 102.179 L 342.179 103.22 C 342.088 103.284 342.014 103.426 342.014 103.538 L 342.014 105.405 C 342.014 105.517 342.097 105.57 342.198 105.524 L 343.638 104.875 C 343.739 104.829 343.844 104.88 343.878 104.986 C 343.961 105.251 344.069 105.489 344.198 105.7 C 344.257 105.795 344.27 105.949 344.221 106.049 L 343.261 107.984 C 343.211 108.084 343.249 108.21 343.346 108.266 L 344.388 108.867 C 344.485 108.923 344.612 108.893 344.674 108.8 L 345.87 107.001 C 345.932 106.909 346.071 106.843 346.184 106.846 C 346.431 106.852 346.691 106.827 346.962 106.767 C 347.07 106.743 347.167 106.808 347.178 106.919 L 347.336 108.491 C 347.347 108.601 347.435 108.646 347.53 108.591 L 349.149 107.657 C 349.245 107.6 349.331 107.466 349.341 107.354 L 349.503 105.555 C 349.514 105.443 349.59 105.294 349.672 105.219 C 349.986 104.929 350.287 104.609 350.57 104.267 C 350.641 104.182 350.782 104.141 350.888 104.177 L 351.926 104.54 C 352.031 104.577 352.162 104.528 352.218 104.432 L 353.407 102.372 C 353.463 102.275 353.44 102.138 353.356 102.065 L 352.522 101.348 C 352.438 101.275 352.402 101.131 352.441 101.027 C 352.596 100.611 352.722 100.191 352.816 99.773 C 352.84 99.664 352.931 99.524 353.023 99.459 L 354.5 98.419 C 354.591 98.355 354.665 98.213 354.665 98.101 Z " fill="rgb(55,71,79)"/><path d=" M 305.922 144.201 C 318.199 137.112 328.152 142.859 328.152 157.035 C 328.152 171.213 318.199 188.451 305.922 195.541 C 293.644 202.629 283.691 196.883 283.691 182.705 C 283.691 168.529 293.644 151.289 305.922 144.201 Z " fill="rgb(69,90,100)"/><path d=" M 305.766 155.358 C 309.748 153.058 312.978 154.922 312.978 159.522 C 312.978 164.121 309.748 169.714 305.766 172.014 C 301.783 174.313 298.553 172.449 298.553 167.85 C 298.553 163.25 301.783 157.657 305.766 155.358 Z " fill="rgb(224,111,99)"/><path d=" M 319.978 179.883 C 319.978 172.326 314.672 169.263 308.129 173.042 L 304.039 175.404 C 297.496 179.181 292.19 188.37 292.19 195.926 L 292.19 197.987 C 293.371 198.38 294.654 198.574 296.009 198.577 C 298.995 198.583 302.354 197.6 305.922 195.541 C 311.255 192.461 316.148 187.463 319.978 181.635 L 319.978 179.883 Z " fill="rgb(224,111,99)"/><path d=" M 285.855 216.634 L 325.987 193.464 C 327.182 192.774 328.152 193.264 328.152 194.559 C 328.152 195.855 327.182 197.464 325.987 198.155 L 285.855 221.324 C 284.66 222.015 283.69 221.524 283.69 220.229 C 283.69 218.934 284.66 217.324 285.855 216.634 Z " fill="rgb(224,111,99)"/><path d=" M 281.549 233.206 L 330.294 205.033 C 331.489 204.344 332.459 204.833 332.459 206.128 C 332.459 207.423 331.489 209.033 330.294 209.725 L 281.549 237.896 C 280.354 238.587 279.384 238.098 279.384 236.801 C 279.384 235.507 280.354 233.896 281.549 233.206 Z " fill="rgb(69,90,100)"/><path d=" M 331.594 227.745 L 345.242 219.864 C 345.96 219.45 346.541 219.639 346.541 220.287 C 346.541 220.934 345.96 221.795 345.242 222.209 L 331.594 230.09 C 330.876 230.504 330.294 230.315 330.294 229.667 C 330.294 229.02 330.876 228.159 331.594 227.745 Z " fill="rgb(55,71,79)"/><path d=" M 263.404 262.43 L 283.446 250.859 C 284.641 250.168 285.611 250.728 285.611 252.109 L 285.611 265.87 C 285.611 267.251 284.642 268.93 283.446 269.62 L 263.404 281.192 C 262.209 281.882 261.239 281.322 261.239 279.942 L 261.239 266.18 C 261.239 264.799 262.209 263.12 263.404 262.43 Z " fill="rgb(224,111,99)"/><path d=" M 266.601 264.353 L 280.25 256.472 C 280.968 256.058 281.549 256.247 281.549 256.895 C 281.549 257.542 280.968 258.403 280.25 258.818 L 266.601 266.699 C 265.884 267.113 265.302 266.923 265.302 266.276 C 265.302 265.628 265.884 264.768 266.601 264.353 Z " fill="rgb(250,250,250)"/><path d=" M 265.302 271.294 L 265.302 275.329 C 265.302 276.157 265.884 276.493 266.601 276.079 L 280.25 268.198 C 280.968 267.784 281.549 266.776 281.549 265.948 L 281.55 261.913 C 281.55 261.084 280.968 260.748 280.251 261.163 L 266.601 269.044 C 265.884 269.458 265.302 270.465 265.302 271.294 Z " fill="rgb(250,250,250)"/><path d=" M 295.9 243.668 L 315.942 232.097 C 317.137 231.407 318.107 231.966 318.107 233.347 L 318.107 247.108 C 318.107 248.489 317.137 250.168 315.942 250.858 L 295.9 262.43 C 294.704 263.12 293.735 262.561 293.735 261.18 L 293.735 247.418 C 293.735 246.038 294.704 244.358 295.9 243.668 Z " fill="rgb(224,111,99)"/><path d=" M 299.097 245.592 L 312.746 237.711 C 313.463 237.297 314.045 237.486 314.045 238.134 C 314.045 238.781 313.463 239.642 312.746 240.057 L 299.097 247.937 C 298.379 248.352 297.798 248.162 297.798 247.515 C 297.798 246.867 298.379 246.007 299.097 245.592 Z " fill="rgb(250,250,250)"/><path d=" M 297.798 252.533 L 297.798 256.568 C 297.798 257.396 298.379 257.732 299.097 257.318 L 312.746 249.437 C 313.463 249.023 314.045 248.015 314.045 247.187 L 314.045 243.151 C 314.046 242.323 313.464 241.987 312.746 242.401 L 299.097 250.283 C 298.379 250.697 297.798 251.704 297.798 252.533 Z " fill="rgb(250,250,250)"/><path d=" M 328.397 224.906 L 348.439 213.335 C 349.634 212.644 350.603 213.204 350.603 214.585 L 350.603 228.346 C 350.603 229.727 349.634 231.406 348.439 232.096 L 328.397 243.668 C 327.202 244.358 326.232 243.799 326.232 242.418 L 326.232 228.656 C 326.232 227.275 327.202 225.596 328.397 224.906 Z " fill="rgb(224,111,99)"/><path d=" M 331.593 226.83 L 345.242 218.949 C 345.96 218.535 346.541 218.724 346.541 219.372 C 346.541 220.019 345.96 220.88 345.242 221.294 L 331.593 229.175 C 330.876 229.589 330.294 229.4 330.294 228.753 C 330.294 228.105 330.876 227.244 331.593 226.83 Z " fill="rgb(250,250,250)"/><path d=" M 330.294 233.77 L 330.294 237.805 C 330.294 238.634 330.876 238.97 331.593 238.555 L 345.242 230.674 C 345.96 230.26 346.541 229.253 346.541 228.424 L 346.542 224.389 C 346.542 223.56 345.96 223.225 345.243 223.639 L 331.593 231.52 C 330.876 231.934 330.294 232.942 330.294 233.77 Z " fill="rgb(250,250,250)"/><path d=" M 265.569 294.013 L 346.273 247.418 C 348.665 246.037 350.604 247.018 350.604 249.609 C 350.604 252.199 348.665 255.418 346.273 256.799 L 265.569 303.394 C 263.177 304.774 261.239 303.794 261.239 301.203 C 261.239 298.613 263.177 295.393 265.569 294.013 Z " fill="rgb(224,224,224)"/><path d=" M 265.569 312.774 L 346.273 266.179 C 348.665 264.798 350.604 265.779 350.604 268.37 C 350.604 270.96 348.665 274.179 346.273 275.56 L 265.569 322.155 C 263.177 323.535 261.239 322.555 261.239 319.964 C 261.239 317.374 263.177 314.154 265.569 312.774 Z " fill="rgb(224,224,224)"/><path d=" M 291.839 321.06 L 320.004 304.798 C 321.2 304.108 322.169 304.667 322.169 306.048 L 322.17 315.12 C 322.17 316.5 321.2 318.179 320.005 318.87 L 291.839 335.131 C 290.644 335.822 289.674 335.262 289.674 333.881 L 289.674 324.81 C 289.674 323.429 290.643 321.75 291.839 321.06 Z " fill="rgb(224,111,99)"/><path d=" M 267.332 295.391 C 266.211 296.038 265.301 297.614 265.301 298.909 C 265.301 300.204 266.211 300.729 267.332 300.082 C 268.454 299.434 269.363 297.859 269.363 296.564 C 269.363 295.268 268.454 294.743 267.332 295.391 Z " fill="rgb(250,250,250)"/><path d=" M 273.767 291.67 C 272.645 292.317 271.736 293.893 271.736 295.188 C 271.736 296.483 272.645 297.009 273.767 296.361 C 274.888 295.713 275.798 294.138 275.798 292.843 C 275.798 291.547 274.888 291.022 273.767 291.67 Z " fill="rgb(250,250,250)"/><path d=" M 280.201 287.95 C 279.079 288.597 278.17 290.173 278.17 291.468 C 278.17 292.763 279.079 293.289 280.201 292.641 C 281.322 291.993 282.231 290.418 282.231 289.123 C 282.231 287.827 281.322 287.303 280.201 287.95 Z " fill="rgb(250,250,250)"/><path d=" M 286.635 284.23 C 285.514 284.878 284.604 286.453 284.604 287.749 C 284.604 289.043 285.514 289.569 286.635 288.921 C 287.757 288.273 288.666 286.699 288.666 285.403 C 288.666 284.107 287.757 283.583 286.635 284.23 Z " fill="rgb(250,250,250)"/><path d=" M 293.069 280.51 C 291.947 281.158 291.038 282.733 291.038 284.029 C 291.038 285.324 291.947 285.849 293.069 285.201 C 294.19 284.554 295.1 282.979 295.1 281.683 C 295.1 280.388 294.19 279.863 293.069 280.51 Z " fill="rgb(250,250,250)"/><path d=" M 299.504 276.79 C 298.382 277.437 297.473 279.013 297.473 280.308 C 297.473 281.603 298.382 282.128 299.504 281.481 C 300.625 280.833 301.534 279.258 301.534 277.963 C 301.534 276.667 300.625 276.142 299.504 276.79 Z " fill="rgb(250,250,250)"/><path d=" M 305.938 273.07 C 304.816 273.717 303.908 275.293 303.908 276.588 C 303.908 277.883 304.816 278.408 305.938 277.761 C 307.06 277.113 307.969 275.538 307.969 274.243 C 307.969 272.947 307.06 272.422 305.938 273.07 Z " fill="rgb(250,250,250)"/><path d=" M 267.332 314.173 C 266.211 314.82 265.301 316.396 265.301 317.691 C 265.301 318.986 266.211 319.512 267.332 318.864 C 268.454 318.216 269.363 316.641 269.363 315.346 C 269.363 314.05 268.454 313.525 267.332 314.173 Z " fill="rgb(250,250,250)"/><path d=" M 273.767 310.453 C 272.645 311.1 271.736 312.676 271.736 313.971 C 271.736 315.266 272.645 315.792 273.767 315.144 C 274.888 314.496 275.798 312.921 275.798 311.626 C 275.798 310.33 274.888 309.806 273.767 310.453 Z " fill="rgb(250,250,250)"/><path d=" M 280.201 306.732 C 279.079 307.379 278.17 308.955 278.17 310.25 C 278.17 311.545 279.079 312.071 280.201 311.423 C 281.322 310.775 282.231 309.2 282.231 307.905 C 282.231 306.609 281.322 306.085 280.201 306.732 Z " fill="rgb(250,250,250)"/><path d=" M 286.635 303.012 C 285.514 303.659 284.604 305.235 284.604 306.53 C 284.604 307.825 285.514 308.351 286.635 307.703 C 287.757 307.055 288.666 305.48 288.666 304.185 C 288.666 302.89 287.757 302.365 286.635 303.012 Z " fill="rgb(250,250,250)"/><path d=" M 293.069 299.292 C 291.947 299.94 291.038 301.515 291.038 302.811 C 291.038 304.106 291.947 304.631 293.069 303.983 C 294.19 303.336 295.1 301.761 295.1 300.465 C 295.1 299.17 294.19 298.645 293.069 299.292 Z " fill="rgb(250,250,250)"/><path d=" M 299.504 295.572 C 298.382 296.22 297.473 297.795 297.473 299.091 C 297.473 300.386 298.382 300.911 299.504 300.263 C 300.625 299.616 301.534 298.041 301.534 296.745 C 301.534 295.45 300.625 294.925 299.504 295.572 Z " fill="rgb(250,250,250)"/><path d=" M 305.938 291.852 C 304.816 292.499 303.908 294.075 303.908 295.37 C 303.908 296.665 304.816 297.19 305.938 296.543 C 307.06 295.895 307.969 294.32 307.969 293.025 C 307.969 291.729 307.06 291.204 305.938 291.852 Z " fill="rgb(250,250,250)"/><path d=" M 416.847 266.746 C 414.325 266.746 411.66 268.013 410.021 268.959 C 398.6 275.553 388.951 293.264 388.951 307.635 C 388.951 313.451 390.582 317.866 393.315 319.443 C 396.425 321.239 400.746 319.279 403.045 317.953 C 414.466 311.358 424.115 293.647 424.115 279.277 C 424.115 273.46 422.484 269.046 419.751 267.468 C 418.858 266.953 417.864 266.746 416.847 266.746 Z  M 396.186 334.13 C 392.678 334.13 389.351 333.265 386.338 331.526 C 379.132 327.365 374.999 318.657 374.999 307.635 C 374.999 288.252 387.319 265.956 403.045 256.876 C 411.513 251.989 419.922 251.457 426.727 255.386 C 433.934 259.547 438.067 268.255 438.067 279.277 C 438.067 298.66 425.747 320.955 410.021 330.035 C 405.302 332.759 400.602 334.13 396.186 334.13 Z " fill="rgb(69,90,100)"/><path d=" M 426.61 282.38 C 426.61 271.494 419.751 267.468 419.751 267.468 C 422.483 269.046 424.114 273.46 424.114 279.277 C 424.114 293.647 414.465 311.358 403.045 317.953 C 400.746 319.278 396.424 321.238 393.314 319.443 C 393.314 319.443 399.102 323.035 407.098 318.673 C 418.676 312.358 426.61 296.751 426.61 282.38 Z " fill="rgb(55,71,79)"/><path d=" M 415.607 146.294 C 415.607 142.31 412.378 139.081 408.394 139.081 C 404.411 139.081 401.181 142.31 401.181 146.294 L 401.181 146.313 L 401.181 261.021 C 401.181 262.087 401.885 263.153 403.294 263.966 C 406.11 265.592 410.677 265.592 413.495 263.966 C 414.903 263.153 415.607 262.087 415.607 261.021 L 415.607 146.313 L 415.606 146.313 C 415.606 146.307 415.607 146.3 415.607 146.294 Z " fill="rgb(55,71,79)"/><path d=" M 409.846 171.927 C 409.846 169.27 407.981 166.04 405.681 164.712 C 404.511 164.036 403.457 163.989 402.7 164.449 L 402.697 164.443 L 384.899 174.697 L 384.468 174.953 C 384.407 174.984 384.345 175.015 384.294 175.056 C 383.987 175.261 383.7 175.497 383.443 175.753 C 382.366 176.82 381.7 178.306 381.7 179.937 C 381.7 182.173 382.941 184.121 384.766 185.126 C 385.607 185.577 386.56 185.833 387.585 185.833 C 388.601 185.833 389.565 185.577 390.395 185.126 C 390.508 185.064 390.62 184.992 390.734 184.931 L 408.645 174.615 L 408.642 174.611 C 409.385 174.172 409.846 173.245 409.846 171.927 Z " fill="rgb(69,90,100)"/><path d=" M 409.846 200.652 C 409.846 197.995 407.981 194.765 405.681 193.437 C 404.511 192.761 403.457 192.714 402.7 193.174 L 402.697 193.168 L 381.837 205.147 L 381.407 205.404 C 381.345 205.435 381.284 205.465 381.232 205.506 C 380.924 205.712 380.637 205.947 380.381 206.204 C 379.304 207.27 378.638 208.757 378.638 210.387 C 378.638 212.623 379.878 214.571 381.703 215.576 C 382.544 216.027 383.498 216.284 384.524 216.284 C 385.539 216.284 386.503 216.027 387.333 215.576 C 387.447 215.515 387.559 215.443 387.672 215.381 L 408.645 203.34 L 408.642 203.336 C 409.385 202.896 409.846 201.97 409.846 200.652 Z " fill="rgb(69,90,100)"/></g></g></svg>