<?xml version="1.0" encoding="iso-8859-1"?>
<!-- Generator: Adobe Illustrator 19.0.0, SVG Export Plug-In . SVG Version: 6.00 Build 0)  -->
<svg version="1.1" id="Capa_1" xmlns="http://www.w3.org/2000/svg" xmlns:xlink="http://www.w3.org/1999/xlink" x="0px" y="0px"
	 viewBox="0 0 512 512" style="enable-background:new 0 0 512 512;" xml:space="preserve">
<g>
	<g>
		<path d="M196.504,304.779h-72.947c-5.523,0-10,4.477-10,10s4.477,10,10,10h72.947c5.523,0,10-4.477,10-10
			S202.027,304.779,196.504,304.779z"/>
	</g>
</g>
<g>
	<g>
		<path d="M318.813,304.779h-72.947c-5.523,0-10,4.477-10,10s4.477,10,10,10h72.947c5.523,0,10-4.477,10-10
			S324.336,304.779,318.813,304.779z"/>
	</g>
</g>
<g>
	<g>
		<path d="M442.815,304.779h-72.947c-5.523,0-10,4.477-10,10s4.477,10,10,10h72.947c5.523,0,10-4.477,10-10
			S448.338,304.779,442.815,304.779z"/>
	</g>
</g>
<g>
	<g>
		<path d="M415.713,345.89c-12.374,0-23.476,5.518-31,14.213c-7.524-8.695-18.626-14.213-31-14.213c-22.607,0-41,18.393-41,41
			c0,22.607,18.393,41,41,41c12.374,0,23.476-5.518,31-14.213c7.524,8.695,18.626,14.213,31,14.213c22.607,0,41-18.393,41-41
			S438.32,345.89,415.713,345.89z M353.713,407.89c-11.58,0-21-9.42-21-21c0-11.58,9.42-21,21-21c11.58,0,21,9.421,21,21
			C374.713,398.47,365.293,407.89,353.713,407.89z M415.713,407.89c-11.58,0-21-9.42-21-21c0-11.58,9.421-21,21-21
			c11.58,0,21,9.42,21,21C436.713,398.47,427.293,407.89,415.713,407.89z"/>
	</g>
</g>
<g>
	<g>
		<path d="M208.871,199.392h-85.798c-5.523,0-10,4.477-10,10v54.765c0,5.523,4.477,10,10,10h85.798c5.523,0,10-4.477,10-10v-54.765
			C218.871,203.869,214.394,199.392,208.871,199.392z M198.871,254.157h-65.798v-34.765h65.798V254.157z"/>
	</g>
</g>
<g>
	<g>
		<path d="M178.488,451.969h-0.156c-5.523,0-10,4.477-10,10s4.477,10,10,10h0.156c5.523,0,10-4.477,10-10
			S184.011,451.969,178.488,451.969z"/>
	</g>
</g>
<g>
	<g>
		<path d="M478.167,157.033H458V73.866c0-18.655-15.177-33.833-33.833-33.833H283c-5.523,0-10,4.477-10,10c0,5.523,4.477,10,10,10
			h141.167c7.627,0,13.833,6.205,13.833,13.833v30.167H20V73.866c0-7.627,6.205-13.833,13.833-13.833H191c5.523,0,10-4.477,10-10
			c0-5.523-4.477-10-10-10H33.833C15.177,40.033,0,55.211,0,73.866v247.269c0,18.655,15.177,33.833,33.833,33.833H54v83.167
			c0,18.655,15.177,33.833,33.833,33.833h47.099c5.523,0,10-4.477,10-10s-4.477-10-10-10H87.833
			c-7.627,0-13.833-6.205-13.833-13.833V190.866c0-7.627,6.205-13.833,13.833-13.833h390.335c7.627,0,13.833,6.205,13.833,13.833
			v247.269c0,7.627-6.205,13.833-13.833,13.833H215.654c-5.523,0-10,4.477-10,10s4.477,10,10,10h262.513
			c18.655,0,33.833-15.177,33.833-33.833V190.866C512,172.211,496.823,157.033,478.167,157.033z M54,190.866v144.102H33.833v0
			c-7.627,0-13.833-6.205-13.833-13.833V188.033h34.128C54.05,188.968,54,189.911,54,190.866z M438,157.033H87.833
			c-9.863,0-18.752,4.245-24.942,11H20v-44h418V157.033z"/>
	</g>
</g>
<g>
	<g>
		<path d="M244.07,42.961c-1.86-1.86-4.44-2.93-7.07-2.93s-5.21,1.07-7.07,2.93s-2.93,4.44-2.93,7.07c0,2.64,1.07,5.21,2.93,7.07
			c1.86,1.86,4.44,2.93,7.07,2.93s5.21-1.07,7.07-2.93c1.86-1.86,2.93-4.43,2.93-7.07C247,47.401,245.93,44.821,244.07,42.961z"/>
	</g>
</g>
<g>
</g>
<g>
</g>
<g>
</g>
<g>
</g>
<g>
</g>
<g>
</g>
<g>
</g>
<g>
</g>
<g>
</g>
<g>
</g>
<g>
</g>
<g>
</g>
<g>
</g>
<g>
</g>
<g>
</g>
</svg>
