<?xml version="1.0" encoding="iso-8859-1"?>
<!-- Generator: Adobe Illustrator 19.0.0, SVG Export Plug-In . SVG Version: 6.00 Build 0)  -->
<svg version="1.1" id="Capa_1" xmlns="http://www.w3.org/2000/svg" xmlns:xlink="http://www.w3.org/1999/xlink" x="0px" y="0px"
	 viewBox="0 0 512 512" style="enable-background:new 0 0 512 512;" xml:space="preserve">
<g>
	<g>
		<path d="M245.625,368.476h-61.218c-5.522,0-10,4.478-10,10s4.477,10,10,10h61.218c5.522,0,10-4.478,10-10
			S251.148,368.476,245.625,368.476z"/>
	</g>
</g>
<g>
	<g>
		<path d="M348.268,368.476H287.05c-5.522,0-10,4.478-10,10s4.478,10,10,10h61.218c5.523,0,10-4.477,10-10
			C358.268,372.954,353.79,368.476,348.268,368.476z"/>
	</g>
</g>
<g>
	<g>
		<path d="M452.331,368.476h-61.218c-5.522,0-10,4.478-10,10s4.478,10,10,10h61.218c5.522,0,10-4.478,10-10
			S457.853,368.476,452.331,368.476z"/>
	</g>
</g>
<g>
	<g>
		<path d="M432.571,402.977c-6.524,0-12.675,1.619-18.084,4.463c-5.41-2.844-11.56-4.463-18.084-4.463
			c-21.506,0-39.001,17.495-39.001,39.001s17.495,39.001,39.001,39.001c6.524,0,12.675-1.619,18.084-4.463
			c5.41,2.844,11.56,4.463,18.084,4.463c21.506,0,39.001-17.495,39.001-39.001S454.077,402.977,432.571,402.977z M398.463,460.862
			c-0.677,0.073-1.364,0.117-2.061,0.117c-10.477,0-19-8.523-19-19c0-10.477,8.524-19,19-19c0.697,0,1.383,0.043,2.061,0.117
			c-3.112,5.599-4.892,12.036-4.892,18.883C393.571,448.825,395.351,455.263,398.463,460.862z M414.487,447.785
			c-0.59-1.832-0.916-3.781-0.916-5.807c0-2.026,0.326-3.975,0.916-5.807c0.591,1.832,0.916,3.781,0.916,5.807
			C415.403,444.004,415.077,445.953,414.487,447.785z M432.572,460.979c-0.697,0-1.383-0.043-2.061-0.117
			c3.112-5.599,4.892-12.036,4.892-18.883c0-6.847-1.78-13.284-4.892-18.883c0.677-0.073,1.364-0.117,2.061-0.117
			c10.477,0,19,8.523,19,19C451.573,452.456,443.049,460.979,432.572,460.979z"/>
	</g>
</g>
<g>
	<g>
		<path d="M256.004,280.036h-72.002c-5.522,0-10,4.478-10,10v45.959c0,5.522,4.478,10,10,10h72.002c5.522,0,10-4.478,10-10v-45.959
			C266.004,284.514,261.526,280.036,256.004,280.036z M246.003,325.995h-52.001v-25.959h52.001V325.995z"/>
	</g>
</g>
<g>
	<g>
		<path d="M257.072,492h-0.132c-5.522,0-10,4.478-10,10s4.478,10,10,10h0.132c5.522,0,10-4.478,10-10S262.595,492,257.072,492z"/>
	</g>
</g>
<g>
	<g>
		<path d="M481.998,244.954H381.878l47.353-47.352c11.696-11.697,11.696-30.73,0-42.427L282.828,8.772
			c-11.698-11.697-30.731-11.695-42.428,0L8.772,240.4c-11.695,11.697-11.695,30.73,0,42.427l115.654,115.654v83.516
			c0,16.542,13.458,30.001,30.001,30.001h53.782c5.522,0,10-4.478,10-10c0-5.522-4.478-10-10-10h-53.782c-5.514,0-10-4.486-10-10
			V274.955c0-5.514,4.486-10,10-10h327.571c5.514,0,10,4.486,10,10v207.043c0,5.514-4.486,10-10,10H297.213c-5.522,0-10,4.478-10,10
			c0,5.522,4.478,10,10,10h184.786c16.542,0,30.001-13.458,30.001-30.001V274.955C511.999,258.413,498.541,244.954,481.998,244.954z
			 M22.915,268.686c-3.898-3.899-3.898-10.244,0.001-14.143L254.544,22.916c3.9-3.9,10.245-3.898,14.142,0l15.162,15.162
			L38.077,283.848L22.915,268.686z M124.426,370.195l-39.707-39.706l39.707-39.708V370.195z M293.826,244.954l22.749-22.749
			c3.905-3.905,3.905-10.237,0-14.142c-3.906-3.905-10.236-3.905-14.143,0l-36.89,36.891h-26.383l54.28-54.281
			c3.905-3.905,3.905-10.237,0-14.143c-3.906-3.905-10.236-3.905-14.143,0l-68.424,68.424h-40.617L280.606,134.6
			c3.905-3.905,3.905-10.237,0-14.142c-3.906-3.905-10.236-3.905-14.143,0L70.577,316.346L52.22,297.991l245.77-245.77
			l117.097,117.096c1.888,1.889,2.928,4.401,2.928,7.072s-1.04,5.182-2.929,7.071l-61.496,61.495H293.826z"/>
	</g>
</g>
<g>
	<g>
		<path d="M307.214,93.857c-1.86-1.86-4.439-2.93-7.08-2.93c-2.63,0.001-5.21,1.07-7.06,2.93c-1.87,1.86-2.931,4.44-2.931,7.07
			s1.061,5.21,2.931,7.07c1.85,1.86,4.43,2.93,7.06,2.93c2.641,0,5.22-1.07,7.08-2.93s2.93-4.44,2.93-7.07
			S309.075,95.717,307.214,93.857z"/>
	</g>
</g>
<g>
</g>
<g>
</g>
<g>
</g>
<g>
</g>
<g>
</g>
<g>
</g>
<g>
</g>
<g>
</g>
<g>
</g>
<g>
</g>
<g>
</g>
<g>
</g>
<g>
</g>
<g>
</g>
<g>
</g>
</svg>
