<svg id="Layer_1" data-name="Layer 1" xmlns="http://www.w3.org/2000/svg" viewBox="0 0 262.6 336.61"><defs><style>.cls-1{fill:#fff;}.cls-2{fill:#1a0e33;}.cls-3{fill:#0c0c0c;}.cls-4{fill:#2b2b2b;}.cls-5{fill:#e06f63;}.cls-6{fill:#e7edf2;}.cls-7{fill:#ddafaf;}</style></defs><title>signin2</title><path class="cls-1" d="M347.24,278.2l-.24-.91a7.75,7.75,0,0,1,2.25-.27h.35V278h-.33a8,8,0,0,0-2,.25Zm6.71,2.09a2.23,2.23,0,0,0-1.27-1.53,4.09,4.09,0,0,0-.79-.38l.33-.88a9.83,9.83,0,0,1,.93.43,3.13,3.13,0,0,1,1.71,2.25l-.91.11Zm-10.26.15a2.6,2.6,0,0,1,.94-1.92l.63.7a1.71,1.71,0,0,0-.63,1.22,1,1,0,0,0,.1.49l-.88.35A2.2,2.2,0,0,1,343.69,280.44Zm7.37,3.26-.18-.92a5.82,5.82,0,0,0,1.8-.66l.32-.19.53.77a3,3,0,0,1-.38.23,6.74,6.74,0,0,1-2.09.77Zm-5.17-.52.39-.86a6.73,6.73,0,0,0,2.25.58l-.08.92A8,8,0,0,1,345.89,283.18Z" transform="translate(-106.32 -84.7)"/><polygon class="cls-2" points="194.62 108.68 194.59 101.19 196.21 101.18 196.23 108.68 194.62 108.68 194.62 108.68"/><polygon class="cls-2" points="190.51 113.33 190.48 105.83 192.11 105.82 192.14 113.32 190.51 113.33 190.51 113.33"/><polygon class="cls-2" points="181.71 113.39 181.69 105.9 183.3 105.9 183.33 113.39 181.71 113.39 181.71 113.39"/><polygon class="cls-2" points="175.65 112.12 175.62 104.62 177.23 104.62 177.26 112.11 175.65 112.12 175.65 112.12"/><path class="cls-3" d="M158.76,355h0l.21.4a.17.17,0,0,0,0,.1,15.4,15.4,0,0,0,9.74,7.37l2.5-4.92L243.75,316c7.77-4.49,14.06-16.51,14.06-26.86V97.79a23.85,23.85,0,0,0-.15-2.53h0l2.64-4.05a25.8,25.8,0,0,0-7.86-5h0c-2.4-1.12-5.4-.9-8.69,1l-72.55,41.9c-7.75,4.48-14.06,16.51-14.06,26.87V347.29a17.22,17.22,0,0,0,1.55,7.61Z" transform="translate(-106.32 -84.7)"/><path class="cls-4" d="M256.68,94.23l.58.14,1.94-3a24,24,0,0,0-6.72-4.29h0l-.39-.19c-2.25-1.06-5-.73-7.93,1l-72.51,41.9c-7.53,4.36-13.66,16.09-13.66,26.17V347.29a16.51,16.51,0,0,0,1.46,7.26v.13l.2.39a14.9,14.9,0,0,0,8.59,6.82l2.32-4.57,72.79-42C250.88,311,257,299.22,257,289.15V97.79a19.81,19.81,0,0,0-.15-2.43l-.11-1.16ZM169.06,363.79l-.59-.11a16.11,16.11,0,0,1-10.28-7.75v-.13a4.86,4.86,0,0,1-.23-.43v-.08a18,18,0,0,1-1.63-8V156c0-10.6,6.49-23,14.47-27.57l72.58-41.9c3.35-1.94,6.5-2.32,9.28-1.1h.09a26.49,26.49,0,0,1,8.17,5.24l.47.47-2.87,4.39c.08.76.12,1.53.13,2.29V289.17c0,10.59-6.49,22.95-14.47,27.55L171.8,358.48l-2.69,5.26Z" transform="translate(-106.32 -84.7)"/><path class="cls-1" d="M163.27,351.18V159.84c0-10.36,6.29-22.39,14.06-26.87l72.58-41.9c7.75-4.48,14,.28,14,10.64V293.05c0,10.34-6.29,22.37-14,26.85l-72.58,41.9C169.56,366.29,163.27,361.54,163.27,351.18Z" transform="translate(-106.32 -84.7)"/><path class="cls-4" d="M176.94,361.11l72.56-41.9c7.53-4.35,13.66-16.08,13.66-26.16V101.71c0-5.1-1.67-9-4.46-10.67-2.25-1.32-5.23-1.07-8.35.74l-72.58,41.9c-7.53,4.34-13.64,16.08-13.64,26.16V351.18c0,5.1,1.66,9,4.44,10.67,2.26,1.32,5.23,1,8.35-.74Zm-5.2,3.2a7.88,7.88,0,0,1-4-1.06c-3.34-1.93-5.26-6.33-5.26-12.07V159.84c0-10.6,6.49-23,14.46-27.57l72.57-41.9c3.65-2.13,7.24-2.36,10-.73,3.34,1.92,5.26,6.33,5.26,12.07V293.05c0,10.6-6.48,23-14.46,27.56l-72.58,41.9a12,12,0,0,1-6,1.8Z" transform="translate(-106.32 -84.7)"/><path class="cls-5" d="M181.78,136.51c-7.18,4.14-13.06,14.25-13.06,22.6V352.6c0,4.51,3.2,6.36,7.1,4.11l69.74-40.26c7.19-4.15,13.06-14.32,13.06-22.6V100.35c0-4.59-3.2-6.43-7.11-4.17l-31.57,18.1a1.82,1.82,0,0,0-.92,1.61v2.78a8.5,8.5,0,0,1-4.18,7.28l-1.52.91a3.43,3.43,0,0,1-5.2-3v-1.63A.5.5,0,0,0,208,122a.52.52,0,0,0-.7-.18l-25.62,14.66Z" transform="translate(-106.32 -84.7)"/><path class="cls-4" d="M254.64,96.07a5.53,5.53,0,0,0-2.79.85L220.28,115a1,1,0,0,0-.51.91v2.78a9.36,9.36,0,0,1-4.51,8l-1.52.9a4.24,4.24,0,0,1-6.43-3.64v-1.13l-25.15,14.34c-7,4-12.66,13.86-12.66,21.91V352.55a3.55,3.55,0,0,0,5.89,3.41L245,315.73c7-4,12.64-13.85,12.64-21.9V100.34a4.15,4.15,0,0,0-1.67-3.9,3,3,0,0,0-1.39-.36ZM170.35,357.84a5.75,5.75,0,0,1-2.49-5.29V159.06c0-8.56,6-19,13.46-23.31l25.52-14.58a1.2,1.2,0,0,1,.5-.14,1.4,1.4,0,0,1,1.49,1.29V124a2.69,2.69,0,0,0,.37,1.35,2.63,2.63,0,0,0,3.61.9l1.52-.9a7.69,7.69,0,0,0,3.71-6.58v-2.79a2.7,2.7,0,0,1,1.39-2.31L251,95.52a5.14,5.14,0,0,1,8.35,4.82V293.83c0,8.56-6,19-13.46,23.3l-69.73,40.26a7.15,7.15,0,0,1-3.56,1.09A4.48,4.48,0,0,1,170.35,357.84Z" transform="translate(-106.32 -84.7)"/><path class="cls-2" d="M213.62,119.7c1-.57,1.78-.09,1.78,1a4,4,0,0,1-1.78,3.11c-1,.57-1.8.11-1.8-1A4,4,0,0,1,213.62,119.7Z" transform="translate(-106.32 -84.7)"/><path class="cls-5" d="M159.44,223.16h-.17c-.19.11-.3.43-.3.86v13a3.31,3.31,0,0,0,1.32,2.57l.23.14a.66.66,0,0,0,.56.08,1,1,0,0,0,.31-.86V226a3.22,3.22,0,0,0-1.33-2.58l-.23-.14a.89.89,0,0,0-.39-.12Zm1.47,17.61a1.72,1.72,0,0,1-.85-.25l-.23-.14h0A4.19,4.19,0,0,1,158,237V224a1.84,1.84,0,0,1,.77-1.67,1.41,1.41,0,0,1,1.49.08l.23.13a4.16,4.16,0,0,1,1.8,3.4v13a1.84,1.84,0,0,1-.77,1.67,1.28,1.28,0,0,1-.64.17Z" transform="translate(-106.32 -84.7)"/><path class="cls-5" d="M159.45,202.36a.43.43,0,0,0-.16,0c-.2.11-.31.43-.31.87v13a3.32,3.32,0,0,0,1.32,2.59l.24.14a.67.67,0,0,0,.55.09,1,1,0,0,0,.31-.87v-13a3.27,3.27,0,0,0-1.32-2.59l-.25-.14a.89.89,0,0,0-.39-.12Zm1.46,17.6a1.72,1.72,0,0,1-.85-.25l-.23-.14h0a4.17,4.17,0,0,1-1.8-3.4v-13a1.84,1.84,0,0,1,.77-1.67,1.41,1.41,0,0,1,1.49.08l.23.13a4.16,4.16,0,0,1,1.8,3.4v13a1.84,1.84,0,0,1-.77,1.67,1.28,1.28,0,0,1-.64.17Z" transform="translate(-106.32 -84.7)"/><path class="cls-5" d="M159.44,184.28h-.17c-.19.11-.3.43-.3.86v7.3a3.31,3.31,0,0,0,1.32,2.57l.23.14a.66.66,0,0,0,.56.08,1,1,0,0,0,.31-.86v-7.29a3.22,3.22,0,0,0-1.33-2.58l-.23-.14a.89.89,0,0,0-.39-.12Zm1.47,11.93a1.72,1.72,0,0,1-.85-.25l-.23-.13h0a4.16,4.16,0,0,1-1.8-3.39v-7.3a1.84,1.84,0,0,1,.77-1.67,1.39,1.39,0,0,1,1.49.09l.23.12a4.16,4.16,0,0,1,1.8,3.4v7.29a1.83,1.83,0,0,1-.77,1.67,1.28,1.28,0,0,1-.64.17Z" transform="translate(-106.32 -84.7)"/><path class="cls-5" d="M158.51,186.76v-1.62c0-1.18.71-1.68,1.57-1.18l.22.12a3.78,3.78,0,0,1,1.57,3v1.61c0,1.19-.71,1.69-1.57,1.19l-.22-.13A3.74,3.74,0,0,1,158.51,186.76Z" transform="translate(-106.32 -84.7)"/><path class="cls-5" d="M159.27,184.24c-.19.11-.3.43-.3.86v1.62a3.25,3.25,0,0,0,1.32,2.58l.23.13a.57.57,0,0,0,.56.08c.2-.11.31-.43.31-.86v-1.57a3.22,3.22,0,0,0-1.33-2.58l-.23-.14a.89.89,0,0,0-.39-.12A.49.49,0,0,0,159.27,184.24Zm1.64,6.3a1.73,1.73,0,0,1-.85-.26l-.23-.13h0a4.16,4.16,0,0,1-1.8-3.39v-1.62a1.84,1.84,0,0,1,.77-1.67,1.39,1.39,0,0,1,1.49.09l.23.12a4.16,4.16,0,0,1,1.8,3.4v1.61a1.83,1.83,0,0,1-.77,1.67,1.19,1.19,0,0,1-.64.18Z" transform="translate(-106.32 -84.7)"/><path class="cls-1" d="M243,248.44a4.28,4.28,0,0,0,1.77-3.4V238c0-1.39-.8-2-1.77-1.39l-59.22,34.19a4.28,4.28,0,0,0-1.78,3.31v7.06c0,1.39.79,2,1.78,1.39L243,248.35Z" transform="translate(-106.32 -84.7)"/><path class="cls-2" d="M243.2,248.33a3.78,3.78,0,0,0,1.55-3v-7.06a1.18,1.18,0,0,0-.38-1c-.22-.14-.53,0-.7.08l-59.21,34.21a3.84,3.84,0,0,0-1.55,3v7.06a1.18,1.18,0,0,0,.38,1,.71.71,0,0,0,.69-.1l59.22-34.19Zm-59.69,35.28a1.48,1.48,0,0,1-.68-.19,2,2,0,0,1-.85-1.83v-7.06a4.68,4.68,0,0,1,2-3.8l59.22-34.2a1.61,1.61,0,0,1,1.64-.09,2,2,0,0,1,.84,1.84v7.06a4.7,4.7,0,0,1-2,3.8l-59.21,34.19a1.88,1.88,0,0,1-1,.28Z" transform="translate(-106.32 -84.7)"/><polygon class="cls-2" points="135.53 160.96 135.53 155.45 136.46 154.91 136.46 160.42 135.53 160.96 135.53 160.96"/><path class="cls-2" d="M240.24,244.69a1.35,1.35,0,0,0-.16-.79c-.12-.16-.3-.14-.55,0a1.19,1.19,0,0,0-.54.61,2.48,2.48,0,0,0-.17,1,1.49,1.49,0,0,0,.17.8c.11.15.28.15.53,0a1.35,1.35,0,0,0,.56-.62,2.54,2.54,0,0,0,.16-1Zm-2.38,1.38a3.5,3.5,0,0,1,.21-1.21,3.25,3.25,0,0,1,.57-1.05,2.88,2.88,0,0,1,.88-.75c.53-.31.95-.38,1.24-.18s.43.61.43,1.25a3.84,3.84,0,0,1-.2,1.21,3.53,3.53,0,0,1-.58,1.06,3.16,3.16,0,0,1-.88.75c-.53.31-.93.36-1.22.17a1.41,1.41,0,0,1-.45-1.25Z" transform="translate(-106.32 -84.7)"/><path class="cls-2" d="M236.29,246.18c0-.42-.18-.61-.51-.42a1.06,1.06,0,0,0-.52,1,.57.57,0,0,0,.13.43c.08.11.21.1.39,0a1,1,0,0,0,.37-.42,1.08,1.08,0,0,0,.14-.58Zm.34,3.06c0-.15-.06-.28-.17-.28a.6.6,0,0,0-.43.11l-.49.28a2.9,2.9,0,0,0-.53.39.69.69,0,0,0-.17.41.17.17,0,0,0,0,.07.24.24,0,0,0,.29.2,1.87,1.87,0,0,0,.78-.3,1.63,1.63,0,0,0,.52-.42.73.73,0,0,0,.19-.46Zm-2.69-3,1.2-.69.25-.2.34-.22a1.25,1.25,0,0,1,1.05-.25c.24.1.36.36.36.79a2.18,2.18,0,0,1-.58,1.48.54.54,0,0,1,.32.11.32.32,0,0,1,.12.3,1,1,0,0,1-.11.41,1.15,1.15,0,0,1-.25.37.71.71,0,0,1,.57,0,.58.58,0,0,1,.2.49,1.81,1.81,0,0,1-.39,1,3.28,3.28,0,0,1-1.1.93,2.43,2.43,0,0,1-1.4.45c-.33-.07-.5-.32-.5-.79a1.72,1.72,0,0,1,.3-1,2.39,2.39,0,0,1,.86-.78l.58-.34c.34-.21.52-.37.52-.53a.2.2,0,0,0-.14-.2l-.14.09-.18.11a1.38,1.38,0,0,1-1.07.27c-.25-.1-.38-.35-.38-.78a1.76,1.76,0,0,1,.14-.68l-.53.15v-.54Z" transform="translate(-106.32 -84.7)"/><path class="cls-2" d="M232.46,247.11l.94-.54v4l-.94.54Zm.46-.78c-.16.08-.25.13-.37.08s-.13-.15-.13-.32a.93.93,0,0,1,.5-.82c.35-.19.52-.11.52.24A.9.9,0,0,1,232.92,246.33Z" transform="translate(-106.32 -84.7)"/><path class="cls-2" d="M228.34,253.49V250.9a2.4,2.4,0,0,1,1.21-2.16,1.8,1.8,0,0,1,.63-.21.47.47,0,0,1,.43.18h0l.13-.58.71-.41v4l-.94.53v-1.87a1.41,1.41,0,0,0-.18-.9c-.11-.16-.29-.16-.55,0a1,1,0,0,0-.43.45,1.85,1.85,0,0,0-.13.73v2.31l-.93.54Z" transform="translate(-106.32 -84.7)"/><path class="cls-1" d="M243,266.19a4.28,4.28,0,0,0,1.77-3.4v-7.06c0-1.39-.8-2-1.77-1.39l-59.22,34.19a4.27,4.27,0,0,0-1.78,3.41v7c0,1.39.79,2,1.78,1.39L243,266.19Z" transform="translate(-106.32 -84.7)"/><path class="cls-2" d="M243.2,265.15a3.78,3.78,0,0,0,1.55-3v-7.05a1.19,1.19,0,0,0-.38-1,.74.74,0,0,0-.7.1l-59.21,34.18a3.86,3.86,0,0,0-1.55,3v7c0,.52.14.91.38,1a.74.74,0,0,0,.69-.08l59.22-34.2Zm-59.69,35.29a1.6,1.6,0,0,1-.68-.18,2.06,2.06,0,0,1-.85-1.86v-7a4.71,4.71,0,0,1,2-3.8l59.22-34.19a1.61,1.61,0,0,1,1.64-.1,2,2,0,0,1,.84,1.85v7.05a4.71,4.71,0,0,1-2,3.81l-59.21,34.19a2,2,0,0,1-1,.28Z" transform="translate(-106.32 -84.7)"/><path class="cls-2" d="M241.18,258.77a1.06,1.06,0,0,0-.49.57,2.4,2.4,0,0,0-.17,1c0,.83.23,1.08.64.83a1.25,1.25,0,0,0,.52-.57,2.68,2.68,0,0,0,.17-1v-.12a1.22,1.22,0,0,0-.17-.72c-.11-.15-.28-.14-.5,0Zm-.24,3.37a1.1,1.1,0,0,1-.71.16.74.74,0,0,1-.46-.44,2.94,2.94,0,0,1-.15-1,4.17,4.17,0,0,1,.33-1.71,2.54,2.54,0,0,1,1-1.09c.43-.28.75-.26,1,0h0l.12-.58.77-.45v5.71l-.93.54v-2.21h0a2.5,2.5,0,0,1-.95,1.06Z" transform="translate(-106.32 -84.7)"/><path class="cls-2" d="M236.89,262.83c0,.25.07.47.2.47a.52.52,0,0,0,.52-.08.79.79,0,0,0,.46-.72c0-.21-.07-.36-.21-.36a1,1,0,0,0-.61.18l-.36.19Zm-.28,1.69-.65.39v-2.65a2.21,2.21,0,0,1,.36-1.27,3.16,3.16,0,0,1,1.06-1,2.55,2.55,0,0,1,1.32-.4l-.32.9a2.27,2.27,0,0,0-1,.28,1,1,0,0,0-.54.91v.18l.6-.34a2.11,2.11,0,0,1,1.15-.33c.25.06.38.29.38.71a2.11,2.11,0,0,1-1.06,1.88,1.55,1.55,0,0,1-.66.24.67.67,0,0,1-.48-.2h0l-.18.64Z" transform="translate(-106.32 -84.7)"/><path class="cls-2" d="M232.64,265.66a2,2,0,0,1,.37-1.09,5.6,5.6,0,0,1,.6-.69c.29-.31.48-.53.58-.66a.61.61,0,0,0,.13-.32c0-.15-.13-.15-.41,0a3.1,3.1,0,0,0-.46.35l-.49.49-.27-.62a4.72,4.72,0,0,1,1.21-1,1.44,1.44,0,0,1,1-.29c.24.05.35.26.35.61a1.64,1.64,0,0,1-.09.62,1.74,1.74,0,0,1-.26.53,6.53,6.53,0,0,1-.58.7l-.45.49a1.4,1.4,0,0,0-.22.32.32.32,0,0,0-.07.23c0,.18.16.2.5,0a3.48,3.48,0,0,0,.58-.43,8.07,8.07,0,0,0,.59-.58v.9a5.7,5.7,0,0,1-.55.42,3.92,3.92,0,0,1-.64.42,1.64,1.64,0,0,1-1.1.32c-.23-.07-.36-.31-.36-.73Z" transform="translate(-106.32 -84.7)"/><path class="cls-2" d="M229.48,267.48a1.77,1.77,0,0,1,.09-.56,2,2,0,0,1,.28-.54,5.35,5.35,0,0,1,.58-.68A6.17,6.17,0,0,0,231,265a.58.58,0,0,0,.14-.33c0-.15-.14-.17-.42,0a2.66,2.66,0,0,0-.46.35,4.45,4.45,0,0,0-.48.49l-.29-.63a4.82,4.82,0,0,1,1.21-1,1.53,1.53,0,0,1,1-.3c.23.06.36.27.36.62a1.88,1.88,0,0,1-.09.57,2.21,2.21,0,0,1-.27.53,6.39,6.39,0,0,1-.59.68l-.43.5a2.34,2.34,0,0,0-.24.31.66.66,0,0,0-.07.25c0,.18.17.19.52,0a3.8,3.8,0,0,0,.57-.42,5.39,5.39,0,0,0,.58-.59v.9a5.11,5.11,0,0,1-.48.45,6.62,6.62,0,0,1-.64.44,1.68,1.68,0,0,1-1.1.32c-.25-.09-.37-.32-.37-.73Z" transform="translate(-106.32 -84.7)"/><path class="cls-2" d="M226.14,270.67l-1,.58-1-3.39.92-.53.42,1.51a2,2,0,0,0,.09.55,1.74,1.74,0,0,1,.1.65h0v-1.25l.39-2.13,1-.6.42,1.66V268a4.18,4.18,0,0,1,.11.79h0c.06-.57.18-1,.18-1.39l.41-2,.93-.55-1,4.54-1,.57-.62-2.78h0l-.36,1.95-.27,1.54Z" transform="translate(-106.32 -84.7)"/><path class="cls-2" d="M222.62,270.61a1.36,1.36,0,0,0-.16-.79c-.12-.15-.3-.14-.55,0a1.23,1.23,0,0,0-.54.61,2.5,2.5,0,0,0-.17,1,1.45,1.45,0,0,0,.17.79q.16.23.54,0a1.25,1.25,0,0,0,.55-.61,2.78,2.78,0,0,0,.16-1ZM220.24,272a3.58,3.58,0,0,1,.21-1.21,3.1,3.1,0,0,1,.57-1,2.91,2.91,0,0,1,.88-.76c.53-.3.94-.37,1.24-.18s.43.62.43,1.27a3.52,3.52,0,0,1-.2,1.2,3.48,3.48,0,0,1-.58,1.05,2.91,2.91,0,0,1-.88.76c-.51.3-.93.36-1.22.16a1.39,1.39,0,0,1-.45-1.25Z" transform="translate(-106.32 -84.7)"/><path class="cls-2" d="M217.61,271.45a.82.82,0,0,1,.59-.14.57.57,0,0,1,.43.29h0l.14-.75.71-.4v4l-.95.55v-2c0-.32-.08-.52-.25-.6a.8.8,0,0,0-.7.12l-.28.2-.06-1a2.49,2.49,0,0,1,.32-.2Z" transform="translate(-106.32 -84.7)"/><path class="cls-2" d="M215.2,276.06a1.31,1.31,0,0,0,.5-.59,2.48,2.48,0,0,0,.17-1,1.32,1.32,0,0,0-.17-.8q-.16-.17-.48,0a1.35,1.35,0,0,0-.56.6,2.73,2.73,0,0,0-.17,1v.11c0,.39.07.63.18.72s.28.07.53-.07Zm.34.71c-.43.26-.75.26-1,0h0l-.18.62-.72.42v-5.57l.93-.54V273a4.65,4.65,0,0,1-.07.83h0a2.37,2.37,0,0,1,1-1.15q.6-.34,1,0a1.82,1.82,0,0,1,.35,1.32,4.17,4.17,0,0,1-.34,1.7,2.29,2.29,0,0,1-1,1.08Z" transform="translate(-106.32 -84.7)"/><path d="M241.48,155a5.22,5.22,0,0,0-2.57.78l-48.3,27.84c-3.85,2.17-7,8.19-7,13.31v53.13c0,2.54.8,4.51,2.19,5.32A4.09,4.09,0,0,0,190,255l48.29-27.84c3.84-2.17,7-8.17,7-13.3V160.67c0-2.53-.81-4.51-2.2-5.32a3.18,3.18,0,0,0-1.54-.4ZM187.46,257a4.34,4.34,0,0,1-2.17-.57c-1.77-1-2.79-3.37-2.79-6.4V196.88c0-5.53,3.39-12,7.56-14.38l48.29-27.84a5.26,5.26,0,0,1,5.38-.39c1.75,1,2.78,3.37,2.78,6.4v53.22c0,5.54-3.38,12-7.56,14.39l-48.3,27.84a6.33,6.33,0,0,1-3.19,1Z" transform="translate(-106.32 -84.7)"/><path d="M237.63,223.14a9.22,9.22,0,0,0,3.83-7.36V163.07a3.16,3.16,0,0,0-1.12-2.79,2.15,2.15,0,0,0-2.09.22l-46.93,27.11a9.23,9.23,0,0,0-3.83,7.36v52.74a3.12,3.12,0,0,0,1.13,2.79,2.15,2.15,0,0,0,2.08-.22Zm-48.25,28.79a2.6,2.6,0,0,1-1.39-.36,4.25,4.25,0,0,1-1.74-3.88V195a10.43,10.43,0,0,1,4.45-8.45l46.87-27.1a3.26,3.26,0,0,1,3.34-.21,4.27,4.27,0,0,1,1.74,3.88v52.73a10.46,10.46,0,0,1-4.45,8.45l-46.94,27.09h0a4.05,4.05,0,0,1-1.95.57Z" transform="translate(-106.32 -84.7)"/><path class="cls-6" d="M218,219.69l-1.71,1.2-9.75,4.5c-16.77,9.38-15.18,25.25-15.18,25.25L235.9,224.9c-7.11-14.83-17.91-5.21-17.91-5.21Z" transform="translate(-106.32 -84.7)"/><path d="M235.14,224.61c-2.12-4.19-4.74-6.63-7.78-7.24-4.74-.92-8.91,2.78-8.91,2.78l-1.87,1.3-9.74,4.46C193,233.65,191.93,246,191.93,249.58l43.15-24.93Zm-44.35,27-.09-1c0-.15-1.39-16.38,15.59-25.82l9.65-4.43,1.68-1.18c.44-.37,4.82-4,9.93-3,3.59.71,6.6,3.56,8.94,8.45l.25.52L190.8,251.65Z" transform="translate(-106.32 -84.7)"/><path class="cls-6" d="M207.56,210.13c1.3,7.11-1.73,17.8-1.73,17.8s2.15,4.83,7.33,1.2,5-7.31,5-7.31c-1.62-1.95-1.19-6.67-1.19-6.67a13.09,13.09,0,0,0,4.73-2.78,51.35,51.35,0,0,0,4.58-13.08c1.56-7.72-.42-13.83-4.93-16,0,0-15.07,19.65-13.78,26.77Z" transform="translate(-106.32 -84.7)"/><path d="M217.61,222.09c-1.6-2.23-1.2-6.77-1.2-7v-.45l.42-.1a12.4,12.4,0,0,0,4.4-2.52,49.86,49.86,0,0,0,4.47-12.83c1.39-7.1-.18-12.81-4.18-15-2.14,2.87-14.47,19.66-13.35,25.87,1.21,6.71-1.21,16.17-1.67,17.84a4,4,0,0,0,2.26,1.88,4.89,4.89,0,0,0,4.05-1.13c4.2-2.95,4.72-5.84,4.72-6.58Zm-8,9a4.25,4.25,0,0,1-1.18-.16,5.22,5.22,0,0,1-3.14-2.79l-.09-.21v-.21c0-.11,3-10.56,1.71-17.52h0c-1.31-7.3,13.29-26.45,13.92-27.27l.3-.39.45.21c4.87,2.36,6.88,8.75,5.28,16.7a51.78,51.78,0,0,1-4.64,13.25l-.14.17a13.75,13.75,0,0,1-4.56,2.79c-.07,1.49,0,4.49,1.08,5.79l.14.15v.21c0,.17.13,4.08-5.26,7.85a7,7,0,0,1-3.93,1.48Z" transform="translate(-106.32 -84.7)"/><path class="cls-6" d="M203.68,216.12c3.37,2.35,3.37,4.66,3.37,4.66l.58-2.16c3.23-4.8,2.1-7.59,2.1-7.59s-2.53-3.14,0-5.88,4.18-1.27,4.18-1.27c7.84-7.21,9-14.52,9-14.52,4-1.1,4,3.26,4,3.26,2.59-4.9,3.07-8.16,3.07-9.94a3.88,3.88,0,0,0-1-2.87c-1.8-1.6-4.65.6-4.65.6-1.12-3-8.52-3.83-17,7.31-5.33,7-6.27,14.35-5.43,19.17h0S200.31,213.76,203.68,216.12Z" transform="translate(-106.32 -84.7)"/><path d="M209.2,211.3a5.11,5.11,0,0,1,.1-6.6c2-2.25,3.7-2,4.5-1.63,7.26-6.87,8.43-13.77,8.43-13.83v-.41l.39-.11a3.62,3.62,0,0,1,3.27.42,3.5,3.5,0,0,1,1.14,1.57,18.92,18.92,0,0,0,2.19-8.06,3.22,3.22,0,0,0-.82-2.39c-1.39-1.24-3.86.61-3.86.61l-.66.51-.3-.79a2.59,2.59,0,0,0-2.25-1.49c-3-.44-8.06,1.69-13.63,9-6.45,8.5-5.71,16.45-5.32,18.68V207c0,.05-1.4,6.49,1.64,8.57a9.49,9.49,0,0,1,2.94,3l.13-.36c2.71-4,2.18-6.53,2.07-7ZM206.28,226l.15-5.25s0-2.07-3.09-4.18c-3.56-2.39-2.38-8.75-2.17-9.74-.42-2.46-1.08-10.72,5.57-19.49,7.35-9.71,13.18-9.69,14.81-9.45a4.16,4.16,0,0,1,2.88,1.62c1-.63,3.22-1.55,4.83-.16a4.41,4.41,0,0,1,1.24,3.31c0,1.9-.51,5.29-3.15,10.25l-1.15,2.19v-2.48a3.64,3.64,0,0,0-1-2.47,2.18,2.18,0,0,0-1.81-.27c-.37,1.68-2.11,8.07-9.07,14.46l-.42.37-.42-.37s-1.12-1.05-3.25,1.24-.09,4.95,0,5.06l.09.16c0,.14,1.19,3.17-2.11,8.09L206.25,226Z" transform="translate(-106.32 -84.7)"/><path d="M223.43,189.33h-1.25a2.74,2.74,0,0,0-.6-2.27,1.44,1.44,0,0,0-1.07-.18l-.37-1.19a2.55,2.55,0,0,1,2.19.39,3.76,3.76,0,0,1,1.1,3.29Z" transform="translate(-106.32 -84.7)"/><path d="M202.34,207.19l-1.13-.5a3.19,3.19,0,0,1,3.36-2.17l-.24,1.22c-.12-.06-1.27-.22-2,1.4Z" transform="translate(-106.32 -84.7)"/><path d="M210.82,212.27a1.7,1.7,0,0,1-.45,0,1.8,1.8,0,0,1-1.21-1l1.1-.58a.57.57,0,0,0,.39.32,2.79,2.79,0,0,0,1.81-.67l.75,1a4.61,4.61,0,0,1-2.39.93Z" transform="translate(-106.32 -84.7)"/><path d="M221.52,206.8a1.49,1.49,0,0,1-1.11-.46l.88-.87c.18.19.59,0,.9-.12v-4.1h1.24V206l-.25.18a3.09,3.09,0,0,1-1.66.59Z" transform="translate(-106.32 -84.7)"/><path d="M218.15,202.57l-.9-.85a5.16,5.16,0,0,1,4.29-2l-.2,1.24a4,4,0,0,0-3.19,1.57Z" transform="translate(-106.32 -84.7)"/><path d="M224.64,200.15l-.92-.85a2.63,2.63,0,0,1,1.95-1,1.53,1.53,0,0,1,1.1.57l-1,.76a.21.21,0,0,0-.19,0c-.1,0-.43,0-1,.61Z" transform="translate(-106.32 -84.7)"/><path d="M216.36,215.81a6.52,6.52,0,0,1-2.06-.32l.39-1.18a5.36,5.36,0,0,0,2.18.22l.17,1.24h-.68Z" transform="translate(-106.32 -84.7)"/><path class="cls-1" d="M280,359.65a8.1,8.1,0,0,0-2-.25h-.32v-.93H278a9,9,0,0,1,2.25.28l-.23.9Zm-6.64,2.09-.93-.11a3.16,3.16,0,0,1,1.72-2.23A4.88,4.88,0,0,1,275,359l.32.88a4.68,4.68,0,0,0-.79.36,2.24,2.24,0,0,0-1.25,1.53Zm10.08,1-.87-.35a1.16,1.16,0,0,0,.1-.49,1.68,1.68,0,0,0-.64-1.22l.64-.7a2.61,2.61,0,0,1,.93,1.92,2.2,2.2,0,0,1-.16.84Zm-9.29,1.67-.39-.25.54-.77.31.21a6.21,6.21,0,0,0,1.81.64l-.18.92A6.8,6.8,0,0,1,274.11,364.4Zm4.71.89-.09-.93a7.66,7.66,0,0,0,2.26-.57l.39.84a8.13,8.13,0,0,1-2.56.66Z" transform="translate(-106.32 -84.7)"/><path class="cls-1" d="M365.33,383.32a8.1,8.1,0,0,0-2-.25H363v-.93h.34a9.08,9.08,0,0,1,2.27.25l-.23.91Zm-7.58,1.95a3.06,3.06,0,0,1,1.71-2.22,5.68,5.68,0,0,1,.93-.45l.32.88a5.56,5.56,0,0,0-.78.37,2.24,2.24,0,0,0-1.25,1.53Zm10.14.75a1.33,1.33,0,0,0,.1-.48,1.7,1.7,0,0,0-.64-1.24l.63-.68a2.58,2.58,0,0,1,.94,1.92,2.35,2.35,0,0,1-.16.83Zm-6.33,2.78a6.8,6.8,0,0,1-2.1-.77l-.38-.24.54-.76a2,2,0,0,0,.31.19,5.79,5.79,0,0,0,1.81.66l-.18.92Zm2.52-.8a7.23,7.23,0,0,0,2.25-.57l.39.84a7.79,7.79,0,0,1-2.56.65Z" transform="translate(-106.32 -84.7)"/><path class="cls-1" d="M113.91,357.08a8.76,8.76,0,0,0-2-.25h-.3v-.93h.33a9.11,9.11,0,0,1,2.27.28l-.24.9Zm-6.66,2.09-.93-.11a3.14,3.14,0,0,1,1.73-2.23,5.64,5.64,0,0,1,.93-.43l.32.88a5.75,5.75,0,0,0-.8.36,2.27,2.27,0,0,0-1.25,1.53Zm10.09,1-.87-.33a1.23,1.23,0,0,0,.09-.5,1.72,1.72,0,0,0-.62-1.23l.62-.69a2.64,2.64,0,0,1,.94,1.92,2.4,2.4,0,0,1-.16.83ZM108,361.83l-.37-.25.54-.76.3.2a5.93,5.93,0,0,0,1.81.64l-.18.92A6.69,6.69,0,0,1,108,361.83Zm4.72.89-.08-.93a7,7,0,0,0,2.24-.57l.39.85a7.79,7.79,0,0,1-2.55.65Z" transform="translate(-106.32 -84.7)"/><path d="M350.79,174.81l-5.34,11.47c-7.46,76-42,113.61-43.65,115.33h0a6.26,6.26,0,0,1-3.66,2.12h0a18.85,18.85,0,0,1-4.18-.2l-.78,2.31-11.69-7.14h0C269,290.56,254,269.54,253.12,215.54l-.07-4.17a4,4,0,0,1,2.33-3.55l3.56-1.16c.75-.23,18.36-6.32,36.85-31.44.39-.54.82-1.05,1.26-1.55h0a10.16,10.16,0,0,1,6-3.45,4.23,4.23,0,0,1,1.23,0c19.23,3.54,36.66-10.87,36.84-11l3.59-3c.76-.64,1.49-.71,1.94-.32l9.65,5.9a.22.22,0,0,1,.09.29Z" transform="translate(-106.32 -84.7)"/><path d="M304.11,171a3.53,3.53,0,0,0-.65,0h-.17a9.43,9.43,0,0,0-5.44,3.21,16.86,16.86,0,0,0-1.21,1.47C278,201,260.15,207.12,259.4,207.37l-3.56,1.16a3.27,3.27,0,0,0-1.79,2.78v4.18c.85,53.65,15.71,74.47,28,82.49l10.82,6.63.68-2,.65.1a18.72,18.72,0,0,0,4,.19,5.42,5.42,0,0,0,3.17-1.86c1.5-1.6,36-39,43.47-114.88v-.27l5.21-11.39,5.4-12.29-9.4-5.75c-.08-.08-.43,0-.87.35l-3.55,3.06c-.74.56-18.17,14.69-37.5,11.14ZM294.6,304.33l-.89,2.64L281,299.4c-12.65-8.26-27.89-29.54-28.76-83.83l-.07-4.17a4.89,4.89,0,0,1,2.88-4.33l3.58-1.14c.73-.25,18.1-6.25,36.43-31.17.5-.59,1-1.13,1.39-1.62a10.83,10.83,0,0,1,6.46-3.7,5.94,5.94,0,0,1,1.46,0c18.63,3.43,35.5-10.26,36.2-10.84l3.59-3a2.26,2.26,0,0,1,2.91-.36l9.6,5.87a1,1,0,0,1,.41,1.28h0l-5.57,12.75-5.17,11.29C338.72,262.75,304,300.5,302.52,302.07a7,7,0,0,1-4.17,2.4,20.64,20.64,0,0,1-3.77-.11Z" transform="translate(-106.32 -84.7)"/><path class="cls-1" d="M356.26,161.77a.23.23,0,0,1,.09.28l-5.56,12.76-5.25,11.39q-.72,7.13-1.71,13.78l-61.13,25.8-29-16.46a3.39,3.39,0,0,1,1.69-1.5l3.56-1.16c.75-.23,18.36-6.32,36.85-31.44.39-.54.82-1.05,1.26-1.55h0a10.16,10.16,0,0,1,6-3.45,4.23,4.23,0,0,1,1.23,0c19.23,3.54,36.66-10.87,36.84-11l3.59-3c.76-.64,1.49-.71,1.94-.32Z" transform="translate(-106.32 -84.7)"/><path class="cls-2" d="M255.72,208.54a1.81,1.81,0,0,0-.73.49l27.84,15.81,60.41-25.42c.65-4.37,1.2-8.83,1.64-13.27v-.27l5.21-11.39,5.4-12.29-9.4-5.75c-.08-.08-.43,0-.87.35l-3.55,3c-.74.56-18.17,14.69-37.5,11.14a4.35,4.35,0,0,0-1,0,9.43,9.43,0,0,0-5.44,3.21,16.86,16.86,0,0,0-1.21,1.47C277.87,201,260,207.12,259.26,207.37l-3.56,1.16Zm88.8-7.95-61.9,26.08L252.55,209.6l.43-.71a4.33,4.33,0,0,1,2.12-1.84l3.58-1.14c.72-.25,18.09-6.25,36.42-31.17.51-.58.95-1.12,1.4-1.61a10.72,10.72,0,0,1,6.46-3.7,5.1,5.1,0,0,1,1.46,0c18.62,3.42,35.49-10.26,36.19-10.85l3.59-3a2.26,2.26,0,0,1,2.91-.37l9.61,5.88a1,1,0,0,1,.4,1.28l-5.57,12.76-5.16,11.29c-.45,4.58-1,9.18-1.7,13.67l-.07.45Z" transform="translate(-106.32 -84.7)"/><path class="cls-7" d="M274.74,221a3.83,3.83,0,0,0-1.78,3.16c2.81,59,24,72.15,33.61,74.32,1.59.36,4.51-2.47,6.12-4.65,9.68-13.25,31.61-49.83,34.39-112.48.06-1.18-.75-1.69-1.75-1.1-7.74,4.61-20.28,10.22-33.76,8.69a3.79,3.79,0,0,0-3,1.77c-13.25,17-26,25.95-33.8,30.29Zm37,86.64h0a6.2,6.2,0,0,1-3.65,2.11h0c-1.78.16-43.66,2.93-45.05-88.18l-.07-4.18a4.09,4.09,0,0,1,2.33-3.53l3.58-1.16c.73-.23,18.34-6.32,36.83-31.44a15.71,15.71,0,0,1,1.28-1.55h0a10.08,10.08,0,0,1,5.94-3.45h0a4.29,4.29,0,0,1,1.24,0c19.24,3.52,36.67-10.87,36.83-11l3.6-3c1.21-1,2.33-.56,2.33.83l-.07,4.29c-1.43,92.76-43.26,138.31-45,140.2Z" transform="translate(-106.32 -84.7)"/><path d="M273.76,224.15c3,62,26,72,33,73.58.94.21,3.5-1.89,5.3-4.34,9.35-12.81,31.45-49.41,34.23-112a.8.8,0,0,0-.1-.5.61.61,0,0,0-.44.13c-8.16,4.87-20.74,10.34-34.25,8.79-.57-.07-1.46.38-2.32,1.48-13.16,16.87-25.77,25.89-34,30.5a3.06,3.06,0,0,0-1.39,2.41Zm39.57,70.13c-1.33,1.81-4.26,5-6.48,5a1.77,1.77,0,0,1-.46,0c-7.26-1.64-31.23-11.92-34.24-75.06h0a4.66,4.66,0,0,1,2.2-3.9c8.14-4.52,20.57-13.37,33.56-30.08a4.52,4.52,0,0,1,3.76-2.07c13.08,1.5,25.29-3.84,33.24-8.58a2,2,0,0,1,2.08-.14,2.07,2.07,0,0,1,.89,2c-2.82,63.1-25.1,100-34.55,112.9Zm.75-117.18a3.64,3.64,0,0,0-.66,0h-.34a9.33,9.33,0,0,0-5.45,3.2c-.37.46-.73.95-1.06,1.45-18.62,25.32-36.47,31.48-37.22,31.73l-3.58,1.16a3.24,3.24,0,0,0-1.76,2.78v4.18c.76,48.54,13.23,69.84,23.49,79S307.77,309,308.19,309a5.42,5.42,0,0,0,3.17-1.86h0c1.77-1.87,43.45-47.21,44.84-139.68v-4.29c0-.33-.06-.51-.17-.57s-.43,0-.86.37l-3.59,3c-.74.56-18.17,14.69-37.5,11.14Zm-6,133.55h-1.21c-3.22,0-11.83-.84-20.73-8.83-10.54-9.46-23.24-31.05-24-80.18v-4.17a4.83,4.83,0,0,1,2.88-4.32L268.6,212c.72-.25,18.11-6.25,36.44-31.17a17.74,17.74,0,0,1,1.4-1.61,10.74,10.74,0,0,1,6.45-3.71,5.47,5.47,0,0,1,1.4,0c18.61,3.41,35.48-10.26,36.19-10.84l3.58-3a2.39,2.39,0,0,1,2.57-.58,2.1,2.1,0,0,1,1.09,2v4.29c-1.45,93.07-43.49,138.84-45.28,140.75h0a6.88,6.88,0,0,1-4.18,2.37Z" transform="translate(-106.32 -84.7)"/><path class="cls-7" d="M345.33,180.3c1-.6,1.75-.09,1.75,1.1-2.8,62.64-24.65,99.22-34.39,112.47-1.61,2.19-4.53,5-6.12,4.65C297,296.35,275.74,283.27,273,224.2a3.84,3.84,0,0,1,1.78-3.16c7.84-4.34,20.55-13.28,33.8-30.29a3.79,3.79,0,0,1,3-1.77c13.48,1.54,26-4.07,33.76-8.68Z" transform="translate(-106.32 -84.7)"/><path d="M345.33,180.28c1-.59,1.75-.08,1.75,1.1-2.8,62.65-24.65,99.23-34.39,112.48-1.61,2.18-4.53,5-6.12,4.65a22.12,22.12,0,0,1-4.6-1.64,16.14,16.14,0,0,0,4.38-4.18c9.55-13.07,31-48.8,34.25-109.8,1.72-.87,3.34-1.74,4.73-2.59Z" transform="translate(-106.32 -84.7)"/><path class="cls-5" d="M307,293.15a19.49,19.49,0,0,1-3.41,3.56,19.19,19.19,0,0,0,3.14,1c.93.21,3.51-1.89,5.31-4.34,9.35-12.81,31.44-49.41,34.23-112a.8.8,0,0,0-.1-.5.63.63,0,0,0-.45.13c-1.42.85-2.88,1.65-4.35,2.4C338,244.67,316.21,280.62,307,293.15Zm6.26,1.13c-1.32,1.81-4.26,5-6.47,5a1.77,1.77,0,0,1-.46,0,23.26,23.26,0,0,1-4.78-1.7l-1.39-.67,1.39-.75a15.64,15.64,0,0,0,4.18-4c9.15-12.51,30.79-48.23,34.09-109.37v-.47l.42-.21c1.57-.79,3.14-1.66,4.66-2.55h0a2,2,0,0,1,2.08-.14,2.07,2.07,0,0,1,.89,2c-2.82,63.11-25.1,100-34.55,112.9Z" transform="translate(-106.32 -84.7)"/><polygon class="cls-2" points="157.19 131.01 157.97 129.62 147.83 123.87 147.05 125.26 157.19 131.01 157.19 131.01"/><polygon class="cls-2" points="204.99 92.3 205.78 90.91 195.65 85.16 194.85 86.55 204.99 92.3 204.99 92.3"/><path d="M311.39,189.76a3.31,3.31,0,0,0-2.21,1.48c-13.16,16.87-25.77,25.89-34,30.5a3.06,3.06,0,0,0-1.39,2.41c3,62,26,72,33,73.58.93.21,3.51-1.89,5.31-4.34,9.35-12.81,31.44-49.41,34.23-112a.8.8,0,0,0-.1-.5.63.63,0,0,0-.45.13c-8.15,4.87-20.74,10.34-34.24,8.79Zm1.94,104.52c-1.33,1.81-4.26,5-6.48,5a1.77,1.77,0,0,1-.46,0c-7.26-1.64-31.23-11.92-34.24-75.06a4.66,4.66,0,0,1,2.2-3.9c8.14-4.52,20.57-13.37,33.56-30.08a4.52,4.52,0,0,1,3.76-2.07c13.08,1.5,25.29-3.84,33.24-8.58h0a2,2,0,0,1,2.08-.14,2.07,2.07,0,0,1,.89,2c-2.82,63.11-25.1,100-34.55,112.9Z" transform="translate(-106.32 -84.7)"/><path class="cls-1" d="M290.93,236.81v17.67a7.14,7.14,0,0,0,1.22,4.38l.34.35a2.74,2.74,0,0,0,.51.45c1.65,1.49,5.47,4.59,9.32,5.11l6.52-11.86,1.51-.87c3.63-2,6.58-7.67,6.58-12.52V238.3l7.3-13.22a11.37,11.37,0,0,0-8.12-4.9,1.3,1.3,0,0,0-1.1.17l-22.16,12.79a4.58,4.58,0,0,0-1.92,3.67Z" transform="translate(-106.32 -84.7)"/><path d="M323.22,225.12a10.88,10.88,0,0,0-7.29-4.17h-.15a.49.49,0,0,0-.42.11L293.2,233.85a3.78,3.78,0,0,0-1.52,3v17.7a6.4,6.4,0,0,0,1,3.83l.38.37a2,2,0,0,0,.43.38c1.39,1.25,4.86,4.1,8.35,4.81l6.36-11.55,1.7-1c3.4-2,6.18-7.3,6.18-11.88V238.1l7.16-13ZM302.69,265.7l-.56-.08c-3.95-.53-7.8-3.55-9.66-5.24a3.06,3.06,0,0,1-.64-.56h0l-.39-.4a7.88,7.88,0,0,1-1.39-4.89V236.81a5.41,5.41,0,0,1,2.33-4.37l22.16-12.79a2.07,2.07,0,0,1,1.68-.26,12.12,12.12,0,0,1,8.63,5.29l.22.39-7.4,13.44v1c0,5.19-3,11-7,13.27l-1.31.77-6.68,12.14Z" transform="translate(-106.32 -84.7)"/><path d="M302.2,264.84,308,254.33c-3.41-6.69-6.78-14.76-6.78-14.76l-9.27-5.76a8.19,8.19,0,0,0-1.13,3v17.72a7,7,0,0,0,1.24,4.38l.34.35a2.19,2.19,0,0,0,.5.46C294.53,261.22,298.36,264.32,302.2,264.84Z" transform="translate(-106.32 -84.7)"/><path class="cls-5" d="M317.93,256.58c3.65-2,6.6-7.68,6.6-12.53V226.3c0-1.46-.86-2.07-1.93-1.46l-22.15,12.84a4.55,4.55,0,0,0-1.93,3.67v17.72c0,4.85,3,7.07,6.58,5l12.83-7.4Z" transform="translate(-106.32 -84.7)"/><path d="M323.31,225.47a1,1,0,0,0-.37.11l-22.09,12.79a3.86,3.86,0,0,0-1.51,3v17.72c0,2.24.66,3.94,1.86,4.62a3.42,3.42,0,0,0,3.5-.34l12.83-7.41c3.4-2,6.18-7.31,6.18-11.89V226.33c0-.48-.12-.86-.25-.86h-.15Zm-20.86,40.17a4.09,4.09,0,0,1-2.08-.54c-1.72-1-2.69-3.24-2.69-6V241.35A5.45,5.45,0,0,1,300,237l22.17-12.79a2,2,0,0,1,2.07-.11,2.48,2.48,0,0,1,1.07,2.27v17.7c0,5.2-3.05,11-7,13.28l-12.83,7.42a6.07,6.07,0,0,1-3,.89Z" transform="translate(-106.32 -84.7)"/><path class="cls-5" d="M314.23,241.45c0-1.82-1.28-2.56-2.85-1.66a6.35,6.35,0,0,0-2.86,5c0,1.81,1.28,2.55,2.86,1.64a6.31,6.31,0,0,0,2.85-4.94Z" transform="translate(-106.32 -84.7)"/><path d="M313,240.22a.78.78,0,0,0-.35-.08,1.9,1.9,0,0,0-.86.28,5.54,5.54,0,0,0-2.46,4.26,1.34,1.34,0,0,0,.43,1.15,1.39,1.39,0,0,0,1.22-.2,5.48,5.48,0,0,0,2.45-4.18,1.28,1.28,0,0,0-.43-1.16Zm-2.87,7.47a2.3,2.3,0,0,1-1.14-.31,2.81,2.81,0,0,1-1.24-2.53,7.09,7.09,0,0,1,3.26-5.64,2.52,2.52,0,0,1,4.05,2.34,7.1,7.1,0,0,1-3.24,5.57A3.48,3.48,0,0,1,310.12,247.69Z" transform="translate(-106.32 -84.7)"/><polygon points="204.25 168.83 207.93 166.72 207.13 165.32 205.85 166.06 205.85 160.7 204.25 161.68 204.25 168.83 204.25 168.83"/><path d="M300.05,234.59h0a2.24,2.24,0,0,1-2.24-2.24V222.6a14.57,14.57,0,0,1,6.54-11.36l4.17-2.36a5.57,5.57,0,0,1,8.82,5.08v9.74a2.28,2.28,0,0,1-2.26,2.26h0a2.26,2.26,0,0,1-2.24-2.26V214a2.1,2.1,0,0,0-.47-1.56c-.2-.14-.81-.07-1.59.37l-4.18,2.37a9.54,9.54,0,0,0-4.3,7.46v9.75a2.25,2.25,0,0,1-2.25,2.24Z" transform="translate(-106.32 -84.7)"/><path d="M288.63,371.66a.14.14,0,0,0,.17,0l3.55-4.18a.11.11,0,0,0,0-.08L292,363h0l-1.4-6.4a.11.11,0,0,0-.06-.07.11.11,0,0,0-.14.07l-8.65,10.48h0a.13.13,0,0,0,0,.18l6.82,4.4Z" transform="translate(-106.32 -84.7)"/><path d="M291.58,367.19l-.3-4.05L290.16,358l-7.4,9,5.79,3.74,3-3.53Zm-3,5.22a.86.86,0,0,1-.46-.14l-6.82-4.41a.86.86,0,0,1-.39-.59v-.41l8.88-10.78a.84.84,0,0,1,.86-.29l.55.19,1.49,7,.33,4.4v.39l-3.74,4.39a.89.89,0,0,1-.66.3Z" transform="translate(-106.32 -84.7)"/><path class="cls-1" d="M262.83,339.89a7.43,7.43,0,0,0-3.35,5.78v24.48a2.36,2.36,0,0,0,.87,2.05h0l6.3,3.79,0,0a.16.16,0,0,0,.21-.11l4.18-11.13a.39.39,0,0,1,.08-.1l10-5.79.53.22c.46,2.55-1,5.79-1.81,7.28-.15.29,0,.52.24.36a17.78,17.78,0,0,0,7.54-11.34l.35-.49,4.86-2.78a7.38,7.38,0,0,0,3.33-5.78V333.06a.29.29,0,0,1,0-.13l7.57-8.09,0,0a.16.16,0,0,0,0-.23l-6.42-3.79h0a2.35,2.35,0,0,0-2.13.3l-32.51,18.8Z" transform="translate(-106.32 -84.7)"/><path d="M281.16,358.11l1.24.55v.39a10.94,10.94,0,0,1-1,5.8,17.11,17.11,0,0,0,5.5-9.51l.47-.78,5.09-3a6.67,6.67,0,0,0,3-5.13V332.7l7.32-7.76-5.68-3.41a1.69,1.69,0,0,0-1.39.27l-32.57,18.73a6.68,6.68,0,0,0-3,5.14v24.5a1.62,1.62,0,0,0,.52,1.39l5.71,3.45,4-10.56.17-.34L281.1,358Zm-14.6,18.68-6.63-4a3.09,3.09,0,0,1-1.2-2.66V345.6a8.12,8.12,0,0,1,3.71-6.42L295,320.38a3.08,3.08,0,0,1,2.87-.3l6.36,3.82.13.09a.93.93,0,0,1,.08,1.3L297,333.17v13.07a8.06,8.06,0,0,1-3.71,6.42l-4.7,2.71-.16.22a18.64,18.64,0,0,1-7.83,11.67.93.93,0,0,1-1.14,0,1.06,1.06,0,0,1-.17-1.28,13.83,13.83,0,0,0,1.81-6.24l-9.38,5.42-4.18,11a1,1,0,0,1-.54.55l-.49.11Z" transform="translate(-106.32 -84.7)"/><path class="cls-5" d="M269.15,343.89a7.15,7.15,0,0,0-3.25,5.57v24.59c0,2.08,1.45,2.91,3.25,1.88l21.07-12.16c.13-.07.27,0,.27.08.61,2.59-.95,6-1.76,7.54-.15.3,0,.53.24.37a17.92,17.92,0,0,0,7.56-11.39.54.54,0,0,1,.25-.39l5-2.9a7.21,7.21,0,0,0,3.25-5.56V326.86c0-2.07-1.45-2.92-3.25-1.88l-32.65,18.85Z" transform="translate(-106.32 -84.7)"/><path d="M290.32,363a.77.77,0,0,1,.36.09l.43.25.08.36a10.63,10.63,0,0,1-.91,6.11,17.12,17.12,0,0,0,5.56-9.55,1.31,1.31,0,0,1,.62-.91l5-2.89a6.44,6.44,0,0,0,2.88-5V326.86a1.28,1.28,0,0,0-2.14-1.24l-32.65,18.85a6.51,6.51,0,0,0-2.88,5v24.65a1.28,1.28,0,0,0,2.15,1.24l21-12.17a1.07,1.07,0,0,1,.49-.14Zm-22.58,14.17a2.43,2.43,0,0,1-1.21-.32,3,3,0,0,1-1.32-2.78V349.46a7.86,7.86,0,0,1,3.62-6.27l32.6-18.85a2.73,2.73,0,0,1,2.1-.56,2.7,2.7,0,0,1,2.25,3.08v24.67a7.86,7.86,0,0,1-3.62,6.26l-4.92,2.79a18.73,18.73,0,0,1-7.85,11.8.92.92,0,0,1-1.15,0,1,1,0,0,1-.16-1.28,13.79,13.79,0,0,0,1.81-6.23l-20.37,11.76a3.68,3.68,0,0,1-1.82.54Z" transform="translate(-106.32 -84.7)"/><polygon points="159.19 266.82 152.91 262.85 153.71 261.6 159.97 265.58 159.19 266.82 159.19 266.82"/><polygon points="153.1 265.63 153.1 285.97 153.31 287.5 159.58 290.94 159.58 269.56 153.1 265.63 153.1 265.63"/><polygon class="cls-1" points="178.38 262.88 179.95 261.97 179.71 264.67 181.9 262.68 182.13 264.28 180.1 265.63 181.44 266.93 180.02 268.57 179.2 266.88 178.25 269.6 176.89 269.54 178.22 266.72 176.18 267.72 176.38 265.86 178.63 265.29 178.38 262.88 178.38 262.88"/><polygon class="cls-1" points="169.1 268.24 170.68 267.33 170.43 270.02 172.63 268.03 172.86 269.63 170.83 270.99 172.15 272.29 170.73 273.93 169.91 272.25 168.97 274.96 167.62 274.9 168.95 272.08 166.91 273.08 167.1 271.21 169.34 270.64 169.1 268.24 169.1 268.24"/><path class="cls-2" d="M176.18,415.72h.15l3.57-4.18v-.1l-.34-4.38h0l-1.39-6.41,0,0a.13.13,0,0,0-.19,0l-8.66,10.53h0a.1.1,0,0,0,0,.15l6.82,4.42Z" transform="translate(-106.32 -84.7)"/><path class="cls-2" d="M179.08,411.32l-.3-4.05-1.11-5.15-7.4,9,5.77,3.74,3-3.53Zm-2.91,5.27a.92.92,0,0,1-.48-.14L168.85,412a.9.9,0,0,1-.39-.6V411l8.88-10.78a.82.82,0,0,1,.86-.27l.53.19,1.5,7,.34,4.4v.39l-3.75,4.36a.85.85,0,0,1-.65.3Z" transform="translate(-106.32 -84.7)"/><path class="cls-1" d="M150.26,384a7.43,7.43,0,0,0-3.33,5.77V414.3a2.36,2.36,0,0,0,.87,2h0l6.3,3.79.05,0a.16.16,0,0,0,.2-.12l4.18-11.14a.27.27,0,0,1,.07-.08l10.05-5.8.54.23c.45,2.55-1,5.78-1.81,7.27-.15.29,0,.53.24.38a18,18,0,0,0,7.55-11.42c.12-.15.22-.31.34-.47l4.85-2.79a7.43,7.43,0,0,0,3.34-5.77v-13.3a.13.13,0,0,1,0-.12l7.61-8,0,0a.19.19,0,0,0,0-.26L185,364.88h0a2.38,2.38,0,0,0-2.13.31L150.25,384Z" transform="translate(-106.32 -84.7)"/><path class="cls-2" d="M168.65,402.14l1.24.53.07.41a11.11,11.11,0,0,1-1,5.79,17.27,17.27,0,0,0,5.5-9.5l.46-.79,5.1-3a6.67,6.67,0,0,0,3-5.13V376.73l7.34-7.76-5.68-3.41a1.67,1.67,0,0,0-1.48.27l-32.56,18.79a6.68,6.68,0,0,0-3,5.13v24.57a1.7,1.7,0,0,0,.5,1.4l5.72,3.43,4-10.56.17-.34,10.59-6.11ZM154,420.94l-6.64-4a3,3,0,0,1-1.19-2.64V389.74a8.12,8.12,0,0,1,3.71-6.42l32.56-18.79a3.07,3.07,0,0,1,2.88-.29l6.34,3.8a.92.92,0,0,1,.46.67.87.87,0,0,1-.23.75l-7.46,7.89v13.07a8.12,8.12,0,0,1-3.71,6.42L176,399.55l-.15.23A18.57,18.57,0,0,1,168,411.43a.91.91,0,0,1-1.16,0,1,1,0,0,1-.15-1.27,13.94,13.94,0,0,0,1.8-6.23l-9.33,5.37-4.18,11a.9.9,0,0,1-.54.54l-.47.1Z" transform="translate(-106.32 -84.7)"/><path class="cls-7" d="M156.62,388a7.16,7.16,0,0,0-3.25,5.56v24.66c0,2.07,1.46,2.91,3.25,1.88l21.09-12.25c.13-.07.28,0,.28.08.61,2.59-1,6-1.75,7.55-.16.29,0,.51.23.36a17.85,17.85,0,0,0,7.55-11.4.58.58,0,0,1,.26-.38l5-2.91a7.17,7.17,0,0,0,3.24-5.57V371c0-2.07-1.46-2.91-3.24-1.88l-32.69,18.81Z" transform="translate(-106.32 -84.7)"/><path class="cls-2" d="M177.77,407.11a1.53,1.53,0,0,1,.36.07l.42.27.08.36a10.71,10.71,0,0,1-.9,6.11,17.07,17.07,0,0,0,5.56-9.55,1.41,1.41,0,0,1,.62-.9l5-2.91a6.45,6.45,0,0,0,2.88-5V371a1.62,1.62,0,0,0-.58-1.46,1.64,1.64,0,0,0-1.56.22L157,388.57a6.43,6.43,0,0,0-2.86,5v24.66a1.63,1.63,0,0,0,.57,1.46,1.68,1.68,0,0,0,1.56-.22l21.07-12.17a1,1,0,0,1,.49-.14Zm-22.47,14.2a2.47,2.47,0,0,1-1.22-.32,3,3,0,0,1-1.4-2.78V393.55a8,8,0,0,1,3.62-6.26L189,368.44a2.7,2.7,0,0,1,4.36,2.51v24.61a7.86,7.86,0,0,1-3.62,6.26l-4.93,2.86a18.86,18.86,0,0,1-7.85,11.8.93.93,0,0,1-1.16,0,1,1,0,0,1-.15-1.28,14,14,0,0,0,1.8-6.24L157,420.73a3.71,3.71,0,0,1-1.81.54Z" transform="translate(-106.32 -84.7)"/><polygon class="cls-2" points="46.69 310.92 40.42 306.95 41.2 305.69 47.48 309.66 46.69 310.92 46.69 310.92"/><polygon class="cls-2" points="40.6 309.73 40.6 330.06 40.81 331.59 47.09 335.02 47.09 313.66 40.6 309.73 40.6 309.73"/><path class="cls-1" d="M169.76,391.47a3.69,3.69,0,0,0-1.82.55,9.88,9.88,0,0,0-4.45,7.73,2.29,2.29,0,0,0,3.82,2.21,9.83,9.83,0,0,0,4.47-7.72,2.78,2.78,0,0,0-1.08-2.55,1.91,1.91,0,0,0-.94-.22Zm-4.31,12.3a3,3,0,0,1-1.56-.4,3.91,3.91,0,0,1-1.7-3.62,11.16,11.16,0,0,1,5.12-8.8,3.53,3.53,0,0,1,5.71,3.29,11,11,0,0,1-5.08,8.79,4.78,4.78,0,0,1-2.44.74Z" transform="translate(-106.32 -84.7)"/><polygon class="cls-1" points="66.4 310.08 65.77 309.01 77.39 302.3 77.39 306.42 76.14 306.42 76.14 304.46 66.4 310.08 66.4 310.08"/><polygon class="cls-1" points="73.8 307.77 73.8 304.72 75.05 304.72 75.05 307.77 73.8 307.77 73.8 307.77"/><polygon class="cls-1" points="71.56 309.06 71.56 306.01 72.8 306.01 72.8 309.06 71.56 309.06 71.56 309.06"/></svg>