<svg id="Layer_1" data-name="Layer 1" xmlns="http://www.w3.org/2000/svg" viewBox="0 0 262.6 336.61"><defs><style>.cls-1{fill:#fff;}.cls-2{fill:#1a0e33;}.cls-3{fill:#0c0c0c;}.cls-4{fill:#2b2b2b;}.cls-5{fill:#e06f63;}.cls-6{fill:#e7edf2;}.cls-7{fill:#ddafaf;}</style></defs><title>signin</title><path class="cls-1" d="M128,278.2a8,8,0,0,0-2-.25h-.33V277H126a7.75,7.75,0,0,1,2.25.27l-.23.91Zm-6.68,2.09-.92-.11a3.15,3.15,0,0,1,1.71-2.25,9.83,9.83,0,0,1,.93-.43l.34.88a3.91,3.91,0,0,0-.8.38,2.21,2.21,0,0,0-1.26,1.53Zm10.09,1-.88-.35a.92.92,0,0,0,.1-.49,1.67,1.67,0,0,0-.63-1.22l.63-.7a2.65,2.65,0,0,1,.95,1.92A2.42,2.42,0,0,1,131.39,281.28Zm-7.21,2.42a6.84,6.84,0,0,1-2.09-.77,3,3,0,0,1-.38-.23l.53-.77.32.19a5.82,5.82,0,0,0,1.8.66l-.18.92Zm2.62.12-.09-.92a6.85,6.85,0,0,0,2.26-.58l.39.86A8.16,8.16,0,0,1,126.8,283.82Z" transform="translate(-106.32 -84.7)"/><polygon class="cls-2" points="67.99 108.68 66.37 108.68 66.4 101.18 68.01 101.19 67.99 108.68 67.99 108.68"/><polygon class="cls-2" points="72.09 113.33 70.46 113.32 70.49 105.82 72.12 105.83 72.09 113.33 72.09 113.33"/><polygon class="cls-2" points="80.89 113.39 79.28 113.39 79.3 105.9 80.92 105.9 80.89 113.39 80.89 113.39"/><polygon class="cls-2" points="86.96 112.12 85.34 112.11 85.37 104.62 86.99 104.62 86.96 112.12 86.96 112.12"/><path class="cls-3" d="M316.56,354.9a17.35,17.35,0,0,0,1.54-7.61V155.94c0-10.36-6.31-22.39-14.06-26.87l-72.55-41.9c-3.29-1.89-6.29-2.11-8.69-1h0a25.92,25.92,0,0,0-7.86,5l2.64,4.05h0c-.09.84-.14,1.69-.15,2.53V289.15c0,10.35,6.29,22.37,14.06,26.86L304,357.91l2.5,4.92a15.44,15.44,0,0,0,9.75-7.37v-.1l.21-.4h0Z" transform="translate(-106.32 -84.7)"/><path class="cls-4" d="M218.5,94.2l-.11,1.16a22,22,0,0,0-.15,2.43V289.15c0,10.07,6.12,21.82,13.65,26.16l72.79,42,2.33,4.57a14.93,14.93,0,0,0,8.59-6.82l.19-.39v-.13a16.23,16.23,0,0,0,1.46-7.26V155.94c0-10.08-6.12-21.81-13.65-26.17l-72.51-41.9c-2.94-1.69-5.68-2-7.94-1l-.39.19h0A24.19,24.19,0,0,0,216,91.39l2,3,.57-.14Zm87.63,269.54-2.69-5.26-72.38-41.76c-8-4.6-14.47-17-14.47-27.55V97.79c0-.76,0-1.53.13-2.29l-2.87-4.39.48-.47a26.25,26.25,0,0,1,8.17-5.24h.08c2.78-1.22,5.93-.84,9.29,1.1l72.58,41.9c8,4.6,14.46,17,14.46,27.57V347.34a17.86,17.86,0,0,1-1.63,8v.08c-.1.2-.15.32-.22.43v.13a16.13,16.13,0,0,1-10.29,7.75l-.58.11Z" transform="translate(-106.32 -84.7)"/><path class="cls-1" d="M297.92,361.8l-72.58-41.9c-7.76-4.48-14.05-16.51-14.05-26.85V101.71c0-10.36,6.29-15.12,14.05-10.64L297.92,133c7.76,4.48,14.06,16.51,14.06,26.87V351.18C312,361.54,305.68,366.29,297.92,361.8Z" transform="translate(-106.32 -84.7)"/><path class="cls-4" d="M298.32,361.11c3.12,1.79,6.1,2.06,8.35.74,2.79-1.63,4.44-5.57,4.44-10.67V159.84c0-10.08-6.11-21.82-13.64-26.16l-72.58-41.9c-3.12-1.81-6.1-2.06-8.35-.74-2.78,1.63-4.46,5.57-4.46,10.67V293.05c0,10.08,6.13,21.81,13.66,26.16l72.57,41.9Zm5.18,3.2a12,12,0,0,1-6-1.8l-72.58-41.9c-8-4.6-14.46-17-14.46-27.56V101.71c0-5.74,1.92-10.15,5.26-12.07,2.79-1.63,6.38-1.4,10,.73l72.57,41.9c8,4.61,14.46,17,14.46,27.57V351.18c0,5.74-1.92,10.14-5.26,12.07a7.88,7.88,0,0,1-4,1.06Z" transform="translate(-106.32 -84.7)"/><path class="cls-5" d="M293.52,136.49,267.9,121.83a.52.52,0,0,0-.7.18.42.42,0,0,0-.07.27v1.63a3.44,3.44,0,0,1-5.21,3L260.4,126a8.49,8.49,0,0,1-4.17-7.28v-2.78a1.86,1.86,0,0,0-.92-1.61l-31.57-18.1c-3.92-2.26-7.12-.42-7.12,4.17v193.5c0,8.28,5.88,18.45,13.06,22.6l69.74,40.26c3.9,2.25,7.1.4,7.1-4.11V159.11c0-8.35-5.88-18.46-13.06-22.6Z" transform="translate(-106.32 -84.7)"/><path class="cls-4" d="M220.63,96.08a3.09,3.09,0,0,0-1.39.36,4.19,4.19,0,0,0-1.67,3.9V293.83c0,8.05,5.66,17.88,12.64,21.9L299.85,356a3.55,3.55,0,0,0,5.89-3.41V159.06c0-8.05-5.68-17.88-12.65-21.91l-25.16-14.34v1.13a4.24,4.24,0,0,1-6.43,3.64l-1.52-.9a9.36,9.36,0,0,1-4.51-8v-2.78A1,1,0,0,0,255,115L223.39,96.92a5.53,5.53,0,0,0-2.79-.85Zm82,262.4a7.15,7.15,0,0,1-3.57-1.09l-69.72-40.26c-7.42-4.28-13.47-14.74-13.47-23.3V100.34a5.15,5.15,0,0,1,8.36-4.82l31.57,18.1a2.66,2.66,0,0,1,1.39,2.31v2.79a7.68,7.68,0,0,0,3.72,6.58l1.51.9a2.63,2.63,0,0,0,3.61-.9,2.7,2.7,0,0,0,.38-1.35v-1.63A1.39,1.39,0,0,1,267.9,121a1.29,1.29,0,0,1,.51.14l25.51,14.58c7.42,4.28,13.46,14.75,13.46,23.31V352.55a5.73,5.73,0,0,1-2.49,5.29A4.47,4.47,0,0,1,302.64,358.48Z" transform="translate(-106.32 -84.7)"/><path class="cls-2" d="M263.42,122.81c0,1.14-.81,1.6-1.79,1a4,4,0,0,1-1.79-3.11c0-1.12.8-1.6,1.79-1A4,4,0,0,1,263.42,122.81Z" transform="translate(-106.32 -84.7)"/><path class="cls-5" d="M315.8,223.12a.93.93,0,0,0-.39.12l-.23.14a3.21,3.21,0,0,0-1.32,2.58v13a1,1,0,0,0,.3.86.66.66,0,0,0,.56-.08l.23-.14a3.32,3.32,0,0,0,1.33-2.57V224c0-.43-.11-.75-.31-.86h-.17Zm-1.47,17.65a1.28,1.28,0,0,1-.64-.17,1.84,1.84,0,0,1-.77-1.67V226a4.16,4.16,0,0,1,1.8-3.4l.23-.13a1.41,1.41,0,0,1,1.49-.08,1.84,1.84,0,0,1,.77,1.67v13a4.19,4.19,0,0,1-1.8,3.38h0l-.23.14a1.72,1.72,0,0,1-.85.25Z" transform="translate(-106.32 -84.7)"/><path class="cls-5" d="M315.8,202.31a.93.93,0,0,0-.39.12l-.25.14a3.3,3.3,0,0,0-1.32,2.59v13a1,1,0,0,0,.31.87.67.67,0,0,0,.55-.09l.24-.14a3.29,3.29,0,0,0,1.32-2.59v-13c0-.44-.11-.76-.3-.87a.49.49,0,0,0-.17,0ZM314.33,220a1.28,1.28,0,0,1-.64-.17,1.86,1.86,0,0,1-.77-1.67v-13a4.16,4.16,0,0,1,1.8-3.4l.23-.13a1.41,1.41,0,0,1,1.49-.08,1.84,1.84,0,0,1,.77,1.67v13a4.17,4.17,0,0,1-1.8,3.4h0l-.23.14a1.72,1.72,0,0,1-.85.25Z" transform="translate(-106.32 -84.7)"/><path class="cls-5" d="M315.8,184.24a.93.93,0,0,0-.39.12l-.23.14a3.21,3.21,0,0,0-1.32,2.58v7.29a1,1,0,0,0,.3.86.66.66,0,0,0,.56-.08L315,195a3.32,3.32,0,0,0,1.33-2.57v-7.3c0-.43-.11-.75-.31-.86h-.17Zm-1.47,12a1.28,1.28,0,0,1-.64-.17,1.83,1.83,0,0,1-.77-1.67v-7.29a4.16,4.16,0,0,1,1.8-3.4l.23-.12a1.39,1.39,0,0,1,1.49-.09,1.84,1.84,0,0,1,.77,1.67v7.3a4.16,4.16,0,0,1-1.8,3.39h0l-.23.13a1.72,1.72,0,0,1-.85.25Z" transform="translate(-106.32 -84.7)"/><path class="cls-5" d="M315.16,189.75l-.22.13c-.86.5-1.57,0-1.57-1.19v-1.61a3.78,3.78,0,0,1,1.57-3l.22-.12c.87-.5,1.58,0,1.58,1.18v1.62A3.75,3.75,0,0,1,315.16,189.75Z" transform="translate(-106.32 -84.7)"/><path class="cls-5" d="M315.8,184.24a.93.93,0,0,0-.39.12l-.23.14a3.21,3.21,0,0,0-1.32,2.58v1.57c0,.43.11.75.3.86a.57.57,0,0,0,.56-.08l.23-.13a3.29,3.29,0,0,0,1.33-2.58V185.1c0-.43-.11-.75-.31-.86A.48.48,0,0,0,315.8,184.24Zm-1.47,6.3a1.19,1.19,0,0,1-.64-.18,1.83,1.83,0,0,1-.77-1.67v-1.61a4.16,4.16,0,0,1,1.8-3.4l.23-.12a1.39,1.39,0,0,1,1.49-.09,1.84,1.84,0,0,1,.77,1.67v1.62a4.16,4.16,0,0,1-1.8,3.39h0l-.23.13a1.73,1.73,0,0,1-.85.26Z" transform="translate(-106.32 -84.7)"/><path class="cls-1" d="M232.21,248.35l59.29,34.19c1,.57,1.78,0,1.78-1.39v-7.06a4.22,4.22,0,0,0-1.78-3.31l-59.22-34.19c-1-.57-1.77,0-1.77,1.39V245a4.31,4.31,0,0,0,1.77,3.4Z" transform="translate(-106.32 -84.7)"/><path class="cls-2" d="M232,248.33l59.22,34.19a.72.72,0,0,0,.69.1,1.18,1.18,0,0,0,.38-1v-7.06a3.78,3.78,0,0,0-1.55-3l-59.21-34.21c-.17-.08-.47-.22-.7-.08a1.15,1.15,0,0,0-.37,1v7.06a3.77,3.77,0,0,0,1.54,3Zm59.69,35.28a1.91,1.91,0,0,1-1-.28l-59.21-34.19a4.73,4.73,0,0,1-2-3.8v-7.06a2,2,0,0,1,.84-1.84,1.61,1.61,0,0,1,1.64.09l59.22,34.2a4.68,4.68,0,0,1,2,3.8v7.06a2,2,0,0,1-.85,1.83,1.45,1.45,0,0,1-.68.19Z" transform="translate(-106.32 -84.7)"/><polygon class="cls-2" points="127.08 160.96 126.14 160.42 126.14 154.91 127.08 155.45 127.08 160.96 127.08 160.96"/><path class="cls-2" d="M235,244.67a2.55,2.55,0,0,0,.17,1,1.28,1.28,0,0,0,.55.62c.25.15.42.15.53,0a1.4,1.4,0,0,0,.17-.8,2.48,2.48,0,0,0-.17-1,1.15,1.15,0,0,0-.54-.61c-.25-.14-.43-.16-.54,0a1.35,1.35,0,0,0-.17.79Zm2.38,1.4a1.39,1.39,0,0,1-.45,1.25c-.29.19-.69.14-1.22-.17a3.16,3.16,0,0,1-.88-.75,3.53,3.53,0,0,1-.58-1.06,3.84,3.84,0,0,1-.2-1.21c0-.64.14-1.06.43-1.25s.71-.13,1.24.18a2.77,2.77,0,0,1,.88.75,3.07,3.07,0,0,1,.57,1.05,3.5,3.5,0,0,1,.21,1.21Z" transform="translate(-106.32 -84.7)"/><path class="cls-2" d="M239,246.21a1.08,1.08,0,0,0,.14.58.91.91,0,0,0,.38.42c.18.1.3.11.39,0a.6.6,0,0,0,.12-.43,1.07,1.07,0,0,0-.51-1c-.34-.19-.52,0-.52.42Zm-.33,3a.72.72,0,0,0,.18.46,1.57,1.57,0,0,0,.53.42,1.82,1.82,0,0,0,.78.3.25.25,0,0,0,.29-.2v-.07a.69.69,0,0,0-.17-.41,2.9,2.9,0,0,0-.53-.39l-.48-.28a.62.62,0,0,0-.44-.11c-.11,0-.16.13-.16.28Zm2.64-3v.54l-.53-.15a1.76,1.76,0,0,1,.14.68c0,.43-.12.68-.37.78a1.4,1.4,0,0,1-1.08-.27l-.18-.11-.14-.09a.22.22,0,0,0-.14.2c0,.16.19.32.52.53l.58.34a2.42,2.42,0,0,1,.87.78,1.79,1.79,0,0,1,.29,1c0,.47-.17.72-.5.79a2.38,2.38,0,0,1-1.39-.45,3.18,3.18,0,0,1-1.1-.93,1.68,1.68,0,0,1-.39-1,.57.57,0,0,1,.19-.49.71.71,0,0,1,.57,0,1.34,1.34,0,0,1-.25-.37,1.13,1.13,0,0,1-.11-.41.33.33,0,0,1,.13-.3.52.52,0,0,1,.32-.11,2.15,2.15,0,0,1-.59-1.48c0-.43.13-.69.36-.79a1.25,1.25,0,0,1,1,.25l.35.22.25.2,1.19.69Z" transform="translate(-106.32 -84.7)"/><path class="cls-2" d="M242.78,251.08l-.93-.54v-4l.93.54Zm-1-5.57c0-.35.17-.43.52-.24a.93.93,0,0,1,.5.82c0,.17,0,.28-.12.32s-.21,0-.38-.08A.9.9,0,0,1,241.8,245.51Z" transform="translate(-106.32 -84.7)"/><path class="cls-2" d="M247,253.47l-.93-.54v-2.31a1.84,1.84,0,0,0-.12-.73,1.1,1.1,0,0,0-.43-.45c-.27-.16-.45-.16-.56,0a1.41,1.41,0,0,0-.18.9v1.87l-.94-.53v-4l.71.41.13.58h0a.48.48,0,0,1,.43-.18,1.74,1.74,0,0,1,.63.21,2.4,2.4,0,0,1,1.21,2.16v2.59Z" transform="translate(-106.32 -84.7)"/><path class="cls-1" d="M232.21,266.19l59.29,34.18c1,.57,1.78,0,1.78-1.39v-7a4.27,4.27,0,0,0-1.78-3.41l-59.22-34.19c-1-.57-1.77,0-1.77,1.39v7.06a4.31,4.31,0,0,0,1.77,3.4Z" transform="translate(-106.32 -84.7)"/><path class="cls-2" d="M232,265.15l59.22,34.2a.74.74,0,0,0,.69.08c.24-.12.38-.51.38-1v-7a3.86,3.86,0,0,0-1.55-3l-59.21-34.18a.73.73,0,0,0-.7-.1,1.16,1.16,0,0,0-.37,1v7.05a3.74,3.74,0,0,0,1.54,3Zm59.69,35.29a2,2,0,0,1-1-.28L231.57,266a4.71,4.71,0,0,1-2-3.81v-7.05a2,2,0,0,1,.84-1.85,1.61,1.61,0,0,1,1.64.1l59.22,34.19a4.68,4.68,0,0,1,2,3.8v7a2,2,0,0,1-.85,1.86,1.6,1.6,0,0,1-.68.18Z" transform="translate(-106.32 -84.7)"/><path class="cls-2" d="M234.06,258.71c-.22-.14-.39-.15-.5,0a1.15,1.15,0,0,0-.16.72v.12a2.49,2.49,0,0,0,.16,1,1.25,1.25,0,0,0,.52.57c.42.25.64,0,.64-.83a2.4,2.4,0,0,0-.17-1,1.06,1.06,0,0,0-.49-.57Zm.28,3.4a2.42,2.42,0,0,1-.94-1.06h0v2.21l-.94-.54V257l.77.45.12.58h0c.23-.26.55-.28,1,0a2.47,2.47,0,0,1,1,1.09,4.17,4.17,0,0,1,.33,1.71,2.94,2.94,0,0,1-.15,1,.74.74,0,0,1-.46.44,1.1,1.1,0,0,1-.71-.16Z" transform="translate(-106.32 -84.7)"/><path class="cls-2" d="M238.35,262.51l-.36-.19a1,1,0,0,0-.61-.18c-.14,0-.21.15-.21.36a.79.79,0,0,0,.46.72.53.53,0,0,0,.53.08c.12,0,.19-.22.19-.47Zm.27,2-.18-.64h0a.7.7,0,0,1-.49.2,1.55,1.55,0,0,1-.66-.24,2.1,2.1,0,0,1-1-1.88c0-.42.12-.65.37-.71a2.17,2.17,0,0,1,1.16.33l.6.34v-.18a1,1,0,0,0-.55-.91,2.27,2.27,0,0,0-1-.28l-.32-.9a2.55,2.55,0,0,1,1.32.4,3.16,3.16,0,0,1,1.06,1,2.14,2.14,0,0,1,.36,1.27v2.65l-.65-.39Z" transform="translate(-106.32 -84.7)"/><path class="cls-2" d="M242.64,265.64c0,.42-.13.66-.36.73a1.64,1.64,0,0,1-1.1-.32,3.92,3.92,0,0,1-.64-.42c-.19-.13-.37-.27-.55-.42v-.9a8.07,8.07,0,0,0,.59.58,4,4,0,0,0,.58.43c.34.2.51.18.51,0a.37.37,0,0,0-.07-.23,1.86,1.86,0,0,0-.23-.32l-.44-.49a6.62,6.62,0,0,1-.59-.7,2,2,0,0,1-.26-.53,1.86,1.86,0,0,1-.09-.62c0-.35.12-.56.35-.61a1.43,1.43,0,0,1,1,.29,4.94,4.94,0,0,1,1.22,1l-.28.62c-.17-.18-.34-.35-.49-.49a2.66,2.66,0,0,0-.46-.35c-.28-.15-.4-.15-.4,0a.6.6,0,0,0,.12.32,8.51,8.51,0,0,0,.59.66,8,8,0,0,1,.6.69,2,2,0,0,1,.26.53,1.54,1.54,0,0,1,.1.56Z" transform="translate(-106.32 -84.7)"/><path class="cls-2" d="M245.76,267.45c0,.41-.11.64-.36.73a1.64,1.64,0,0,1-1.1-.32,4.83,4.83,0,0,1-.64-.44,4.22,4.22,0,0,1-.49-.45v-.9a5.39,5.39,0,0,0,.58.59,3.8,3.8,0,0,0,.57.42c.35.19.52.18.52,0a.52.52,0,0,0-.07-.25,2.34,2.34,0,0,0-.24-.31l-.43-.5a5.35,5.35,0,0,1-.58-.68,2.25,2.25,0,0,1-.28-.53,1.88,1.88,0,0,1-.09-.57c0-.35.13-.56.37-.62a1.52,1.52,0,0,1,1,.3,4.82,4.82,0,0,1,1.21,1l-.29.63a4.45,4.45,0,0,0-.48-.49,2.66,2.66,0,0,0-.46-.35c-.27-.17-.41-.15-.41,0a.52.52,0,0,0,.14.33,6.09,6.09,0,0,0,.58.66,6.39,6.39,0,0,1,.59.68,2,2,0,0,1,.27.54,1.77,1.77,0,0,1,.09.56Z" transform="translate(-106.32 -84.7)"/><path class="cls-2" d="M249.32,270.68l-.26-1.54-.37-1.95h0l-.62,2.78-1-.57-1-4.54.93.55.41,2c0,.35.12.82.18,1.39h0a4.18,4.18,0,0,1,.11-.79v-.28l.42-1.66,1,.6.39,2.13a1,1,0,0,1,0,.25v1h0a1.74,1.74,0,0,1,.1-.65,2.1,2.1,0,0,0,.1-.55l.41-1.51.92.53-1,3.39-1-.58Z" transform="translate(-106.32 -84.7)"/><path class="cls-2" d="M252.62,270.6a2.58,2.58,0,0,0,.17,1,1.19,1.19,0,0,0,.54.61q.38.23.54,0a1.37,1.37,0,0,0,.17-.79,2.5,2.5,0,0,0-.17-1,1.19,1.19,0,0,0-.54-.61c-.25-.14-.43-.15-.54,0a1.37,1.37,0,0,0-.17.79ZM255,272a1.39,1.39,0,0,1-.44,1.25c-.3.2-.71.14-1.23-.16a2.91,2.91,0,0,1-.88-.76,3.48,3.48,0,0,1-.58-1.05,3.52,3.52,0,0,1-.2-1.2c0-.65.14-1.07.44-1.27s.71-.12,1.23.18a2.8,2.8,0,0,1,.88.76,2.94,2.94,0,0,1,.57,1A3.58,3.58,0,0,1,255,272Z" transform="translate(-106.32 -84.7)"/><path class="cls-2" d="M257.69,271.48l.32.2-.07,1-.28-.2a.8.8,0,0,0-.7-.12c-.16.08-.25.28-.25.6v2l-.94-.55v-4l.71.4.14.75h0a.57.57,0,0,1,.43-.29.8.8,0,0,1,.58.14Z" transform="translate(-106.32 -84.7)"/><path class="cls-2" d="M260,276.08c.25.14.42.17.53.07s.17-.33.18-.72v-.11a2.55,2.55,0,0,0-.17-1,1.33,1.33,0,0,0-.55-.6c-.21-.11-.38-.11-.49,0a1.49,1.49,0,0,0-.17.8,2.48,2.48,0,0,0,.17,1,1.31,1.31,0,0,0,.5.59Zm-.32.67a2.29,2.29,0,0,1-1-1.08,4.34,4.34,0,0,1-.34-1.7,1.87,1.87,0,0,1,.35-1.32q.36-.34,1,0a2.32,2.32,0,0,1,1,1.15h0a4.65,4.65,0,0,1-.07-.83V271.7l.93.54v5.57l-.72-.42-.18-.62h0c-.22.26-.54.26-1,0Z" transform="translate(-106.32 -84.7)"/><path d="M233.72,155a3.19,3.19,0,0,0-1.55.4c-1.39.81-2.2,2.79-2.2,5.32v53.18c0,5.13,3.12,11.13,7,13.3L285.22,255a4.09,4.09,0,0,0,4.18.38c1.39-.81,2.2-2.78,2.2-5.32V196.92c0-5.12-3.12-11.14-7-13.31l-48.31-27.84a5.19,5.19,0,0,0-2.57-.78Zm54.06,102.13a6.33,6.33,0,0,1-3.19-1l-48.3-27.84c-4.17-2.41-7.56-8.85-7.56-14.39V160.67c0-3,1-5.37,2.79-6.4a5.24,5.24,0,0,1,5.37.39l48.29,27.84c4.18,2.41,7.56,8.85,7.56,14.38v53.19c0,3-1,5.36-2.79,6.4a4.34,4.34,0,0,1-2.17.57Z" transform="translate(-106.32 -84.7)"/><path d="M284.54,250.28a2.17,2.17,0,0,0,2.09.22,3.14,3.14,0,0,0,1.12-2.79V195a9.25,9.25,0,0,0-3.82-7.36L237,160.5a2.14,2.14,0,0,0-2.09-.22,3.13,3.13,0,0,0-1.11,2.79v52.71a9.18,9.18,0,0,0,3.82,7.36Zm1.39,1.65a4.05,4.05,0,0,1-1.95-.57h0L237,224.27a10.48,10.48,0,0,1-4.45-8.45V163.09a4.27,4.27,0,0,1,1.74-3.88,3.26,3.26,0,0,1,3.34.21l46.87,27.1A10.43,10.43,0,0,1,289,195v52.72a4.22,4.22,0,0,1-1.74,3.88,2.6,2.6,0,0,1-1.39.36Z" transform="translate(-106.32 -84.7)"/><path class="cls-6" d="M257.26,219.69s-10.81-9.62-17.92,5.21l44.54,25.74s1.59-15.87-15.18-25.25l-9.75-4.5-1.71-1.2Z" transform="translate(-106.32 -84.7)"/><path d="M240.16,224.65l43.15,24.93c0-3.58-1.1-15.93-14.9-23.67l-9.75-4.46-1.86-1.3s-4.18-3.7-8.91-2.78c-3,.61-5.67,3-7.78,7.24Zm44.28,27-45.93-26.44.25-.52c2.33-4.89,5.34-7.74,8.93-8.45,5.11-1,9.5,2.65,9.93,3l1.68,1.18,9.65,4.43c17,9.44,15.59,25.67,15.59,25.82l-.08,1Z" transform="translate(-106.32 -84.7)"/><path class="cls-6" d="M267.68,210.09c1.3-7.12-13.78-26.77-13.78-26.77-4.51,2.14-6.49,8.25-4.93,16a51.35,51.35,0,0,0,4.58,13.08,13.13,13.13,0,0,0,4.74,2.78s.43,4.72-1.2,6.67c0,0-.18,3.68,5,7.31s7.32-1.2,7.32-1.2-3-10.69-1.73-17.8Z" transform="translate(-106.32 -84.7)"/><path d="M257.71,222.06c0,.74.52,3.63,4.72,6.58a4.9,4.9,0,0,0,4.05,1.13,3.94,3.94,0,0,0,2.26-1.88c-.46-1.67-2.88-11.13-1.67-17.84,1.13-6.21-11.21-23-13.35-25.87-4,2.24-5.57,7.95-4.18,15A50.24,50.24,0,0,0,254,212.06a12.4,12.4,0,0,0,4.4,2.52l.42.1v.45c0,.19.4,4.73-1.2,7Zm7.94,9.08a7,7,0,0,1-3.93-1.48c-5.38-3.77-5.26-7.68-5.26-7.85v-.21l.14-.15c1.09-1.3,1.16-4.3,1.09-5.79a13.79,13.79,0,0,1-4.57-2.79l-.14-.17a51.38,51.38,0,0,1-4.63-13.25c-1.6-7.95.4-14.34,5.27-16.7l.45-.21.3.39c.63.82,15.23,20,13.92,27.27h0c-1.25,7,1.67,17.41,1.72,17.52v.21l-.1.21a5.2,5.2,0,0,1-3.13,2.79,4.38,4.38,0,0,1-1.19.16Z" transform="translate(-106.32 -84.7)"/><path class="cls-6" d="M273.4,206.89h0c.84-4.82-.09-12.13-5.43-19.17-8.45-11.14-15.85-10.34-17-7.31,0,0-2.86-2.2-4.65-.6a3.8,3.8,0,0,0-1,2.87c0,1.78.47,5,3.06,9.94,0,0,0-4.36,4-3.26,0,0,1.12,7.31,8.95,14.52,0,0,1.65-1.48,4.18,1.27s0,5.88,0,5.88-1.13,2.79,2.1,7.59l.59,2.16s0-2.31,3.37-4.66S273.4,206.89,273.4,206.89Z" transform="translate(-106.32 -84.7)"/><path d="M266.08,211.33c-.11.43-.64,3,2.08,7l.12.36a9.49,9.49,0,0,1,2.94-3c3-2.08,1.65-8.52,1.64-8.57v-.29c.39-2.23,1.13-10.18-5.32-18.68-5.57-7.28-10.65-9.41-13.63-9a2.59,2.59,0,0,0-2.25,1.49l-.29.79-.67-.51s-2.46-1.85-3.86-.61a3.26,3.26,0,0,0-.82,2.39,18.92,18.92,0,0,0,2.19,8.06,3.5,3.5,0,0,1,1.14-1.57,3.62,3.62,0,0,1,3.27-.42l.39.11v.41c0,.06,1.17,7,8.44,13.83.79-.35,2.45-.62,4.49,1.63a5.11,5.11,0,0,1,.1,6.6ZM269,226l-1.93-7.12c-3.3-4.92-2.16-7.95-2.12-8.09l.1-.16c.08-.11,2.13-2.78,0-5.06s-3.25-1.26-3.26-1.24l-.42.37-.42-.37c-7-6.39-8.7-12.78-9.07-14.46a2.18,2.18,0,0,0-1.81.27,3.64,3.64,0,0,0-1,2.47v2.48l-1.15-2.19c-2.63-5-3.16-8.35-3.15-10.25a4.44,4.44,0,0,1,1.24-3.31c1.62-1.39,3.79-.47,4.83.16a4.16,4.16,0,0,1,2.88-1.62c1.63-.24,7.46-.26,14.81,9.45,6.66,8.77,6,17,5.57,19.49.21,1,1.39,7.35-2.17,9.74-3.06,2.11-3.09,4.18-3.09,4.18L269,226Z" transform="translate(-106.32 -84.7)"/><path d="M251.81,189.37a3.76,3.76,0,0,1,1.1-3.29,2.55,2.55,0,0,1,2.19-.39l-.36,1.19a1.46,1.46,0,0,0-1.08.18,2.71,2.71,0,0,0-.59,2.27h-1.26Z" transform="translate(-106.32 -84.7)"/><path d="M272.9,207.14c-.72-1.62-1.86-1.46-2-1.4l-.24-1.22a3.18,3.18,0,0,1,3.36,2.17l-1.13.5Z" transform="translate(-106.32 -84.7)"/><path d="M264.42,212.31a4.65,4.65,0,0,1-2.39-.93l.75-1a2.81,2.81,0,0,0,1.81.67.55.55,0,0,0,.39-.32l1.1.58a1.78,1.78,0,0,1-1.21,1,1.7,1.7,0,0,1-.45,0Z" transform="translate(-106.32 -84.7)"/><path d="M253.72,206.75a3.12,3.12,0,0,1-1.66-.59l-.25-.18v-4.73h1.24v4.1c.31.16.73.31.91.12l.87.87a1.49,1.49,0,0,1-1.11.46Z" transform="translate(-106.32 -84.7)"/><path d="M257.09,202.57A4,4,0,0,0,253.9,201l-.19-1.24a5.15,5.15,0,0,1,4.28,2l-.9.85Z" transform="translate(-106.32 -84.7)"/><path d="M250.6,200.22c-.51-.56-.85-.63-.94-.61a.23.23,0,0,0-.2,0l-1-.76a1.53,1.53,0,0,1,1.1-.57,2.63,2.63,0,0,1,2,1l-.92.85Z" transform="translate(-106.32 -84.7)"/><path d="M258.88,215.77h-.68l.17-1.24a5.35,5.35,0,0,0,2.18-.22l.39,1.18a6.52,6.52,0,0,1-2.06.32Z" transform="translate(-106.32 -84.7)"/><path class="cls-1" d="M195.26,359.65l-.24-.9a9,9,0,0,1,2.26-.28h.34v.93h-.32a8.1,8.1,0,0,0-2,.25Zm6.66,2.09a2.24,2.24,0,0,0-1.25-1.53,4.68,4.68,0,0,0-.79-.36l.32-.88a4.61,4.61,0,0,1,.93.43,3.17,3.17,0,0,1,1.73,2.23l-.94.11Zm-10.07,1a2.21,2.21,0,0,1-.17-.84,2.61,2.61,0,0,1,.93-1.92l.64.7a1.68,1.68,0,0,0-.64,1.22,1.16,1.16,0,0,0,.1.49l-.86.35Zm7.19,2.42-.18-.92a6.11,6.11,0,0,0,1.81-.64l.31-.21.54.77-.39.25A6.7,6.7,0,0,1,199,365.15Zm-2.61.14a8.19,8.19,0,0,1-2.57-.66l.39-.84a7.66,7.66,0,0,0,2.26.57l-.08.93Z" transform="translate(-106.32 -84.7)"/><path class="cls-1" d="M109.9,383.3l-.24-.91a9.14,9.14,0,0,1,2.27-.25h.35v.93h-.35a8.1,8.1,0,0,0-2,.25Zm6.66,2.08a2.22,2.22,0,0,0-1.25-1.53,5.56,5.56,0,0,0-.78-.37l.32-.88a5.32,5.32,0,0,1,.93.45,3.07,3.07,0,0,1,1.72,2.22Zm-10.07,1a2.16,2.16,0,0,1-.17-.83,2.59,2.59,0,0,1,1-1.92l.62.68a1.7,1.7,0,0,0-.64,1.24,1.58,1.58,0,0,0,.1.48Zm7.19,2.43-.18-.92a5.79,5.79,0,0,0,1.81-.66,2,2,0,0,0,.31-.19l.54.76-.38.24a6.8,6.8,0,0,1-2.1.77Zm-2.6.12a7.79,7.79,0,0,1-2.56-.65l.39-.84a7.31,7.31,0,0,0,2.25.57Z" transform="translate(-106.32 -84.7)"/><path class="cls-1" d="M361.31,357.08l-.24-.9a9.16,9.16,0,0,1,2.27-.28h.34v.93h-.31a8.61,8.61,0,0,0-2,.25Zm6.68,2.09a2.27,2.27,0,0,0-1.25-1.53,5.75,5.75,0,0,0-.8-.36l.32-.88a6.16,6.16,0,0,1,.94.43,3.16,3.16,0,0,1,1.72,2.23l-.93.11Zm-10.09,1a2.39,2.39,0,0,1-.15-.83,2.59,2.59,0,0,1,.93-1.92l.62.69a1.75,1.75,0,0,0-.62,1.23,1.24,1.24,0,0,0,.1.5l-.88.33Zm7.21,2.42-.18-.92a5.93,5.93,0,0,0,1.81-.64l.3-.2.55.76-.38.25A6.52,6.52,0,0,1,365.11,362.58Zm-2.62.14a7.79,7.79,0,0,1-2.55-.65l.39-.85a7,7,0,0,0,2.25.57l-.09.93Z" transform="translate(-106.32 -84.7)"/><path d="M118.89,162.06a.23.23,0,0,1,.1-.29l9.64-5.9c.45-.39,1.19-.32,1.94.32l3.59,3c.18.15,17.61,14.56,36.85,11a4.16,4.16,0,0,1,1.22,0,10.13,10.13,0,0,1,6,3.45h0c.45.5.87,1,1.27,1.55,18.48,25.12,36.09,31.21,36.84,31.44l3.57,1.16a4,4,0,0,1,2.32,3.55l-.07,4.17c-.85,54-15.88,75-28.37,83.16h0l-11.69,7.14-.78-2.31a18.85,18.85,0,0,1-4.18.2h0a6.26,6.26,0,0,1-3.66-2.12h0c-1.61-1.72-36.19-39.28-43.65-115.33l-5.33-11.47Z" transform="translate(-106.32 -84.7)"/><path d="M171.08,171c-19.34,3.55-36.77-10.58-37.51-11.14L130,156.8c-.45-.37-.8-.43-.88-.35l-9.4,5.75,5.4,12.29,5.21,11.39v.27c7.52,75.86,42,113.28,43.47,114.88a5.42,5.42,0,0,0,3.18,1.86,18.66,18.66,0,0,0,4-.19l.65-.1.69,2L193.18,298c12.31-8,27.16-28.84,28-82.49v-4.18a3.28,3.28,0,0,0-1.78-2.78l-3.57-1.16c-.75-.25-18.61-6.41-37.23-31.73a18.88,18.88,0,0,0-1.21-1.47A9.45,9.45,0,0,0,172,171h-.16a3.64,3.64,0,0,0-.66,0Zm9.59,133.36a20.75,20.75,0,0,1-3.78.11,7,7,0,0,1-4.17-2.4c-1.48-1.57-36.19-39.32-43.85-115.65l-5.16-11.29-5.57-12.75h0a1,1,0,0,1,.4-1.28l9.61-5.87a2.26,2.26,0,0,1,2.91.36l3.59,3c.69.58,17.56,14.27,36.19,10.84a5.94,5.94,0,0,1,1.46,0,10.77,10.77,0,0,1,6.46,3.7c.45.49.89,1,1.39,1.62,18.33,24.92,35.71,30.92,36.43,31.17l3.58,1.14A4.89,4.89,0,0,1,223,211.4l-.07,4.17c-.86,54.29-16.11,75.57-28.76,83.83L181.53,307l-.89-2.64Z" transform="translate(-106.32 -84.7)"/><path class="cls-1" d="M128.63,155.87c.45-.39,1.19-.32,1.94.32l3.59,3c.18.15,17.61,14.56,36.85,11a4.16,4.16,0,0,1,1.22,0,10.13,10.13,0,0,1,6,3.45h0c.45.5.87,1,1.27,1.55,18.48,25.12,36.09,31.21,36.84,31.44l3.57,1.16a3.37,3.37,0,0,1,1.68,1.5l-29,16.46L131.42,200q-1-6.64-1.72-13.78l-5.24-11.39-5.57-12.76a.23.23,0,0,1,.1-.28Z" transform="translate(-106.32 -84.7)"/><path class="cls-2" d="M219.55,208.53,216,207.37c-.75-.25-18.61-6.41-37.23-31.73a17,17,0,0,0-1.22-1.47,9.43,9.43,0,0,0-5.44-3.21,4.27,4.27,0,0,0-1,0c-19.34,3.55-36.77-10.58-37.51-11.14l-3.54-3c-.45-.37-.8-.43-.88-.35l-9.4,5.75,5.4,12.29,5.21,11.39v.27c.44,4.44,1,8.9,1.64,13.27l60.42,25.42L220.26,209a1.92,1.92,0,0,0-.74-.49Zm-88.93-8-.07-.45c-.66-4.49-1.25-9.09-1.69-13.67l-5.17-11.29-5.57-12.76a1,1,0,0,1,.41-1.28l9.6-5.88a2.26,2.26,0,0,1,2.91.37l3.59,3c.7.59,17.57,14.27,36.2,10.85a5.1,5.1,0,0,1,1.46,0,10.78,10.78,0,0,1,6.46,3.7c.44.49.89,1,1.39,1.61,18.33,24.92,35.7,30.92,36.43,31.17l3.57,1.14a4.33,4.33,0,0,1,2.12,1.84l.43.71-30.07,17.07-61.9-26.08Z" transform="translate(-106.32 -84.7)"/><path class="cls-7" d="M200.5,221c-7.83-4.34-20.54-13.28-33.8-30.29a3.79,3.79,0,0,0-3-1.77c-13.47,1.53-26-4.08-33.76-8.69-1-.59-1.81-.08-1.75,1.1,2.78,62.65,24.71,99.23,34.4,112.48,1.6,2.18,4.52,5,6.11,4.65,9.62-2.17,30.8-15.31,33.61-74.32A3.8,3.8,0,0,0,200.5,221Zm-37.07,86.55c-1.78-1.89-43.61-47.44-45-140.2l-.07-4.29c0-1.39,1.13-1.86,2.34-.83l3.59,3c.17.16,17.59,14.55,36.83,11a4.29,4.29,0,0,1,1.24,0h0a10.08,10.08,0,0,1,5.94,3.45h0a15.71,15.71,0,0,1,1.28,1.55c18.49,25.12,36.1,31.21,36.84,31.44l3.57,1.16a4.07,4.07,0,0,1,2.33,3.53l-.07,4.18c-1.39,91.11-43.26,88.34-45.05,88.18h0a6.15,6.15,0,0,1-3.64-2.11h0Z" transform="translate(-106.32 -84.7)"/><path d="M201.49,224.15a3,3,0,0,0-1.39-2.41c-8.27-4.61-20.88-13.63-34-30.5-.86-1.1-1.75-1.55-2.32-1.48-13.5,1.55-26.09-3.92-34.24-8.79a.63.63,0,0,0-.45-.13.8.8,0,0,0-.1.5c2.79,62.64,24.88,99.24,34.23,112,1.8,2.45,4.36,4.55,5.31,4.34,7-1.59,30-11.57,33-73.58Zm-39.57,70.18c-9.46-12.92-31.74-49.8-34.55-112.9a2.05,2.05,0,0,1,.89-2,2,2,0,0,1,2.07.14c7.95,4.74,20.16,10.08,33.24,8.58a4.51,4.51,0,0,1,3.76,2.07c13,16.71,25.42,25.56,33.56,30.08a4.66,4.66,0,0,1,2.2,3.9h0c-3,63.14-27,73.42-34.24,75.06a1.77,1.77,0,0,1-.46,0c-2.21,0-5.15-3.2-6.47-5Zm-.76-117.26c-19.33,3.55-36.76-10.58-37.5-11.14l-3.59-3c-.43-.37-.75-.42-.86-.37s-.17.24-.17.57v4.29c1.39,92.47,43.07,137.81,44.84,139.68h0a5.42,5.42,0,0,0,3.17,1.86c.42,0,10.43.82,20.69-8.35s22.73-30.47,23.5-79v-4.18a3.25,3.25,0,0,0-1.77-2.78l-3.58-1.16c-.75-.25-18.6-6.41-37.22-31.73-.33-.5-.69-1-1.06-1.45a9.31,9.31,0,0,0-5.44-3.2h-.35a3.64,3.64,0,0,0-.66,0ZM167,310.54a6.83,6.83,0,0,1-4.17-2.37h0c-1.8-1.91-43.84-47.68-45.29-140.75v-4.29a2.1,2.1,0,0,1,1.09-2,2.41,2.41,0,0,1,2.58.58l3.57,3c.71.58,17.58,14.25,36.2,10.84a5.39,5.39,0,0,1,1.39,0,10.79,10.79,0,0,1,6.46,3.71,19.33,19.33,0,0,1,1.39,1.61c18.33,24.92,35.72,30.92,36.44,31.17l3.57,1.14a4.86,4.86,0,0,1,2.88,4.32v4.17c-.78,49.13-13.49,70.72-24,80.18-8.89,8-17.51,8.83-20.73,8.83h-1.21Z" transform="translate(-106.32 -84.7)"/><path class="cls-7" d="M129.91,180.3c7.74,4.61,20.29,10.22,33.76,8.68a3.79,3.79,0,0,1,3,1.77c13.26,17,26,25.95,33.8,30.29a3.82,3.82,0,0,1,1.78,3.16c-2.78,59.07-24,72.15-33.61,74.32-1.59.36-4.51-2.46-6.11-4.65C152.81,280.62,131,244,128.16,181.4c0-1.19.75-1.7,1.75-1.1Z" transform="translate(-106.32 -84.7)"/><path d="M129.91,180.3c1.4.85,3,1.72,4.74,2.59,3.28,61,24.69,96.73,34.24,109.8a16.18,16.18,0,0,0,4.39,4.18,22.2,22.2,0,0,1-4.61,1.64c-1.59.36-4.51-2.47-6.11-4.65-9.75-13.25-31.6-49.83-34.4-112.48,0-1.18.75-1.69,1.75-1.1Z" transform="translate(-106.32 -84.7)"/><path class="cls-5" d="M168.24,293.15c-9.21-12.53-31-48.48-34.37-109.78-1.48-.75-2.94-1.55-4.36-2.4a.63.63,0,0,0-.45-.13.79.79,0,0,0-.09.5c2.78,62.64,24.87,99.24,34.23,112,1.79,2.45,4.37,4.55,5.3,4.34a19.3,19.3,0,0,0,3.15-1,19.16,19.16,0,0,1-3.41-3.56Zm-6.32,1.18c-9.46-12.92-31.74-49.79-34.55-112.9a2.05,2.05,0,0,1,.89-2,2,2,0,0,1,2.07.14h0c1.52.89,3.09,1.76,4.66,2.55l.42.21v.47c3.3,61.14,25,96.86,34.09,109.37a15.64,15.64,0,0,0,4.18,4l1.39.75-1.39.67a23.26,23.26,0,0,1-4.78,1.7,1.77,1.77,0,0,1-.46,0c-2.21,0-5.15-3.2-6.47-5Z" transform="translate(-106.32 -84.7)"/><polygon class="cls-2" points="105.42 131.01 115.55 125.26 114.77 123.87 104.64 129.62 105.42 131.01 105.42 131.01"/><polygon class="cls-2" points="57.62 92.3 67.75 86.55 66.96 85.16 56.82 90.91 57.62 92.3 57.62 92.3"/><path d="M163.75,189.76c-13.5,1.55-26.08-3.92-34.24-8.79a.63.63,0,0,0-.45-.13.79.79,0,0,0-.09.5c2.78,62.64,24.87,99.24,34.23,112,1.79,2.45,4.37,4.55,5.3,4.34,7-1.59,30-11.57,33-73.58a3,3,0,0,0-1.39-2.41c-8.27-4.61-20.88-13.63-34-30.5a3.29,3.29,0,0,0-2.21-1.48Zm-1.83,104.57c-9.46-12.92-31.74-49.79-34.55-112.9a2.05,2.05,0,0,1,.89-2,2,2,0,0,1,2.07.14h0c7.95,4.74,20.16,10.08,33.24,8.58a4.51,4.51,0,0,1,3.76,2.07c13,16.71,25.42,25.56,33.56,30.08a4.66,4.66,0,0,1,2.2,3.9c-3,63.14-27,73.42-34.24,75.06a1.77,1.77,0,0,1-.46,0c-2.21,0-5.15-3.2-6.47-5Z" transform="translate(-106.32 -84.7)"/><path class="cls-1" d="M184.31,236.81a4.58,4.58,0,0,0-1.92-3.67l-22.16-12.79a1.29,1.29,0,0,0-1.1-.17,11.33,11.33,0,0,0-8.11,4.9l7.29,13.22v1.22c0,4.85,2.95,10.48,6.59,12.52l1.5.87,6.53,11.86c3.84-.52,7.67-3.62,9.31-5.11a2.74,2.74,0,0,0,.51-.45l.34-.35a7.14,7.14,0,0,0,1.22-4.38V236.81Z" transform="translate(-106.32 -84.7)"/><path d="M152,225.11l7.15,13v1.39c0,4.58,2.78,9.91,6.18,11.88l1.7,1,6.36,11.55c3.49-.71,7-3.56,8.35-4.81a2,2,0,0,0,.43-.38l.38-.37a6.4,6.4,0,0,0,1-3.83v-17.7a3.78,3.78,0,0,0-1.52-3l-22.16-12.79a.47.47,0,0,0-.41-.11h-.16a10.9,10.9,0,0,0-7.29,4.17Zm20.51,40.59-6.68-12.14-1.31-.77c-3.92-2.25-7-8.08-7-13.27v-1l-7.4-13.44.22-.39a12.12,12.12,0,0,1,8.63-5.29,2.1,2.1,0,0,1,1.69.26l22.16,12.79a5.42,5.42,0,0,1,2.32,4.37v17.72a7.88,7.88,0,0,1-1.39,4.89l-.39.4h0a2.83,2.83,0,0,1-.64.56c-1.85,1.69-5.71,4.71-9.66,5.24l-.56.08Z" transform="translate(-106.32 -84.7)"/><path d="M182.37,259.74a2.7,2.7,0,0,0,.5-.46l.33-.35a7,7,0,0,0,1.24-4.38V236.83a8.19,8.19,0,0,0-1.13-3L174,239.57s-3.37,8.07-6.78,14.76L173,264.84C176.88,264.32,180.71,261.22,182.37,259.74Z" transform="translate(-106.32 -84.7)"/><path class="cls-5" d="M157.31,256.64l12.83,7.4c3.64,2.1,6.59-.12,6.59-5V241.35a4.56,4.56,0,0,0-1.94-3.67l-22.14-12.84c-1.08-.61-1.94,0-1.94,1.46v17.75c0,4.85,2.95,10.48,6.6,12.53Z" transform="translate(-106.32 -84.7)"/><path d="M151.88,225.47h-.1c-.12,0-.25.38-.25.86v17.72c0,4.58,2.79,9.91,6.18,11.89l12.84,7.41a3.4,3.4,0,0,0,3.49.34c1.2-.68,1.87-2.38,1.87-4.62V241.35a3.9,3.9,0,0,0-1.52-3L152.3,225.58a.94.94,0,0,0-.36-.11Zm20.88,40.17a6,6,0,0,1-3-.89l-12.84-7.42c-3.91-2.25-7-8.08-7-13.28v-17.7a2.53,2.53,0,0,1,1.07-2.27,2,2,0,0,1,2.08.11L175.24,237a5.45,5.45,0,0,1,2.32,4.37v17.72c0,2.79-1,5-2.68,6a4.15,4.15,0,0,1-2.09.54Z" transform="translate(-106.32 -84.7)"/><path class="cls-5" d="M161,241.45a6.3,6.3,0,0,0,2.86,4.94c1.57.91,2.85.17,2.85-1.64a6.37,6.37,0,0,0-2.85-5c-1.58-.9-2.86-.16-2.86,1.66Z" transform="translate(-106.32 -84.7)"/><path d="M162.25,240.29a1.31,1.31,0,0,0-.43,1.16,5.48,5.48,0,0,0,2.45,4.18,1.4,1.4,0,0,0,1.22.2,1.38,1.38,0,0,0,.44-1.15,5.58,5.58,0,0,0-2.47-4.26,1.9,1.9,0,0,0-.86-.28.85.85,0,0,0-.35.08Zm1.18,6.83a7.1,7.1,0,0,1-3.24-5.57,2.51,2.51,0,0,1,2.14-2.85,2.48,2.48,0,0,1,1.91.51,7.09,7.09,0,0,1,3.26,5.64,2.79,2.79,0,0,1-1.24,2.53,2.3,2.3,0,0,1-1.14.31A3.51,3.51,0,0,1,163.43,247.12Z" transform="translate(-106.32 -84.7)"/><polygon points="58.35 168.83 58.35 161.68 56.75 160.7 56.75 166.06 55.47 165.32 54.68 166.72 58.35 168.83 58.35 168.83"/><path d="M175.2,234.59h0a2.26,2.26,0,0,1-2.26-2.24V222.6a9.51,9.51,0,0,0-4.3-7.46l-4.18-2.37c-.78-.44-1.39-.51-1.58-.37a2.05,2.05,0,0,0-.48,1.56v9.74a2.26,2.26,0,0,1-2.24,2.26h0a2.27,2.27,0,0,1-2.25-2.26V214a5.56,5.56,0,0,1,8.81-5.08l4.17,2.36a14.58,14.58,0,0,1,6.55,11.36v9.75a2.25,2.25,0,0,1-2.24,2.24Z" transform="translate(-106.32 -84.7)"/><path d="M186.65,371.66l6.82-4.4a.14.14,0,0,0,0-.18h0l-8.64-10.48a.12.12,0,0,0-.15-.07.11.11,0,0,0-.06.07l-1.39,6.4h0l-.34,4.4a.11.11,0,0,0,0,.08l3.55,4.18a.14.14,0,0,0,.17,0Z" transform="translate(-106.32 -84.7)"/><path d="M183.66,367.22l3,3.53,5.79-3.74-7.4-9L184,363.14l-.3,4.05Zm2.92,5.2a.85.85,0,0,1-.65-.3l-3.75-4.39v-.39l.34-4.4,1.49-7,.54-.19a.84.84,0,0,1,.86.29l8.88,10.78v.41a.86.86,0,0,1-.39.59l-6.82,4.41a.81.81,0,0,1-.46.14Z" transform="translate(-106.32 -84.7)"/><path class="cls-1" d="M212.49,339.89,180,321.09a2.35,2.35,0,0,0-2.13-.3h0l-6.42,3.79a.17.17,0,0,0,0,.23l0,0,7.57,8.09a.29.29,0,0,1,0,.13v13.29a7.41,7.41,0,0,0,3.33,5.78l4.86,2.78.35.49a17.82,17.82,0,0,0,7.54,11.34c.24.16.39-.07.24-.36-.79-1.49-2.27-4.73-1.81-7.28l.53-.22,10.05,5.79a.39.39,0,0,1,.08.1l4.18,11.13a.16.16,0,0,0,.21.11l0,0,6.3-3.79h0a2.34,2.34,0,0,0,.87-2.05V345.67a7.45,7.45,0,0,0-3.34-5.78Z" transform="translate(-106.32 -84.7)"/><path d="M194.14,358l10.59,6.12.17.34,4,10.56,5.7-3.45a1.62,1.62,0,0,0,.52-1.39v-24.5a6.68,6.68,0,0,0-3-5.14L179.55,321.8a1.68,1.68,0,0,0-1.39-.27l-5.68,3.41,7.32,7.76v13.71a6.65,6.65,0,0,0,3,5.13l5.08,3,.47.78a17.11,17.11,0,0,0,5.5,9.51,11,11,0,0,1-1-5.8v-.39l1.24-.55Zm14.6,18.82-.49-.11a1,1,0,0,1-.54-.55l-4.17-11-9.39-5.42A13.83,13.83,0,0,0,196,366a1.06,1.06,0,0,1-.16,1.28,1,1,0,0,1-1.15,0,18.64,18.64,0,0,1-7.83-11.67l-.16-.22-4.7-2.71a8.07,8.07,0,0,1-3.7-6.42V333.17l-7.46-7.88a.92.92,0,0,1,.08-1.3l.12-.09,6.37-3.82a3.07,3.07,0,0,1,2.86.3l32.58,18.8a8.09,8.09,0,0,1,3.7,6.42v24.54a3.09,3.09,0,0,1-1.2,2.66l-6.62,4Z" transform="translate(-106.32 -84.7)"/><path class="cls-5" d="M206.1,343.83,173.44,325c-1.8-1-3.24-.19-3.24,1.88v24.66a7.17,7.17,0,0,0,3.24,5.56l5,2.9a.61.61,0,0,1,.25.39,17.9,17.9,0,0,0,7.55,11.39c.24.16.39-.07.24-.37-.81-1.54-2.37-4.95-1.75-7.54,0-.11.14-.15.26-.08l21.08,12.16c1.79,1,3.24.2,3.24-1.88V349.46a7.17,7.17,0,0,0-3.24-5.57Z" transform="translate(-106.32 -84.7)"/><path d="M184.91,363a1.07,1.07,0,0,1,.49.14l21,12.17a1.28,1.28,0,0,0,2.14-1.24V349.46a6.51,6.51,0,0,0-2.88-5L173,325.62a1.29,1.29,0,0,0-2.15,1.24v24.66a6.46,6.46,0,0,0,2.88,5l5,2.89a1.32,1.32,0,0,1,.61.91,17.14,17.14,0,0,0,5.57,9.55,10.55,10.55,0,0,1-.92-6.11l.08-.36.43-.25a.77.77,0,0,1,.36-.09Zm22.63,14.13a3.68,3.68,0,0,1-1.82-.54l-20.36-11.76a13.55,13.55,0,0,0,1.81,6.23,1,1,0,0,1-.17,1.28.9.9,0,0,1-1.14,0,18.73,18.73,0,0,1-7.85-11.8l-4.93-2.79a7.86,7.86,0,0,1-3.62-6.26V326.86a2.7,2.7,0,0,1,2.26-3.08,2.74,2.74,0,0,1,2.1.56l32.6,18.85a7.88,7.88,0,0,1,3.62,6.27v24.65a3,3,0,0,1-1.33,2.78,2.4,2.4,0,0,1-1.21.32Z" transform="translate(-106.32 -84.7)"/><polygon points="103.41 266.82 102.63 265.58 108.9 261.6 109.69 262.85 103.41 266.82 103.41 266.82"/><polygon points="109.51 265.63 103.02 269.56 103.02 290.94 109.3 287.5 109.51 285.97 109.51 265.63 109.51 265.63"/><polygon class="cls-1" points="84.23 262.88 83.98 265.29 86.22 265.86 86.43 267.72 84.38 266.72 85.72 269.54 84.35 269.6 83.41 266.88 82.59 268.57 81.17 266.93 82.5 265.63 80.47 264.28 80.71 262.68 82.89 264.67 82.66 261.97 84.23 262.88 84.23 262.88"/><polygon class="cls-1" points="93.5 268.24 93.26 270.64 95.5 271.21 95.7 273.08 93.65 272.08 94.99 274.9 93.64 274.96 92.69 272.25 91.87 273.93 90.45 272.29 91.77 270.99 89.74 269.63 89.98 268.03 92.18 270.02 91.93 267.33 93.5 268.24 93.5 268.24"/><path class="cls-2" d="M299.13,415.76l6.82-4.42a.1.1,0,0,0,0-.15h0l-8.66-10.53a.13.13,0,0,0-.19,0l0,0-1.39,6.41h0l-.34,4.38v.1l3.57,4.18h.15Z" transform="translate(-106.32 -84.7)"/><path class="cls-2" d="M296.17,411.32l3,3.53,5.78-3.74-7.41-9-1.11,5.15-.29,4.05Zm2.91,5.2a.86.86,0,0,1-.66-.3l-3.74-4.36v-.39l.33-4.4,1.5-7,.53-.19a.84.84,0,0,1,.87.27L306.79,411v.42a.94.94,0,0,1-.39.6l-6.85,4.46a.89.89,0,0,1-.47.14Z" transform="translate(-106.32 -84.7)"/><path class="cls-1" d="M325,384l-32.57-18.79a2.38,2.38,0,0,0-2.13-.31h0l-6.36,3.81a.18.18,0,0,0,0,.26l0,0,7.61,8a.13.13,0,0,1,0,.12v13.3a7.41,7.41,0,0,0,3.35,5.77l4.84,2.79c.12.16.22.32.35.47a17.94,17.94,0,0,0,7.54,11.42c.24.15.39-.09.24-.38-.78-1.49-2.26-4.72-1.81-7.27l.54-.23,10.05,5.8a.18.18,0,0,1,.07.08L320.89,420a.16.16,0,0,0,.2.12l.05,0,6.3-3.79h0a2.33,2.33,0,0,0,.87-2V389.75A7.43,7.43,0,0,0,325,384Z" transform="translate(-106.32 -84.7)"/><path class="cls-2" d="M306.63,402.14l10.6,6.11.16.34,4,10.56,5.72-3.43a1.7,1.7,0,0,0,.5-1.4V389.75a6.68,6.68,0,0,0-3-5.13l-32.56-18.79a1.67,1.67,0,0,0-1.48-.27L284.9,369l7.34,7.76v13.71a6.65,6.65,0,0,0,3,5.13l5.09,3,.46.79a17.39,17.39,0,0,0,5.5,9.5,11.11,11.11,0,0,1-1-5.79l.07-.41,1.24-.53ZM321.24,421l-.48-.1a.9.9,0,0,1-.54-.54l-4.18-11-9.32-5.37a13.93,13.93,0,0,0,1.79,6.23,1,1,0,0,1-.15,1.27.91.91,0,0,1-1.16,0,18.61,18.61,0,0,1-7.82-11.65l-.15-.23-4.72-2.71a8.11,8.11,0,0,1-3.7-6.42V377.35l-7.46-7.89a.85.85,0,0,1-.24-.75.92.92,0,0,1,.46-.67l6.35-3.8a3.08,3.08,0,0,1,2.88.29l32.56,18.79a8.14,8.14,0,0,1,3.7,6.42V414.3a3,3,0,0,1-1.18,2.64l-6.64,4Z" transform="translate(-106.32 -84.7)"/><path class="cls-7" d="M318.62,387.93l-32.69-18.81c-1.78-1-3.24-.19-3.24,1.88v24.57a7.2,7.2,0,0,0,3.24,5.57l5,2.91a.55.55,0,0,1,.26.38,17.85,17.85,0,0,0,7.55,11.4c.24.15.39-.07.24-.36-.81-1.55-2.37-5-1.76-7.55,0-.12.15-.15.28-.08l21.09,12.25c1.79,1,3.26.19,3.26-1.88V393.55a7.17,7.17,0,0,0-3.26-5.56Z" transform="translate(-106.32 -84.7)"/><path class="cls-2" d="M297.4,407.14a.91.91,0,0,1,.49.14L319,419.45a1.27,1.27,0,0,0,2.13-1.24V393.55a6.44,6.44,0,0,0-2.87-5l-32.66-18.86a1.64,1.64,0,0,0-1.56-.22,1.62,1.62,0,0,0-.58,1.46v24.62a6.45,6.45,0,0,0,2.88,5l5,2.91a1.4,1.4,0,0,1,.61.9,17,17,0,0,0,5.57,9.55,10.63,10.63,0,0,1-.91-6.11l.08-.36.42-.27a1.53,1.53,0,0,1,.36-.07ZM320,421.27a3.74,3.74,0,0,1-1.81-.54L297.84,409a13.94,13.94,0,0,0,1.79,6.24,1,1,0,0,1-.15,1.28.93.93,0,0,1-1.16,0,18.86,18.86,0,0,1-7.85-11.8l-4.93-2.86a7.85,7.85,0,0,1-3.61-6.26V371a2.7,2.7,0,0,1,4.35-2.51l32.66,18.85a8,8,0,0,1,3.62,6.26v24.66a3,3,0,0,1-1.39,2.78,2.54,2.54,0,0,1-1.23.32Z" transform="translate(-106.32 -84.7)"/><polygon class="cls-2" points="215.92 310.92 215.13 309.66 221.4 305.69 222.18 306.95 215.92 310.92 215.92 310.92"/><polygon class="cls-2" points="222 309.73 215.52 313.66 215.52 335.02 221.79 331.59 222 330.06 222 309.73 222 309.73"/><path class="cls-1" d="M305.48,391.47a1.85,1.85,0,0,0-.93.22,2.78,2.78,0,0,0-1.09,2.55,9.83,9.83,0,0,0,4.47,7.72,2.29,2.29,0,0,0,3.25,0,2.34,2.34,0,0,0,.58-2.17A9.92,9.92,0,0,0,307.3,392a3.69,3.69,0,0,0-1.82-.55Zm4.26,12.3a4.78,4.78,0,0,1-2.44-.74,11,11,0,0,1-5.08-8.79,3.53,3.53,0,0,1,5.71-3.29,11.16,11.16,0,0,1,5.12,8.8,3.91,3.91,0,0,1-1.7,3.62,3,3,0,0,1-1.56.4Z" transform="translate(-106.32 -84.7)"/><polygon class="cls-1" points="196.21 310.08 186.46 304.46 186.46 306.42 185.21 306.42 185.21 302.3 196.84 309.01 196.21 310.08 196.21 310.08"/><polygon class="cls-1" points="188.8 307.77 187.55 307.77 187.55 304.72 188.8 304.72 188.8 307.77 188.8 307.77"/><polygon class="cls-1" points="191.04 309.06 189.81 309.06 189.81 306.01 191.04 306.01 191.04 309.06 191.04 309.06"/></svg>