<svg id="Layer_1" data-name="Layer 1" xmlns="http://www.w3.org/2000/svg" viewBox="0 0 325.99 387.92"><defs><style>.cls-1,.cls-10,.cls-12,.cls-13,.cls-15,.cls-16,.cls-2,.cls-20,.cls-21,.cls-23,.cls-24,.cls-25,.cls-26,.cls-3,.cls-4,.cls-5,.cls-7,.cls-8,.cls-9{stroke:#000;stroke-miterlimit:10;}.cls-2{fill:#e06f63;}.cls-3{fill:#f9d6cf;}.cls-4{fill:#bf5c55;}.cls-12,.cls-23,.cls-5{fill:#fff;}.cls-6{fill:#444;}.cls-10,.cls-31,.cls-7{fill:#2c3033;}.cls-8{fill:#64696d;}.cls-9{fill:#bababa;}.cls-10,.cls-21,.cls-9{stroke-width:0.75px;}.cls-11,.cls-13,.cls-15,.cls-21{fill:#fbc1b1;}.cls-12,.cls-15{stroke-width:0.5px;}.cls-14{fill:#ea9c92;}.cls-16,.cls-19{fill:#3f3f3f;}.cls-17{fill:#262626;}.cls-18{fill:#5793ce;}.cls-20{fill:#bcbcbc;}.cls-22{fill:#191a1c;}.cls-23{stroke-width:0.25px;}.cls-24{fill:#a54c4a;}.cls-25{fill:#b6b6b7;}.cls-26,.cls-30{fill:#dda8a4;}.cls-27{fill:#393a3a;}.cls-28{fill:#d3d1cf;}.cls-29{fill:#f2f2f3;}</style></defs><title>signup</title><path class="cls-1" d="M266,360.75c-5.9,3.4-10.69-.2-10.69-8.08s4.79-17,10.69-20.4l98.31-56.76c5.9-3.4,10.68.19,10.68,8.08s-4.78,17-10.68,20.41L266,360.75Z" transform="translate(-99.54 -60.78)"/><path class="cls-1" d="M259.81,361.05l14.91-11.27L142.9,273.68A26.15,26.15,0,0,0,140,285c0,3.93,1.2,6.8,3.13,8.27h0a4.79,4.79,0,0,0,1,.6L259.81,361Z" transform="translate(-99.54 -60.78)"/><path d="M162.31,282.3,108,251c-10.67-6.16-10.67-16.19,0-22.36l55.43-32c10.69-6.17,28.06-6.17,38.73,0l54.26,31.3-14.71,8.5-54.27-31.31a10.27,10.27,0,0,0-9.29,0l-55.43,32c-2.51,1.49-2.51,3.9,0,5.38L177,273.81l-14.71,8.5Z" transform="translate(-99.54 -60.78)"/><path class="cls-2" d="M162.31,279.3,108,248c-10.67-6.16-10.67-16.19,0-22.36l55.43-32c10.69-6.17,28.06-6.17,38.73,0l54.26,31.3-14.71,8.5-54.27-31.31a10.27,10.27,0,0,0-9.29,0l-55.43,32c-2.51,1.49-2.51,3.9,0,5.38L177,270.81l-14.71,8.5Z" transform="translate(-99.54 -60.78)"/><path class="cls-3" d="M139.82,283c0,3.93,1.2,6.8,3.13,8.27h0a4.79,4.79,0,0,0,1,.6L259.61,359l113.5-85.53L255.74,205.28h0c-1.92-1-4.28-.92-6.93.6l-98.3,56.75c-5.91,3.42-10.69,12.55-10.69,20.41Z" transform="translate(-99.54 -60.78)"/><path class="cls-4" d="M259.61,359.05l14.91-11.27L142.7,271.68A26.15,26.15,0,0,0,139.82,283c0,3.93,1.2,6.8,3.13,8.27h0a4.79,4.79,0,0,0,1,.6L259.61,359Z" transform="translate(-99.54 -60.78)"/><path class="cls-2" d="M267,358.75c-5.9,3.4-10.69-.2-10.69-8.08s4.79-17,10.69-20.4l98.31-56.76c5.9-3.4,10.68.19,10.68,8.08s-4.78,17-10.68,20.41L267,358.75Z" transform="translate(-99.54 -60.78)"/><path class="cls-5" d="M279.6,338a5.05,5.05,0,0,1,2.13-4.06l11.82-6.82c1.16-.68,2.13.05,2.13,1.61a5.14,5.14,0,0,1-2.13,4.07l-11.82,6.81C280.55,340.25,279.6,339.54,279.6,338Z" transform="translate(-99.54 -60.78)"/><polygon class="cls-6" points="177.45 238.09 183.69 237.9 208.57 249.94 198.39 251.59 177.45 238.09 177.45 238.09"/><path class="cls-7" d="M302.3,367a34,34,0,0,0-2.93,1.93c-1,.77-2.34,4.69-1.71,7.6S308.49,394.24,312,396s9.37,2.22,9.21-5-5.45-17.9-9.16-22.43S302.3,367,302.3,367Z" transform="translate(-99.54 -60.78)"/><path class="cls-8" d="M301,365.57s11.73-4.32,11.41,1.95-.76,7.51-5.28,8.3a7.06,7.06,0,0,1-4.66-.73,3.54,3.54,0,0,1-1.75-3.24l.28-6.26Z" transform="translate(-99.54 -60.78)"/><path class="cls-7" d="M324.37,355a32.41,32.41,0,0,0-2.93,1.93c-1,.77-2.32,4.71-1.71,7.6s10.83,17.68,14.32,19.41,9.38,2.22,9.22-5-5.45-17.92-9.16-22.44-9.74-1.48-9.74-1.48Z" transform="translate(-99.54 -60.78)"/><path class="cls-8" d="M323,353.54s11.74-4.31,11.41,1.94-.73,7.54-5.27,8.28a7,7,0,0,1-4.64-.67,3.53,3.53,0,0,1-1.76-3.25l.27-6.26Z" transform="translate(-99.54 -60.78)"/><path class="cls-9" d="M285,275.38l38.39,23.14L322,351.2a6.87,6.87,0,0,0,6.11,7.3,22.85,22.85,0,0,0,2.74.24,5.54,5.54,0,0,0,5.55-4.81l7.39-56.36a18,18,0,0,0-4.54-14.48l-18.28-20-20.3-19.9s-29.66-33.31-31.45-4.27S285,275.38,285,275.38Z" transform="translate(-99.54 -60.78)"/><path class="cls-6" d="M308.71,288.63l.24,1.25,10.32,10,4.11-1.33c.07-3.09-9.08-12-9.21-12l-5.46,2Z" transform="translate(-99.54 -60.78)"/><path class="cls-6" d="M277,298.92l7.51,3.06,1.32-7.52-30.42-21.69c-6.67,3.23-5,5.48-3.94,7.62,2.73,5.46,25.55,18.48,25.55,18.48Z" transform="translate(-99.54 -60.78)"/><path class="cls-9" d="M247.18,250.08c-1.74,26.55,15.73,36.51,15.73,36.51l38.4,23.14L300,362.39a6.88,6.88,0,0,0,6.11,7.3,19.24,19.24,0,0,0,2.73.25,5.55,5.55,0,0,0,5.56-4.8l7.39-56.36a18,18,0,0,0-4.53-14.48l-18.29-20-20.3-19.9s-29.54-33.3-31.45-4.28Z" transform="translate(-99.54 -60.78)"/><path class="cls-10" d="M264.68,156.74c5.81-2.4,22.27-5.64,28.27-.43s1.19,39.87,14,82.66c10.92,36.31-62,35.27-61.37,21.65,1.51-32.53-2.9-81.27-2.9-81.27s-.5-13.29,22-22.62Z" transform="translate(-99.54 -60.78)"/><path class="cls-11" d="M257.49,168.51c-1.18-4.56,2.91-9.57,9.11-11.16s12.18.81,13.36,5.38-2.91,9.58-9.11,11.17-12.18-.82-13.36-5.39Z" transform="translate(-99.54 -60.78)"/><path class="cls-12" d="M270.44,157.87a14.41,14.41,0,0,0-3.58.46,12.88,12.88,0,0,0-6.75,4.11,6.57,6.57,0,0,0-1.58,5.75c1,4,6.44,6.05,12.06,4.59a12.78,12.78,0,0,0,6.75-4.09,6.54,6.54,0,0,0,1.58-5.75c-.8-3.06-4.3-5-8.48-5Zm-14,10.92a8.61,8.61,0,0,1,2-7.64,15,15,0,0,1,7.89-4.84c6.77-1.74,13.42,1,14.67,6.15a8.56,8.56,0,0,1-2,7.64,15.06,15.06,0,0,1-7.89,4.84,16.38,16.38,0,0,1-4.06.52C261.9,175.46,257.5,172.87,256.45,168.79Z" transform="translate(-99.54 -60.78)"/><path class="cls-13" d="M273.76,155.71s-11.72-9.05-11.27-1.42-.33,9.73,1.7,11.76,9.87-.07,9.75-2.31a52.51,52.51,0,0,1-.19-8Z" transform="translate(-99.54 -60.78)"/><path class="cls-14" d="M262.53,154.29l11.27,3.35.15,6.43c-9.53-2.71-11.46-9.78-11.46-9.78Z" transform="translate(-99.54 -60.78)"/><path class="cls-15" d="M256.45,136.33a17.31,17.31,0,1,1,12.43,21.09,17.32,17.32,0,0,1-12.43-21.09Z" transform="translate(-99.54 -60.78)"/><path class="cls-14" d="M269.24,141.26l1.69-4.18L290.52,140s1.45,5.53-5.15,5.48-16.13-4.13-16.13-4.13Z" transform="translate(-99.54 -60.78)"/><path d="M287.34,142.44c13.83,5.07,10.48-20.12,10.48-20.12-3,2.87-6.69-.35-6.69-.35-3.51-3.55-26-13-34.88,4.55s1.2,25.25,2.14,24.71,1.63-4.16-.42-7.51-.39-5.19,2.13-5,4.67,5.48,5.92,5.18a2.65,2.65,0,0,0,1.33-.95,7.52,7.52,0,0,1,4.41-2.62c7.27-1.48,15.58,2.06,15.58,2.06Z" transform="translate(-99.54 -60.78)"/><path class="cls-16" d="M263.83,273.86v3.55A1.92,1.92,0,0,0,265,279l29.78,17.2a5.37,5.37,0,0,0,4.83.2l43.73-25.26a1.39,1.39,0,0,0,.84-1.26h0v-3.59l-3.62.48L313.22,251a5.32,5.32,0,0,0-4.82-.2l-38.6,22.28-6,.78Z" transform="translate(-99.54 -60.78)"/><path class="cls-17" d="M297.12,296.89a4.5,4.5,0,0,0,2.5-.46l43.73-25.26a1.39,1.39,0,0,0,.84-1.25h0v-3.6l-3.62.48-14.86-8.58H295.6l-2.74,1.59Z" transform="translate(-99.54 -60.78)"/><path class="cls-18" d="M342.59,266.51v5.1l.76-.45a1.39,1.39,0,0,0,.84-1.26h0v-3.59l-1.6.21Z" transform="translate(-99.54 -60.78)"/><path class="cls-19" d="M299.12,296.63v-6.37H295v6.12a5.62,5.62,0,0,0,4.11.25Z" transform="translate(-99.54 -60.78)"/><path class="cls-5" d="M299.62,292.84a5.37,5.37,0,0,1-4.83-.2L265,275.44c-1.43-.83-1.61-2.07-.35-2.78L308.4,247.4a5.35,5.35,0,0,1,4.82.2L343,264.8c1.42.82,1.59,2.06.33,2.78l-43.73,25.26Z" transform="translate(-99.54 -60.78)"/><path class="cls-20" d="M300.35,289a4.45,4.45,0,0,1-4-.16l-16-9c-1.19-.69-1.31-1.71-.29-2.32l36.32-21a4.46,4.46,0,0,1,4,.18l16,9c1.19.69,1.32,1.73.29,2.32l-36.32,21Z" transform="translate(-99.54 -60.78)"/><path class="cls-13" d="M311.48,246.77s-4.37-3.5-6.17.15S301.76,257,302.61,257s2.51-2.15,2.51-2.15l.71,6.45s0,.08,0,.12a2.08,2.08,0,0,0,2.41,1.68,3.76,3.76,0,0,0,3-2.94l.53-2.66a22.12,22.12,0,0,0,.19-7.74l-.45-3Z" transform="translate(-99.54 -60.78)"/><path class="cls-21" d="M296.7,198.78l14.28-9.1,3.22,18.11a12.59,12.59,0,0,1,.16,3.3l-2.8,35.68-6.18.15-2.05-31.77a18.31,18.31,0,0,0-1.93-7.06l-4.7-9.28Z" transform="translate(-99.54 -60.78)"/><path class="cls-16" d="M301.06,295.23l-2-1.18a1.93,1.93,0,0,1-.82-1.83V257.83a5.33,5.33,0,0,1,2.24-4.28l43.74-25.34a1.44,1.44,0,0,1,1.52-.08h0l2.08,1.25-2.22,2.9v31.58a5.36,5.36,0,0,1-2.24,4.28l-38.56,22.33-3.67,4.78Z" transform="translate(-99.54 -60.78)"/><path class="cls-17" d="M346.71,230.66l-3.38-2,.76-.45a1.44,1.44,0,0,1,1.52-.09h0l2.08,1.26-1,1.25Z" transform="translate(-99.54 -60.78)"/><path class="cls-21" d="M255.27,215l-15.37-7.52,2.41,23a7.24,7.24,0,0,0,3,5.12L281,261.45l3.07-4.7L257,232.08a5.31,5.31,0,0,1-1.74-4V215Z" transform="translate(-99.54 -60.78)"/><path class="cls-21" d="M281,261.45l3.06-4.7a9.13,9.13,0,0,0,4.54,1.9c2.26.1,5.3,2.9,4.77,3.48-.76.79-3.27-1.17-3.27-1.17l4.53,4.67a3.09,3.09,0,0,1,.33.39,2.61,2.61,0,0,1-.69,3.62l-.15.09a4.34,4.34,0,0,1-4.43-.1L285.34,267a9.66,9.66,0,0,1-3.6-4.05l-.7-1.45Z" transform="translate(-99.54 -60.78)"/><path d="M281.72,259.4a1.13,1.13,0,0,0,0-2.25,1.13,1.13,0,0,0,0,2.25Z" transform="translate(-99.54 -60.78)"/><path class="cls-11" d="M282,259.4c-.1,0-.28-.21-.07,0,.68.79,1.87.1,1.92-.8a2.13,2.13,0,0,0-.68-1.44l-1.59,1.6c.17.18.34.36.52.53a1.12,1.12,0,0,0,1.59-1.59l-.32-.42-1.59,1.6.39.33a1.13,1.13,0,0,0,1.77-1.36,1.81,1.81,0,0,0-.65-.72,1.14,1.14,0,0,0-1.7,1,5.37,5.37,0,0,0,0,.7c0,.16,0,.32.07.47s0,.23,0,.1l.33-.79,0,0,.8-.33c.34,0,.29.1.14,0a1.14,1.14,0,0,0-1.48-.09,1.13,1.13,0,0,0-.28,1.45,2.88,2.88,0,0,1,.35.63l1.66-1.27a.34.34,0,0,1-.16-.13c-1.06-1-2.65.59-1.59,1.59a4,4,0,0,0,.61.48c.86.58,1.86-.37,1.65-1.27a4.12,4.12,0,0,0-.58-1.17l-1.77,1.37c.62.51,1.52,1,2.24.35s.23-1.38.23-2.11l-1.69,1L282,259l1.77-1.37-.39-.34a1.13,1.13,0,0,0-1.59,1.6l.32.41,1.59-1.59c-.18-.18-.35-.35-.52-.54a1.13,1.13,0,0,0-1.59,1.6,1.08,1.08,0,0,1,.18.29l-.15-.57v.12l1.92-.79a2,2,0,0,0-1.52-.7,1.13,1.13,0,0,0,0,2.25Z" transform="translate(-99.54 -60.78)"/><path class="cls-11" d="M279.45,258c.85,1,1.91,1.76,2.78,2.72s2.57-.53,1.59-1.59-1.93-1.73-2.78-2.72a1.13,1.13,0,0,0-1.59,0,1.15,1.15,0,0,0,0,1.59Z" transform="translate(-99.54 -60.78)"/><path class="cls-11" d="M283.86,259.74a3.29,3.29,0,0,0-.48-.57c-1.08-1-2.68.62-1.59,1.59a.69.69,0,0,0,.13.11,1.17,1.17,0,0,0,1.54.41,1.14,1.14,0,0,0,.4-1.54Z" transform="translate(-99.54 -60.78)"/><path class="cls-11" d="M283.49,259.39a6.79,6.79,0,0,0-.77-.65c-1-.77-2.37,1-1.37,1.76a2.42,2.42,0,0,1,.34.28l1.94-1.13a3.76,3.76,0,0,0-.85-.84,1.13,1.13,0,0,0-1.14,1.94.05.05,0,0,0,.05,0,1.16,1.16,0,0,0,1.54.41,1.14,1.14,0,0,0,.4-1.54,3.23,3.23,0,0,0-.69-.74l-1.36,1.77c.11.09.22.2.32.3a1.12,1.12,0,0,0,1.59-1.59Z" transform="translate(-99.54 -60.78)"/><path class="cls-11" d="M281.08,260.27l.1.09a1.17,1.17,0,0,0,1.59,0,1.13,1.13,0,0,0,0-1.59l-.1-.09a1.15,1.15,0,0,0-1.59,0,1.13,1.13,0,0,0,0,1.59Z" transform="translate(-99.54 -60.78)"/><path class="cls-1" d="M302.53,254.8a5.32,5.32,0,0,0-2.23,4.28v34.39c0,1.7,1,2.41,2.24,1.7l43.71-25.3a5.39,5.39,0,0,0,2.23-4.3V231.19c0-1.7-1-2.41-2.24-1.7L302.53,254.8Z" transform="translate(-99.54 -60.78)"/><path class="cls-10" d="M292.52,156.23s-10.17,53,3.76,49a34,34,0,0,0,19.6-14.28c-6.74-16.59-23.33-34.7-23.33-34.7Z" transform="translate(-99.54 -60.78)"/><path class="cls-22" d="M299.41,204.13a37.48,37.48,0,0,0,3.66-1.64l-6.37-24.41,2.71,26Z" transform="translate(-99.54 -60.78)"/><path class="cls-23" d="M280.08,152.51l-4.38,1.25s.49,2.64,3.61,1.78a10.88,10.88,0,0,0,5.25-4.21l-4.48,1.25Z" transform="translate(-99.54 -60.78)"/><path class="cls-24" d="M385.53,314.71a6.45,6.45,0,0,0-2.69,5.14V344.8a2.36,2.36,0,0,0,.9,2.14h0l3.28,1.89V346l32-18.48a6.48,6.48,0,0,0,2.69-5.16V298l2.28-.83-3.24-1.87h0a1.68,1.68,0,0,0-1.73.13l-33.49,19.33Z" transform="translate(-99.54 -60.78)"/><path class="cls-2" d="M388.85,348.71c-1.44.85-2.69-.06-2.69-2v-24.9a6.4,6.4,0,0,1,2.69-5.15l33.49-19.33c1.44-.87,2.69,0,2.69,2v24.9a6.45,6.45,0,0,1-2.69,5.14l-33.49,19.34Z" transform="translate(-99.54 -60.78)"/><path class="cls-5" d="M413.33,316.87c1.25-.76,2.26-.18,2.26,1.26a5,5,0,0,1-2.26,3.92c-1.25.76-2.25.18-2.25-1.26A5,5,0,0,1,413.33,316.87Z" transform="translate(-99.54 -60.78)"/><path class="cls-5" d="M406.48,320.83c1.25-.77,2.27-.19,2.27,1.25a5,5,0,0,1-2.27,3.91c-1.24.78-2.25.19-2.25-1.25A5,5,0,0,1,406.48,320.83Z" transform="translate(-99.54 -60.78)"/><path class="cls-5" d="M399.64,324.78c1.26-.77,2.26-.19,2.26,1.25a5,5,0,0,1-2.26,3.92c-1.25.76-2.25.19-2.25-1.25A5,5,0,0,1,399.64,324.78Z" transform="translate(-99.54 -60.78)"/><path class="cls-1" d="M229,80.56a6.28,6.28,0,0,0-2.65,5V110a2.41,2.41,0,0,0,.89,2.12h0l3.23,1.85v-2.8L261.88,93a6.35,6.35,0,0,0,2.64-5V64.1l2.25-.81-3.2-1.84h0a1.68,1.68,0,0,0-1.69.14L229,80.56Z" transform="translate(-99.54 -60.78)"/><path class="cls-25" d="M232.28,113.86c-1.47.85-2.65,0-2.65-2V87.44a6.25,6.25,0,0,1,2.65-5l32.85-19c1.46-.85,2.64,0,2.64,2V89.93a6.3,6.3,0,0,1-2.64,5l-32.85,19Z" transform="translate(-99.54 -60.78)"/><path class="cls-5" d="M256.3,82.68c1.22-.73,2.21-.15,2.21,1.25a4.87,4.87,0,0,1-2.21,3.84c-1.23.74-2.22.17-2.22-1.25A4.88,4.88,0,0,1,256.3,82.68Z" transform="translate(-99.54 -60.78)"/><path class="cls-5" d="M247.37,90.38a4.86,4.86,0,0,1,2.21-3.83c1.22-.74,2.22-.17,2.22,1.25a5,5,0,0,1-2.22,3.84c-1.22.74-2.21.17-2.21-1.25Z" transform="translate(-99.54 -60.78)"/><path class="cls-5" d="M240.65,94.29a5,5,0,0,1,2.21-3.85c1.23-.74,2.21-.16,2.21,1.25a4.87,4.87,0,0,1-2.21,3.84c-1.22.73-2.21.16-2.21-1.26Z" transform="translate(-99.54 -60.78)"/><polygon points="94.93 310.93 18.76 266.24 4.22 268.18 2.63 263.13 2.57 268.41 5.86 282 8.85 283.75 18.46 283.81 18.41 289 27.39 289.06 27.34 294.23 36.33 294.29 36.27 299.48 45.26 299.54 45.21 304.71 54.37 304.79 54.35 305.15 54.18 305.05 54.13 310.31 74.73 322.41 94.93 310.93 94.93 310.93"/><polygon class="cls-26" points="74.79 317.14 94.98 305.67 18.81 260.98 2.63 263.13 5.92 276.74 8.9 278.49 18.7 278.55 18.46 283.74 27.63 283.8 27.39 288.97 36.56 289.05 36.33 294.22 45.5 294.28 45.26 299.45 54.43 299.53 54.18 305.05 74.79 317.14 74.79 317.14"/><path d="M160.55,369.92l13.78,8,20.2-11.47-14.89-8.77A49.28,49.28,0,0,0,170,361.8a28.31,28.31,0,0,0-9.36,8.08Z" transform="translate(-99.54 -60.78)"/><polygon class="cls-27" points="3.18 265.43 66.31 302.46 69.69 300.54 5.35 262.78 2.63 263.13 3.18 265.43 3.18 265.43"/><polygon class="cls-28" points="143.75 327.52 141.58 325.09 143.97 320.04 143.75 327.52 143.75 327.52"/><path d="M207,391.14a17.18,17.18,0,0,1,15.49.1c4.33,2.51,4.29,6.52,0,9a17.09,17.09,0,0,1-15.49-.11c-4.26-2.51-4.24-6.5.06-8.95Zm23.88,14c16.52-9.3,16.61-24.75.24-34.35s-43-9.8-59.51-.41c-5.37,3-9,6.71-10.89,10.62l-1.36-1.52-.23,7.93h0c-.06,6.23,4,12.51,12.2,17.32,16.37,9.6,43,9.79,59.53.41Z" transform="translate(-99.54 -60.78)"/><path class="cls-29" d="M222.72,383.78c4.26,2.49,4.24,6.5-.06,8.94a17.09,17.09,0,0,1-15.49-.11c-4.26-2.49-4.24-6.5.06-8.94A17.09,17.09,0,0,1,222.72,383.78ZM231,397.66c16.53-9.32,16.61-24.76.25-34.37s-43-9.78-59.53-.41-16.61,24.75-.24,34.35,43,9.79,59.52.43Z" transform="translate(-99.54 -60.78)"/><path class="cls-27" d="M212,401.76l.45,9.25a52.16,52.16,0,0,0,18.46-5.88c12.32-7,15.49-17.39,9.48-26.16l-7.78,8.77-7.51,5.92c1.31,2.23.44,4.79-2.65,6.54a16.91,16.91,0,0,1-10.49,1.55Z" transform="translate(-99.54 -60.78)"/><path class="cls-30" d="M222.72,383.78c4.26,2.49,4.24,6.5-.06,8.94a17.09,17.09,0,0,1-15.49-.11c-4.26-2.49-4.24-6.5.06-8.94A17.09,17.09,0,0,1,222.72,383.78ZM231,397.66c16.53-9.32,16.61-24.76.25-34.37s-43-9.78-59.53-.41-16.61,24.76-.24,34.35c10.1,5.94,24.11,8.24,37.24,7a67.28,67.28,0,0,0,9.86-1.69A50.85,50.85,0,0,0,231,397.66Z" transform="translate(-99.54 -60.78)"/><path d="M238.87,380.62c.08-5.56-3.54-11.15-10.85-15.46-14.57-8.54-38.27-8.71-53-.37-8.31,4.73-11.94,11.14-10.89,17.4.08-5.5,3.77-11,11.06-15.12,14.69-8.32,38.4-8.16,53,.38,6.31,3.71,9.86,8.39,10.67,13.17Z" transform="translate(-99.54 -60.78)"/><path d="M219.07,390.66a19.73,19.73,0,0,0-2.33,9.9c-.1,14.32,9.86,31.86,22.21,39.11,5.76,3.39,11.11,4,15.11,1.73s6.26-7.19,6.26-13.86c.1-14.32-9.87-31.87-22.23-39.11a19.63,19.63,0,0,0-9.77-3.07A10.27,10.27,0,0,0,219.07,390.66Zm29.68,58a25.56,25.56,0,0,1-12.8-3.89c-14-8.21-25.28-28.08-25.16-44.3a25.54,25.54,0,0,1,3.14-12.8,16.49,16.49,0,0,1,6.12-6.12c5.92-3.36,13.39-2.73,21.06,1.76,14,8.21,25.27,28.08,25.16,44.3-.07,8.88-3.36,15.63-9.27,19a16.35,16.35,0,0,1-8.25,2.13Z" transform="translate(-99.54 -60.78)"/><path class="cls-30" d="M220.61,398.41l2-5.74a17.09,17.09,0,0,1-15.49-.11l1.69,8.77,11.75-2.87Z" transform="translate(-99.54 -60.78)"/><path class="cls-30" d="M219.39,396.17l-47.84,1.06c10.09,5.94,24.11,8.24,37.23,7a67.19,67.19,0,0,0,9.87-1.69,50.62,50.62,0,0,0,12.41-4.87Z" transform="translate(-99.54 -60.78)"/><path class="cls-27" d="M213.52,411a56.12,56.12,0,0,0,10.27-2.64V401a69,69,0,0,1-10.4,2.68S202.56,412.44,213.52,411Z" transform="translate(-99.54 -60.78)"/><path class="cls-27" d="M221.08,401.89v7.36c2.83-.89,5-1.75,5-1.75s8.09-11.11,1.69-8.1a49.38,49.38,0,0,1-6.76,2.5Z" transform="translate(-99.54 -60.78)"/><path class="cls-31" d="M247.61,174.48v-.09l-.44,1.06a5.66,5.66,0,0,0,.92-1.5,1.5,1.5,0,0,0-2.74-1.16c-.12.29.17-.11-.07.1a2.76,2.76,0,0,0-.31.37c-.2.26-.36.55-.56.81l2.59,1.51c.14-.27.3-.54.47-.8a3.39,3.39,0,0,0,.23-.34l0,0c.18-.18.08-.15-.29.1a1.53,1.53,0,0,0,1.05-1.84,1.51,1.51,0,0,0-1.85-1,4.54,4.54,0,0,0-2.17,2.39,1.5,1.5,0,0,0,2.59,1.51,2.7,2.7,0,0,0,.27-.39l.08-.14c-.06.07-.05.07,0,0a3,3,0,0,0,.58-.75l-2.74-1.16c.06-.15,0,0,0,0l-.08.08a2.05,2.05,0,0,0-.48,1.2,1.51,1.51,0,0,0,1.5,1.5,1.54,1.54,0,0,0,1.5-1.5Z" transform="translate(-99.54 -60.78)"/><path class="cls-31" d="M295.43,203.67a7.15,7.15,0,0,0,.22,2.16c.37,1.71,2.87,1.23,2.94-.4l.12-2.61-2.95.4.63,2.52a1.5,1.5,0,0,0,2.94-.4,4.93,4.93,0,0,0-.35-2.18,1.52,1.52,0,0,0-2.9,0,8,8,0,0,1-1.21,2.92l2.36-.3a47,47,0,0,1-9.63-14.59c-.65-1.55-3.39-.42-2.74,1.16q2.38,5.82,5.13,11.49c.76,1.55,3.19.45,2.74-1.16a37.88,37.88,0,0,0-1.63-4.74c-.6-1.43-3-1.45-2.94.4l.19,5.21,2.95-.4a51.72,51.72,0,0,1-1-5.69l-2.79.75a66.11,66.11,0,0,1,5.33,8.94l2.59-1.52c-1.5-2.44-3.42-4.61-4.85-7.09-1.86-3.22-2.11-6.52-2.08-10.18l-2.94.4,2.34,7a1.51,1.51,0,0,0,2.95-.4q.21-4.36.23-8.74h-3c0,2.47-.05,4.92-.18,7.38l2.95-.4a45,45,0,0,1-.74-6.13,1.5,1.5,0,0,0-3,0v.45c0,1.93,3,1.93,3,0v-.45h-3a50.43,50.43,0,0,0,.84,6.93c.33,1.74,2.86,1.21,2.95-.4.13-2.46.19-4.91.18-7.38a1.5,1.5,0,0,0-3,0q0,4.38-.23,8.74l2.94-.4-2.34-7a1.51,1.51,0,0,0-2.95.4c0,3.27,0,6.5,1.37,9.55,1.46,3.37,4.06,6.12,6,9.24a1.5,1.5,0,0,0,2.59-1.52,66,66,0,0,0-5.33-8.93c-.76-1.07-3-.88-2.8.76a57.19,57.19,0,0,0,1.13,6.49,1.5,1.5,0,0,0,2.94-.4l-.19-5.21-3,.4a37.88,37.88,0,0,1,1.63,4.74l2.74-1.16Q290,197,287.75,191.55L285,192.7a49,49,0,0,0,10.1,15.2,1.51,1.51,0,0,0,2.35-.3A15.32,15.32,0,0,0,299,204h-2.9l.25,1.38,2.95-.4-.63-2.52a1.5,1.5,0,0,0-2.94.4l-.12,2.61,3-.4-.11-1.36c.06-1.93-2.94-1.93-3,0Z" transform="translate(-99.54 -60.78)"/><path class="cls-31" d="M288.93,165.38a75.27,75.27,0,0,1-2.07,21.51c-.45,1.87,2.44,2.67,2.9.8a78.69,78.69,0,0,0,2.17-22.31c-.09-1.93-3.09-1.94-3,0Z" transform="translate(-99.54 -60.78)"/><path class="cls-31" d="M290.2,158.52A34.65,34.65,0,0,1,290,165c-.25,1.89,2.64,2.7,2.9.8a39.83,39.83,0,0,0,.35-7.32c-.1-1.92-3.1-1.93-3,0Z" transform="translate(-99.54 -60.78)"/><path class="cls-31" d="M289.78,158.26a5.1,5.1,0,0,0,.75,1,1.51,1.51,0,0,0,2,.11,1.48,1.48,0,0,0,.38-1.93,8.48,8.48,0,0,0-1.15-1.4,1.5,1.5,0,0,0-2.12,2.13,5,5,0,0,1,.68.78l2.36-1.82a1.25,1.25,0,0,1-.28-.36,1.5,1.5,0,0,0-2.59,1.51Z" transform="translate(-99.54 -60.78)"/><path class="cls-31" d="M253.17,203a20.07,20.07,0,0,1-.25,4.17l2.94.39a6,6,0,0,1,.36-1.73h-2.89a5.24,5.24,0,0,1,.41,2.1h3l-.06-2.95c0-1.93-3-1.93-3,0l.06,2.95a1.5,1.5,0,0,0,3,0,7.59,7.59,0,0,0-.52-2.9,1.51,1.51,0,0,0-2.89,0,8.71,8.71,0,0,0-.47,2.53c-.13,1.67,2.65,2.07,2.95.4a22.89,22.89,0,0,0,.36-5c-.08-1.92-3.08-1.93-3,0Z" transform="translate(-99.54 -60.78)"/><path class="cls-31" d="M253.86,207.14a27.77,27.77,0,0,0-.33,3.29h3a13.45,13.45,0,0,1,.21-2.9l-3-.4c0,1.37-.11,2.74-.21,4.1h3v-2.16a1.5,1.5,0,0,0-3,0c0,.89,0,1.77.09,2.66a1.5,1.5,0,0,0,3,0,25.63,25.63,0,0,0,.11-4.2c-.1-1.92-3.1-1.93-3,0a25.63,25.63,0,0,1-.11,4.2h3c-.06-.89-.09-1.77-.09-2.66h-3v2.16c0,2,2.86,1.91,3,0,.1-1.36.17-2.73.21-4.1a1.5,1.5,0,0,0-2.94-.4,17.09,17.09,0,0,0-.32,3.7,1.5,1.5,0,0,0,3,0,21.09,21.09,0,0,1,.22-2.5,1.54,1.54,0,0,0-1.05-1.84,1.5,1.5,0,0,0-1.84,1Z" transform="translate(-99.54 -60.78)"/><path class="cls-11" d="M262,165.88c3.31,2.86,7.82,1.38,11.69.73,1.9-.32,1.09-3.21-.8-2.89-2.49.42-6.61,1.91-8.77,0-1.46-1.26-3.59.85-2.12,2.12Z" transform="translate(-99.54 -60.78)"/><path class="cls-11" d="M263.8,165.05a3,3,0,0,0,1.38-2.15,1.5,1.5,0,0,0-.74-1.3,1.76,1.76,0,0,0-2.11.32l.66-.39-.1,0,1.9,1.44a.68.68,0,0,1-.36.61,1.56,1.56,0,0,0,.69-1.69,1.51,1.51,0,0,0-1.45-1.1l-.39,0,1.3,2.26a.5.5,0,0,1-.35.26,1.54,1.54,0,0,0,1-1.85,1.51,1.51,0,0,0-1.84-1.05,2.93,2.93,0,0,0-1.44,1.13,1.5,1.5,0,0,0,1.29,2.25l.39,0-.75-2.8a2.54,2.54,0,0,0-1.13,2,1.51,1.51,0,0,0,1.9,1.45,2.51,2.51,0,0,0,.85-.5l-.66.39.11,0-1.15-.15.09,0-.75-1.3V163l.2-.75a3.9,3.9,0,0,1-.71.71,1.51,1.51,0,0,0,0,2.12,1.55,1.55,0,0,0,2.12,0Z" transform="translate(-99.54 -60.78)"/><path class="cls-11" d="M310.81,246.32l0-.11-.39.66.08-.07-2.5-.66,0,.09v-.8l0,.1.38-.66-.07.07.66-.38h-.1l1.46,2.51.29-.24a1.5,1.5,0,0,0-.66-2.5,5.09,5.09,0,0,0-3.74,1.21,1.5,1.5,0,0,0,1.81,2.36,2.15,2.15,0,0,0,.89-1,3,3,0,0,0,.16-.45c.13-.5-.37.38-.08.14a1.5,1.5,0,1,0-2.12-2.13,2.17,2.17,0,0,0-.61,1,2.31,2.31,0,0,0-.1.28l0,.11a.8.8,0,0,1,.38-.47l1.82,2.36c-.17.13.18-.09.22-.11s.19-.09.07,0l.23-.07a6.71,6.71,0,0,1,1-.25h-.8l.12,0-.66-2.51-.29.24a1.51,1.51,0,0,0-.24,1.82,1.59,1.59,0,0,0,1.7.69,1.68,1.68,0,0,0,1.22-2.13,1.52,1.52,0,0,0-2.51-.66,1.64,1.64,0,0,0-.49.84,1.5,1.5,0,1,0,2.89.8Z" transform="translate(-99.54 -60.78)"/><path class="cls-10" d="M244.58,172.5s18.69,44.23,10.72,46.8-22-2-22-2c3.07-32.49,11.27-44.84,11.27-44.84Z" transform="translate(-99.54 -60.78)"/><path class="cls-31" d="M244.5,174c.93,8.56,6.11,16.17,8.16,24.53l2.74-1.16a19.1,19.1,0,0,1-1.58-4.19l-2.9.8a32.8,32.8,0,0,1,2.58,12c.05,1.93,3.05,1.93,3,0a35.35,35.35,0,0,0-2.68-12.82c-.72-1.72-3.47-1.1-2.9.8a32.64,32.64,0,0,0,1.89,4.9c.75,1.58,3.13.45,2.74-1.15-2-8-7.17-15.65-8.05-23.73-.21-1.9-3.21-1.92-3,0Z" transform="translate(-99.54 -60.78)"/><path class="cls-22" d="M255,220.71a5.18,5.18,0,0,0,3.39-5c-.17-8.08-3.39-25.27-3.39-25.27Z" transform="translate(-99.54 -60.78)"/></svg>