<svg width="328" height="199" viewBox="0 0 328 199" fill="none" xmlns="http://www.w3.org/2000/svg">
<g clip-path="url(#clip0)">
<path d="M72.534 31.542C86.1214 19.4631 96.0996 26.6518 103.563 34.7207C109.483 41.135 110.316 42.5614 115.207 49.2121C115.976 50.1528 116.433 51.3094 116.513 52.5211C116.652 59.8565 120.416 90.9584 116.228 101.684C111.328 114.187 51.124 119.909 51.124 119.909L72.534 31.542Z" fill="black"/>
<path d="M111.1 108.8C110.935 108.8 110.778 108.734 110.661 108.618C110.545 108.502 110.479 108.344 110.479 108.18C110.479 108.016 110.545 107.858 110.661 107.742C110.778 107.626 110.935 107.561 111.1 107.561C111.978 107.518 112.835 107.276 113.605 106.852C114.375 106.428 115.038 105.834 115.542 105.116C122.295 96.3784 118.498 67.2244 115.191 51.3719C115.157 51.2109 115.189 51.0431 115.28 50.9056C115.37 50.768 115.511 50.6719 115.673 50.6384C115.834 50.6049 116.002 50.6367 116.14 50.7269C116.278 50.8171 116.374 50.9582 116.408 51.1193C118.346 60.5301 119.647 70.0604 120.303 79.6456C121.07 92.7922 119.804 101.603 116.53 105.841C115.914 106.703 115.111 107.415 114.181 107.923C113.25 108.431 112.217 108.722 111.157 108.775L111.1 108.8Z" fill="black"/>
<path d="M77.6296 27.9395C51.5 42.3494 67.4391 91.0888 34.3524 108.465C25.1744 113.282 -3.01288 137.709 15.4575 169.919C27.5424 190.988 63.6339 186.448 75.5392 167.8C87.4445 149.152 77.6296 27.9395 77.6296 27.9395Z" fill="black"/>
<path d="M8.13269 138.752H8.05103C7.97031 138.742 7.8924 138.716 7.82185 138.676C7.75129 138.636 7.6895 138.582 7.64009 138.517C7.59068 138.453 7.55464 138.379 7.53407 138.3C7.5135 138.222 7.50881 138.14 7.52028 138.06C8.11186 134.685 9.18713 131.413 10.713 128.344C14.1714 121.142 19.5865 115.053 26.3418 110.772C41.6684 101.04 51.8426 91.8712 63.9031 46.6447C63.9164 46.5588 63.9476 46.4766 63.9949 46.4035C64.0421 46.3304 64.1042 46.2681 64.1772 46.2206C64.2501 46.173 64.3323 46.1414 64.4183 46.1276C64.5044 46.1139 64.5923 46.1184 64.6765 46.1409C64.7607 46.1633 64.8392 46.2032 64.9069 46.2579C64.9746 46.3126 65.03 46.381 65.0695 46.4585C65.109 46.536 65.1317 46.6209 65.1361 46.7078C65.1406 46.7946 65.1266 46.8815 65.0952 46.9626C59.2895 68.8138 53.5247 83.5904 46.9678 93.4198C40.8763 102.581 34.6052 106.982 27.044 111.791C22.3578 114.725 18.3194 118.581 15.1748 123.124C12.0302 127.667 9.8453 132.801 8.75326 138.214C8.73171 138.363 8.65716 138.5 8.54323 138.599C8.4293 138.697 8.28358 138.752 8.13269 138.752Z" fill="black"/>
<path d="M8.70425 126.127C8.58886 126.131 8.47513 126.099 8.37763 126.038C8.30833 125.994 8.24827 125.938 8.20089 125.872C8.15351 125.805 8.11975 125.73 8.10154 125.65C8.08333 125.571 8.08103 125.489 8.09478 125.408C8.10853 125.328 8.13806 125.251 8.18166 125.182C11.8395 119.334 16.7331 114.355 22.5203 110.593C44.0364 96.737 47.5965 88.717 65.3728 42.9444C65.4324 42.7909 65.5506 42.6674 65.7014 42.6009C65.8523 42.5344 66.0234 42.5304 66.1771 42.5899C66.3309 42.6493 66.4547 42.7673 66.5213 42.9179C66.5879 43.0684 66.5919 43.2392 66.5323 43.3927C57.6483 66.2627 52.3325 79.6701 46.5269 89.1653C40.2884 99.3696 33.2416 105.124 23.1898 111.611C17.554 115.272 12.7906 120.121 9.23501 125.818C9.1805 125.91 9.10307 125.987 9.01014 126.042C8.9172 126.096 8.81188 126.125 8.70425 126.127Z" fill="black"/>
<path d="M76.7313 58.3568C71.3508 69.4186 68.7394 81.6182 69.121 93.9088C69.121 93.9088 70.158 100.429 74.3061 101.847C78.4542 103.265 84.3333 99.0843 83.9904 93.5584C83.6474 88.0324 85.3704 74.5761 87.4444 69.7429C89.5184 64.9097 76.7313 58.3568 76.7313 58.3568Z" fill="#E8A987"/>
<path d="M29.2241 187.858C29.7875 192.944 28.5137 192.52 33.0456 193.368C37.5774 194.216 45.6449 191.11 45.6449 191.11L36.5812 174.296L29.2241 187.858Z" fill="#6791C9"/>
<path d="M70.2071 83.892C67.6595 92.1565 48.5522 85.7992 41.8646 87.7064C35.1771 89.6136 29.4449 117.586 28.4896 142.697C27.5342 167.808 28.808 187.834 31.3556 191.013C33.9033 194.191 75.9393 195.463 79.7607 194.191C83.5822 192.92 47.9153 177.027 47.9153 177.027C47.9153 177.027 45.6861 147.783 48.5522 132.843C51.4183 117.904 77.1804 98.196 77.1804 98.196L70.2071 83.892Z" fill="#E8A987"/>
<path d="M79.1236 86.4349C85.8111 96.6066 103.326 95.3352 109.377 103.6C115.427 111.864 128.157 157.319 128.157 157.319L141.533 111.228C141.533 111.228 152.384 109.411 148.881 116.934C142.619 130.349 140.283 173.612 133.489 179.757C125.936 186.587 118.416 181.028 114.178 169.064C110.095 157.49 99.8476 132.509 92.5231 122.973C85.1987 113.437 77.1802 98.196 77.1802 98.196L79.1236 86.4349Z" fill="#E8A987"/>
<path d="M50.1446 87.7064C63.5197 103.282 89.633 102.646 95.3652 100.747L101.081 98.8398C101.081 98.8398 105.539 97.2505 109.361 101.701C113.182 106.151 122.426 134.123 124.01 140.48C125.594 146.837 128.141 157.327 128.141 157.327C128.141 157.327 121.315 165.477 121.315 173.775C121.315 182.072 124.214 182.112 124.214 182.112C124.214 182.112 115.73 180.213 113.819 175.127C111.908 170.042 94.7119 123.951 94.7119 123.951L47.2622 124.905L47.8991 177.067C47.8991 177.067 43.7592 173.253 38.027 177.067C32.2948 180.882 30.3841 189.782 31.3395 191.053C32.2948 192.325 29.4287 192.325 29.4287 191.371C29.4287 190.418 24.015 167.213 27.7956 129.07C31.5763 90.9258 38.9415 86.7935 43.0815 86.4757C45.504 86.2403 47.9452 86.6657 50.1446 87.7064Z" fill="#39363A"/>
<path d="M122.287 181.444C122.335 181.452 122.385 181.452 122.434 181.444H122.287Z" fill="#6791C9"/>
<path d="M124.124 158.476C121.364 159.291 116.693 169.072 116.693 169.072C116.693 169.072 106.078 145.974 102.893 113.975L99.1045 135.68C104.339 149.698 112.545 171.696 113.802 175.119C115.55 179.773 122.597 181.713 123.601 181.925C123.34 181.835 122.784 181.485 122.27 180.091C121.992 179.838 120.4 179.097 120.098 178.82C117.55 176.489 118.612 170.979 120.31 164.834C122.009 158.688 126.884 157.629 124.124 158.476Z" fill="#434144"/>
<path d="M49.5644 124.856L44.2977 100.837C38.5818 108.889 37.9286 136.438 40.2639 155.298C42.1828 170.783 45.0407 174.777 47.0086 176.391C47.3309 176.573 47.6345 176.785 47.915 177.027L47.2781 124.864L49.5644 124.856Z" fill="#434144"/>
<path d="M34.3198 100.625C44.1184 126.902 39.2191 132.199 52.0553 163.04C59.2164 180.27 73.0978 193.238 73.0978 193.238C81.3483 195.077 89.8215 195.72 98.2557 195.145C112.268 194.191 122.524 193.23 122.524 193.23C122.524 193.23 107.826 184.337 107.172 178.298C106.519 172.259 103.767 148.305 107.377 131.352C110.194 118.116 98.5741 104.871 98.5741 104.871L79.1484 103.918L34.3198 100.625Z" fill="#39363A"/>
<path opacity="0.5" d="M51.516 140.888C49.8175 134.742 58.7343 142.795 73.3832 144.278C88.0321 145.762 104.412 143.463 96.3119 145.974C88.2117 148.484 66.1649 144.702 70.1823 152.755C74.9264 162.234 80.5361 171.403 88.6526 176.912C93.9602 180.515 106.698 183.905 94.3685 181.998C82.0386 180.091 68.8921 165.698 63.16 156.357C57.4278 147.017 51.8671 142.257 51.516 140.888Z" fill="#434144"/>
<path d="M83.9577 91.1377C84.0802 84.7967 85.5908 73.973 87.4444 69.7429C88.9305 66.279 82.79 61.9348 79.1809 59.7505L76.1352 59.6201C75.6697 60.6308 75.237 61.6333 74.8287 62.6276C71.6115 83.7208 81.2386 92.4418 85.8358 94.1941C87.7961 94.8695 89.8832 95.0978 91.9436 94.8624C89.1415 93.9452 86.4603 92.6946 83.9577 91.1377Z" fill="#E29F81"/>
<path d="M78.1192 100.527C76.9775 100.526 75.8399 100.389 74.7306 100.119C72.0768 99.4755 65.7485 97.0141 64.2624 88.1872C64.2542 88.1417 64.2551 88.0951 64.265 88.0499C64.275 88.0047 64.2937 87.962 64.3203 87.9241C64.3469 87.8862 64.3807 87.854 64.4198 87.8292C64.4589 87.8044 64.5025 87.7876 64.5482 87.7797C64.6412 87.7655 64.736 87.7883 64.8124 87.8432C64.8887 87.8981 64.9404 87.9806 64.9565 88.0731C66.3609 96.4843 72.3789 98.8235 74.9021 99.4348C78.8133 100.388 82.9696 99.5081 84.57 97.3809C85.8438 95.6775 85.0763 92.0505 85.0681 92.0179C85.0521 91.9697 85.0467 91.9186 85.0524 91.8682C85.0582 91.8177 85.0748 91.7691 85.1012 91.7257C85.1276 91.6822 85.1632 91.6451 85.2054 91.6167C85.2476 91.5884 85.2955 91.5695 85.3457 91.5615C85.3908 91.5508 85.4376 91.5493 85.4833 91.5571C85.529 91.5649 85.5726 91.582 85.6116 91.6071C85.6505 91.6322 85.6839 91.665 85.7098 91.7034C85.7357 91.7418 85.7535 91.785 85.7622 91.8305C85.803 91.9935 86.5787 95.8078 85.1416 97.7639C83.8269 99.5326 81.1323 100.527 78.1192 100.527Z" fill="#F5CE5C"/>
<path d="M108.087 66.6458C105.931 78.0563 100.942 87.2174 92.4986 85.4813C84.0555 83.7453 75.1796 71.7235 77.5149 60.3781C79.8503 49.0328 88.5874 41.2247 97.0305 42.9607C105.474 44.6968 110.969 51.4779 108.087 66.6458Z" fill="#E8A987"/>
<path d="M138.136 122.875C138.136 122.875 122.531 164.728 121.805 169.072C121.078 173.416 122.548 176.171 122.972 176.171C123.397 176.171 136.649 153.505 136.649 153.505L138.136 122.875Z" fill="#E29F81"/>
<path d="M138.773 121.042C140.047 116.803 138.062 111.432 138.062 111.432L143.729 112.141L138.773 121.042Z" fill="#E29F81"/>
<path d="M144.995 113.812H129.195C128.967 113.815 128.741 113.764 128.536 113.663C128.332 113.562 128.154 113.414 128.019 113.23C127.883 113.047 127.793 112.834 127.756 112.61C127.719 112.385 127.737 112.154 127.807 111.937L137.777 78.5209C137.867 78.2262 138.05 77.9682 138.299 77.7849C138.547 77.6015 138.848 77.5024 139.157 77.5021H154.949C155.172 77.5017 155.391 77.5533 155.591 77.6528C155.79 77.7523 155.963 77.8969 156.096 78.075C156.229 78.2532 156.319 78.46 156.358 78.6789C156.397 78.8979 156.384 79.1228 156.321 79.3359L146.351 112.753C146.271 113.052 146.095 113.318 145.851 113.509C145.606 113.7 145.306 113.807 144.995 113.812Z" fill="#3A3A3A"/>
<path d="M146.979 113.812H131.179C130.955 113.811 130.736 113.758 130.537 113.658C130.337 113.557 130.164 113.412 130.031 113.233C129.898 113.055 129.809 112.847 129.77 112.628C129.731 112.409 129.743 112.184 129.807 111.97L139.777 78.5535C139.866 78.2594 140.047 78.0017 140.294 77.8183C140.541 77.6349 140.841 77.5355 141.149 77.5347H156.949C157.172 77.5343 157.391 77.5859 157.591 77.6854C157.79 77.7849 157.963 77.9295 158.096 78.1076C158.23 78.2858 158.319 78.4926 158.358 78.7115C158.397 78.9304 158.384 79.1554 158.321 79.3685L148.351 112.785C148.263 113.081 148.082 113.34 147.835 113.525C147.588 113.71 147.288 113.811 146.979 113.812Z" fill="black"/>
<path d="M135.539 89.6217C133.857 95.6775 132.722 100.649 133.008 100.731C133.294 100.812 134.886 95.9627 136.576 89.907C138.267 83.8513 139.393 78.8714 139.108 78.798C138.822 78.7247 137.221 83.5578 135.539 89.6217Z" fill="white"/>
<path d="M146.277 123.723C146.742 118.221 151.519 113.062 153.34 111.416C153.61 111.166 153.826 110.864 153.974 110.527C154.121 110.191 154.197 109.827 154.197 109.46C154.197 106.713 154.042 100.242 153.479 99.4837C152.752 98.5219 150.948 86.117 150.098 86.5979C149.249 87.0788 150.343 97.9188 150.343 97.9188C150.343 97.9188 148.294 96.9571 147.208 96.4762C146.122 95.9953 141.655 100.926 141.655 100.926C141.655 100.926 139.565 106.208 145.289 103.942C152.083 101.26 146.987 108.751 142.455 113.551C138.724 117.504 141.9 118.384 141.9 118.384L144.913 118.262L146.277 123.723Z" fill="#E8A987"/>
<path d="M144.562 128.051C144.008 128.049 143.457 127.964 142.929 127.798C141.459 127.342 138.895 125.867 138.217 121.123C138.203 121.031 138.226 120.937 138.282 120.863C138.337 120.788 138.419 120.738 138.511 120.724C138.604 120.712 138.698 120.737 138.773 120.793C138.848 120.85 138.897 120.933 138.911 121.025C139.491 125.1 141.459 126.559 142.994 127.089C143.819 127.414 144.731 127.443 145.575 127.171C145.584 127.093 145.619 127.02 145.675 126.964C145.73 126.908 145.803 126.873 145.881 126.864C145.959 126.854 146.039 126.871 146.106 126.912C146.173 126.953 146.225 127.015 146.252 127.089C146.285 127.179 146.291 127.277 146.271 127.37C146.251 127.464 146.205 127.55 146.138 127.619C145.681 127.946 145.122 128.1 144.562 128.051Z" fill="#F5CE5C"/>
<path d="M143.974 126.69C143.496 126.691 143.018 126.656 142.545 126.584C139.818 126.193 137.989 124.807 137.531 122.794C137.52 122.749 137.519 122.702 137.526 122.657C137.533 122.611 137.549 122.567 137.574 122.528C137.598 122.488 137.63 122.454 137.667 122.427C137.705 122.4 137.748 122.381 137.793 122.37C137.884 122.353 137.979 122.371 138.058 122.421C138.137 122.471 138.194 122.549 138.217 122.639C138.65 124.562 140.406 125.378 141.794 125.728C143.745 126.209 145.583 125.915 145.795 125.663C145.818 125.622 145.848 125.587 145.885 125.559C145.922 125.53 145.964 125.509 146.008 125.497C146.053 125.485 146.1 125.482 146.146 125.488C146.192 125.494 146.236 125.509 146.277 125.532C146.357 125.58 146.415 125.657 146.439 125.746C146.464 125.836 146.452 125.932 146.407 126.013C146.146 126.478 145.117 126.69 143.974 126.69Z" fill="#F5CE5C"/>
<path d="M98.4106 72.5711C98.2393 72.5832 98.0674 72.5832 97.8961 72.5711C95.2179 72.1636 93.5929 68.716 94.2135 64.7141C94.4457 62.9765 95.1614 61.3388 96.2794 59.9869C96.7197 59.4137 97.3 58.9628 97.9648 58.6774C98.6296 58.392 99.3566 58.2816 100.076 58.3568C102.763 58.7643 104.38 62.2119 103.767 66.2138C103.171 69.8733 100.86 72.5711 98.4106 72.5711ZM99.5701 59.4816C99.1097 59.5168 98.6621 59.6491 98.2568 59.8697C97.8514 60.0903 97.4975 60.3941 97.2184 60.7612C96.2548 61.9266 95.6381 63.3385 95.4383 64.8364C94.9484 68.0395 96.1569 70.9899 98.084 71.2833C100.011 71.5767 102.044 69.1235 102.534 65.9285C103.024 62.7336 101.816 59.775 99.8885 59.4816H99.5701Z" fill="white"/>
<path d="M107.229 72.5874H106.976C105.22 72.3184 104.265 69.3272 104.812 65.8307C105.359 62.3342 107.147 59.7668 108.895 60.0358C109.793 60.1743 110.528 60.9975 110.895 62.3586C111.255 63.8096 111.311 65.3191 111.059 66.7925C110.553 70.1178 108.895 72.5874 107.229 72.5874ZM108.642 60.9405C107.605 60.9405 106.192 62.921 105.735 65.9611C105.278 69.0012 106.078 71.4871 107.115 71.6664C108.152 71.8457 109.654 69.8081 110.136 66.6539C110.37 65.3167 110.323 63.9455 109.997 62.6276C109.72 61.6496 109.271 61.0464 108.756 60.9975L108.642 60.9405Z" fill="white"/>
<path d="M95.4627 62.0408C95.4058 62.0487 95.3481 62.0487 95.2912 62.0408L74.4855 56.1073C74.3322 56.0579 74.2042 55.9509 74.1284 55.8089C74.0527 55.6669 74.0353 55.5012 74.0799 55.3466C74.1244 55.192 74.2274 55.0608 74.3671 54.9807C74.5068 54.9006 74.6723 54.8779 74.8285 54.9173L95.6342 60.8508C95.7777 60.8923 95.9014 60.9841 95.9825 61.1092C96.0637 61.2344 96.0969 61.3846 96.0761 61.5323C96.0552 61.6799 95.9817 61.8151 95.869 61.913C95.7564 62.0109 95.6121 62.065 95.4627 62.0652V62.0408Z" fill="white"/>
<path d="M110.324 49.1306C78.1274 68.0639 76.3555 55.3412 76.3555 55.3412L78.2662 37.2636L97.3735 38.3232L110.324 49.1306Z" fill="black"/>
<path d="M78.8132 59.5468C79.5644 62.7499 78.5437 65.7248 76.5269 66.1893C74.51 66.6539 72.2808 64.4451 71.5296 61.242C70.7783 58.0389 71.8072 55.0722 73.8159 54.5995C75.8246 54.1267 78.0946 56.3437 78.8132 59.5468Z" fill="#E8A987"/>
<path d="M76.6414 63.7524C76.6414 64.0042 76.5665 64.2503 76.4261 64.4596C76.2858 64.6689 76.0864 64.8318 75.8531 64.9278C75.6199 65.0238 75.3634 65.0485 75.116 64.9988C74.8687 64.9491 74.6418 64.8272 74.4639 64.6485C74.2861 64.4699 74.1655 64.2426 74.1172 63.9954C74.069 63.7482 74.0954 63.4923 74.1931 63.2601C74.2907 63.028 74.4553 62.8299 74.6658 62.6912C74.8764 62.5525 75.1234 62.4793 75.3757 62.4809C75.7121 62.4831 76.0341 62.618 76.2712 62.8562C76.5083 63.0944 76.6414 63.4166 76.6414 63.7524Z" fill="#F5CE5C"/>
<path d="M325.044 199H2.94758C2.19155 198.96 1.47961 198.633 0.958533 198.084C0.437456 197.536 0.146973 196.809 0.146973 196.054C0.146973 195.298 0.437456 194.571 0.958533 194.023C1.47961 193.475 2.19155 193.147 2.94758 193.107H325.044C325.445 193.086 325.845 193.147 326.222 193.285C326.598 193.424 326.943 193.638 327.234 193.913C327.525 194.189 327.757 194.521 327.915 194.889C328.073 195.257 328.155 195.653 328.155 196.054C328.155 196.454 328.073 196.85 327.915 197.218C327.757 197.586 327.525 197.918 327.234 198.194C326.943 198.47 326.598 198.683 326.222 198.822C325.845 198.96 325.445 199.021 325.044 199Z" fill="black"/>
<path d="M79.2953 192.537C79.2953 192.537 67.1532 192.692 66.998 193.767C66.8429 194.843 67.4634 195.3 71.7667 196.066C76.0699 196.832 124.483 197.142 124.949 196.832C125.414 196.522 139.549 193.148 139.549 193.148L105.58 192.537H79.2953Z" fill="#DBE5EB"/>
<path d="M85.9092 184.476C85.9092 184.476 94.6136 180.662 97.1612 182.357C99.7089 184.052 107.066 191.811 107.066 191.811L85.9092 184.476Z" fill="#E29F81"/>
<path d="M106.576 192.512C106.404 192.716 106.16 192.806 106.021 192.7L88.1138 179.39C87.1502 178.673 86.6848 177.573 87.1502 176.994C87.6157 176.415 88.7833 176.627 89.6979 177.41L106.641 191.934C106.788 192.04 106.756 192.3 106.576 192.512Z" fill="#2E5B9A"/>
<path d="M59.5837 182.846C59.5837 182.846 74.0203 188.551 75.7187 188.551C77.4171 188.551 86.8973 182.194 90.0818 183.042C93.2664 183.889 108.862 191.73 108.413 192.366C107.964 193.001 103.514 194.485 90.3676 194.061C77.2211 193.637 55.7622 191.73 55.7622 191.73L59.5837 182.846Z" fill="#E8A987"/>
<path d="M182.091 180.939H238.433C239.949 180.939 241.403 181.54 242.475 182.61C243.546 183.68 244.149 185.131 244.149 186.644V187.581C244.149 189.094 243.546 190.546 242.475 191.616C241.403 192.685 239.949 193.287 238.433 193.287H182.091C181.482 193.287 180.899 193.045 180.468 192.616C180.038 192.186 179.796 191.604 179.796 190.996V183.147C179.818 182.554 180.069 181.992 180.497 181.58C180.925 181.168 181.496 180.938 182.091 180.939Z" fill="#7F7F7F"/>
<path d="M235.689 183.025H179.829C179.42 183.693 179.203 184.46 179.2 185.242V189.032C179.203 189.814 179.42 190.581 179.829 191.249H235.689C236.646 191.247 237.562 190.867 238.239 190.191C238.915 189.516 239.296 188.601 239.298 187.646V186.628C239.296 185.673 238.915 184.758 238.239 184.083C237.562 183.408 236.646 183.027 235.689 183.025Z" fill="#F2E5DE"/>
<path d="M193.849 173.408H237.477C238.4 173.408 239.285 173.774 239.937 174.425C240.589 175.076 240.956 175.959 240.956 176.88V177.442C240.956 178.363 240.589 179.246 239.937 179.897C239.285 180.548 238.4 180.914 237.477 180.914H193.849C193.481 180.914 193.128 180.768 192.868 180.508C192.607 180.249 192.461 179.896 192.461 179.529V174.785C192.461 174.418 192.607 174.065 192.868 173.805C193.128 173.546 193.481 173.4 193.849 173.4V173.408Z" fill="#686868"/>
<path d="M234.538 174.695H192.461C192.164 175.078 192 175.548 191.996 176.032V178.331C192 178.815 192.164 179.284 192.461 179.667H234.538C236.032 179.667 237.249 178.689 237.249 177.491V176.872C237.224 175.657 236.032 174.695 234.538 174.695Z" fill="#F2E5DE"/>
<path d="M188.729 57.9167H141.01C139.483 57.9167 138.691 56.6778 139.246 55.1537L146.465 35.3645C146.769 34.5965 147.285 33.9299 147.952 33.4412C148.62 32.9525 149.412 32.6615 150.237 32.6016H197.964C199.483 32.6016 200.275 33.8486 199.72 35.3645L192.502 55.1537C192.2 55.9239 191.685 56.5926 191.017 57.0818C190.349 57.571 189.556 57.8606 188.729 57.9167Z" fill="black"/>
<path d="M187.113 55.8465H144.138C142.815 55.8465 142.129 54.7706 142.611 53.4503L148.588 37.068C148.851 36.4019 149.297 35.8236 149.875 35.3996C150.452 34.9757 151.139 34.7233 151.854 34.6718H194.837C196.152 34.6718 196.838 35.7476 196.356 37.068L190.379 53.4503C190.117 54.1169 189.671 54.6957 189.093 55.1198C188.515 55.5439 187.828 55.7958 187.113 55.8465Z" fill="white"/>
<path d="M175.452 41.8849H152.074C151.982 41.8918 151.89 41.8737 151.807 41.8326C151.724 41.7914 151.654 41.7288 151.604 41.6512C151.553 41.5736 151.525 41.484 151.522 41.3917C151.518 41.2994 151.54 41.2079 151.584 41.1269L151.65 40.9557C151.734 40.7454 151.876 40.5629 152.06 40.4289C152.243 40.2949 152.46 40.2149 152.687 40.1977H176.065C176.156 40.1924 176.247 40.2116 176.329 40.2534C176.411 40.2952 176.48 40.358 176.529 40.4353C176.578 40.5126 176.605 40.6016 176.609 40.6931C176.612 40.7846 176.59 40.8753 176.546 40.9557L176.489 41.1269C176.404 41.3373 176.262 41.5198 176.079 41.6537C175.896 41.7877 175.679 41.8678 175.452 41.8849Z" fill="black"/>
<path d="M174.162 45.414H150.784C150.692 45.4193 150.601 45.4001 150.52 45.3583C150.438 45.3166 150.369 45.2538 150.32 45.1765C150.271 45.0992 150.243 45.0101 150.24 44.9186C150.237 44.8271 150.258 44.7364 150.302 44.656L150.359 44.4849C150.444 44.2745 150.586 44.092 150.769 43.958C150.953 43.824 151.17 43.744 151.396 43.7269H174.774C174.867 43.72 174.959 43.738 175.042 43.7792C175.125 43.8203 175.195 43.883 175.245 43.9605C175.295 44.0381 175.323 44.1278 175.327 44.22C175.33 44.3123 175.309 44.4038 175.264 44.4849L175.199 44.656C175.114 44.8664 174.972 45.0489 174.789 45.1828C174.606 45.3168 174.388 45.3969 174.162 45.414Z" fill="black"/>
<path d="M172.716 49.3995H149.33C149.239 49.4048 149.148 49.3856 149.066 49.3439C148.984 49.3021 148.915 49.2393 148.866 49.162C148.817 49.0847 148.789 48.9957 148.786 48.9041C148.783 48.8126 148.805 48.722 148.849 48.6415L148.906 48.4704C148.991 48.26 149.133 48.0775 149.316 47.9435C149.499 47.8096 149.716 47.7295 149.943 47.7124H173.321C173.413 47.7055 173.505 47.7236 173.588 47.7647C173.671 47.8058 173.741 47.8685 173.791 47.9461C173.841 48.0237 173.87 48.1133 173.873 48.2056C173.877 48.2978 173.855 48.3893 173.811 48.4704L173.745 48.6415C173.661 48.8507 173.52 49.0325 173.339 49.1663C173.157 49.3002 172.942 49.381 172.716 49.3995Z" fill="black"/>
<path d="M243.438 25.3151H195.719C194.192 25.3151 193.4 24.0763 193.955 22.5521L201.174 2.76298C201.478 1.99498 201.994 1.32836 202.661 0.839639C203.329 0.350918 204.121 0.0599053 204.946 0H252.673C254.192 0 254.984 1.24701 254.429 2.76298L247.211 22.5521C246.909 23.3223 246.394 23.9911 245.726 24.4803C245.058 24.9695 244.265 25.259 243.438 25.3151Z" fill="black"/>
<path d="M241.821 23.2449H198.846C197.523 23.2449 196.837 22.1691 197.319 20.8487L203.296 4.46641C203.559 3.80035 204.005 3.22201 204.583 2.79805C205.161 2.37409 205.847 2.12177 206.562 2.07019H249.546C250.86 2.07019 251.546 3.14604 251.064 4.46641L245.087 20.8487C244.825 21.5153 244.379 22.0942 243.801 22.5183C243.223 22.9423 242.537 23.1943 241.821 23.2449Z" fill="white"/>
<path d="M230.161 9.28328H206.783C206.691 9.29016 206.599 9.27208 206.516 9.23096C206.433 9.18984 206.363 9.12719 206.313 9.0496C206.262 8.97201 206.234 8.88237 206.231 8.7901C206.227 8.69783 206.249 8.60634 206.293 8.52529L206.359 8.35414C206.443 8.14376 206.585 7.96126 206.769 7.8273C206.952 7.69334 207.169 7.61326 207.396 7.59614H230.773C230.865 7.59082 230.956 7.61004 231.038 7.65181C231.12 7.69357 231.189 7.75637 231.238 7.83368C231.287 7.91099 231.314 8.00002 231.317 8.09153C231.321 8.18303 231.299 8.27371 231.255 8.35414L231.198 8.52529C231.113 8.73566 230.971 8.91817 230.788 9.05213C230.605 9.1861 230.388 9.26616 230.161 9.28328Z" fill="black"/>
<path d="M228.871 12.8124H205.493C205.401 12.8177 205.31 12.7985 205.229 12.7567C205.147 12.715 205.078 12.6522 205.029 12.5749C204.98 12.4976 204.952 12.4085 204.949 12.317C204.946 12.2255 204.967 12.1348 205.011 12.0544L205.068 11.8833C205.153 11.6729 205.295 11.4904 205.478 11.3564C205.662 11.2225 205.879 11.1424 206.105 11.1253H229.483C229.576 11.1184 229.668 11.1365 229.751 11.1776C229.834 11.2187 229.904 11.2814 229.954 11.359C230.004 11.4365 230.032 11.5262 230.036 11.6185C230.039 11.7107 230.018 11.8022 229.973 11.8833L229.908 12.0544C229.823 12.2648 229.681 12.4473 229.498 12.5812C229.315 12.7152 229.097 12.7953 228.871 12.8124Z" fill="black"/>
<path d="M227.425 16.798H204.039C203.948 16.8033 203.857 16.7841 203.775 16.7423C203.693 16.7005 203.624 16.6377 203.575 16.5604C203.526 16.4831 203.498 16.3941 203.495 16.3026C203.492 16.2111 203.514 16.1204 203.558 16.04L203.615 15.8688C203.7 15.6584 203.842 15.4759 204.025 15.342C204.208 15.208 204.425 15.128 204.652 15.1108H228.03C228.122 15.104 228.214 15.122 228.297 15.1632C228.38 15.2043 228.45 15.2669 228.5 15.3445C228.55 15.4221 228.579 15.5117 228.582 15.604C228.586 15.6963 228.564 15.7878 228.52 15.8688L228.454 16.04C228.37 16.2492 228.229 16.4309 228.048 16.5648C227.866 16.6986 227.651 16.7794 227.425 16.798Z" fill="black"/>
</g>
<defs>
<clipPath id="clip0">
<rect width="328" height="199" fill="white"/>
</clipPath>
</defs>
</svg>
