<svg width="453" height="215" viewBox="0 0 453 215" fill="none" xmlns="http://www.w3.org/2000/svg">
<g clip-path="url(#clip0)">
<path d="M31.9488 160.157L49.9611 155.121C51.0124 158.877 50.8586 162.867 49.5212 166.531C48.1838 170.196 45.73 173.352 42.5043 175.554C39.2787 177.757 35.4432 178.897 31.5364 178.814C27.6296 178.73 23.8477 177.428 20.7218 175.089C17.596 172.751 15.283 169.493 14.1078 165.775C12.9326 162.057 12.9541 158.064 14.1693 154.357C15.3846 150.65 17.7326 147.415 20.8835 145.107C24.0345 142.799 27.8302 141.534 31.7376 141.488L31.9488 160.157Z" fill="#F5F5F5"/>
<path d="M35.664 141.069L35.1666 155.562L48.8185 151.238C48.8185 151.238 45.7909 143.514 35.664 141.069Z" fill="#E0E0E0"/>
<path d="M352.747 117.801C354.359 117.636 355.987 117.686 357.586 117.95L360.294 114.366L367.078 117.417L366.181 121.814C367.439 122.837 368.554 124.024 369.498 125.342L373.953 124.72L376.607 131.654L372.833 134.111C373 135.72 372.949 137.344 372.682 138.94L376.272 141.647L373.211 148.413L368.805 147.519C367.781 148.776 366.594 149.892 365.275 150.836L365.895 155.276L358.939 157.929L356.458 154.191C354.845 154.353 353.217 154.301 351.618 154.036L348.91 157.62L342.126 154.569L343.029 150.171C341.767 149.153 340.649 147.969 339.707 146.65L335.251 147.272L332.597 140.332L336.344 137.854C336.178 136.245 336.229 134.621 336.496 133.025L332.906 130.324L335.993 123.573L340.399 124.467C341.425 123.209 342.614 122.094 343.935 121.149L343.309 116.71L350.265 114.057L352.746 117.795L352.747 117.801ZM352.098 128.433C350.621 128.991 349.344 129.973 348.426 131.255C347.509 132.537 346.993 134.061 346.943 135.636C346.894 137.21 347.314 138.763 348.149 140.099C348.985 141.435 350.198 142.493 351.637 143.14C353.076 143.787 354.674 143.994 356.231 143.734C357.788 143.474 359.233 142.76 360.383 141.681C361.533 140.602 362.337 139.206 362.693 137.672C363.049 136.137 362.941 134.532 362.382 133.059C362.012 132.081 361.453 131.185 360.735 130.423C360.018 129.661 359.157 129.048 358.202 128.618C357.247 128.189 356.216 127.951 355.169 127.919C354.121 127.888 353.078 128.062 352.098 128.433V128.433Z" fill="#EBEBEB"/>
<path d="M352.098 128.433C352.696 128.148 353.337 127.964 353.996 127.889C355.816 127.64 357.666 128.031 359.229 128.994C360.313 129.653 361.227 130.557 361.895 131.633C362.659 132.877 363.076 134.302 363.104 135.761C363.125 137.379 362.67 138.967 361.793 140.329C360.852 141.799 359.462 142.928 357.829 143.549C356.195 144.171 354.406 144.252 352.723 143.781C351.928 143.565 351.173 143.225 350.485 142.773C349.817 142.35 349.218 141.827 348.711 141.222C347.763 140.112 347.131 138.769 346.88 137.332C346.665 136.083 346.75 134.801 347.129 133.592C347.661 131.835 348.788 130.318 350.317 129.3C350.863 128.929 351.467 128.652 352.104 128.481C352.11 128.534 351.443 128.748 350.417 129.474C348.976 130.512 347.925 132.002 347.432 133.705C347.07 134.954 347.027 136.272 347.306 137.542C347.585 138.811 348.178 139.99 349.03 140.972C349.514 141.544 350.084 142.036 350.721 142.432C351.372 142.858 352.089 143.176 352.842 143.375C354.43 143.819 356.119 143.744 357.661 143.161C359.204 142.578 360.519 141.517 361.414 140.135C361.843 139.487 362.163 138.774 362.361 138.023C362.584 137.309 362.697 136.565 362.695 135.817C362.677 134.429 362.293 133.069 361.581 131.876C360.957 130.837 360.097 129.959 359.069 129.314C357.57 128.368 355.796 127.95 354.031 128.125C353.382 128.195 352.736 128.298 352.098 128.433V128.433Z" fill="#EBEBEB"/>
<path d="M211.498 167.809C211.333 167.339 211.217 166.854 211.152 166.36C211.06 165.766 210.922 165.179 210.739 164.606C210.542 163.819 210.291 163.046 209.987 162.293C209.21 160.213 208.129 158.26 206.779 156.497C205.011 154.161 202.813 152.184 200.301 150.673C197.049 148.693 193.35 147.558 189.544 147.373C185.738 147.189 181.946 147.959 178.514 149.615C176.534 150.554 174.709 151.791 173.104 153.282C172.271 154.039 171.488 154.849 170.761 155.708C170.047 156.61 169.394 157.557 168.805 158.545C166.339 162.677 165.26 167.488 165.726 172.273C166.192 177.059 168.178 181.571 171.394 185.15C172.889 186.87 174.657 188.333 176.629 189.478C178.493 190.624 180.522 191.477 182.645 192.009C187.783 193.319 193.219 192.816 198.03 190.585C202.842 188.354 206.733 184.533 209.046 179.768C210.031 177.777 210.714 175.65 211.072 173.459C211.232 172.663 211.335 171.857 211.38 171.046C211.448 170.445 211.469 169.839 211.443 169.235C211.408 168.739 211.428 168.24 211.502 167.748C211.624 168.232 211.685 168.73 211.683 169.23C211.755 169.826 211.773 170.427 211.74 171.027C211.741 171.855 211.681 172.682 211.56 173.502C211.276 175.765 210.643 177.97 209.682 180.039C208.278 183.099 206.235 185.824 203.69 188.032C201.145 190.241 198.157 191.881 194.925 192.844C190.827 194.052 186.48 194.14 182.338 193.099C180.1 192.555 177.959 191.671 175.991 190.476C174.97 189.86 173.99 189.175 173.06 188.428C172.133 187.65 171.261 186.808 170.451 185.909C167.032 182.136 164.92 177.366 164.427 172.302C163.933 167.238 165.085 162.15 167.712 157.788C168.329 156.753 169.013 155.76 169.76 154.814C170.532 153.91 171.364 153.059 172.251 152.267C173.951 150.712 175.882 149.43 177.976 148.466C181.836 146.644 186.114 145.89 190.364 146.281C193.738 146.605 197.003 147.65 199.935 149.346C202.867 151.042 205.399 153.348 207.358 156.107C208.702 157.95 209.748 159.991 210.458 162.157C210.739 162.936 210.958 163.736 211.112 164.549C211.263 165.128 211.361 165.72 211.406 166.317C211.499 166.808 211.53 167.31 211.498 167.809V167.809Z" fill="#EBEBEB"/>
<path d="M205.111 153.94C205.167 154.005 204.796 154.423 204.05 155.122L202.69 156.37C202.417 156.608 202.148 156.869 201.824 157.125L200.756 157.857C196.903 160.716 192.342 162.473 187.564 162.936L185.493 163.099L183.477 163.026C183.144 163.013 182.818 163.01 182.496 162.984L181.54 162.854C180.926 162.76 180.314 162.685 179.698 162.579C177.601 162.146 175.556 161.492 173.597 160.63C170.269 159.136 168.556 157.637 168.652 157.493C168.749 157.349 170.62 158.552 173.946 159.787C175.882 160.506 177.879 161.051 179.912 161.417C180.484 161.509 181.081 161.563 181.681 161.64L182.592 161.751L183.53 161.781L185.457 161.822L187.427 161.666C192.008 161.204 196.409 159.635 200.247 157.095L201.338 156.457C201.666 156.231 201.963 155.996 202.245 155.787L203.733 154.746C204.56 154.164 205.049 153.876 205.111 153.94Z" fill="#EBEBEB"/>
<path d="M171.504 186.544C171.442 186.479 171.814 186.067 172.566 185.368L173.926 184.119C174.199 183.882 174.468 183.62 174.798 183.358L175.865 182.626C179.712 179.768 184.267 178.012 189.04 177.549L191.105 177.387L193.12 177.454C193.454 177.473 193.779 177.476 194.102 177.502L195.058 177.632C195.672 177.726 196.283 177.795 196.899 177.907C198.997 178.338 201.042 178.991 203 179.856C206.328 181.35 208.048 182.848 207.945 182.993C207.842 183.138 205.978 181.934 202.657 180.692C200.718 179.977 198.72 179.434 196.685 179.069C196.114 178.977 195.517 178.923 194.917 178.846L194.005 178.735L193.068 178.705L191.146 178.663L189.171 178.82C184.591 179.282 180.193 180.85 176.356 183.39L175.259 184.029C174.931 184.255 174.634 184.49 174.352 184.693L172.879 185.757C172.032 186.323 171.561 186.609 171.504 186.544Z" fill="#EBEBEB"/>
<path d="M211.552 168.35C211.594 168.699 201.219 169.995 188.403 171.246C175.587 172.498 165.143 173.231 165.101 172.887C165.059 172.544 175.428 171.242 188.25 169.99C201.071 168.738 211.52 167.993 211.552 168.35Z" fill="#EBEBEB"/>
<path d="M190.024 193.273C189.674 193.316 188.375 182.97 187.128 170.175C185.88 157.381 185.157 146.964 185.5 146.959C185.843 146.953 187.149 157.262 188.397 170.057C189.644 182.851 190.352 193.245 190.024 193.273Z" fill="#EBEBEB"/>
<path d="M190.021 193.244C189.948 193.385 187.19 191.972 183.768 188.427C181.764 186.341 180.057 183.99 178.697 181.439C177.05 178.283 176.016 174.845 175.653 171.305C175.31 167.757 175.682 164.177 176.748 160.774C177.606 158.019 178.83 155.39 180.386 152.958C183.045 148.816 185.412 146.837 185.512 146.963C185.612 147.089 183.557 149.264 181.16 153.423C179.761 155.843 178.66 158.423 177.879 161.105C176.928 164.372 176.607 167.788 176.932 171.173C177.284 174.559 178.244 177.853 179.764 180.899C181.027 183.39 182.596 185.713 184.435 187.816C187.6 191.429 190.134 193.086 190.021 193.244Z" fill="#EBEBEB"/>
<path d="M186.03 146.912C186.103 146.765 188.866 148.177 192.283 151.729C194.289 153.813 195.996 156.164 197.354 158.717C199.003 161.869 200.036 165.306 200.397 168.845C200.741 172.394 200.371 175.976 199.309 179.381C198.451 182.135 197.229 184.763 195.676 187.196C193.017 191.333 190.65 193.311 190.545 193.192C190.44 193.072 192.499 190.885 194.896 186.726C196.296 184.306 197.398 181.727 198.177 179.044C199.13 175.778 199.449 172.361 199.118 168.977C198.765 165.595 197.807 162.305 196.287 159.262C195.024 156.77 193.455 154.445 191.616 152.34C188.451 148.727 185.922 147.063 186.03 146.912Z" fill="#EBEBEB"/>
<path d="M181.306 66.7979L143.162 74.9241L148.636 100.574L186.781 92.4482L181.306 66.7979Z" fill="#F5F5F5"/>
<path d="M181.299 66.8097C181.22 66.9584 181.127 67.0988 181.019 67.2287L180.153 68.3807L176.925 72.593L166.134 86.4353L166.045 86.5484L165.911 86.4806L165.597 86.3265L149.697 78.3569L144.902 75.8993L143.613 75.2147C143.46 75.1397 143.312 75.0532 143.172 74.9559C143.336 75.0058 143.495 75.0709 143.647 75.1504L144.971 75.7766L149.826 78.1306L165.758 86.0182L166.072 86.1723L165.852 86.1991L176.723 72.4192L180.045 68.2797L180.963 67.1634C181.067 67.038 181.179 66.9198 181.299 66.8097Z" fill="#E0E0E0"/>
<path d="M148.631 100.586C148.548 100.542 150.665 96.4107 153.364 91.367C156.063 86.3233 158.316 82.272 158.408 82.333C158.5 82.394 156.375 86.5078 153.676 91.5515C150.977 96.5952 148.715 100.629 148.631 100.586Z" fill="#E0E0E0"/>
<path d="M171.024 79.2962C171.087 79.2165 174.663 82.1053 179.012 85.7418C183.361 89.3784 186.843 92.3869 186.78 92.4608C186.717 92.5347 183.141 89.6517 178.762 86.0188C174.384 82.3859 170.955 79.3708 171.024 79.2962Z" fill="#E0E0E0"/>
<path d="M150.468 152.827C150.816 152.654 151.115 152.397 151.335 152.077C151.588 151.682 151.696 151.213 151.643 150.747C151.595 150.454 151.508 150.17 151.383 149.901L151.012 148.936C149.965 146.183 148.46 142.242 146.589 137.377C146.126 136.155 145.641 134.877 145.133 133.544C144.882 132.877 144.619 132.2 144.359 131.504C144.247 131.158 144.103 130.823 143.93 130.504C143.739 130.21 143.468 129.976 143.149 129.829C142.824 129.679 142.46 129.635 142.109 129.704C141.739 129.811 141.377 129.941 141.024 130.095L138.768 130.971L134.065 132.82L113.108 141.042C112.692 141.218 112.354 141.541 112.16 141.949C111.967 142.358 111.931 142.823 112.059 143.256C112.406 144.17 112.746 145.085 113.079 145.988C113.765 147.805 114.436 149.599 115.097 151.358C116.418 154.877 117.686 158.258 118.901 161.501C119.051 161.908 119.203 162.31 119.356 162.709C119.473 163.084 119.705 163.413 120.019 163.65C120.326 163.883 120.701 164.009 121.087 164.007C121.477 163.975 121.857 163.87 122.206 163.696L126.652 161.951L134.632 158.854L146.194 154.389L149.344 153.192L150.169 152.893C150.267 152.863 150.367 152.84 150.468 152.827L150.2 152.95L149.392 153.289L146.249 154.544L134.755 159.122L126.792 162.264L122.359 164.008C121.969 164.202 121.546 164.319 121.111 164.352C120.653 164.346 120.211 164.188 119.852 163.905C119.483 163.624 119.209 163.238 119.066 162.798L118.611 161.591L114.753 151.502L112.73 146.139C112.39 145.224 112.048 144.304 111.7 143.378C111.544 142.854 111.589 142.29 111.824 141.796C112.06 141.302 112.471 140.913 112.977 140.703L133.942 132.51L138.654 130.673L140.915 129.795C141.29 129.633 141.676 129.497 142.07 129.39C142.484 129.316 142.911 129.368 143.294 129.541C143.669 129.717 143.987 129.995 144.212 130.343C144.392 130.682 144.542 131.036 144.66 131.401L145.421 133.443L146.854 137.285C148.656 142.17 150.133 146.127 151.151 148.889C151.277 149.228 151.394 149.551 151.51 149.855C151.63 150.14 151.714 150.439 151.757 150.745C151.802 151.232 151.676 151.719 151.401 152.124C151.232 152.37 151.007 152.572 150.744 152.715C150.657 152.762 150.564 152.8 150.468 152.827Z" fill="black"/>
<path d="M132.19 144.426L137.004 145.257L133.946 149.13L130.888 153.009L129.138 148.298L127.382 143.593L132.19 144.426Z" fill="black"/>
<path d="M82.5369 114.545L58.916 123.792L66.3148 142.634L89.9356 133.386L82.5369 114.545Z" fill="#EBEBEB"/>
<path d="M82.5707 114.046L82.4556 114.091L82.1287 114.227L80.8532 114.737L76.0371 116.654L59.0343 123.395L59.0717 123.306C61.2848 128.899 63.827 135.311 66.5111 142.098L66.4155 142.055L89.991 132.78L89.9581 132.856C87.7304 127.193 85.8861 122.499 84.5997 119.217C83.9535 117.576 83.4524 116.284 83.1035 115.401L82.7158 114.396L82.5826 114.045C82.5826 114.045 82.6319 114.153 82.7195 114.377C82.8071 114.601 82.9521 114.95 83.1237 115.368C83.4718 116.246 83.99 117.529 84.6407 119.158C85.9456 122.444 87.8151 127.147 90.0732 132.812L90.0805 132.871L90.0211 132.879L66.4485 142.177L66.3773 142.186L66.3686 142.115C63.6904 135.328 61.143 128.922 58.947 123.321L58.9391 123.256L59.0044 123.248L76.0671 116.554L80.8816 114.674L82.1533 114.182L82.4757 114.058L82.5707 114.046Z" fill="#263238"/>
<path d="M82.1615 116.06L60.1975 124.659L66.6651 141.129L88.6291 132.53L82.1615 116.06Z" fill="#E8A987"/>
<path d="M66.789 140.626L70.3992 127.396L77.6639 131.915L79.5277 127.238L88.6887 131.989L66.789 140.626Z" fill="#E09575"/>
<path d="M76.6588 123.481C76.793 123.821 76.8231 124.194 76.7453 124.551C76.6676 124.908 76.4855 125.235 76.222 125.489C75.9585 125.743 75.6255 125.914 75.265 125.98C74.9044 126.045 74.5326 126.003 74.1963 125.858C73.86 125.713 73.5745 125.471 73.3756 125.164C73.1768 124.857 73.0736 124.498 73.0792 124.132C73.0847 123.767 73.1986 123.411 73.4067 123.11C73.6147 122.809 73.9074 122.576 74.2479 122.44C74.4747 122.35 74.7171 122.306 74.9612 122.309C75.2052 122.313 75.4462 122.364 75.6702 122.461C75.8942 122.558 76.0968 122.697 76.2665 122.873C76.4361 123.048 76.5694 123.254 76.6588 123.481V123.481Z" fill="#E8505B"/>
<g opacity="0.2">
<path opacity="0.2" d="M76.6588 123.481C76.793 123.821 76.8231 124.194 76.7453 124.551C76.6676 124.908 76.4855 125.235 76.222 125.489C75.9585 125.743 75.6255 125.914 75.265 125.98C74.9044 126.045 74.5326 126.003 74.1963 125.858C73.86 125.713 73.5745 125.471 73.3756 125.164C73.1768 124.857 73.0736 124.498 73.0792 124.132C73.0847 123.767 73.1986 123.411 73.4067 123.11C73.6147 122.809 73.9074 122.576 74.2479 122.44C74.4747 122.35 74.7171 122.306 74.9612 122.309C75.2052 122.313 75.4462 122.364 75.6702 122.461C75.8942 122.558 76.0968 122.697 76.2665 122.873C76.4361 123.048 76.5694 123.254 76.6588 123.481V123.481Z" fill="black"/>
</g>
<path d="M106.183 94.1325L68.6125 101.421L74.436 131.392L112.007 124.103L106.183 94.1325Z" fill="#EBEBEB"/>
<path d="M106.184 94.1235L106 94.146L105.477 94.252L103.435 94.6574L95.7528 96.1962L68.6325 101.508L68.7085 101.39C70.448 110.312 72.4371 120.539 74.5453 131.346L74.4143 131.259L112 124.009L111.923 124.115C110.188 115.084 108.751 107.605 107.746 102.376C107.251 99.754 106.862 97.7029 106.594 96.2925C106.46 95.5952 106.359 95.0603 106.289 94.688C106.244 94.3206 106.217 94.0955 106.217 94.0955C106.217 94.0955 106.239 94.2792 106.331 94.6348C106.423 94.9904 106.512 95.5267 106.651 96.2193C106.93 97.6164 107.336 99.6595 107.853 102.266C108.878 107.511 110.354 115.01 112.132 124.053L112.143 124.142L112.019 124.157L74.4514 131.465L74.3386 131.479L74.3249 131.367C72.2264 120.54 70.2433 110.313 68.5119 101.408L68.4996 101.308L68.6005 101.295L95.7977 96.0705L103.453 94.6071L105.474 94.2283L105.993 94.1349L106.184 94.1235Z" fill="#263238"/>
<path d="M105.205 96.2802L70.271 103.057L75.3613 129.255L110.295 122.478L105.205 96.2802Z" fill="black"/>
<path d="M75.368 129.249L84.4034 110.6L93.9405 119.322L98.0053 112.879L110.3 122.473L75.368 129.249Z" fill="#4C4949"/>
<path d="M94.7998 106.511C94.9066 107.055 94.8492 107.618 94.635 108.129C94.4209 108.641 94.0595 109.077 93.5966 109.383C93.1338 109.69 92.5903 109.852 92.035 109.85C91.4798 109.848 90.9377 109.682 90.4774 109.372C90.0172 109.062 89.6594 108.623 89.4495 108.11C89.2397 107.597 89.1871 107.034 89.2984 106.491C89.4097 105.948 89.68 105.45 90.075 105.06C90.4699 104.671 90.9719 104.407 91.5171 104.302C91.8782 104.232 92.2495 104.233 92.6099 104.306C92.9703 104.379 93.3127 104.522 93.6175 104.727C93.9224 104.932 94.1837 105.196 94.3866 105.502C94.5894 105.808 94.7298 106.151 94.7998 106.511V106.511Z" fill="#878485"/>
<g opacity="0.2">
<path opacity="0.2" d="M75.4635 130.031L84.4989 111.382L94.036 120.104L98.1008 113.661L110.396 123.255L75.4635 130.031Z" fill="black" stroke="white" stroke-miterlimit="10"/>
</g>
<g opacity="0.2">
<path opacity="0.2" d="M95.1558 106.269C95.2611 106.811 95.2029 107.373 94.9886 107.882C94.7742 108.392 94.4134 108.826 93.9516 109.131C93.4898 109.436 92.9479 109.598 92.3943 109.595C91.8408 109.593 91.3004 109.427 90.8415 109.118C90.3827 108.809 90.0259 108.372 89.8164 107.86C89.6069 107.349 89.554 106.787 89.6644 106.246C89.7748 105.705 90.0436 105.208 90.4368 104.819C90.8299 104.43 91.3298 104.166 91.8732 104.06C92.2343 103.989 92.6058 103.99 92.9665 104.062C93.3272 104.135 93.6699 104.278 93.975 104.483C94.28 104.689 94.5414 104.952 94.744 105.259C94.9467 105.565 95.0866 105.908 95.1558 106.269V106.269Z" fill="black"/>
</g>
<path d="M101.665 167.712C100.832 165.857 99.5148 164.26 97.851 163.088C96.1872 161.916 94.2381 161.212 92.2076 161.049C90.1771 160.887 88.1399 161.272 86.3091 162.164C84.4784 163.057 82.9214 164.424 81.8012 166.122C80.6809 167.82 80.0385 169.788 79.9413 171.819C79.844 173.849 80.2955 175.868 81.2484 177.664C82.2012 179.461 83.6206 180.968 85.3578 182.029C87.095 183.09 89.0862 183.665 91.123 183.694C91.6756 184.914 92.2966 186.299 92.2966 186.299L101.368 182.216C101.368 182.216 100.765 180.732 100.195 179.418C101.492 177.789 102.316 175.835 102.575 173.77C102.835 171.705 102.52 169.609 101.665 167.712V167.712Z" fill="#E8A987"/>
<path d="M98.0899 183.65C98.0693 183.607 98.0519 183.563 98.0377 183.518C98.0254 183.417 97.9679 183.292 97.9113 183.125C97.8085 182.776 97.6447 182.273 97.4613 181.61C97.278 180.947 97.0528 180.139 96.8577 179.182C96.6291 178.097 96.5084 176.992 96.4973 175.883C96.4916 175.238 96.544 174.593 96.6541 173.957C96.71 173.609 96.8546 173.281 97.0741 173.004C97.1967 172.862 97.3509 172.752 97.5243 172.68C97.6978 172.609 97.8856 172.579 98.0726 172.594C98.2709 172.614 98.4539 172.71 98.5843 172.86C98.7146 173.011 98.7825 173.205 98.7741 173.404C98.7503 173.799 98.5811 174.171 98.2989 174.448C97.6955 175.002 96.8977 175.296 96.0786 175.266C95.6523 175.249 95.234 175.145 94.849 174.962C94.4641 174.778 94.1205 174.519 93.8392 174.199C93.5315 173.878 93.3233 173.475 93.2397 173.039C93.193 172.807 93.2286 172.566 93.3405 172.357C93.4525 172.148 93.6337 171.984 93.8532 171.894C93.9703 171.857 94.0949 171.849 94.2157 171.872C94.3364 171.895 94.4493 171.948 94.5443 172.026C94.7354 172.175 94.8679 172.387 94.9185 172.624C94.9768 173.091 94.8824 173.564 94.6493 173.974C94.4455 174.401 94.1533 174.781 93.792 175.089C93.4307 175.396 93.0084 175.624 92.5529 175.757C92.0935 175.883 91.6103 175.895 91.1453 175.792C90.6802 175.69 90.2472 175.476 89.8838 175.168C89.6988 175.021 89.5466 174.837 89.437 174.628C89.3274 174.419 89.2628 174.189 89.2474 173.953C89.2434 173.837 89.2633 173.72 89.306 173.612C89.3488 173.503 89.4133 173.404 89.4958 173.322C89.5842 173.239 89.6891 173.175 89.8036 173.136C89.9181 173.096 90.0397 173.08 90.1605 173.09C90.3936 173.11 90.615 173.2 90.7948 173.35C90.9729 173.503 91.1203 173.689 91.2293 173.898C91.4371 174.286 91.5649 174.712 91.6052 175.151C91.6884 175.982 91.4594 176.815 90.9625 177.488C90.4657 178.16 89.7364 178.625 88.9159 178.792C88.5342 178.897 88.1286 178.872 87.7624 178.723C87.5807 178.641 87.4316 178.501 87.3391 178.325C87.2466 178.148 87.216 177.946 87.2521 177.751C87.3111 177.564 87.4414 177.407 87.6148 177.315C87.7797 177.225 87.9661 177.182 88.1539 177.19C88.5106 177.223 88.8464 177.372 89.1096 177.614C89.6216 178.057 90.0742 178.507 90.5232 178.927C92.2873 180.642 93.6508 182.087 94.5816 183.098L95.6351 184.274L95.9086 184.59L95.9936 184.693L95.8975 184.597L95.6195 184.294L94.5341 183.104C93.5921 182.1 92.2234 180.662 90.4497 178.966C90.0007 178.546 89.5414 178.091 89.0368 177.659C88.7889 177.436 88.4766 177.297 88.1447 177.263C87.9756 177.234 87.8017 177.27 87.6578 177.363C87.5139 177.457 87.4105 177.601 87.3684 177.767C87.3263 177.933 87.3485 178.109 87.4306 178.259C87.5126 178.41 87.6485 178.524 87.8111 178.578C88.1533 178.713 88.5298 178.735 88.8852 178.64C89.6522 178.474 90.3361 178.044 90.8159 177.424C91.3184 176.769 91.5502 175.946 91.4635 175.126C91.4266 174.706 91.305 174.297 91.1061 173.925C91.0182 173.736 90.8843 173.573 90.7165 173.449C90.5488 173.326 90.3526 173.246 90.146 173.218C90.0413 173.205 89.9351 173.216 89.8349 173.249C89.7347 173.282 89.6431 173.336 89.5667 173.409C89.4956 173.483 89.4408 173.571 89.4059 173.668C89.3709 173.764 89.3566 173.867 89.3639 173.969C89.3775 174.188 89.437 174.402 89.5386 174.597C89.6402 174.792 89.7817 174.963 89.9538 175.1C90.3015 175.39 90.7145 175.593 91.1575 175.689C91.6006 175.786 92.0606 175.774 92.4983 175.655C92.934 175.526 93.3379 175.308 93.6839 175.014C94.03 174.72 94.3106 174.357 94.5077 173.949C94.7209 173.564 94.8101 173.122 94.7633 172.685C94.7217 172.479 94.6072 172.294 94.4407 172.165C94.3634 172.102 94.2716 172.059 94.1736 172.041C94.0755 172.022 93.9744 172.029 93.8794 172.059C93.6862 172.128 93.5281 172.271 93.4397 172.456C93.3457 172.645 93.3148 172.859 93.3516 173.068C93.4364 173.478 93.6328 173.858 93.9194 174.165C94.1803 174.462 94.4978 174.704 94.8533 174.878C95.2089 175.052 95.5956 175.153 95.9908 175.177C96.3861 175.2 96.7821 175.145 97.1559 175.014C97.5297 174.884 97.8739 174.68 98.1684 174.416C98.4463 174.166 98.6194 173.821 98.653 173.449C98.6609 173.279 98.6027 173.112 98.4905 172.983C98.3783 172.855 98.2207 172.774 98.0505 172.759C97.8826 172.743 97.7135 172.768 97.5575 172.833C97.4016 172.897 97.2635 172.998 97.1553 173.127C96.9473 173.387 96.8087 173.695 96.7526 174.024C96.6443 174.654 96.5911 175.292 96.5936 175.931C96.5969 177.034 96.7089 178.134 96.9281 179.216C97.1165 180.167 97.3232 180.971 97.508 181.646C97.6928 182.321 97.8366 182.809 97.9342 183.164C97.9848 183.332 98.0193 183.466 98.0487 183.559L98.0899 183.65Z" fill="#263238"/>
<path d="M101.448 184.202L93.6559 187.709C93.5014 187.778 93.3255 187.784 93.1668 187.725C93.0082 187.665 92.8797 187.545 92.8096 187.391V187.391C92.7396 187.236 92.7337 187.06 92.7932 186.901C92.8528 186.741 92.973 186.612 93.1277 186.54L100.92 183.04C101.075 182.97 101.251 182.965 101.409 183.024C101.568 183.084 101.696 183.204 101.766 183.358V183.358C101.802 183.434 101.822 183.516 101.825 183.6C101.828 183.684 101.814 183.768 101.784 183.847C101.755 183.925 101.71 183.997 101.652 184.058C101.594 184.119 101.525 184.168 101.448 184.202V184.202Z" fill="#263238"/>
<path d="M101.673 184.716L93.8863 188.216C93.7311 188.286 93.61 188.414 93.5497 188.573C93.4894 188.732 93.4949 188.909 93.565 189.064C93.635 189.219 93.7639 189.339 93.9232 189.4C94.0825 189.46 94.2593 189.454 94.4146 189.384L95.2653 188.998L97.376 190.64C97.4931 190.734 97.634 190.794 97.7831 190.813C97.9322 190.832 98.0837 190.809 98.2207 190.748L101.003 189.494C101.14 189.431 101.258 189.332 101.344 189.207C101.429 189.082 101.479 188.936 101.489 188.785L101.618 186.142L102.189 185.88C102.28 185.858 102.366 185.815 102.44 185.756C102.513 185.697 102.573 185.622 102.614 185.537C102.655 185.453 102.677 185.36 102.678 185.265C102.679 185.171 102.659 185.078 102.62 184.992C102.58 184.906 102.522 184.83 102.45 184.77C102.378 184.709 102.293 184.665 102.201 184.641C102.11 184.617 102.014 184.614 101.921 184.631C101.829 184.648 101.741 184.686 101.664 184.741L101.673 184.716Z" fill="#263238"/>
<g opacity="0.2">
<path opacity="0.2" d="M81.7156 168.775C82.067 167.932 82.5564 167.153 83.1638 166.469C83.5624 166.007 84.0301 165.61 84.5505 165.29C84.9273 165.07 85.1672 165.01 85.2241 165.082C85.3534 165.252 84.6888 165.881 83.9506 167.041C82.9641 168.535 82.4284 170.279 82.4073 172.068C82.3862 173.856 82.8806 175.612 83.8316 177.128C84.5437 178.322 85.1894 178.97 85.0583 179.131C84.9272 179.291 84.7637 179.137 84.3927 178.911C83.8817 178.582 83.4254 178.175 83.0403 177.705C82.45 177.005 81.977 176.214 81.6396 175.363C81.2225 174.309 81.0118 173.186 81.0188 172.053" fill="white"/>
</g>
<g opacity="0.2">
<path opacity="0.2" d="M87.9144 164.411C87.2502 164.696 86.5911 164.776 86.3717 164.46C86.2624 164.305 86.3233 164.064 86.4776 163.846C86.7084 163.552 87.0078 163.32 87.3496 163.168C87.6914 163.016 88.0652 162.95 88.4383 162.976C88.7386 163.017 88.9415 163.149 88.9877 163.329" fill="white"/>
</g>
<path d="M101.422 189.034C101.226 189.069 101.028 189.093 100.829 189.106C99.8519 189.247 98.9431 189.688 98.2287 190.368C98.093 190.521 97.9476 190.665 97.7932 190.8C97.8839 190.612 98.0082 190.442 98.1599 190.298C98.5052 189.93 98.916 189.629 99.3713 189.411C99.8248 189.191 100.315 189.055 100.817 189.012C101.019 188.986 101.223 188.993 101.422 189.034V189.034Z" fill="#455A64"/>
<path d="M101.651 186.162C101.655 186.197 100.271 186.859 98.5342 187.637C96.7971 188.414 95.3773 189.026 95.3611 188.992C95.3449 188.958 96.7404 188.294 98.4767 187.511C100.213 186.728 101.634 186.128 101.651 186.162Z" fill="#455A64"/>
<path d="M101.579 187.301C101.347 187.461 101.102 187.602 100.846 187.721C100.383 187.97 99.711 188.293 99.0169 188.63C98.3229 188.967 97.6342 189.25 97.1535 189.459C96.8972 189.578 96.6307 189.675 96.3573 189.748C96.5998 189.605 96.8523 189.48 97.113 189.373L98.9602 188.511L100.801 187.649C101.051 187.513 101.311 187.397 101.579 187.301Z" fill="#455A64"/>
<path d="M273.454 69.5934C264.131 62.8718 249.403 65.5889 243.103 75.1971C240.618 78.982 239.195 83.7196 235.459 86.2862C229.733 90.2261 221.843 87.0999 215.032 88.5262C207.053 90.1975 201.423 99.1707 203.434 107.061C204.326 110.614 206.512 114.262 205.205 117.669C203.532 122.04 197.276 122.972 195.1 127.116C193.147 130.86 195.622 135.735 199.368 137.696C203.115 139.656 207.622 139.406 211.797 138.705C215.972 138.003 220.163 136.896 224.374 137.326C229.005 137.795 233.243 140.08 237.746 141.275C248.578 144.162 260.39 140.37 269.27 133.531C278.149 126.693 284.483 117.111 289.84 107.281" fill="black"/>
<path d="M272.708 80.3758C265.078 74.542 252.528 77.0236 247.701 85.3275C244.758 90.3949 243.611 97.7328 237.946 99.2118C234.097 100.217 230.028 97.7306 226.128 98.5132C220.928 99.5566 218.524 106.326 220.496 111.227C222.468 116.128 227.387 119.25 232.367 121.053C249.637 127.31 270.784 120.31 280.888 104.988" fill="#4E575A"/>
<path d="M307.195 96.1195L342.235 81.7295L341.496 96.1672C341.137 103.102 334.427 109.549 322.262 114.648L302.698 122.826L311.598 114.524C316.468 109.985 316.266 104.82 311.1 99.8703L307.195 96.1195Z" fill="#282828"/>
<path d="M290.194 62.9205L322.401 42.9953L310.263 35.1378C304.427 31.3641 295.265 33.0174 284.001 39.8759L265.889 50.9074L277.863 48.5864C284.379 47.3222 288.473 50.4967 289.469 57.573L290.194 62.9205Z" fill="#282828"/>
<path d="M290.869 104.305L299.075 97.4831L284.336 68.6984L274.004 71.3363C270.924 72.2172 268.808 75.2775 268.564 80.0938C268.13 88.4871 273.51 98.9912 280.581 103.558C284.622 106.198 288.344 106.285 290.869 104.305Z" fill="#2B454E"/>
<path d="M297.994 98.2169C302.637 95.8478 303.07 87.4247 298.962 79.4035C294.855 71.3823 287.762 66.8005 283.119 69.1696C278.477 71.5388 278.044 79.9618 282.151 87.983C286.259 96.0042 293.352 100.586 297.994 98.2169Z" fill="#455A64"/>
<path d="M273.995 71.3614C270.915 72.2424 268.799 75.3027 268.555 80.119C268.121 88.5123 273.501 99.0164 280.572 103.583C284.622 106.198 288.344 106.285 290.869 104.305L293.224 102.37C290.976 104.244 287.517 104.197 283.742 101.759C276.775 97.2579 271.467 86.8954 271.879 78.619C272.112 74.1529 274.088 71.3321 276.926 70.5948L273.995 71.3614Z" fill="#263238"/>
<path d="M280.492 69.6906C277.703 70.3918 275.772 73.1349 275.547 77.51C275.145 85.3762 280.184 95.2183 286.811 99.4968C290.454 101.848 293.8 101.903 295.994 100.084L299.069 97.526C296.887 99.3978 293.521 99.3696 289.877 97.0181C283.689 93.0227 278.981 83.8257 279.362 76.4792C279.581 72.153 281.515 69.4335 284.329 68.7413L280.492 69.6906Z" fill="#263238"/>
<path opacity="0.1" d="M297.205 93.8569L296.072 91.6861C293.341 93.9977 285.912 100.184 284.133 101.405C281.908 102.921 275.293 99.7297 269.013 85.6494C270.475 92.687 274.977 99.9547 280.554 103.586C281.92 104.504 283.447 105.156 285.056 105.508L297.205 93.8569Z" fill="white"/>
<path d="M297.994 98.2169C302.637 95.8478 303.07 87.4247 298.962 79.4035C294.855 71.3823 287.762 66.8005 283.119 69.1696C278.477 71.5388 278.044 79.9618 282.151 87.983C286.259 96.0042 293.352 100.586 297.994 98.2169Z" fill="#455A64"/>
<path d="M373.632 77.7841C409.546 59.4509 432.835 28.4672 434.256 13.5434C434.276 13.4146 434.29 13.2806 434.303 13.1408C434.298 13.1173 434.295 13.0936 434.294 13.0696V13.0696C434.342 12.2125 434.161 11.3582 433.771 10.5936C433.38 9.829 432.793 9.18149 432.07 8.71693V8.71693L432.006 8.6827C431.894 8.61206 431.777 8.54215 431.655 8.47889C418.678 0.898307 379.909 1.56422 343.992 19.9277C309.438 37.5597 283.756 62.8582 281.394 65.2271L281.211 65.4117C279.566 67.1398 278.518 69.8113 278.335 73.2973C277.853 82.7307 283.898 94.5367 291.846 99.6702C294.887 101.632 297.762 102.328 300.183 101.918C303.493 101.388 339.072 95.4167 373.632 77.7841Z" fill="white"/>
<path d="M429.845 26.1862C432.418 21.3503 433.937 17.0097 434.262 13.5426C434.282 13.4139 434.29 13.2806 434.304 13.1467C434.295 13.1241 434.292 13.0996 434.295 13.0756C434.341 12.2186 434.16 11.3647 433.769 10.6003C433.379 9.83597 432.793 9.18829 432.07 8.72283C432.048 8.71709 432.028 8.70494 432.012 8.68787L431.656 8.49072C428.645 6.72947 424.242 5.40873 418.792 4.64864C415.313 4.18146 411.807 3.94038 408.297 3.92692C406.665 5.37076 405.666 7.75362 405.508 10.9539C405.091 18.9422 410.209 28.9311 416.934 33.2758C419.628 35.0096 422.169 35.5835 424.277 35.1278C426.324 32.2703 428.184 29.2836 429.845 26.1862V26.1862Z" fill="black"/>
<path opacity="0.15" d="M343.997 19.9211C309.438 37.5597 283.756 62.8582 281.394 65.2271L281.211 65.4117C279.566 67.1398 278.518 69.8113 278.335 73.2973C278.264 74.9567 278.368 76.6188 278.645 78.2564C293.222 64.8721 319.242 44.6135 348.031 29.9159C387.815 9.61328 421.015 4.99072 431.66 8.47225C418.707 0.888765 379.917 1.5872 343.997 19.9211Z" fill="#C4C4C4"/>
<path opacity="0.35" d="M373.632 77.7841C339.073 95.4227 303.486 101.377 300.171 101.919L299.916 101.951C297.545 102.276 294.764 101.557 291.833 99.6657C314.652 94.903 341.895 88.8726 370.679 74.1816C410.474 53.8716 430.867 24.1914 434.249 13.5382C432.835 28.4731 409.546 59.4509 373.632 77.7841Z" fill="#C4C4C4"/>
<path d="M324.859 107.289L338.845 86.9417L335.829 84.9887L302.948 95.7358L301.598 102.154C299.802 110.655 295.151 118.289 288.414 123.793L276.04 133.896C276.04 133.896 285.557 130.702 297.004 126.684C307.254 123.07 318.305 117.386 324.859 107.289Z" fill="#161616"/>
<path d="M302.948 95.7358L335.832 85.0183L321.842 105.336C315.294 115.432 305.114 121.936 293.964 126.513L276.039 133.896L288.413 123.787C295.15 118.283 299.801 110.649 301.597 102.148L302.948 95.7358Z" fill="black"/>
<path d="M291.467 42.0917L316.18 42.684L316.014 46.2641L288.052 66.6034L282.05 63.9383C274.097 60.4123 265.174 59.7061 256.761 61.937L241.309 66.0294C241.309 66.0294 249.441 60.1724 259.447 53.281C268.334 47.0973 279.436 41.4792 291.467 42.0917Z" fill="#161616"/>
<path d="M288.033 66.5997L315.995 46.2603L291.282 45.668C279.246 45.0562 268.011 49.4878 257.763 55.8256L241.29 66.0197L256.742 61.9273C265.155 59.6964 274.078 60.4026 282.031 63.9286L288.033 66.5997Z" fill="black"/>
<path d="M383.37 52.2421C390.658 49.2507 394.139 40.9312 391.145 33.6599C388.151 26.3887 379.816 22.9191 372.528 25.9104C365.24 28.9018 361.759 37.2213 364.753 44.4926C367.747 51.7639 376.082 55.2334 383.37 52.2421Z" fill="black"/>
<path d="M379.325 50.3125C385.539 49.5542 389.963 43.9126 389.207 37.7116C388.45 31.5106 382.799 27.0985 376.585 27.8568C370.37 28.6151 365.946 34.2567 366.703 40.4577C367.459 46.6587 373.11 51.0708 379.325 50.3125Z" fill="white"/>
<path d="M352.142 63.6535C350.35 64.5665 348.329 64.9292 346.332 64.6958C344.335 64.4625 342.452 63.6434 340.922 62.3423C339.392 61.0412 338.283 59.3164 337.735 57.3859C337.188 55.4555 337.226 53.406 337.845 51.4966C338.465 49.5873 339.637 47.9037 341.215 46.6588C342.792 45.4139 344.704 44.6634 346.709 44.5024C348.713 44.3413 350.72 44.7769 352.476 45.754C354.232 46.7311 355.657 48.2059 356.573 49.9919C357.181 51.1787 357.549 52.4737 357.656 53.8028C357.762 55.1318 357.605 56.469 357.194 57.7377C356.782 59.0065 356.124 60.182 355.257 61.1971C354.39 62.2121 353.332 63.0469 352.142 63.6535V63.6535Z" fill="black"/>
<path d="M349.275 61.7738C353.243 60.8002 355.672 56.8007 354.698 52.8407C353.725 48.8806 349.718 46.4596 345.749 47.4331C341.78 48.4067 339.352 52.4062 340.326 56.3662C341.299 60.3263 345.306 62.7473 349.275 61.7738Z" fill="white"/>
<g opacity="0.5">
<path opacity="0.5" d="M177.113 135.961C175 137.217 172.433 137.411 169.977 137.434C167.521 137.457 165.003 137.361 162.667 138.127C159.039 139.309 156.108 142.499 152.302 142.765C147.026 143.133 143.195 137.863 138.269 135.969C132.266 133.641 124.943 136.441 119.724 131.401C118.173 129.902 117.103 127.977 116.65 125.87C116.196 123.763 116.38 121.569 117.177 119.565C119.749 113.238 127.22 111.346 133.438 112.77C138.768 113.978 143.401 117.177 147.834 120.37C149.334 121.456 150.848 122.552 152.397 123.59C154.868 125.24 157.651 126.371 160.576 126.912C163.501 127.454 166.505 127.395 169.407 126.739V126.739C172.223 126.109 175.174 126.591 177.641 128.086C178.302 128.496 178.852 129.06 179.245 129.73V129.73C179.648 130.373 179.877 131.11 179.91 131.868C179.948 133.709 178.826 134.935 177.113 135.961Z" fill="#E8A987"/>
</g>
</g>
<defs>
<clipPath id="clip0">
<rect y="52.8114" width="436" height="163" transform="rotate(-6.95715 0 52.8114)" fill="white"/>
</clipPath>
</defs>
</svg>
