<svg width="230" height="208" viewBox="0 0 230 208" fill="none" xmlns="http://www.w3.org/2000/svg">
<g clip-path="url(#clip0)">
<path d="M167.261 0H84.7387C82.6739 0 81 1.92695 81 4.30396V180.696C81 183.073 82.6739 185 84.7387 185H167.261C169.326 185 171 183.073 171 180.696V4.30396C171 1.92695 169.326 0 167.261 0Z" fill="#212121"/>
<path d="M165 12.8211V172.179C165 172.944 164.862 173.701 164.595 174.407C164.328 175.113 163.936 175.755 163.442 176.295C162.948 176.836 162.362 177.264 161.717 177.557C161.071 177.849 160.38 178 159.681 178H91.3045C89.8959 177.997 88.546 177.383 87.5514 176.291C86.5567 175.2 85.9987 173.721 86 172.179V12.8211C85.9988 12.0576 86.135 11.3014 86.401 10.5956C86.6669 9.88982 87.0574 9.24831 87.55 8.70775C88.0426 8.16718 88.6278 7.73816 89.272 7.44521C89.9162 7.15227 90.6069 7.00113 91.3045 7.00044H103.167C103.167 7.00044 103.994 7.00045 105.311 7.00043C106.628 7.00042 106.628 7.00043 107.944 7.00043C109.261 7.00047 111.626 6.99943 112.772 7.00044L139.544 7.00039C140.691 7.00182 142.903 7.00043 144.372 7.00046C145.842 7.00049 144.372 7.00046 145.689 7.00045C147.006 7.00044 147.833 7.00044 147.833 7.00044H159.696C161.104 7.00321 162.454 7.61784 163.449 8.70927C164.443 9.8007 165.001 11.2796 165 12.8211Z" fill="white"/>
<path d="M129.157 44H121.843C120.825 44 120 45.2201 120 46.7252V139.275C120 140.78 120.825 142 121.843 142H129.157C130.175 142 131 140.78 131 139.275V46.7252C131 45.2201 130.175 44 129.157 44Z" fill="#474747"/>
<path d="M126.896 51.4223H9.52713C7.00038 51.4223 4.57712 52.4279 2.79043 54.218C1.00375 56.008 0 58.4358 0 60.9673V124.08C0 126.611 1.00375 129.039 2.79043 130.829C4.57712 132.619 7.00038 133.625 9.52713 133.625H126.896V51.4223Z" fill="black"/>
<path style="mix-blend-mode:multiply" opacity="0.75" d="M126.901 51.4223H118.081V133.63H126.901V51.4223Z" fill="url(#paint0_linear)"/>
<path d="M126.896 73.1798H0V89.8684H126.896V73.1798Z" fill="#262626"/>
<path d="M50.1178 102.694H15.0178C14.2199 102.694 13.4547 103.011 12.8905 103.577C12.3263 104.142 12.0093 104.909 12.0093 105.708V105.708C12.0093 106.507 12.3263 107.274 12.8905 107.839C13.4547 108.405 14.2199 108.722 15.0178 108.722H50.1178C50.9157 108.722 51.681 108.405 52.2452 107.839C52.8094 107.274 53.1264 106.507 53.1264 105.708C53.1264 104.909 52.8094 104.142 52.2452 103.577C51.681 103.011 50.9157 102.694 50.1178 102.694Z" fill="#262626"/>
<path d="M37.6874 115.519H15.0379C14.2399 115.519 13.4747 115.837 12.9105 116.402C12.3463 116.967 12.0293 117.734 12.0293 118.533V118.533C12.0293 119.333 12.3463 120.1 12.9105 120.665C13.4747 121.23 14.2399 121.548 15.0379 121.548H37.6874C38.4853 121.548 39.2505 121.23 39.8147 120.665C40.379 120.1 40.6959 119.333 40.6959 118.533C40.6959 117.734 40.379 116.967 39.8147 116.402C39.2505 115.837 38.4853 115.519 37.6874 115.519Z" fill="#262626"/>
<path d="M104.142 119.588C104.142 120.669 103.822 121.726 103.222 122.625C102.623 123.524 101.771 124.224 100.774 124.638C99.7769 125.052 98.68 125.16 97.6217 124.949C96.5634 124.738 95.5913 124.218 94.8284 123.453C94.0654 122.689 93.5458 121.715 93.3353 120.655C93.1248 119.595 93.2328 118.496 93.6458 117.497C94.0587 116.498 94.7579 115.644 95.6551 115.044C96.5522 114.443 97.607 114.123 98.686 114.123C100.133 114.123 101.521 114.699 102.544 115.724C103.567 116.749 104.142 118.139 104.142 119.588Z" fill="#F7AF6F"/>
<path d="M117.179 119.588C117.179 120.669 116.859 121.726 116.259 122.625C115.66 123.524 114.808 124.224 113.811 124.638C112.814 125.052 111.717 125.16 110.659 124.949C109.601 124.738 108.628 124.218 107.865 123.453C107.103 122.689 106.583 121.715 106.372 120.655C106.162 119.595 106.27 118.496 106.683 117.497C107.096 116.498 107.795 115.644 108.692 115.044C109.589 114.443 110.644 114.123 111.723 114.123C113.17 114.123 114.558 114.699 115.581 115.724C116.604 116.749 117.179 118.139 117.179 119.588Z" fill="#F99882"/>
<path d="M96.9962 16.6887H15.6345C14.4575 16.6887 13.5034 17.6446 13.5034 18.8237V38.4411C13.5034 39.6203 14.4575 40.5762 15.6345 40.5762H96.9962C98.1732 40.5762 99.1273 39.6203 99.1273 38.4411V18.8237C99.1273 17.6446 98.1732 16.6887 96.9962 16.6887Z" fill="#0C0C0C"/>
<path d="M32.6779 26.8063H24.2088C23.9042 26.8063 23.6572 27.0537 23.6572 27.3589V34.5377C23.6572 34.8429 23.9042 35.0903 24.2088 35.0903H32.6779C32.9825 35.0903 33.2295 34.8429 33.2295 34.5377V27.3589C33.2295 27.0537 32.9825 26.8063 32.6779 26.8063Z" fill="#F4EDF2"/>
<path d="M25.974 25.4047V24.7064C25.974 24.1108 26.2102 23.5397 26.6305 23.1185C27.0508 22.6974 27.621 22.4608 28.2154 22.4608C28.8099 22.4608 29.38 22.6974 29.8003 23.1185C30.2206 23.5397 30.4568 24.1108 30.4568 24.7064V25.4047H31.6101V24.7064C31.6276 24.2491 31.5529 23.793 31.3903 23.3653C31.2278 22.9376 30.9807 22.5472 30.664 22.2175C30.3473 21.8877 29.9674 21.6254 29.5471 21.4462C29.1268 21.267 28.6747 21.1747 28.2179 21.1747C27.7611 21.1747 27.3091 21.267 26.8888 21.4462C26.4684 21.6254 26.0886 21.8877 25.7718 22.2175C25.4551 22.5472 25.2081 22.9376 25.0455 23.3653C24.8829 23.793 24.8082 24.2491 24.8257 24.7064V25.4047H25.974Z" fill="#F4EDF2"/>
<path d="M47.2294 29.0669C47.2294 29.371 47.1394 29.6682 46.9708 29.921C46.8022 30.1738 46.5626 30.3708 46.2822 30.4871C46.0018 30.6035 45.6933 30.6339 45.3957 30.5746C45.098 30.5153 44.8246 30.3689 44.6101 30.1539C44.3955 29.9389 44.2493 29.665 44.1901 29.3668C44.1309 29.0686 44.1613 28.7595 44.2774 28.4786C44.3936 28.1977 44.5902 27.9577 44.8426 27.7887C45.0949 27.6198 45.3915 27.5297 45.695 27.5297C45.8967 27.529 46.0965 27.5683 46.283 27.6453C46.4694 27.7224 46.6388 27.8356 46.7815 27.9784C46.9241 28.1213 47.0371 28.291 47.1139 28.4779C47.1908 28.6647 47.2301 28.8649 47.2294 29.0669Z" fill="#F4EDF2"/>
<path d="M57.2079 29.0669C57.2079 29.371 57.1179 29.6682 56.9493 29.921C56.7807 30.1738 56.5411 30.3708 56.2607 30.4871C55.9803 30.6035 55.6718 30.6339 55.3742 30.5746C55.0766 30.5153 54.8032 30.3689 54.5886 30.1539C54.374 29.9389 54.2278 29.665 54.1686 29.3668C54.1094 29.0686 54.1398 28.7595 54.256 28.4786C54.3721 28.1977 54.5688 27.9577 54.8211 27.7887C55.0734 27.6198 55.3701 27.5297 55.6735 27.5297C55.8752 27.529 56.075 27.5683 56.2615 27.6453C56.448 27.7224 56.6174 27.8356 56.76 27.9784C56.9026 28.1213 57.0156 28.291 57.0925 28.4779C57.1693 28.6647 57.2086 28.8649 57.2079 29.0669Z" fill="#F4EDF2"/>
<path d="M67.1813 29.0669C67.1802 29.3708 67.089 29.6675 66.9192 29.9194C66.7495 30.1712 66.5088 30.3667 66.2278 30.4812C65.9468 30.5956 65.6381 30.6237 65.3412 30.562C65.0442 30.5002 64.7722 30.3514 64.5598 30.1344C64.3475 29.9174 64.2043 29.642 64.1486 29.3433C64.0929 29.0446 64.127 28.736 64.2468 28.4568C64.3665 28.1776 64.5665 27.9404 64.8211 27.7753C65.0758 27.6102 65.3737 27.5247 65.677 27.5297C65.8771 27.5296 66.0752 27.5696 66.2597 27.6472C66.4442 27.7248 66.6114 27.8386 66.7515 27.9817C66.8915 28.1249 67.0017 28.2946 67.0755 28.4809C67.1493 28.6673 67.1853 28.8665 67.1813 29.0669Z" fill="#F4EDF2"/>
<path d="M77.16 29.0669C77.16 29.3712 77.0699 29.6686 76.9011 29.9215C76.7323 30.1744 76.4924 30.3714 76.2117 30.4876C75.931 30.6038 75.6223 30.634 75.3245 30.5743C75.0267 30.5145 74.7533 30.3676 74.5389 30.1521C74.3246 29.9367 74.1788 29.6623 74.1202 29.3637C74.0615 29.0652 74.0926 28.756 74.2095 28.4752C74.3265 28.1944 74.5239 27.9546 74.7769 27.7863C75.0299 27.618 75.327 27.5287 75.6307 27.5297C75.8329 27.5263 76.0337 27.5637 76.2211 27.6399C76.4086 27.716 76.5787 27.8291 76.7215 27.9726C76.8643 28.1161 76.9767 28.287 77.052 28.475C77.1274 28.6631 77.1641 28.8644 77.16 29.0669V29.0669Z" fill="#F4EDF2"/>
<path d="M87.1381 29.0669C87.1381 29.3703 87.0484 29.6669 86.8805 29.9194C86.7126 30.1718 86.4738 30.3689 86.1943 30.4856C85.9148 30.6024 85.6071 30.6337 85.3099 30.5756C85.0126 30.5175 84.7392 30.3726 84.524 30.1591C84.3089 29.9456 84.1616 29.6731 84.1007 29.3759C84.0398 29.0788 84.068 28.7702 84.1819 28.489C84.2957 28.2079 84.49 27.9668 84.7404 27.796C84.9907 27.6253 85.2859 27.5326 85.5887 27.5297C85.7916 27.527 85.993 27.5648 86.1812 27.641C86.3695 27.7171 86.5406 27.83 86.6849 27.973C86.8291 28.1161 86.9434 28.2865 87.0212 28.4743C87.099 28.6621 87.1388 28.8636 87.1381 29.0669V29.0669Z" fill="#F4EDF2"/>
<path d="M210.283 62H144.717C143.769 62 143 62.9204 143 64.0557V82.9443C143 84.0796 143.769 85 144.717 85H210.283C211.231 85 212 84.0796 212 82.9443V64.0557C212 62.9204 211.231 62 210.283 62Z" fill="black"/>
<path d="M158.572 72.8181C160.275 72.8181 161.655 71.4349 161.655 69.7285C161.655 68.0222 160.275 66.639 158.572 66.639C156.868 66.639 155.488 68.0222 155.488 69.7285C155.488 71.4349 156.868 72.8181 158.572 72.8181Z" fill="#F4EDF2"/>
<path d="M164.684 80.3938C164.507 78.8935 163.786 77.5106 162.659 76.5071C161.532 75.5036 160.077 74.9493 158.569 74.9493C157.061 74.9493 155.606 75.5036 154.479 76.5071C153.352 77.5106 152.631 78.8935 152.454 80.3938H164.684Z" fill="#F4EDF2"/>
<path d="M177.571 75.5007C178.416 75.5007 179.1 74.8147 179.1 73.9685C179.1 73.1223 178.416 72.4363 177.571 72.4363C176.726 72.4363 176.042 73.1223 176.042 73.9685C176.042 74.8147 176.726 75.5007 177.571 75.5007Z" fill="#F4EDF2"/>
<path d="M187.549 75.5007C188.394 75.5007 189.078 74.8147 189.078 73.9685C189.078 73.1223 188.394 72.4363 187.549 72.4363C186.704 72.4363 186.02 73.1223 186.02 73.9685C186.02 74.8147 186.704 75.5007 187.549 75.5007Z" fill="#F4EDF2"/>
<path d="M199.057 73.9685C199.063 74.274 198.978 74.5743 198.813 74.8312C198.648 75.088 198.41 75.2897 198.13 75.4106C197.85 75.5314 197.54 75.5659 197.241 75.5096C196.941 75.4533 196.665 75.3089 196.447 75.0946C196.23 74.8804 196.081 74.6061 196.02 74.3067C195.959 74.0074 195.988 73.6966 196.104 73.4141C196.22 73.1315 196.417 72.89 196.671 72.7203C196.925 72.5506 197.223 72.4605 197.528 72.4614C197.929 72.4627 198.313 72.6211 198.599 72.9027C198.885 73.1844 199.049 73.5669 199.057 73.9685V73.9685Z" fill="#F4EDF2"/>
<path d="M99.6716 153H25.3284C24.0425 153 23 154.035 23 155.312V201.688C23 202.965 24.0425 204 25.3284 204H99.6716C100.958 204 102 202.965 102 201.688V155.312C102 154.035 100.958 153 99.6716 153Z" fill="#0C0C0C"/>
<path d="M42.5 192C49.9558 192 56 185.956 56 178.5C56 171.044 49.9558 165 42.5 165C35.0442 165 29 171.044 29 178.5C29 185.956 35.0442 192 42.5 192Z" fill="#565656"/>
<path d="M41.1857 186C40.8829 186 40.583 185.942 40.3032 185.827C40.0234 185.712 39.7692 185.543 39.5552 185.33L33.6455 179.476C33.2265 179.044 32.9948 178.466 33.0001 177.867C33.0054 177.267 33.2474 176.693 33.674 176.269C34.1005 175.844 34.6777 175.603 35.2814 175.597C35.885 175.591 36.467 175.82 36.9022 176.236L41.1681 180.47L56.0635 165.671C56.2776 165.458 56.5318 165.29 56.8116 165.174C57.0914 165.059 57.3912 165 57.694 165C57.9969 165 58.2967 165.059 58.5765 165.174C58.8563 165.29 59.1105 165.458 59.3246 165.671C59.5387 165.884 59.7086 166.136 59.8245 166.414C59.9404 166.692 60 166.99 60 167.291C60 167.592 59.9404 167.89 59.8245 168.168C59.7086 168.446 59.5387 168.698 59.3246 168.911L42.7986 185.348C42.3678 185.767 41.7886 186.001 41.1857 186Z" fill="white"/>
<path d="M92.0289 169H68.9711C68.4487 169.001 67.948 169.212 67.5786 169.587C67.2092 169.962 67.0011 170.47 67 171C67 171.53 67.2077 172.039 67.5773 172.414C67.947 172.789 68.4483 173 68.9711 173H92.0289C92.5517 173 93.053 172.789 93.4227 172.414C93.7923 172.039 94 171.53 94 171V171C93.9989 170.47 93.7908 169.962 93.4214 169.587C93.052 169.212 92.5513 169.001 92.0289 169Z" fill="#2B2B2B"/>
<path d="M92.0289 178H68.9711C68.4487 178.001 67.948 178.212 67.5786 178.587C67.2092 178.962 67.0011 179.47 67 180V180C67.0011 180.53 67.2092 181.038 67.5786 181.413C67.948 181.788 68.4487 181.999 68.9711 182H92.0289C92.5513 181.999 93.052 181.788 93.4214 181.413C93.7908 181.038 93.9989 180.53 94 180V180C93.9989 179.47 93.7908 178.962 93.4214 178.587C93.052 178.212 92.5513 178.001 92.0289 178V178Z" fill="#2B2B2B"/>
<path d="M79.05 187H68.95C68.4328 187 67.9368 187.211 67.5712 187.586C67.2055 187.961 67 188.47 67 189V189C67.0011 189.53 67.2069 190.038 67.5724 190.413C67.9378 190.788 68.4332 190.999 68.95 191H79.05C79.5668 190.999 80.0622 190.788 80.4276 190.413C80.7931 190.038 80.9989 189.53 81 189C81 188.47 80.7945 187.961 80.4289 187.586C80.0632 187.211 79.5672 187 79.05 187V187Z" fill="#2B2B2B"/>
<g style="mix-blend-mode:multiply" opacity="0.41">
<path d="M160.233 11H155C155.734 11.0013 156.438 11.5867 156.956 12.6275C157.475 13.6682 157.767 15.0793 157.767 16.5505V168.469C157.765 169.938 157.472 171.344 156.954 172.381C156.435 173.418 155.732 174 155 174H160.233C160.967 174 161.671 173.416 162.19 172.376C162.709 171.336 163 169.925 163 168.454V16.5356C162.998 15.067 162.706 13.6597 162.187 12.6222C161.669 11.5846 160.966 11.0013 160.233 11Z" fill="#FFA785"/>
</g>
</g>
<defs>
<linearGradient id="paint0_linear" x1="118.081" y1="92.5209" x2="126.896" y2="92.5209" gradientUnits="userSpaceOnUse">
<stop stop-color="white"/>
<stop offset="0.09" stop-color="#F9FCFE"/>
<stop offset="0.22" stop-color="#E8F4FB"/>
<stop offset="0.36" stop-color="#CCE6F6"/>
<stop offset="0.52" stop-color="#A5D2EF"/>
<stop offset="0.68" stop-color="#73BAE6"/>
<stop offset="0.86" stop-color="#379CDB"/>
<stop offset="1" stop-color="#0081D1"/>
</linearGradient>
<clipPath id="clip0">
<rect width="230" height="208" fill="white"/>
</clipPath>
</defs>
</svg>
