<svg width="183" height="264" viewBox="0 0 183 264" fill="none" xmlns="http://www.w3.org/2000/svg">
<g clip-path="url(#clip0)">
<path d="M72.1409 48.7779L66.423 41.4945C65.3944 40.1851 63.8931 39.3331 62.243 39.1222C60.5929 38.9114 58.9262 39.3586 57.6023 40.3674V40.3674C56.4152 41.2726 55.5849 42.5681 55.2575 44.026C54.9302 45.4839 55.1266 47.0107 55.8124 48.3378L63.6739 63.6292L72.1409 48.7779Z" fill="#E8A987"/>
<path d="M113.899 177.049L122.719 160.148C125.005 155.769 126.707 151.053 127.772 146.148L134.876 105.825C134.925 105.596 134.928 105.358 134.882 105.129C134.837 104.9 134.745 104.686 134.614 104.503C134.483 104.32 134.316 104.172 134.125 104.071C133.934 103.969 133.725 103.917 133.512 103.918C130.026 103.91 121.943 107.41 120.372 122.94L114.853 136.819C114.853 136.819 93.8672 156.592 103.124 181.059L113.899 177.049Z" fill="#E8A987"/>
<path d="M108.016 158.085L129.304 227.742L86.0747 247.189L69.1298 190.491L108.016 158.085Z" fill="#E8A987"/>
<path d="M105.822 179.458C100.914 184.948 117.085 222.471 117.289 233.236L85.8104 246.555L68.0132 192.432L99.4335 174.099C98.4692 161.816 99.1457 153.551 113.482 138.415L118.749 124.981C119.252 108.696 128.462 105.227 132.538 106.016C132.554 106.019 132.569 106.024 132.583 106.031C134.352 106.945 120.928 140.701 122.124 143.34C122.123 143.391 122.121 143.443 122.118 143.496C121.744 151.493 110.697 174.005 105.822 179.458Z" fill="#EBB294"/>
<path d="M80.4947 195.691L33.192 178.183C31.5991 177.593 30.1378 176.695 28.8915 175.54C27.6453 174.384 26.6386 172.994 25.9289 171.449C25.2192 169.904 24.8205 168.234 24.7556 166.534C24.6906 164.835 24.9606 163.139 25.5503 161.544L68.5498 45.2295C69.1378 43.6337 70.0341 42.1696 71.1875 40.921C72.3409 39.6724 73.7288 38.6639 75.2717 37.953C76.8147 37.2421 78.4824 36.8429 80.1795 36.7782C81.8766 36.7134 83.5699 36.9845 85.1623 37.5758L132.465 55.0892C134.058 55.6781 135.52 56.5758 136.767 57.731C138.013 58.8863 139.02 60.2763 139.73 61.8217C140.44 63.367 140.839 65.0374 140.903 66.7372C140.968 68.437 140.697 70.1329 140.107 71.7278L97.0912 188.042C96.5032 189.636 95.6074 191.098 94.4551 192.346C93.3027 193.593 91.9163 194.6 90.3751 195.31C88.8338 196.021 87.168 196.42 85.4727 196.485C83.7774 196.55 82.0859 196.28 80.4947 195.691V195.691Z" fill="black"/>
<path d="M181.039 125.192L157.963 125.23C157.705 125.23 157.45 125.18 157.211 125.082C156.973 124.983 156.756 124.839 156.573 124.656C156.39 124.474 156.245 124.257 156.146 124.018C156.048 123.779 155.997 123.524 155.997 123.265V123.265C155.995 123.007 156.045 122.75 156.143 122.511C156.241 122.272 156.385 122.054 156.568 121.871C156.75 121.688 156.967 121.543 157.205 121.444C157.444 121.345 157.7 121.295 157.958 121.295L181.033 121.258C181.551 121.258 182.048 121.462 182.416 121.827C182.785 122.192 182.994 122.687 183 123.206V123.206C183.003 123.466 182.954 123.724 182.857 123.964C182.76 124.205 182.616 124.424 182.433 124.609C182.251 124.794 182.034 124.94 181.794 125.04C181.555 125.14 181.298 125.192 181.039 125.192Z" fill="black"/>
<path d="M29.7843 191.236L11.4409 191.274C11.1828 191.275 10.9272 191.224 10.6886 191.126C10.4501 191.028 10.2332 190.883 10.0505 190.701C9.86781 190.518 9.72286 190.301 9.62396 190.063C9.52506 189.824 9.47415 189.568 9.47415 189.31V189.31C9.47273 189.051 9.52246 188.795 9.62046 188.555C9.71846 188.316 9.86279 188.099 10.0451 187.915C10.2275 187.732 10.4442 187.587 10.6828 187.488C10.9215 187.39 11.1773 187.339 11.4355 187.34L29.7789 187.302C30.2996 187.302 30.799 187.509 31.1677 187.877C31.5364 188.246 31.7442 188.745 31.7456 189.267V189.267C31.7456 189.788 31.5391 190.288 31.1715 190.658C30.8038 191.027 30.3049 191.235 29.7843 191.236V191.236Z" fill="#141414"/>
<path d="M176.451 45.9332H172.164C171.83 45.9332 171.559 46.2048 171.559 46.5397V50.6564C171.559 50.9914 171.83 51.2629 172.164 51.2629H176.451C176.786 51.2629 177.057 50.9914 177.057 50.6564V46.5397C177.057 46.2048 176.786 45.9332 176.451 45.9332Z" fill="#1E1E1E"/>
<path d="M4.89216 75.4449L0.605066 75.4509C0.270629 75.4514 -0.000109741 75.7233 0.000357221 76.0583L0.00609622 80.175C0.00656319 80.51 0.278059 80.7811 0.612496 80.7806L4.89959 80.7746C5.23402 80.7742 5.50476 80.5023 5.50429 80.1673L5.49855 76.0506C5.49809 75.7156 5.22659 75.4445 4.89216 75.4449Z" fill="#1C1C1C"/>
<path d="M148.748 28.9457L95.6949 9.5271C95.2458 9.36275 94.7484 9.59409 94.5838 10.0438L89.0091 25.2744C88.8445 25.7241 89.0751 26.2219 89.5241 26.3862L142.577 45.8048C143.026 45.9691 143.524 45.7378 143.688 45.2881L149.263 30.0575C149.428 29.6078 149.197 29.11 148.748 28.9457Z" fill="#2B2B2B"/>
<path d="M110.08 30.8713L112.629 40.5105C112.689 40.7431 112.804 40.9578 112.965 41.1358C113.126 41.3139 113.328 41.45 113.553 41.5325C113.779 41.6149 114.021 41.6413 114.259 41.6093C114.497 41.5772 114.723 41.4877 114.919 41.3485L122.986 35.6044L110.08 30.8713Z" fill="#2B2B2B"/>
<path d="M102.257 17.1207L102.512 19.4944L104.604 20.6277L102.431 21.6037L102 23.9521L100.403 22.1851L98.0386 22.5022L99.2292 20.4316L98.1957 18.282L100.529 18.7687L102.257 17.1207Z" fill="#828282"/>
<path d="M111.15 20.3758L111.405 22.7495L113.502 23.8843L111.329 24.8604L110.897 27.2087L109.296 25.4402L106.936 25.7588L108.123 23.6867L107.093 21.5386L109.427 22.0253L111.15 20.3758Z" fill="white"/>
<path d="M120.048 23.6325L120.303 26.0061L122.395 27.1394L120.223 28.1155L119.791 30.4639L118.194 28.6969L115.83 29.0139L117.02 26.9434L115.987 24.7937L118.32 25.2804L120.048 23.6325Z" fill="white"/>
<path d="M128.946 26.8891L129.197 29.2612L131.293 30.396L129.12 31.3721L128.689 33.7205L127.092 31.9535L124.728 32.2705L125.914 30.1985L124.885 28.0503L127.218 28.537L128.946 26.8891Z" fill="white"/>
<path d="M137.839 30.1444L138.094 32.518L140.191 33.6528L138.014 34.6274L137.586 36.9773L135.985 35.2088L133.625 35.5273L134.811 33.4553L133.778 31.3056L136.111 31.7923L137.839 30.1444Z" fill="white"/>
<path d="M130.908 61.3374L82.2009 43.3112C78.0573 41.7777 73.4585 43.8948 71.9292 48.04L29.4397 163.208C27.9104 167.353 30.0298 171.957 34.1734 173.49L82.8803 191.516C87.0239 193.05 91.6227 190.933 93.152 186.787L135.641 71.6196C137.171 67.4744 135.051 62.8709 130.908 61.3374Z" fill="white"/>
<path d="M65.105 162.473L64.9763 162.43C63.4783 161.927 61.8419 162.039 60.4269 162.744C59.012 163.448 57.9343 164.687 57.4311 166.187C57.157 166.938 57.0364 167.737 57.0763 168.536C57.1162 169.334 57.3158 170.117 57.6632 170.837C58.0107 171.557 58.4989 172.2 59.0991 172.727C59.6992 173.255 60.3989 173.656 61.1568 173.908C61.9147 174.159 62.7153 174.256 63.5112 174.192C64.3071 174.128 65.082 173.904 65.79 173.535C66.4981 173.165 67.1248 172.657 67.6331 172.04C68.1414 171.423 68.5208 170.711 68.749 169.944V169.944C69.2425 168.463 69.1375 166.848 68.4564 165.443C67.7753 164.039 66.5723 162.957 65.105 162.43V162.473Z" fill="white"/>
<path d="M123.573 73.6805L82.4678 58.3041C82.0188 58.1362 81.5188 58.3646 81.3511 58.8143L77.3034 69.6689C77.1357 70.1186 77.3638 70.6194 77.8128 70.7873L118.918 86.1637C119.367 86.3317 119.867 86.1033 120.035 85.6535L124.082 74.7989C124.25 74.3492 124.022 73.8485 123.573 73.6805Z" fill="black"/>
<path d="M82.9585 67.7791C82.8079 67.6473 82.7062 67.5085 82.6535 67.3626C82.6018 67.2136 82.5805 67.0717 82.5894 66.9369C82.5994 66.7991 82.6308 66.6739 82.6837 66.5613C82.7365 66.4487 82.7922 66.363 82.8505 66.304C82.91 66.242 82.9623 66.2154 83.0075 66.2243C83.0568 66.2311 83.0813 66.2845 83.0811 66.3843C82.98 66.5663 82.9213 66.7354 82.9049 66.8917C82.8896 67.045 82.9038 67.1826 82.9475 67.3047C82.9923 67.4238 83.0621 67.5256 83.1567 67.6103C83.2524 67.6919 83.3582 67.7546 83.4739 67.7983C83.5907 67.839 83.7119 67.8571 83.8375 67.8527C83.9632 67.8482 84.0798 67.8199 84.1875 67.7677C84.2963 67.7126 84.3904 67.6299 84.47 67.5198C84.5496 67.4096 84.6013 67.2708 84.625 67.1032C84.6342 67.0271 84.6226 66.9266 84.5903 66.8015C84.562 66.6745 84.5251 66.5376 84.4797 66.3907C84.4372 66.245 84.3923 66.0966 84.3448 65.9456C84.2984 65.7915 84.2636 65.6484 84.2406 65.5163C84.2217 65.3822 84.2191 65.2658 84.2327 65.1671C84.2504 65.0664 84.3007 64.9961 84.3835 64.956C84.4466 64.9331 84.5396 64.8983 84.6627 64.8516C84.7899 64.8028 84.9243 64.7583 85.0658 64.718C85.2073 64.6776 85.3466 64.6486 85.4837 64.6309C85.6249 64.6112 85.7432 64.6179 85.8385 64.6511C85.9092 64.6757 85.9423 64.6993 85.9379 64.7219C85.9366 64.7456 85.9111 64.7695 85.8614 64.7935C85.8128 64.8145 85.7445 64.8373 85.6568 64.8618C85.572 64.8875 85.4796 64.9156 85.3794 64.9462C85.2802 64.9737 85.1779 65.0052 85.0725 65.0409C84.9712 65.0746 84.8802 65.1135 84.7993 65.1577C84.7226 65.1999 84.6598 65.247 84.6108 65.2989C84.5659 65.3487 84.5497 65.4051 84.5623 65.4681C84.6185 65.6635 84.6742 65.8604 84.7293 66.0589C84.7875 66.2584 84.8309 66.451 84.8594 66.6368C84.889 66.8194 84.8976 66.9931 84.8852 67.1577C84.877 67.3203 84.8335 67.4654 84.7547 67.5931C84.677 67.7177 84.5568 67.8206 84.3942 67.9018C84.2347 67.9841 84.022 68.0358 83.7562 68.057C83.5976 68.0672 83.4543 68.0483 83.3262 68.0003C83.2013 67.9533 83.0787 67.8796 82.9585 67.7791ZM85.7528 68.7526C85.6589 68.6061 85.5971 68.4519 85.5672 68.2898C85.5415 68.1257 85.5359 67.9583 85.5504 67.7875C85.5266 67.7965 85.4931 67.8038 85.4498 67.8094C85.4065 67.815 85.3627 67.817 85.3185 67.8153C85.2773 67.8148 85.2372 67.8112 85.1982 67.8045C85.1602 67.7947 85.1342 67.7804 85.12 67.7617C85.1089 67.744 85.1112 67.7225 85.127 67.6969C85.1469 67.6694 85.1916 67.635 85.2611 67.5937C85.2704 67.5866 85.2958 67.573 85.3372 67.553C85.3817 67.534 85.4283 67.514 85.4769 67.4931C85.5266 67.469 85.5722 67.447 85.6136 67.4269C85.6561 67.4038 85.682 67.3887 85.6913 67.3816C85.7519 67.3165 85.8012 67.2389 85.8394 67.1488C85.8807 67.0598 85.9184 66.9661 85.9526 66.8677C85.9909 66.7673 86.0317 66.6695 86.0751 66.5743C86.1185 66.4791 86.1736 66.3949 86.2404 66.3216C86.279 66.2799 86.3398 66.2339 86.4228 66.1835C86.5099 66.1311 86.6021 66.084 86.6993 66.042C86.7997 66.0011 86.8974 65.9679 86.9924 65.9424C87.0915 65.9149 87.1709 65.9047 87.2305 65.9117C87.2932 65.9197 87.3299 65.948 87.3406 65.9965C87.3543 66.0462 87.3277 66.123 87.2605 66.2272C87.1797 66.3507 87.0815 66.4647 86.9659 66.5692C86.8545 66.6717 86.74 66.7732 86.6225 66.8736C86.506 66.9709 86.3926 67.0692 86.2822 67.1687C86.1749 67.2692 86.0856 67.3777 86.0141 67.4941C85.9753 67.5564 85.9387 67.6367 85.9046 67.7351C85.8715 67.8305 85.8491 67.9295 85.8375 68.0324C85.8259 68.1352 85.8308 68.2351 85.8523 68.3322C85.8747 68.4262 85.9237 68.5036 85.9991 68.5643C86.0846 68.6355 86.1798 68.679 86.2846 68.6948C86.3893 68.7107 86.4969 68.7085 86.6073 68.6883C86.7207 68.6693 86.8338 68.6363 86.9466 68.5894C87.0605 68.5394 87.1687 68.4858 87.2713 68.4285C87.3739 68.3711 87.4678 68.3142 87.5529 68.2577C87.639 68.1981 87.7117 68.1476 87.7709 68.1061L87.8205 68.2165C87.8356 68.2424 87.8036 68.2899 87.7245 68.3588C87.6485 68.4289 87.5451 68.5032 87.4145 68.5818C87.2879 68.6583 87.1434 68.7321 86.981 68.803C86.8185 68.874 86.6578 68.9248 86.4989 68.9557C86.3431 68.9876 86.1975 68.9902 86.062 68.9637C85.9295 68.9383 85.8265 68.8679 85.7528 68.7526ZM86.2929 66.6915C86.2844 66.7058 86.2718 66.7324 86.2548 66.7713C86.242 66.8082 86.2281 66.8482 86.2131 66.8912C86.1982 66.9343 86.1843 66.9743 86.1715 67.0112C86.1618 67.0491 86.1558 67.0764 86.1535 67.0928C86.3106 66.9579 86.4653 66.8102 86.6176 66.6495C86.7699 66.4889 86.9042 66.3202 87.0207 66.1436C86.9415 66.1436 86.8635 66.1595 86.787 66.1915C86.7146 66.2214 86.6466 66.2632 86.5832 66.317C86.5208 66.3676 86.4645 66.4255 86.4143 66.4908C86.3671 66.5571 86.3266 66.624 86.2929 66.6915ZM87.5695 69.3855C87.5168 69.3189 87.4891 69.2351 87.4862 69.1342C87.4875 69.0312 87.4976 68.9279 87.5164 68.8241C87.5393 68.7183 87.5658 68.6224 87.5957 68.5363L87.6629 68.3426C87.6747 68.3088 87.6997 68.2416 87.738 68.1412C87.7774 68.0377 87.8237 67.9194 87.8768 67.7863C87.931 67.65 87.9879 67.5061 88.0475 67.3545C88.1081 67.1998 88.1649 67.0559 88.2181 66.9227C88.2723 66.7865 88.3186 66.6682 88.3569 66.5678C88.3983 66.4684 88.4248 66.4019 88.4366 66.368C88.4526 66.3219 88.4804 66.242 88.5199 66.1282C88.5625 66.0155 88.6057 65.8961 88.6494 65.77C88.6943 65.6409 88.7349 65.5189 88.7714 65.404C88.8109 65.2902 88.8387 65.2103 88.8547 65.1642C88.9125 65.1464 88.9605 65.1373 88.9986 65.1367C89.0336 65.1351 89.0618 65.1433 89.0832 65.161C89.1057 65.1758 89.1094 65.2046 89.0945 65.2477L87.7873 69.0115C87.7798 69.0331 87.7769 69.0613 87.7785 69.0964C87.7842 69.1294 87.7941 69.1604 87.8082 69.1895C87.8222 69.2185 87.842 69.2409 87.8675 69.2567C87.8972 69.2705 87.9322 69.2689 87.9726 69.2519L88.6955 68.9712C88.6863 69.0473 88.6591 69.1205 88.614 69.191C88.5689 69.2614 88.513 69.323 88.4465 69.3756C88.383 69.4294 88.311 69.4732 88.2303 69.5071C88.1495 69.5411 88.0685 69.5611 87.9871 69.5672C87.9068 69.5703 87.8298 69.5589 87.756 69.5332C87.6833 69.5044 87.6211 69.4552 87.5695 69.3855ZM89.3171 69.9944C89.2232 69.8479 89.1614 69.6936 89.1315 69.5316C89.1058 69.3675 89.1002 69.2001 89.1147 69.0293C89.0909 69.0383 89.0573 69.0455 89.0141 69.0511C88.9708 69.0567 88.927 69.0587 88.8828 69.0571C88.8416 69.0566 88.8015 69.0529 88.7625 69.0462C88.7245 69.0365 88.6985 69.0222 88.6843 69.0035C88.6732 68.9858 88.6755 68.9642 88.6913 68.9387C88.7112 68.9112 88.7559 68.8767 88.8253 68.8354C88.8347 68.8284 88.8601 68.8148 88.9015 68.7948C88.946 68.7758 88.9926 68.7558 89.0412 68.7348C89.0909 68.7108 89.1365 68.6888 89.1779 68.6687C89.2204 68.6456 89.2463 68.6305 89.2556 68.6234C89.3162 68.5583 89.3655 68.4807 89.4037 68.3906C89.445 68.3016 89.4827 68.2078 89.5168 68.1094C89.5552 68.009 89.596 67.9112 89.6394 67.8161C89.6828 67.7209 89.7379 67.6367 89.8047 67.5634C89.8433 67.5217 89.9041 67.4757 89.9871 67.4253C90.0742 67.3729 90.1664 67.3257 90.2636 67.2838C90.364 67.2429 90.4617 67.2097 90.5567 67.1842C90.6558 67.1567 90.7352 67.1464 90.7948 67.1534C90.8575 67.1615 90.8942 67.1898 90.9049 67.2383C90.9186 67.2879 90.8919 67.3648 90.8248 67.4689C90.744 67.5925 90.6458 67.7065 90.5302 67.811C90.4188 67.9135 90.3043 68.015 90.1868 68.1153C90.0703 68.2126 89.9568 68.311 89.8465 68.4104C89.7392 68.511 89.6499 68.6194 89.5784 68.7359C89.5395 68.7982 89.503 68.8785 89.4689 68.9769C89.4357 69.0722 89.4134 69.1713 89.4018 69.2741C89.3902 69.377 89.3951 69.4769 89.4166 69.574C89.439 69.668 89.488 69.7454 89.5634 69.8061C89.6489 69.8773 89.7441 69.9208 89.8489 69.9366C89.9536 69.9524 90.0612 69.9503 90.1716 69.9301C90.285 69.911 90.3981 69.8781 90.5109 69.8312C90.6248 69.7812 90.733 69.7276 90.8356 69.6702C90.9382 69.6129 91.0321 69.556 91.1172 69.4995C91.2033 69.4399 91.276 69.3893 91.3352 69.3479L91.3848 69.4582C91.3999 69.4842 91.3679 69.5317 91.2888 69.6006C91.2128 69.6707 91.1094 69.745 90.9788 69.8235C90.8522 69.9001 90.7077 69.9739 90.5453 70.0448C90.3828 70.1157 90.2221 70.1666 90.0632 70.1974C89.9074 70.2293 89.7618 70.232 89.6263 70.2055C89.4938 70.18 89.3908 70.1097 89.3171 69.9944ZM89.8572 67.9333C89.8487 67.9476 89.8361 67.9742 89.8191 68.0131C89.8063 68.05 89.7924 68.09 89.7774 68.133C89.7625 68.1761 89.7486 68.216 89.7358 68.2529C89.7261 68.2909 89.72 68.3181 89.7178 68.3346C89.8749 68.1997 90.0296 68.052 90.1819 67.8913C90.3342 67.7306 90.4685 67.562 90.585 67.3854C90.5057 67.3854 90.4278 67.4013 90.3513 67.4332C90.2789 67.4632 90.2109 67.505 90.1475 67.5587C90.0851 67.6094 90.0288 67.6673 89.9786 67.7326C89.9314 67.7989 89.8909 67.8658 89.8572 67.9333ZM91.2041 70.5587C91.1203 70.433 91.0731 70.3011 91.0625 70.1629C91.056 70.0228 91.0743 69.8809 91.1172 69.7373C91.1644 69.5917 91.231 69.4495 91.3171 69.3106C91.4064 69.1728 91.5047 69.0433 91.6123 68.9222C91.7198 68.8011 91.8297 68.6929 91.9421 68.5976C92.0586 68.5003 92.1681 68.423 92.2708 68.3657C92.3744 68.3053 92.4644 68.2694 92.5407 68.2581C92.6181 68.2437 92.6714 68.2588 92.7007 68.3035C92.6951 68.3394 92.684 68.4062 92.6673 68.5038C92.6548 68.5994 92.638 68.7022 92.6171 68.8121C92.6003 68.92 92.582 69.0222 92.5623 69.1187C92.5467 69.2133 92.5361 69.2785 92.5305 69.3145C92.5228 69.3566 92.5093 69.4002 92.4902 69.4453C92.4722 69.4872 92.4491 69.524 92.4209 69.5555C92.3938 69.584 92.3586 69.601 92.3153 69.6066C92.2762 69.6102 92.2306 69.5926 92.1786 69.5538C92.183 69.5312 92.1866 69.4911 92.1894 69.4335C92.1952 69.3769 92.1991 69.3162 92.2009 69.2514C92.2069 69.1845 92.2098 69.1217 92.2095 69.063C92.2133 69.0023 92.2159 68.9602 92.2172 68.9365L92.1661 68.8308C92.0484 68.8621 91.9364 68.9265 91.8302 69.024C91.7271 69.1225 91.6371 69.2377 91.5603 69.3695C91.4846 69.4982 91.4283 69.6354 91.3915 69.7812C91.3588 69.9249 91.3514 70.0602 91.3694 70.1871C91.3915 70.312 91.4436 70.4198 91.5259 70.5105C91.6122 70.5992 91.7387 70.6519 91.9052 70.6685C92.0748 70.6862 92.2886 70.6608 92.5468 70.5922C92.806 70.5205 93.1195 70.3867 93.4874 70.1908L93.4313 70.3522C93.4281 70.3614 93.4 70.3827 93.3471 70.416C93.2942 70.4492 93.231 70.4875 93.1573 70.5308C93.0848 70.571 93.0107 70.6107 92.9351 70.6499C92.8625 70.6901 92.8019 70.7207 92.7533 70.7417C92.6188 70.8017 92.4792 70.8513 92.3346 70.8905C92.1931 70.9309 92.0539 70.9496 91.9171 70.9467C91.7803 70.9439 91.6499 70.9122 91.5262 70.8519C91.4044 70.7957 91.2971 70.698 91.2041 70.5587ZM94.5755 71.5523C94.5474 71.415 94.5395 71.2692 94.5517 71.1148C94.565 70.9575 94.5901 70.8008 94.6271 70.6447C94.6641 70.4887 94.7082 70.3369 94.7594 70.1893C94.8138 70.0428 94.8654 69.9091 94.9142 69.7882C94.8755 69.7609 94.8252 69.7468 94.7635 69.746C94.7017 69.7452 94.6348 69.7494 94.5626 69.7588C94.4915 69.765 94.4178 69.7738 94.3415 69.7852C94.2652 69.7965 94.1968 69.8002 94.1361 69.7963C94.0754 69.7924 94.0236 69.7778 93.9807 69.7525C93.9378 69.7272 93.9121 69.6821 93.9037 69.6171C93.8942 69.5552 93.9101 69.5142 93.9516 69.4942C93.9961 69.4752 94.0517 69.4687 94.1185 69.4748C94.1895 69.4788 94.2675 69.4922 94.3527 69.515C94.4389 69.5347 94.521 69.5512 94.599 69.5646C94.6771 69.578 94.7454 69.5846 94.8041 69.5844C94.8638 69.5811 94.9022 69.5599 94.9192 69.521L95.6909 67.8199C95.7036 67.7933 95.7249 67.7766 95.7548 67.7698C95.7878 67.764 95.8181 67.766 95.8458 67.7756C95.8765 67.7863 95.9 67.8031 95.9162 67.826C95.9365 67.8469 95.9413 67.8727 95.9306 67.9034L95.4036 69.4209C95.4434 69.4452 95.4849 69.4596 95.5281 69.4643C95.5723 69.4659 95.6171 69.466 95.6624 69.4646C95.7077 69.4631 95.7504 69.4642 95.7905 69.4678C95.8337 69.4725 95.8752 69.487 95.915 69.5112C95.9217 69.5515 95.9074 69.5827 95.8721 69.6049C95.8379 69.624 95.8059 69.6369 95.7759 69.6437L95.6753 69.6656C95.6309 69.6742 95.5824 69.6849 95.5298 69.6976C95.4813 69.7083 95.4333 69.7174 95.3859 69.725C95.3415 69.7337 95.3106 69.7384 95.2931 69.7392C95.275 69.7812 95.2458 69.8555 95.2054 69.962C95.169 70.0666 95.1301 70.1788 95.0884 70.2987C95.0468 70.4187 95.0073 70.5324 94.9699 70.6401C94.9366 70.7457 94.9141 70.8206 94.9022 70.8647C94.8643 71.0135 94.846 71.1553 94.8474 71.2903C94.8488 71.4252 94.8747 71.5393 94.9249 71.6327C94.9752 71.726 95.0511 71.7904 95.1525 71.8257C95.257 71.8621 95.395 71.8568 95.5664 71.8096C95.5634 71.8879 95.54 71.9504 95.4962 71.9971C95.4523 72.0439 95.3969 72.0746 95.3298 72.0891C95.2638 72.1006 95.1908 72.0976 95.1107 72.08C95.0307 72.0625 94.9539 72.0306 94.8804 71.9843C94.8099 71.939 94.7458 71.8805 94.6881 71.8087C94.6314 71.7338 94.5939 71.6483 94.5755 71.5523ZM98.2255 73.098C98.1166 73.0049 98.044 72.8814 98.0079 72.7274C97.9759 72.5715 97.9724 72.4031 97.9973 72.2222C98.0233 72.0382 98.0756 71.8479 98.1542 71.6512C98.2329 71.4546 98.3284 71.2638 98.4409 71.0789C98.5564 70.8951 98.6841 70.7259 98.8239 70.5712C98.9638 70.4165 99.109 70.2913 99.2594 70.1955C99.4109 70.0966 99.563 70.0358 99.7156 70.0132C99.8723 69.9885 100.022 70.0147 100.164 70.0918C100.159 70.1247 100.151 70.1822 100.14 70.2644C100.133 70.3447 100.122 70.4305 100.107 70.522C100.096 70.6145 100.083 70.7013 100.069 70.7825C100.058 70.8617 100.051 70.9177 100.046 70.9506C100.041 70.9865 100.017 71.0197 99.9757 71.05C99.9342 71.0804 99.8891 71.1009 99.8406 71.1115C99.7952 71.1233 99.754 71.1227 99.7172 71.1099C99.6813 71.094 99.6664 71.0577 99.6722 71.0012C99.6737 70.9672 99.6815 70.9199 99.6956 70.8594C99.7098 70.7988 99.7234 70.7346 99.7366 70.6668C99.7498 70.599 99.7584 70.5348 99.7622 70.4741C99.7672 70.4103 99.76 70.3613 99.7409 70.3271C99.7218 70.2928 99.6875 70.2774 99.6381 70.2809C99.5928 70.2823 99.5265 70.3144 99.4393 70.3771C99.4123 70.3953 99.3775 70.4211 99.3349 70.4545C99.2964 70.4859 99.2558 70.5183 99.2132 70.5517C99.1737 70.5862 99.1388 70.6171 99.1086 70.6445C99.0784 70.6719 99.0623 70.6887 99.0601 70.6948L98.375 71.8936C98.2982 72.0254 98.2554 72.1536 98.2467 72.278C98.239 72.3995 98.255 72.5119 98.2949 72.6154C98.3358 72.7159 98.3975 72.8063 98.4798 72.8867C98.5632 72.964 98.6577 73.0245 98.7631 73.0681C98.8727 73.1097 98.9882 73.1345 99.1095 73.1423C99.235 73.1481 99.3603 73.1297 99.4854 73.0871C99.5319 73.0722 99.5977 73.0366 99.6828 72.98C99.7709 72.9246 99.8654 72.861 99.9661 72.7892C100.068 72.7144 100.174 72.6375 100.284 72.5587C100.395 72.4767 100.497 72.4055 100.591 72.345C100.685 72.2814 100.766 72.232 100.833 72.1968C100.901 72.1617 100.946 72.1515 100.968 72.1662C100.967 72.3176 100.915 72.4595 100.81 72.592C100.708 72.7255 100.574 72.8442 100.407 72.948C100.244 73.0499 100.06 73.1339 99.8544 73.2001C99.6519 73.2674 99.4491 73.3105 99.2461 73.3295C99.0431 73.3484 98.8513 73.3401 98.6706 73.3048C98.4899 73.2694 98.3415 73.2005 98.2255 73.098ZM100.706 73.9622C100.69 73.8117 100.701 73.6692 100.741 73.5348C100.784 73.4015 100.838 73.2689 100.905 73.137C100.923 73.095 100.953 73.0331 100.995 72.9513C101.038 72.8695 101.084 72.7789 101.136 72.6797C101.188 72.5806 101.243 72.4757 101.302 72.3653C101.361 72.2549 101.417 72.1501 101.468 72.0509C101.52 71.9517 101.566 71.8643 101.606 71.7886C101.65 71.7109 101.682 71.6532 101.702 71.6153C101.772 71.4947 101.836 71.3947 101.894 71.3151C101.957 71.2336 102.022 71.1768 102.088 71.1447C102.157 71.1137 102.232 71.1106 102.313 71.1354C102.397 71.1612 102.497 71.2182 102.611 71.3062C102.625 71.3146 102.638 71.3328 102.649 71.3608C102.661 71.3857 102.667 71.4032 102.667 71.4135C102.659 71.4557 102.648 71.5209 102.635 71.6093C102.624 71.6987 102.611 71.801 102.595 71.9161C102.581 72.0282 102.564 72.1464 102.545 72.2707C102.53 72.3931 102.514 72.5118 102.498 72.6269C102.484 72.739 102.469 72.8392 102.456 72.9276C102.446 73.017 102.438 73.0834 102.433 73.1265C102.404 73.3609 102.408 73.533 102.445 73.6426C102.484 73.7492 102.542 73.8174 102.617 73.8473C102.693 73.8771 102.78 73.8798 102.878 73.8554C102.98 73.829 103.082 73.8005 103.182 73.7699C103.283 73.7362 103.376 73.7102 103.462 73.6918C103.548 73.6734 103.612 73.6871 103.655 73.733C103.634 73.7914 103.601 73.8435 103.554 73.8892C103.507 73.9349 103.455 73.9754 103.398 74.0107C103.345 74.0439 103.289 74.0725 103.229 74.0964C103.169 74.1203 103.114 74.1392 103.064 74.1529C102.853 74.2067 102.687 74.2164 102.568 74.1818C102.452 74.1483 102.365 74.0885 102.305 74.0022C102.245 73.9159 102.209 73.8135 102.195 73.6949C102.181 73.5763 102.172 73.4577 102.168 73.3392C102.168 73.2218 102.163 73.1167 102.154 73.0239C102.149 72.9291 102.125 72.8624 102.084 72.8237C102.061 72.8605 102.017 72.9227 101.952 73.0104C101.89 73.0992 101.823 73.193 101.751 73.2919C101.678 73.3909 101.61 73.4842 101.545 73.5719C101.48 73.6596 101.434 73.7212 101.408 73.7569C101.397 73.7702 101.373 73.7946 101.336 73.8301C101.303 73.8667 101.262 73.9058 101.213 73.9474C101.165 73.9859 101.112 74.0228 101.055 74.0581C101.003 74.0913 100.952 74.1133 100.903 74.124C100.854 74.1377 100.811 74.133 100.774 74.1099C100.737 74.0867 100.715 74.0375 100.706 73.9622ZM101.419 72.6851C101.4 72.7198 101.372 72.7859 101.334 72.8832C101.3 72.9816 101.264 73.0862 101.225 73.1969C101.187 73.3076 101.151 73.4121 101.116 73.5105C101.085 73.61 101.066 73.6808 101.058 73.7229C101.222 73.5974 101.385 73.442 101.546 73.2568C101.708 73.0684 101.85 72.8664 101.973 72.6508C102.1 72.4332 102.199 72.209 102.269 71.9782C102.34 71.7444 102.366 71.5192 102.348 71.3027C102.263 71.3798 102.172 71.4826 102.076 71.6111C101.98 71.7395 101.888 71.8732 101.802 72.0121C101.717 72.1479 101.639 72.2777 101.569 72.4013C101.502 72.523 101.452 72.6176 101.419 72.6851ZM104.326 75.2233C104.375 75.1024 104.423 74.9744 104.47 74.8391C104.521 74.7017 104.567 74.5628 104.609 74.4223C104.651 74.2818 104.688 74.1412 104.719 74.0006C104.755 73.8579 104.782 73.7208 104.8 73.5892C104.835 73.3497 104.839 73.1598 104.812 73.0194C104.789 72.877 104.742 72.7898 104.67 72.758C104.603 72.7241 104.519 72.7482 104.418 72.8303C104.321 72.9103 104.218 73.0536 104.108 73.2602C104.09 73.2919 104.065 73.3415 104.031 73.409C103.997 73.4765 103.958 73.5527 103.915 73.6376C103.875 73.7236 103.831 73.8151 103.784 73.9123C103.74 74.0075 103.697 74.0976 103.654 74.1825C103.613 74.2684 103.578 74.3457 103.547 74.4143C103.516 74.4829 103.494 74.5335 103.479 74.5663C103.443 74.6091 103.398 74.626 103.342 74.617C103.29 74.6091 103.245 74.5899 103.207 74.5596L103.884 72.1064C103.894 72.0654 103.915 72.0347 103.946 72.0146C103.979 71.9913 104.01 71.9799 104.041 71.9803C104.073 71.9776 104.101 71.9873 104.124 72.0092C104.147 72.0312 104.156 72.0653 104.151 72.1115L104.064 72.8827C104.239 72.6853 104.383 72.5528 104.496 72.4853C104.613 72.4158 104.708 72.3919 104.78 72.4134C104.851 72.435 104.907 72.4924 104.947 72.5856C104.987 72.6788 105.017 72.7858 105.037 72.9066C105.062 73.0253 105.08 73.1507 105.093 73.2827C105.107 73.4116 105.126 73.5251 105.15 73.6232C105.427 73.2336 105.678 72.9713 105.904 72.8363C106.135 72.6993 106.318 72.6735 106.453 72.7587C106.592 72.845 106.674 73.0356 106.699 73.3304C106.725 73.6222 106.677 74.0036 106.555 74.4746C106.537 74.5475 106.509 74.6429 106.471 74.7608C106.435 74.8757 106.397 74.9884 106.359 75.0992C106.321 75.2099 106.285 75.3062 106.253 75.3881C106.223 75.467 106.203 75.5085 106.195 75.5125L106.089 75.5636L105.982 75.3505C106.056 75.197 106.118 75.0326 106.169 74.8572C106.224 74.6798 106.268 74.4986 106.301 74.3137C106.337 74.1298 106.366 73.9485 106.387 73.7696C106.407 73.5907 106.424 73.4225 106.438 73.2651C106.437 73.1271 106.41 73.0382 106.355 72.9983C106.301 72.9554 106.234 72.9442 106.154 72.9648C106.079 72.9833 106.001 73.025 105.92 73.0898C105.84 73.1516 105.772 73.2161 105.718 73.2833C105.684 73.323 105.639 73.3765 105.585 73.4437C105.534 73.512 105.482 73.5803 105.431 73.6486C105.38 73.7169 105.335 73.7771 105.296 73.8291C105.257 73.8811 105.235 73.9112 105.228 73.9193C105.197 73.9704 105.148 74.0604 105.083 74.1892C105.021 74.3192 104.954 74.4578 104.882 74.6051C104.813 74.7535 104.748 74.8948 104.688 75.0289C104.629 75.1599 104.588 75.2525 104.566 75.3068C104.55 75.353 104.528 75.3748 104.502 75.3724C104.475 75.37 104.448 75.3573 104.422 75.3343C104.392 75.3102 104.36 75.2732 104.326 75.2233ZM105.812 78.4299C105.765 78.3685 105.736 78.2878 105.726 78.1877C105.715 78.0908 105.713 77.9904 105.722 77.8865C105.73 77.7826 105.744 77.6824 105.764 77.5858C105.787 77.4904 105.806 77.4144 105.823 77.358C105.902 77.0893 105.995 76.8078 106.1 76.5137C106.208 76.2237 106.337 75.9428 106.486 75.6708C106.637 75.3958 106.809 75.1423 107.004 74.9101C107.202 74.6759 107.43 74.4812 107.687 74.3261C107.822 74.2455 107.95 74.1746 108.071 74.1134C108.196 74.0502 108.321 73.9989 108.445 73.9593C108.572 73.9209 108.702 73.8953 108.834 73.8827C108.97 73.868 109.115 73.8705 109.27 73.8901C109.412 73.9084 109.507 73.9571 109.556 74.036C109.607 74.116 109.624 74.2151 109.607 74.3333C109.592 74.4484 109.547 74.5775 109.473 74.7207C109.4 74.8608 109.31 75.0017 109.202 75.1434C109.095 75.282 108.977 75.4133 108.848 75.5372C108.722 75.6622 108.596 75.7666 108.471 75.8503C108.345 75.9341 108.225 75.9922 108.11 76.0247C107.997 76.0541 107.901 76.043 107.822 75.9915C107.817 75.9657 107.849 75.9198 107.916 75.8537C107.984 75.7877 108.071 75.7075 108.176 75.6131C108.284 75.5199 108.401 75.4159 108.527 75.3012C108.657 75.1845 108.779 75.0631 108.891 74.9369C109.007 74.8118 109.106 74.6844 109.189 74.5547C109.275 74.4261 109.328 74.3033 109.348 74.1861C109.356 74.1337 109.339 74.0949 109.296 74.0696C109.253 74.0443 109.202 74.0282 109.142 74.0212C109.086 74.0153 109.029 74.013 108.974 74.0143C108.918 74.0156 108.883 74.0172 108.869 74.0191C108.6 74.0391 108.346 74.1161 108.106 74.2498C107.871 74.3816 107.652 74.5516 107.449 74.76C107.246 74.9653 107.063 75.1961 106.898 75.4524C106.736 75.7097 106.595 75.9689 106.473 76.2298C106.35 76.4939 106.249 76.75 106.17 76.9981C106.09 77.2493 106.035 77.47 106.007 77.6601C105.978 77.8533 105.973 78.0052 105.994 78.1156C106.013 78.2292 106.06 78.2818 106.135 78.2735C106.142 78.2726 106.159 78.2646 106.185 78.2495C106.214 78.2355 106.233 78.2249 106.242 78.2178C106.33 78.1037 106.415 77.9745 106.496 77.8304C106.577 77.6863 106.652 77.5334 106.722 77.3716C106.795 77.2109 106.863 77.0465 106.925 76.8785C106.987 76.7104 107.044 76.5459 107.096 76.3849C107.148 76.227 107.193 76.0757 107.233 75.9311C107.276 75.7875 107.313 75.6608 107.344 75.551C107.343 75.5263 107.349 75.4836 107.363 75.4231C107.38 75.3636 107.399 75.2995 107.419 75.2307C107.443 75.1631 107.467 75.0975 107.493 75.034C107.523 74.9685 107.551 74.9215 107.578 74.893C107.605 74.8646 107.629 74.8592 107.651 74.877C107.672 74.8948 107.689 74.9507 107.701 75.0445C107.693 75.0866 107.676 75.158 107.648 75.2585C107.623 75.3601 107.595 75.4694 107.565 75.5864C107.535 75.7003 107.507 75.8076 107.479 75.9081C107.451 76.0087 107.43 76.0789 107.416 76.1189C107.404 76.163 107.385 76.2235 107.358 76.3004C107.336 76.3753 107.309 76.4557 107.279 76.5418L107.095 77.0723C107.067 77.1522 107.042 77.2209 107.018 77.2782C106.997 77.3397 106.982 77.3792 106.972 77.3966C106.963 77.4242 106.936 77.4754 106.893 77.55C106.852 77.6287 106.808 77.7115 106.76 77.7984C106.712 77.8884 106.663 77.9732 106.615 78.0529C106.567 78.1326 106.532 78.1893 106.509 78.2229C106.469 78.2811 106.42 78.3381 106.362 78.394C106.305 78.4498 106.244 78.4923 106.178 78.5213C106.116 78.5513 106.053 78.5603 105.988 78.5481C105.926 78.54 105.867 78.5006 105.812 78.4299ZM109.084 76.8811C109.068 76.7306 109.079 76.5881 109.119 76.4537C109.162 76.3204 109.217 76.1878 109.283 76.0559C109.301 76.0139 109.331 75.952 109.373 75.8702C109.416 75.7883 109.463 75.6978 109.514 75.5986C109.566 75.4994 109.621 75.3946 109.68 75.2842C109.739 75.1738 109.795 75.069 109.846 74.9698C109.898 74.8706 109.944 74.7831 109.984 74.7075C110.028 74.6298 110.06 74.5721 110.08 74.5342C110.15 74.4136 110.214 74.3136 110.273 74.234C110.335 74.1525 110.4 74.0957 110.466 74.0636C110.535 74.0326 110.611 74.0295 110.692 74.0543C110.776 74.0801 110.875 74.1371 110.989 74.2251C111.003 74.2335 111.016 74.2517 111.027 74.2797C111.039 74.3045 111.045 74.3221 111.045 74.3324C111.037 74.3745 111.026 74.4398 111.013 74.5282C111.003 74.6176 110.989 74.7199 110.974 74.835C110.959 74.9471 110.942 75.0653 110.923 75.1896C110.908 75.312 110.892 75.4307 110.877 75.5458C110.862 75.6579 110.848 75.7581 110.834 75.8465C110.824 75.9359 110.816 76.0022 110.812 76.0454C110.782 76.2798 110.786 76.4518 110.824 76.5615C110.862 76.6681 110.92 76.7363 110.995 76.7662C111.071 76.796 111.158 76.7987 111.256 76.7743C111.358 76.7479 111.46 76.7193 111.56 76.6888C111.661 76.6551 111.755 76.6291 111.84 76.6107C111.926 76.5922 111.99 76.606 112.033 76.6519C112.012 76.7103 111.979 76.7623 111.932 76.8081C111.885 76.8538 111.833 76.8943 111.776 76.9295C111.723 76.9628 111.667 76.9914 111.607 77.0153C111.547 77.0392 111.492 77.0581 111.442 77.0718C111.231 77.1256 111.065 77.1352 110.946 77.1007C110.831 77.0672 110.743 77.0074 110.683 76.9211C110.624 76.8348 110.587 76.7324 110.573 76.6138C110.559 76.4951 110.55 76.3766 110.546 76.2581C110.546 76.1407 110.541 76.0356 110.532 75.9428C110.527 75.848 110.504 75.7813 110.462 75.7426C110.439 75.7794 110.395 75.8416 110.33 75.9293C110.268 76.0181 110.201 76.1119 110.129 76.2108C110.056 76.3098 109.988 76.4031 109.923 76.4908C109.858 76.5784 109.812 76.6401 109.786 76.6758C109.775 76.6891 109.751 76.7135 109.714 76.749C109.681 76.7856 109.64 76.8247 109.591 76.8663C109.543 76.9048 109.491 76.9417 109.434 76.9769C109.381 77.0102 109.33 77.0322 109.282 77.0429C109.232 77.0566 109.189 77.0519 109.152 77.0288C109.115 77.0056 109.093 76.9564 109.084 76.8811ZM109.797 75.604C109.778 75.6387 109.75 75.7048 109.712 75.8021C109.678 75.9005 109.642 76.005 109.603 76.1158C109.565 76.2265 109.529 76.331 109.495 76.4294C109.463 76.5289 109.444 76.5997 109.436 76.6418C109.6 76.5163 109.763 76.3609 109.924 76.1756C110.086 75.9873 110.228 75.7853 110.351 75.5697C110.479 75.352 110.577 75.1278 110.647 74.8971C110.718 74.6632 110.744 74.4381 110.727 74.2216C110.641 74.2987 110.55 74.4015 110.454 74.53C110.358 74.6584 110.267 74.7921 110.18 74.931C110.095 75.0668 110.017 75.1966 109.947 75.3202C109.881 75.4419 109.831 75.5365 109.797 75.604ZM111.441 77.5213C111.439 77.5069 111.44 77.4811 111.442 77.4441C111.446 77.404 111.451 77.3608 111.456 77.3145C111.462 77.2683 111.469 77.2241 111.477 77.1819C111.484 77.1398 111.491 77.1095 111.498 77.0911L112.276 74.8494C112.287 74.8186 112.308 74.8019 112.34 74.7993C112.372 74.7966 112.405 74.8012 112.439 74.813C112.477 74.8227 112.509 74.834 112.536 74.8467C112.565 74.8605 112.582 74.8679 112.585 74.869L111.723 77.3505C111.705 77.4028 111.707 77.4517 111.729 77.4973C111.751 77.543 111.781 77.5846 111.82 77.6221C111.86 77.6567 111.903 77.6856 111.95 77.7088C111.998 77.7291 112.041 77.7404 112.078 77.743C112.098 77.8226 112.079 77.8743 112.019 77.8982C111.963 77.9201 111.892 77.9197 111.807 77.8969C111.726 77.8722 111.647 77.8273 111.57 77.7624C111.496 77.6956 111.454 77.6152 111.441 77.5213ZM112.477 74.0195C112.508 73.9303 112.563 73.8858 112.642 73.8858C112.722 73.8827 112.793 73.911 112.855 73.9705L112.771 74.215C112.76 74.2148 112.742 74.212 112.717 74.2065C112.695 74.199 112.671 74.1905 112.643 74.1808C112.618 74.1723 112.594 74.1637 112.569 74.1551C112.549 74.1446 112.534 74.1361 112.526 74.1298C112.515 74.1225 112.502 74.1043 112.488 74.0753C112.477 74.0473 112.473 74.0287 112.477 74.0195ZM112.522 79.6921C112.46 79.5636 112.451 79.4276 112.494 79.284C112.539 79.1445 112.615 79.0024 112.724 78.8576C112.832 78.7159 112.961 78.5766 113.112 78.4396C113.263 78.3026 113.415 78.1728 113.568 78.0503C113.722 77.9246 113.863 77.8102 113.992 77.7069C114.125 77.6015 114.227 77.5128 114.297 77.4406C114.335 77.3989 114.364 77.3313 114.383 77.2379C114.406 77.1424 114.421 77.0443 114.428 76.9434C114.44 76.8406 114.445 76.7459 114.444 76.6594C114.446 76.574 114.446 76.5204 114.443 76.4988L114.336 76.5545L112.926 77.7698C112.918 77.7738 112.901 77.7798 112.874 77.7876C112.85 77.7966 112.823 77.8045 112.793 77.8113C112.763 77.8181 112.732 77.8244 112.699 77.8301C112.669 77.8369 112.647 77.8412 112.632 77.8431C112.52 77.8488 112.448 77.8185 112.416 77.7522C112.387 77.6869 112.389 77.5999 112.424 77.4912C112.462 77.3805 112.525 77.2542 112.612 77.1122C112.703 76.9682 112.811 76.8214 112.936 76.6717C113.063 76.523 113.202 76.3766 113.352 76.2324C113.502 76.0882 113.655 75.9605 113.81 75.8493C113.97 75.7361 114.126 75.6455 114.277 75.5775C114.431 75.5105 114.573 75.479 114.703 75.4828C114.755 75.5216 114.775 75.5563 114.765 75.5871C114.758 75.6158 114.732 75.6428 114.685 75.6679C114.643 75.691 114.587 75.7129 114.517 75.7336C114.451 75.7554 114.382 75.7761 114.31 75.7957C114.242 75.8133 114.177 75.8305 114.116 75.8472C114.058 75.8649 114.017 75.8834 113.994 75.9027C113.863 76.04 113.733 76.1669 113.603 76.2836C113.473 76.4003 113.35 76.5197 113.235 76.6417C113.124 76.7648 113.024 76.8973 112.937 77.0393C112.851 77.1782 112.786 77.3401 112.743 77.5248L112.85 77.4691C113.011 77.3734 113.168 77.254 113.321 77.1109C113.474 76.9677 113.619 76.8219 113.757 76.6734C113.896 76.5218 114.025 76.3773 114.145 76.2399C114.266 76.0994 114.373 75.985 114.466 75.8967C114.559 75.8083 114.638 75.7548 114.703 75.7361C114.768 75.7174 114.812 75.7535 114.836 75.8445C114.862 75.9365 114.868 76.0936 114.853 76.3158C114.838 76.538 114.797 76.8428 114.732 77.2302C114.751 77.2232 114.788 77.2119 114.842 77.1961C114.9 77.1784 114.959 77.1611 115.02 77.1445C115.084 77.1288 115.144 77.1152 115.199 77.1036C115.256 77.0889 115.295 77.0802 115.317 77.0774C115.335 77.0766 115.363 77.0831 115.403 77.0971C115.443 77.111 115.468 77.1232 115.479 77.1336C115.447 77.1847 115.389 77.2369 115.305 77.2904C115.225 77.3418 115.14 77.3881 115.05 77.4291C114.963 77.4712 114.884 77.5072 114.811 77.5371C114.74 77.5639 114.702 77.5784 114.698 77.5804C114.687 77.6111 114.67 77.6567 114.645 77.7171C114.624 77.7786 114.596 77.8483 114.562 77.9261C114.531 78.005 114.498 78.0864 114.462 78.1704C114.426 78.2543 114.391 78.3352 114.357 78.413C114.323 78.4908 114.292 78.5594 114.265 78.6188L114.203 78.7523C114.183 78.7902 114.135 78.8544 114.059 78.945C113.984 79.0398 113.895 79.1431 113.791 79.255C113.686 79.3669 113.573 79.4755 113.45 79.581C113.327 79.6864 113.208 79.7672 113.092 79.8233C112.975 79.8825 112.865 79.9063 112.762 79.8946C112.662 79.884 112.583 79.8165 112.522 79.6921ZM113.044 78.9793C113.032 79.0028 113.015 79.0433 112.991 79.1006C112.97 79.1621 112.948 79.2267 112.924 79.2944C112.901 79.362 112.878 79.4266 112.857 79.4881C112.839 79.5507 112.827 79.5932 112.823 79.6158C113.009 79.605 113.184 79.5383 113.347 79.4159C113.51 79.2935 113.654 79.1435 113.777 78.966C113.9 78.7915 114.001 78.6044 114.081 78.4047C114.164 78.206 114.216 78.026 114.237 77.8646C114.123 77.9073 114.006 77.9701 113.888 78.053C113.77 78.1328 113.658 78.2245 113.549 78.3281C113.442 78.4286 113.344 78.5359 113.256 78.6501C113.169 78.7642 113.098 78.874 113.044 78.9793ZM114.959 78.9277C114.976 78.8888 115.001 78.8202 115.035 78.7218L115.253 78.0945C115.288 77.9961 115.31 77.9263 115.321 77.8853C115.324 77.8658 115.332 77.8237 115.344 77.7589C115.359 77.6953 115.375 77.6198 115.392 77.5325C115.411 77.4463 115.431 77.3549 115.451 77.2583C115.47 77.1618 115.489 77.0699 115.505 76.9826C115.522 76.8953 115.536 76.8193 115.548 76.7545C115.563 76.6909 115.573 76.6478 115.578 76.6252C115.586 76.58 115.599 76.5343 115.615 76.4882C115.634 76.4432 115.657 76.4064 115.684 76.3779C115.711 76.3495 115.744 76.335 115.782 76.3344C115.821 76.3308 115.869 76.3511 115.926 76.3951C115.907 76.4607 115.885 76.5392 115.86 76.6305C115.839 76.7198 115.819 76.8143 115.798 76.9139C115.777 77.0135 115.76 77.1127 115.746 77.2113C115.733 77.31 115.726 77.4026 115.727 77.4891C115.807 77.3893 115.88 77.3027 115.947 77.2295C116.018 77.1542 116.09 77.0883 116.165 77.0316C116.24 76.9749 116.319 76.925 116.403 76.8819C116.488 76.8356 116.586 76.7921 116.697 76.7514C116.835 76.6997 116.937 76.6954 117.001 76.7385C117.069 76.7796 117.111 76.8527 117.126 76.958C117.146 77.0612 117.147 77.1874 117.129 77.3364C117.112 77.4855 117.088 77.6428 117.059 77.8082C117.03 77.9705 117.001 78.1313 116.974 78.2905C116.95 78.4477 116.939 78.5887 116.941 78.7133C116.943 78.8349 116.965 78.9319 117.005 79.0046C117.049 79.0752 117.126 79.1035 117.234 79.0895C117.233 79.1822 117.214 79.2447 117.179 79.2772C117.148 79.3077 117.106 79.3174 117.055 79.3064C117.008 79.2935 116.957 79.2619 116.902 79.2117C116.848 79.1585 116.797 79.096 116.75 79.0243C116.707 78.9506 116.673 78.8698 116.648 78.782C116.623 78.6941 116.616 78.607 116.625 78.5206C116.632 78.461 116.653 78.3665 116.687 78.2372C116.722 78.108 116.755 77.9678 116.787 77.8169C116.818 77.6659 116.838 77.5143 116.846 77.362C116.859 77.2077 116.844 77.0767 116.802 76.9691L116.37 77.1703C116.357 77.1794 116.315 77.2267 116.244 77.3122C116.176 77.3988 116.098 77.4992 116.01 77.6134C115.923 77.7245 115.837 77.8392 115.751 77.9575C115.666 78.0727 115.6 78.1671 115.554 78.2406C115.538 78.2661 115.512 78.3157 115.477 78.3894C115.442 78.46 115.405 78.5367 115.366 78.6196C115.326 78.7025 115.29 78.7813 115.258 78.856C115.229 78.9288 115.209 78.9805 115.199 79.0113C115.152 79.057 115.102 79.0707 115.05 79.0525C114.998 79.0343 114.967 78.9927 114.959 78.9277Z" fill="white"/>
<path d="M114.747 103.961L65.3488 85.4826C64.6362 85.2161 63.7979 85.699 63.4764 86.5612L48.5819 126.503C48.2604 127.366 48.5774 128.281 49.2899 128.547L98.6883 147.026C99.4008 147.292 100.239 146.809 100.561 145.947L115.455 106.005C115.777 105.143 115.46 104.228 114.747 103.961Z" fill="#282828"/>
<path d="M94.1786 119.732C93.3102 122.062 91.7713 124.082 89.7565 125.537C87.7418 126.991 85.3416 127.814 82.8597 127.902C80.3777 127.99 77.9254 127.339 75.8129 126.031C73.7005 124.723 72.0228 122.817 70.992 120.554C69.9612 118.291 69.6236 115.773 70.022 113.317C70.4203 110.862 71.5367 108.58 73.2299 106.761C74.9232 104.941 77.1172 103.665 79.5344 103.095C81.9517 102.524 84.4837 102.684 86.8101 103.555C88.3547 104.132 89.7706 105.008 90.9769 106.134C92.1831 107.259 93.1562 108.612 93.8405 110.114C94.5248 111.616 94.9068 113.239 94.9648 114.889C95.0228 116.539 94.7556 118.185 94.1786 119.732V119.732Z" fill="black"/>
<path d="M64.6977 74.2135L58.803 70.714C58.803 70.714 55.8877 69.2165 52.6403 73.7787C49.3928 78.3409 53.8514 84.7012 53.8514 84.7012L54.5266 82.8226L57.206 84.8407C58.5004 85.8175 60.1122 86.2753 61.7258 86.1244C63.3395 85.9735 64.8388 85.2248 65.9303 84.0249V84.0249C66.5592 83.3286 67.0305 82.5045 67.3121 81.6089C67.5937 80.7134 67.6789 79.7675 67.5619 78.8359C67.4449 77.9043 67.1284 77.009 66.6341 76.2113C66.1397 75.4135 65.4792 74.732 64.6977 74.2135V74.2135Z" fill="#E8A987"/>
<path d="M59.6496 97.0728L51.0754 91.4693C51.0754 91.4693 48.1601 89.9719 44.9127 94.534C41.6652 99.0962 46.113 105.456 46.113 105.456L46.7883 103.578L52.1471 107.7C53.4465 108.681 55.0654 109.139 56.685 108.984C58.3047 108.829 59.8077 108.072 60.8982 106.863C61.5242 106.166 61.9928 105.343 62.272 104.449C62.5512 103.554 62.6344 102.61 62.5158 101.681C62.3973 100.751 62.0798 99.8586 61.5852 99.0633C61.0905 98.268 60.4303 97.5891 59.6496 97.0728V97.0728Z" fill="#E8A987"/>
<path d="M49.3552 115.214L40.1165 111.903C40.1165 111.903 36.5689 111.146 35.2935 116.164C35.2935 116.164 33.6858 119.422 38.8732 125.197L39.9182 122.267L46.0488 124.462C46.6671 124.684 47.3235 124.779 47.9792 124.741C48.6349 124.704 49.2764 124.535 49.8657 124.245C50.455 123.955 50.98 123.549 51.4097 123.051C51.8393 122.554 52.1648 121.975 52.3669 121.349V121.349C52.7604 120.135 52.6659 118.815 52.1036 117.67C51.5413 116.524 50.5554 115.643 49.3552 115.214Z" fill="#E8A987"/>
<path d="M78.7227 118.256C78.7615 118.387 78.8021 118.523 78.8394 118.658C78.8499 118.691 78.8589 118.728 78.8694 118.761L78.8836 118.815C78.8854 118.82 78.8887 118.822 78.8905 118.827C78.8973 118.839 78.9026 118.856 78.9061 118.867C78.9148 118.894 78.9236 118.922 78.9324 118.949L78.9431 118.992L78.9501 119.014L78.9537 119.025L78.9554 119.03L78.9539 119.035C78.9539 119.035 78.9539 119.035 78.9554 119.03C79.0138 118.984 79.0721 118.937 79.1338 118.891C79.4371 118.657 79.7488 118.431 80.0538 118.202C80.6657 117.75 81.268 117.314 81.8226 116.885C83.6906 115.42 85.8384 114.115 87.8892 113.148C87.9038 113.221 87.7578 113.416 87.9348 113.373C88.0232 113.347 88.0985 113.326 88.1674 113.313C88.2363 113.299 88.2921 113.29 88.3431 113.284C88.4449 113.273 88.5142 113.279 88.564 113.297C88.6617 113.328 88.6748 113.405 88.6879 113.483C88.7009 113.56 88.1836 113.712 88.3647 113.71C88.239 113.766 88.0922 113.839 87.9536 113.909C87.8151 113.98 87.6798 114.052 87.5789 114.113C87.3756 114.238 87.2979 114.307 87.5563 114.216C87.7372 114.204 88.3865 113.815 88.5783 113.856C88.7635 113.894 88.4542 114.155 88.6394 114.193C88.7209 114.155 88.8466 114.099 88.9707 114.047C89.0949 113.995 89.219 113.943 89.3006 113.905C89.4785 113.912 89.1731 114.203 89.338 114.132C89.8427 114.005 90.4922 113.708 91.1533 113.502C91.1574 113.543 91.2008 113.568 91.2031 113.603C91.205 113.618 91.1939 113.638 91.1664 113.662C91.1356 113.685 91.0868 113.716 91.0052 113.754C90.876 113.799 90.7468 113.845 90.6176 113.89C90.4868 113.939 90.3594 113.99 90.2302 114.035C90.101 114.08 89.972 114.135 89.843 114.19C89.714 114.245 89.5833 114.295 89.4543 114.349C88.9367 114.574 88.4228 114.818 87.9043 115.076C87.3859 115.344 86.8727 115.618 86.3598 115.912C85.8502 116.207 85.3424 116.507 84.8349 116.827C84.3291 117.143 83.8252 117.474 83.3263 117.812C82.8275 118.15 82.3288 118.497 81.8352 118.851C81.3417 119.206 80.8516 119.571 80.3633 119.942L79.9983 120.221L79.8184 120.364L79.661 120.487L79.4762 120.633L79.2914 120.779L79.105 120.93L78.9186 121.08L78.7307 121.235C78.4812 121.445 78.2334 121.651 77.9855 121.857C77.786 121.013 77.5849 120.172 77.3838 119.332C77.276 118.875 77.1697 118.414 77.0652 117.958C76.8546 117.051 76.6471 116.135 76.4429 115.221C76.2943 114.453 76.5577 114.947 76.7902 115.464C76.7128 115.295 76.8105 115.243 76.7346 115.07C76.8324 115.018 77.082 115.313 77.2924 116.045C77.2476 115.859 77.2043 115.668 77.1594 115.482C77.1472 115.279 77.2572 115.43 77.3208 115.4C77.3657 115.586 77.409 115.777 77.4416 115.76C77.4742 115.743 77.5393 115.708 77.5719 115.691C77.5271 115.504 77.4389 115.128 77.3908 114.94C77.4356 115.126 77.4789 115.317 77.5115 115.3C77.5441 115.282 77.6093 115.248 77.6419 115.231C77.7626 115.59 77.8337 116.189 77.9545 116.549L78.0523 116.497C77.9967 116.103 77.8278 115.556 77.7396 115.179C77.8155 115.352 77.8481 115.335 77.9133 115.3C78.0789 115.846 78.1174 116.462 78.3482 116.974L78.2152 116.411C78.4581 116.703 78.5538 117.709 78.7227 118.256Z" fill="white"/>
</g>
<defs>
<clipPath id="clip0">
<rect width="183" height="264" fill="white"/>
</clipPath>
</defs>
</svg>
