<?xml version="1.0" encoding="iso-8859-1"?>
<!-- Generator: Adobe Illustrator 19.0.0, SVG Export Plug-In . SVG Version: 6.00 Build 0)  -->
<svg version="1.1" id="Capa_1" xmlns="http://www.w3.org/2000/svg" xmlns:xlink="http://www.w3.org/1999/xlink" x="0px" y="0px"
	 viewBox="0 0 511.999 511.999" style="enable-background:new 0 0 511.999 511.999;" xml:space="preserve">
<g>
	<g>
		<path d="M496.989,42.001h-27.99V15.012c0-13.349-15.668-20.023-25.054-10.605L380.311,68.04
			c-2.813,2.813-4.195,6.621-4.195,10.605v36.227l-9.836,9.65c-59.19,59.19-99.564,99.564-155.059,155.059
			c-5.859,5.859-5.859,15.352,0,21.212c5.86,5.86,15.351,5.86,21.212,0c16.714-16.714,141.768-141.782,158.484-158.497l6.211-6.411
			h36.212c3.984,0,7.793-1.382,10.605-4.195l63.649-63.649C517.004,58.631,510.349,42.001,496.989,42.001z"/>
	</g>
</g>
<g>
	<g>
		<path d="M298.866,276.783l-42.145,42.145c-1.472,1.472-3.175,2.569-4.99,3.301c-20.644,15.696-44.081,11.267-58.66-3.287
			l-0.015-0.015c-17.521-17.563-17.521-46.1,0.015-63.635c0.118-0.116,0.288-0.147,0.407-0.263c0.108-0.115,0.141-0.269,0.253-0.381
			l41.509-41.509c-25.453-3.512-47.611,5.159-63.38,20.928c-29.239,29.239-29.239,76.833,0,106.072
			c29.225,29.225,76.818,29.254,106.072,0C295.174,322.888,301.967,299.272,298.866,276.783z"/>
	</g>
</g>
<g>
	<g>
		<path d="M346.315,229.333l-22.801,22.801c13.021,36.954,5.127,79.708-24.371,109.216c-40.945,40.945-107.565,40.93-148.495,0
			c-40.943-40.943-40.943-107.552,0-148.495c29.505-29.494,72.283-37.398,109.244-24.369l22.792-22.791
			c-55.585-26.373-115.265-12.032-153.247,25.949c-52.681,52.65-52.685,138.264,0,190.919c52.651,52.681,138.264,52.686,190.919,0
			C361.776,341.141,370.087,279.468,346.315,229.333z"/>
	</g>
</g>
<g>
	<g>
		<path d="M412.617,163.032l-44.193,44.192c34.853,62.761,26.374,143.319-26.857,196.55c-64.376,64.406-168.955,64.417-233.342,0
			c-64.407-64.377-64.417-168.955,0-233.342c53.247-53.247,133.81-61.707,196.568-26.846l44.192-44.192
			c-86.124-57.123-205.332-49.25-283.197,28.615c-87.718,87.718-87.718,230.471,0,318.202
			c43.873,43.858,101.487,65.788,159.102,65.788c57.629,0,115.242-21.93,159.102-65.788
			C461.689,368.514,469.861,249.352,412.617,163.032z"/>
	</g>
</g>
<g>
</g>
<g>
</g>
<g>
</g>
<g>
</g>
<g>
</g>
<g>
</g>
<g>
</g>
<g>
</g>
<g>
</g>
<g>
</g>
<g>
</g>
<g>
</g>
<g>
</g>
<g>
</g>
<g>
</g>
</svg>
